M48
; DRILL file {KiCad (6.0.6)} date Sat Jan 28 17:15:24 2023
; FORMAT={-:-/ absolute / metric / decimal}
; #@! TF.CreationDate,2023-01-28T17:15:24-04:00
; #@! TF.GenerationSoftware,Kicad,Pcbnew,(6.0.6)
; #@! TF.FileFunction,Plated,1,4,PTH
FMAT,2
METRIC
; #@! TA.AperFunction,Plated,PTH,ViaDrill
T1C0.300
; #@! TA.AperFunction,Plated,PTH,ComponentDrill
T2C0.900
; #@! TA.AperFunction,Plated,PTH,ComponentDrill
T3C1.000
; #@! TA.AperFunction,Plated,PTH,ComponentDrill
T4C1.300
; #@! TA.AperFunction,Plated,PTH,ComponentDrill
T5C1.500
; #@! TA.AperFunction,Plated,PTH,ComponentDrill
T6C1.700
%
G90
G05
T1
X85.8Y-120.3
X88.5Y-110.7
X89.7Y-121.7
X90.0Y-113.7
X90.3Y-92.6
X90.8Y-120.8
X91.1Y-83.65
X91.1Y-84.7
X91.5Y-110.6
X91.7Y-92.6
X92.0Y-83.0
X93.4Y-119.2
X94.0Y-84.7
X94.0Y-85.5
X94.0Y-86.3
X95.9Y-88.1
X96.15Y-89.1
X96.6Y-90.9
X97.0Y-109.4
X97.3Y-90.1
X97.6Y-118.5
X98.4Y-105.0
X101.0Y-89.4
X101.1Y-104.9
X101.2Y-90.5
X102.4Y-95.4
X103.7Y-82.6
X105.6Y-95.0
X108.4Y-106.7
X109.0Y-121.4
X110.6Y-106.7
X110.8Y-91.7
X111.3Y-92.9
X111.9Y-91.7
X112.5Y-121.4
X115.2Y-96.4
X117.3Y-95.7
X117.4Y-83.2
X117.6Y-106.4
X119.3Y-96.1
X119.4Y-87.6
X120.8Y-80.0
X121.1Y-87.1
X121.6Y-121.4
X121.8Y-87.8
X122.4Y-83.4
X122.9Y-82.4
X124.0Y-75.7
X124.1Y-79.1
X124.1Y-79.9
X124.1Y-80.7
X124.4Y-106.4
X127.2Y-88.2
X127.3Y-92.5
X128.4Y-77.1
X128.7Y-98.0
X129.0Y-121.4
X131.2Y-106.4
X133.1Y-82.5
X134.0Y-70.1
X134.5Y-80.8
X135.3Y-70.2
X136.6Y-77.2
X137.2Y-121.4
X137.6Y-96.0
X138.0Y-70.4
X138.0Y-106.4
X138.2Y-94.9
X138.9Y-95.6
X140.2Y-82.7
X141.5Y-109.4
X142.0Y-105.0
X143.0Y-70.1
X143.0Y-71.3
X143.3Y-120.4
X144.2Y-83.4
X145.4Y-70.2
X145.4Y-72.9
X147.6Y-84.2
X150.8Y-70.2
X151.9Y-113.0
X152.0Y-86.6
X152.1Y-97.8
X152.1Y-103.3
X152.3Y-100.5
X152.5Y-105.8
X152.8Y-90.8
X153.0Y-71.2
X153.0Y-72.6
X153.1Y-113.6
X153.3Y-106.6
X153.4Y-80.7
X153.6Y-85.7
X153.6Y-91.6
X154.2Y-109.3
X154.3Y-82.8
X154.7Y-87.6
X155.6Y-90.1
X155.7Y-71.4
X155.7Y-94.5
X155.7Y-96.3
X156.5Y-84.6
X157.0Y-89.4
X157.2Y-120.8
X158.0Y-89.7
X158.2Y-71.2
X158.4Y-93.1
X158.5Y-116.4
X158.8Y-88.8
X159.0Y-100.8
X160.4Y-101.8
X161.6Y-77.8
X161.8Y-83.2
X162.7Y-116.8
X164.7Y-94.488
X164.7Y-96.1
X164.7Y-100.7
X164.8Y-86.0
X164.9Y-87.4
X164.9Y-102.45
X165.7Y-96.6
X166.2Y-107.6
X166.3Y-100.55
X167.1Y-103.4
X168.2Y-97.8
T2
X97.19Y-107.45
X97.19Y-112.53
X97.19Y-120.15
X104.81Y-107.45
X104.81Y-120.15
X141.39Y-107.45
X141.39Y-112.53
X141.39Y-120.15
X149.01Y-107.45
X149.01Y-120.15
T3
X136.652Y-68.0
X139.192Y-68.0
X141.732Y-68.0
X144.272Y-68.0
X146.812Y-68.0
X149.352Y-68.0
X151.892Y-68.0
X154.432Y-68.0
X156.972Y-68.0
X159.512Y-68.0
T4
X103.39Y-70.7
X103.39Y-75.7
X111.01Y-70.7
X111.01Y-75.7
X132.3Y-86.0
X134.8Y-96.0
X137.3Y-86.0
T5
X83.4Y-107.6
X147.066Y-90.805
X169.8Y-90.17
T6
X80.86Y-105.06
X80.86Y-110.14
X85.94Y-105.06
X85.94Y-110.14
X144.526Y-88.265
X144.526Y-93.345
X149.606Y-88.265
X149.606Y-93.345
X167.26Y-87.63
X167.26Y-92.71
X172.34Y-87.63
X172.34Y-92.71
T0
M30
