%TF.GenerationSoftware,KiCad,Pcbnew,(6.0.6)*%
%TF.CreationDate,2023-01-28T17:13:45-04:00*%
%TF.ProjectId,DDS_FunctionGenerator,4444535f-4675-46e6-9374-696f6e47656e,rev?*%
%TF.SameCoordinates,Original*%
%TF.FileFunction,Legend,Bot*%
%TF.FilePolarity,Positive*%
%FSLAX46Y46*%
G04 Gerber Fmt 4.6, Leading zero omitted, Abs format (unit mm)*
G04 Created by KiCad (PCBNEW (6.0.6)) date 2023-01-28 17:13:45*
%MOMM*%
%LPD*%
G01*
G04 APERTURE LIST*
G04 Aperture macros list*
%AMRoundRect*
0 Rectangle with rounded corners*
0 $1 Rounding radius*
0 $2 $3 $4 $5 $6 $7 $8 $9 X,Y pos of 4 corners*
0 Add a 4 corners polygon primitive as box body*
4,1,4,$2,$3,$4,$5,$6,$7,$8,$9,$2,$3,0*
0 Add four circle primitives for the rounded corners*
1,1,$1+$1,$2,$3*
1,1,$1+$1,$4,$5*
1,1,$1+$1,$6,$7*
1,1,$1+$1,$8,$9*
0 Add four rect primitives between the rounded corners*
20,1,$1+$1,$2,$3,$4,$5,0*
20,1,$1+$1,$4,$5,$6,$7,0*
20,1,$1+$1,$6,$7,$8,$9,0*
20,1,$1+$1,$8,$9,$2,$3,0*%
G04 Aperture macros list end*
%ADD10C,0.150000*%
%ADD11C,1.600000*%
%ADD12C,2.400000*%
%ADD13C,2.700000*%
%ADD14C,3.960800*%
%ADD15C,2.100000*%
%ADD16RoundRect,0.050000X1.000000X1.000000X-1.000000X1.000000X-1.000000X-1.000000X1.000000X-1.000000X0*%
%ADD17RoundRect,0.050000X-0.850000X0.850000X-0.850000X-0.850000X0.850000X-0.850000X0.850000X0.850000X0*%
%ADD18O,1.800000X1.800000*%
G04 APERTURE END LIST*
D10*
X89564285Y-68447380D02*
X89897619Y-67971190D01*
X90135714Y-68447380D02*
X90135714Y-67447380D01*
X89754761Y-67447380D01*
X89659523Y-67495000D01*
X89611904Y-67542619D01*
X89564285Y-67637857D01*
X89564285Y-67780714D01*
X89611904Y-67875952D01*
X89659523Y-67923571D01*
X89754761Y-67971190D01*
X90135714Y-67971190D01*
X89135714Y-67923571D02*
X88802380Y-67923571D01*
X88659523Y-68447380D02*
X89135714Y-68447380D01*
X89135714Y-67447380D01*
X88659523Y-67447380D01*
X88373809Y-67447380D02*
X88040476Y-68447380D01*
X87707142Y-67447380D01*
X87373809Y-68352142D02*
X87326190Y-68399761D01*
X87373809Y-68447380D01*
X87421428Y-68399761D01*
X87373809Y-68352142D01*
X87373809Y-68447380D01*
X86135714Y-68447380D02*
X86135714Y-67447380D01*
X85564285Y-68447380D01*
X85564285Y-67447380D01*
X84516666Y-68352142D02*
X84564285Y-68399761D01*
X84707142Y-68447380D01*
X84802380Y-68447380D01*
X84945238Y-68399761D01*
X85040476Y-68304523D01*
X85088095Y-68209285D01*
X85135714Y-68018809D01*
X85135714Y-67875952D01*
X85088095Y-67685476D01*
X85040476Y-67590238D01*
X84945238Y-67495000D01*
X84802380Y-67447380D01*
X84707142Y-67447380D01*
X84564285Y-67495000D01*
X84516666Y-67542619D01*
X91778571Y-69057380D02*
X91778571Y-69771666D01*
X91826190Y-69914523D01*
X91921428Y-70009761D01*
X92064285Y-70057380D01*
X92159523Y-70057380D01*
X91350000Y-69771666D02*
X90873809Y-69771666D01*
X91445238Y-70057380D02*
X91111904Y-69057380D01*
X90778571Y-70057380D01*
X90445238Y-70057380D02*
X90445238Y-69057380D01*
X89873809Y-70057380D01*
X89873809Y-69057380D01*
X88683333Y-69152619D02*
X88635714Y-69105000D01*
X88540476Y-69057380D01*
X88302380Y-69057380D01*
X88207142Y-69105000D01*
X88159523Y-69152619D01*
X88111904Y-69247857D01*
X88111904Y-69343095D01*
X88159523Y-69485952D01*
X88730952Y-70057380D01*
X88111904Y-70057380D01*
X87540476Y-69485952D02*
X87635714Y-69438333D01*
X87683333Y-69390714D01*
X87730952Y-69295476D01*
X87730952Y-69247857D01*
X87683333Y-69152619D01*
X87635714Y-69105000D01*
X87540476Y-69057380D01*
X87350000Y-69057380D01*
X87254761Y-69105000D01*
X87207142Y-69152619D01*
X87159523Y-69247857D01*
X87159523Y-69295476D01*
X87207142Y-69390714D01*
X87254761Y-69438333D01*
X87350000Y-69485952D01*
X87540476Y-69485952D01*
X87635714Y-69533571D01*
X87683333Y-69581190D01*
X87730952Y-69676428D01*
X87730952Y-69866904D01*
X87683333Y-69962142D01*
X87635714Y-70009761D01*
X87540476Y-70057380D01*
X87350000Y-70057380D01*
X87254761Y-70009761D01*
X87207142Y-69962142D01*
X87159523Y-69866904D01*
X87159523Y-69676428D01*
X87207142Y-69581190D01*
X87254761Y-69533571D01*
X87350000Y-69485952D01*
X86016666Y-69152619D02*
X85969047Y-69105000D01*
X85873809Y-69057380D01*
X85635714Y-69057380D01*
X85540476Y-69105000D01*
X85492857Y-69152619D01*
X85445238Y-69247857D01*
X85445238Y-69343095D01*
X85492857Y-69485952D01*
X86064285Y-70057380D01*
X85445238Y-70057380D01*
X84826190Y-69057380D02*
X84730952Y-69057380D01*
X84635714Y-69105000D01*
X84588095Y-69152619D01*
X84540476Y-69247857D01*
X84492857Y-69438333D01*
X84492857Y-69676428D01*
X84540476Y-69866904D01*
X84588095Y-69962142D01*
X84635714Y-70009761D01*
X84730952Y-70057380D01*
X84826190Y-70057380D01*
X84921428Y-70009761D01*
X84969047Y-69962142D01*
X85016666Y-69866904D01*
X85064285Y-69676428D01*
X85064285Y-69438333D01*
X85016666Y-69247857D01*
X84969047Y-69152619D01*
X84921428Y-69105000D01*
X84826190Y-69057380D01*
X84111904Y-69152619D02*
X84064285Y-69105000D01*
X83969047Y-69057380D01*
X83730952Y-69057380D01*
X83635714Y-69105000D01*
X83588095Y-69152619D01*
X83540476Y-69247857D01*
X83540476Y-69343095D01*
X83588095Y-69485952D01*
X84159523Y-70057380D01*
X83540476Y-70057380D01*
X83207142Y-69057380D02*
X82588095Y-69057380D01*
X82921428Y-69438333D01*
X82778571Y-69438333D01*
X82683333Y-69485952D01*
X82635714Y-69533571D01*
X82588095Y-69628809D01*
X82588095Y-69866904D01*
X82635714Y-69962142D01*
X82683333Y-70009761D01*
X82778571Y-70057380D01*
X83064285Y-70057380D01*
X83159523Y-70009761D01*
X83207142Y-69962142D01*
%LPC*%
D11*
%TO.C,K2*%
X104810000Y-107450000D03*
X104810000Y-120150000D03*
X97190000Y-120150000D03*
X97190000Y-112530000D03*
X97190000Y-107450000D03*
%TD*%
D12*
%TO.C,J3*%
X169800000Y-90170000D03*
D13*
X172340000Y-92710000D03*
X167260000Y-87630000D03*
X172340000Y-87630000D03*
X167260000Y-92710000D03*
%TD*%
D14*
%TO.C,H2*%
X171500000Y-69500000D03*
%TD*%
D12*
%TO.C,J5*%
X83400000Y-107600000D03*
D13*
X80860000Y-105060000D03*
X85940000Y-110140000D03*
X85940000Y-105060000D03*
X80860000Y-110140000D03*
%TD*%
D14*
%TO.C,H4*%
X77500000Y-69500000D03*
%TD*%
D13*
%TO.C,POT1*%
X137300000Y-86000000D03*
X132300000Y-86000000D03*
X134800000Y-96000000D03*
%TD*%
D15*
%TO.C,J1*%
X111010000Y-70700000D03*
D16*
X111010000Y-75700000D03*
D15*
X103390000Y-70700000D03*
X103390000Y-75700000D03*
%TD*%
D12*
%TO.C,J2*%
X147066000Y-90805000D03*
D13*
X144526000Y-93345000D03*
X149606000Y-93345000D03*
X149606000Y-88265000D03*
X144526000Y-88265000D03*
%TD*%
D14*
%TO.C,H1*%
X171500000Y-120000000D03*
%TD*%
D11*
%TO.C,K1*%
X149010000Y-107450000D03*
X149010000Y-120150000D03*
X141390000Y-120150000D03*
X141390000Y-112530000D03*
X141390000Y-107450000D03*
%TD*%
D14*
%TO.C,H3*%
X77500000Y-120000000D03*
%TD*%
D17*
%TO.C,J4*%
X159512000Y-68000000D03*
D18*
X156972000Y-68000000D03*
X154432000Y-68000000D03*
X151892000Y-68000000D03*
X149352000Y-68000000D03*
X146812000Y-68000000D03*
X144272000Y-68000000D03*
X141732000Y-68000000D03*
X139192000Y-68000000D03*
X136652000Y-68000000D03*
%TD*%
M02*
