%TF.GenerationSoftware,KiCad,Pcbnew,(6.0.6)*%
%TF.CreationDate,2023-01-28T17:13:45-04:00*%
%TF.ProjectId,DDS_FunctionGenerator,4444535f-4675-46e6-9374-696f6e47656e,rev?*%
%TF.SameCoordinates,Original*%
%TF.FileFunction,Soldermask,Bot*%
%TF.FilePolarity,Negative*%
%FSLAX46Y46*%
G04 Gerber Fmt 4.6, Leading zero omitted, Abs format (unit mm)*
G04 Created by KiCad (PCBNEW (6.0.6)) date 2023-01-28 17:13:45*
%MOMM*%
%LPD*%
G01*
G04 APERTURE LIST*
G04 Aperture macros list*
%AMRoundRect*
0 Rectangle with rounded corners*
0 $1 Rounding radius*
0 $2 $3 $4 $5 $6 $7 $8 $9 X,Y pos of 4 corners*
0 Add a 4 corners polygon primitive as box body*
4,1,4,$2,$3,$4,$5,$6,$7,$8,$9,$2,$3,0*
0 Add four circle primitives for the rounded corners*
1,1,$1+$1,$2,$3*
1,1,$1+$1,$4,$5*
1,1,$1+$1,$6,$7*
1,1,$1+$1,$8,$9*
0 Add four rect primitives between the rounded corners*
20,1,$1+$1,$2,$3,$4,$5,0*
20,1,$1+$1,$4,$5,$6,$7,0*
20,1,$1+$1,$6,$7,$8,$9,0*
20,1,$1+$1,$8,$9,$2,$3,0*%
G04 Aperture macros list end*
%ADD10C,1.600000*%
%ADD11C,2.400000*%
%ADD12C,2.700000*%
%ADD13C,3.960800*%
%ADD14C,2.100000*%
%ADD15RoundRect,0.050000X1.000000X1.000000X-1.000000X1.000000X-1.000000X-1.000000X1.000000X-1.000000X0*%
%ADD16RoundRect,0.050000X-0.850000X0.850000X-0.850000X-0.850000X0.850000X-0.850000X0.850000X0.850000X0*%
%ADD17O,1.800000X1.800000*%
G04 APERTURE END LIST*
D10*
%TO.C,K2*%
X104810000Y-107450000D03*
X104810000Y-120150000D03*
X97190000Y-120150000D03*
X97190000Y-112530000D03*
X97190000Y-107450000D03*
%TD*%
D11*
%TO.C,J3*%
X169800000Y-90170000D03*
D12*
X172340000Y-92710000D03*
X167260000Y-87630000D03*
X172340000Y-87630000D03*
X167260000Y-92710000D03*
%TD*%
D13*
%TO.C,H2*%
X171500000Y-69500000D03*
%TD*%
D11*
%TO.C,J5*%
X83400000Y-107600000D03*
D12*
X80860000Y-105060000D03*
X85940000Y-110140000D03*
X85940000Y-105060000D03*
X80860000Y-110140000D03*
%TD*%
D13*
%TO.C,H4*%
X77500000Y-69500000D03*
%TD*%
D12*
%TO.C,POT1*%
X137300000Y-86000000D03*
X132300000Y-86000000D03*
X134800000Y-96000000D03*
%TD*%
D14*
%TO.C,J1*%
X111010000Y-70700000D03*
D15*
X111010000Y-75700000D03*
D14*
X103390000Y-70700000D03*
X103390000Y-75700000D03*
%TD*%
D11*
%TO.C,J2*%
X147066000Y-90805000D03*
D12*
X144526000Y-93345000D03*
X149606000Y-93345000D03*
X149606000Y-88265000D03*
X144526000Y-88265000D03*
%TD*%
D13*
%TO.C,H1*%
X171500000Y-120000000D03*
%TD*%
D10*
%TO.C,K1*%
X149010000Y-107450000D03*
X149010000Y-120150000D03*
X141390000Y-120150000D03*
X141390000Y-112530000D03*
X141390000Y-107450000D03*
%TD*%
D13*
%TO.C,H3*%
X77500000Y-120000000D03*
%TD*%
D16*
%TO.C,J4*%
X159512000Y-68000000D03*
D17*
X156972000Y-68000000D03*
X154432000Y-68000000D03*
X151892000Y-68000000D03*
X149352000Y-68000000D03*
X146812000Y-68000000D03*
X144272000Y-68000000D03*
X141732000Y-68000000D03*
X139192000Y-68000000D03*
X136652000Y-68000000D03*
%TD*%
M02*
