%TF.GenerationSoftware,KiCad,Pcbnew,(6.0.6)*%
%TF.CreationDate,2023-01-28T17:13:45-04:00*%
%TF.ProjectId,DDS_FunctionGenerator,4444535f-4675-46e6-9374-696f6e47656e,rev?*%
%TF.SameCoordinates,Original*%
%TF.FileFunction,Soldermask,Top*%
%TF.FilePolarity,Negative*%
%FSLAX46Y46*%
G04 Gerber Fmt 4.6, Leading zero omitted, Abs format (unit mm)*
G04 Created by KiCad (PCBNEW (6.0.6)) date 2023-01-28 17:13:45*
%MOMM*%
%LPD*%
G01*
G04 APERTURE LIST*
G04 Aperture macros list*
%AMRoundRect*
0 Rectangle with rounded corners*
0 $1 Rounding radius*
0 $2 $3 $4 $5 $6 $7 $8 $9 X,Y pos of 4 corners*
0 Add a 4 corners polygon primitive as box body*
4,1,4,$2,$3,$4,$5,$6,$7,$8,$9,$2,$3,0*
0 Add four circle primitives for the rounded corners*
1,1,$1+$1,$2,$3*
1,1,$1+$1,$4,$5*
1,1,$1+$1,$6,$7*
1,1,$1+$1,$8,$9*
0 Add four rect primitives between the rounded corners*
20,1,$1+$1,$2,$3,$4,$5,0*
20,1,$1+$1,$4,$5,$6,$7,0*
20,1,$1+$1,$6,$7,$8,$9,0*
20,1,$1+$1,$8,$9,$2,$3,0*%
G04 Aperture macros list end*
%ADD10RoundRect,0.170000X-0.330000X0.280000X-0.330000X-0.280000X0.330000X-0.280000X0.330000X0.280000X0*%
%ADD11RoundRect,0.170000X0.330000X-0.280000X0.330000X0.280000X-0.330000X0.280000X-0.330000X-0.280000X0*%
%ADD12RoundRect,0.170000X0.280000X0.330000X-0.280000X0.330000X-0.280000X-0.330000X0.280000X-0.330000X0*%
%ADD13C,1.600000*%
%ADD14C,0.900000*%
%ADD15RoundRect,0.135000X-0.340000X0.340000X-0.340000X-0.340000X0.340000X-0.340000X0.340000X0.340000X0*%
%ADD16RoundRect,0.250000X-0.200000X-0.250000X0.200000X-0.250000X0.200000X0.250000X-0.200000X0.250000X0*%
%ADD17RoundRect,0.164300X-0.266700X0.457200X-0.266700X-0.457200X0.266700X-0.457200X0.266700X0.457200X0*%
%ADD18RoundRect,0.170000X-0.280000X-0.330000X0.280000X-0.330000X0.280000X0.330000X-0.280000X0.330000X0*%
%ADD19C,2.400000*%
%ADD20C,2.700000*%
%ADD21C,3.960800*%
%ADD22RoundRect,0.080000X0.295000X0.120000X-0.295000X0.120000X-0.295000X-0.120000X0.295000X-0.120000X0*%
%ADD23RoundRect,0.080000X-0.295000X-0.120000X0.295000X-0.120000X0.295000X0.120000X-0.295000X0.120000X0*%
%ADD24RoundRect,0.135000X0.765000X1.165000X-0.765000X1.165000X-0.765000X-1.165000X0.765000X-1.165000X0*%
%ADD25RoundRect,0.215000X0.385000X1.085000X-0.385000X1.085000X-0.385000X-1.085000X0.385000X-1.085000X0*%
%ADD26RoundRect,0.150000X0.200000X-0.510000X0.200000X0.510000X-0.200000X0.510000X-0.200000X-0.510000X0*%
%ADD27RoundRect,0.170000X-0.426612X-0.072814X0.002373X-0.432775X0.426612X0.072814X-0.002373X0.432775X0*%
%ADD28RoundRect,0.090000X-0.210000X0.235000X-0.210000X-0.235000X0.210000X-0.235000X0.210000X0.235000X0*%
%ADD29RoundRect,0.210000X-1.590000X-0.640000X1.590000X-0.640000X1.590000X0.640000X-1.590000X0.640000X0*%
%ADD30RoundRect,0.185000X-0.515000X0.315000X-0.515000X-0.315000X0.515000X-0.315000X0.515000X0.315000X0*%
%ADD31RoundRect,0.282000X2.468000X1.218000X-2.468000X1.218000X-2.468000X-1.218000X2.468000X-1.218000X0*%
%ADD32RoundRect,0.170000X0.180000X-0.280000X0.180000X0.280000X-0.180000X0.280000X-0.180000X-0.280000X0*%
%ADD33RoundRect,0.150000X-0.100000X0.637500X-0.100000X-0.637500X0.100000X-0.637500X0.100000X0.637500X0*%
%ADD34RoundRect,0.135000X0.340000X-0.340000X0.340000X0.340000X-0.340000X0.340000X-0.340000X-0.340000X0*%
%ADD35C,2.100000*%
%ADD36RoundRect,0.050000X1.000000X1.000000X-1.000000X1.000000X-1.000000X-1.000000X1.000000X-1.000000X0*%
%ADD37RoundRect,0.170000X0.280000X0.180000X-0.280000X0.180000X-0.280000X-0.180000X0.280000X-0.180000X0*%
%ADD38RoundRect,0.090000X-0.235000X-0.210000X0.235000X-0.210000X0.235000X0.210000X-0.235000X0.210000X0*%
%ADD39RoundRect,0.185000X-0.315000X-0.515000X0.315000X-0.515000X0.315000X0.515000X-0.315000X0.515000X0*%
%ADD40RoundRect,0.185000X0.315000X0.515000X-0.315000X0.515000X-0.315000X-0.515000X0.315000X-0.515000X0*%
%ADD41RoundRect,0.110000X0.490000X0.240000X-0.490000X0.240000X-0.490000X-0.240000X0.490000X-0.240000X0*%
%ADD42RoundRect,0.185000X0.515000X-0.315000X0.515000X0.315000X-0.515000X0.315000X-0.515000X-0.315000X0*%
%ADD43RoundRect,0.210000X1.590000X0.640000X-1.590000X0.640000X-1.590000X-0.640000X1.590000X-0.640000X0*%
%ADD44RoundRect,0.110000X-0.240000X0.640000X-0.240000X-0.640000X0.240000X-0.640000X0.240000X0.640000X0*%
%ADD45RoundRect,0.132500X-0.742500X-1.117500X0.742500X-1.117500X0.742500X1.117500X-0.742500X1.117500X0*%
%ADD46RoundRect,0.050000X-0.850000X0.850000X-0.850000X-0.850000X0.850000X-0.850000X0.850000X0.850000X0*%
%ADD47O,1.800000X1.800000*%
G04 APERTURE END LIST*
D10*
%TO.C,C26*%
X124400000Y-109250000D03*
X124400000Y-107750000D03*
%TD*%
%TO.C,R2*%
X117000000Y-81150000D03*
X117000000Y-79650000D03*
%TD*%
D11*
%TO.C,C7*%
X97400000Y-87250000D03*
X97400000Y-88750000D03*
%TD*%
D12*
%TO.C,R19*%
X161950000Y-102000000D03*
X163450000Y-102000000D03*
%TD*%
D13*
%TO.C,K2*%
X104810000Y-107450000D03*
X104810000Y-120150000D03*
X97190000Y-120150000D03*
X97190000Y-112530000D03*
X97190000Y-107450000D03*
%TD*%
D14*
%TO.C,TP17*%
X161800000Y-97900000D03*
%TD*%
D13*
%TO.C,TP2*%
X142400000Y-79400000D03*
%TD*%
D14*
%TO.C,TP7*%
X148400000Y-105000000D03*
%TD*%
D11*
%TO.C,C32*%
X121600000Y-118650000D03*
X121600000Y-120150000D03*
%TD*%
%TO.C,C5*%
X140200000Y-79850000D03*
X140200000Y-81350000D03*
%TD*%
D15*
%TO.C,D1*%
X125000000Y-97025000D03*
X125000000Y-100375000D03*
%TD*%
D16*
%TO.C,X1*%
X148675000Y-82375000D03*
X148675000Y-84225000D03*
X150125000Y-84225000D03*
X150125000Y-82375000D03*
%TD*%
D17*
%TO.C,U8*%
X159300000Y-109800000D03*
X158030000Y-109800000D03*
X156760000Y-109800000D03*
X155490000Y-109800000D03*
X155490000Y-115007000D03*
X156760000Y-115007000D03*
X158030000Y-115007000D03*
X159300000Y-115007000D03*
%TD*%
D14*
%TO.C,TP28*%
X144200000Y-83400000D03*
%TD*%
D18*
%TO.C,C21*%
X128550000Y-110500000D03*
X127050000Y-110500000D03*
%TD*%
%TO.C,R17*%
X165350000Y-84600000D03*
X163850000Y-84600000D03*
%TD*%
D19*
%TO.C,J3*%
X169800000Y-90170000D03*
D20*
X172340000Y-92710000D03*
X167260000Y-87630000D03*
X172340000Y-87630000D03*
X167260000Y-92710000D03*
%TD*%
D21*
%TO.C,H2*%
X171500000Y-69500000D03*
%TD*%
D13*
%TO.C,TP1*%
X130800000Y-80200000D03*
%TD*%
D22*
%TO.C,U4*%
X95425000Y-86750000D03*
X95425000Y-86250000D03*
X95425000Y-85750000D03*
X95425000Y-85250000D03*
X95425000Y-84750000D03*
X95425000Y-84250000D03*
D23*
X92465000Y-84250000D03*
X92465000Y-84750000D03*
X92465000Y-85250000D03*
X92465000Y-85750000D03*
X92465000Y-86250000D03*
X92465000Y-86750000D03*
D24*
X93945000Y-85500000D03*
%TD*%
D25*
%TO.C,L8*%
X118150000Y-118600000D03*
X115850000Y-118600000D03*
%TD*%
D11*
%TO.C,C31*%
X129000000Y-118650000D03*
X129000000Y-120150000D03*
%TD*%
%TO.C,C30*%
X137200000Y-118650000D03*
X137200000Y-120150000D03*
%TD*%
D10*
%TO.C,R3*%
X122600000Y-77150000D03*
X122600000Y-75650000D03*
%TD*%
D12*
%TO.C,C41*%
X162050000Y-88200000D03*
X163550000Y-88200000D03*
%TD*%
D26*
%TO.C,U6*%
X91550000Y-117225000D03*
X92500000Y-117225000D03*
X93450000Y-117225000D03*
X93450000Y-114605000D03*
X91550000Y-114605000D03*
%TD*%
D19*
%TO.C,J5*%
X83400000Y-107600000D03*
D20*
X80860000Y-105060000D03*
X85940000Y-110140000D03*
X85940000Y-105060000D03*
X80860000Y-110140000D03*
%TD*%
D27*
%TO.C,R13*%
X87974533Y-114582091D03*
X86825467Y-113617909D03*
%TD*%
D28*
%TO.C,C38*%
X162600000Y-111925000D03*
X162600000Y-112875000D03*
%TD*%
D27*
%TO.C,R14*%
X86874533Y-116282091D03*
X85725467Y-115317909D03*
%TD*%
D12*
%TO.C,C44*%
X161850000Y-94488000D03*
X163350000Y-94488000D03*
%TD*%
D10*
%TO.C,C11*%
X98600000Y-92550000D03*
X98600000Y-91050000D03*
%TD*%
D18*
%TO.C,C19*%
X91150000Y-112100000D03*
X89650000Y-112100000D03*
%TD*%
D10*
%TO.C,R12*%
X108400000Y-109550000D03*
X108400000Y-108050000D03*
%TD*%
D25*
%TO.C,L5*%
X115250000Y-107800000D03*
X112950000Y-107800000D03*
%TD*%
D29*
%TO.C,C17*%
X141800000Y-100400000D03*
X147400000Y-100400000D03*
%TD*%
D21*
%TO.C,H4*%
X77500000Y-69500000D03*
%TD*%
D18*
%TO.C,C36*%
X160516000Y-83185000D03*
X159016000Y-83185000D03*
%TD*%
D14*
%TO.C,TP13*%
X142000000Y-105000000D03*
%TD*%
D10*
%TO.C,C45*%
X153900000Y-112250000D03*
X153900000Y-110750000D03*
%TD*%
D18*
%TO.C,R21*%
X158550000Y-96300000D03*
X157050000Y-96300000D03*
%TD*%
D14*
%TO.C,TP27*%
X168200000Y-97800000D03*
%TD*%
D13*
%TO.C,TP6*%
X136600000Y-77200000D03*
%TD*%
D30*
%TO.C,C8*%
X105600000Y-91800000D03*
X105600000Y-93800000D03*
%TD*%
D12*
%TO.C,C35*%
X155650000Y-83000000D03*
X157150000Y-83000000D03*
%TD*%
D11*
%TO.C,FB1*%
X149800000Y-77850000D03*
X149800000Y-79350000D03*
%TD*%
D12*
%TO.C,R6*%
X90250000Y-94000000D03*
X91750000Y-94000000D03*
%TD*%
D14*
%TO.C,TP9*%
X104800000Y-105000000D03*
%TD*%
%TO.C,TP25*%
X166200000Y-107600000D03*
%TD*%
D18*
%TO.C,L7*%
X126150000Y-118700000D03*
X124650000Y-118700000D03*
%TD*%
D11*
%TO.C,R5*%
X102200000Y-82650000D03*
X102200000Y-84150000D03*
%TD*%
D31*
%TO.C,L1*%
X83200000Y-89350000D03*
X83200000Y-79450000D03*
%TD*%
D10*
%TO.C,R24*%
X155200000Y-103350000D03*
X155200000Y-101850000D03*
%TD*%
D32*
%TO.C,Q2*%
X158050000Y-99200000D03*
X156750000Y-99200000D03*
X157400000Y-100800000D03*
%TD*%
D18*
%TO.C,R7*%
X105350000Y-81000000D03*
X103850000Y-81000000D03*
%TD*%
%TO.C,C50*%
X167850000Y-102000000D03*
X166350000Y-102000000D03*
%TD*%
D11*
%TO.C,C4*%
X133100000Y-79650000D03*
X133100000Y-81150000D03*
%TD*%
D14*
%TO.C,TP24*%
X157200000Y-120800000D03*
%TD*%
D33*
%TO.C,U7*%
X160405000Y-86037500D03*
X159755000Y-86037500D03*
X159105000Y-86037500D03*
X158455000Y-86037500D03*
X157805000Y-86037500D03*
X157155000Y-86037500D03*
X156505000Y-86037500D03*
X155855000Y-86037500D03*
X155205000Y-86037500D03*
X154555000Y-86037500D03*
X154555000Y-91762500D03*
X155205000Y-91762500D03*
X155855000Y-91762500D03*
X156505000Y-91762500D03*
X157155000Y-91762500D03*
X157805000Y-91762500D03*
X158455000Y-91762500D03*
X159105000Y-91762500D03*
X159755000Y-91762500D03*
X160405000Y-91762500D03*
%TD*%
D13*
%TO.C,TP4*%
X96200000Y-92800000D03*
%TD*%
D14*
%TO.C,TP14*%
X98400000Y-105000000D03*
%TD*%
D34*
%TO.C,D2*%
X117300000Y-100375000D03*
X117300000Y-97025000D03*
%TD*%
D18*
%TO.C,C20*%
X135350000Y-110500000D03*
X133850000Y-110500000D03*
%TD*%
D11*
%TO.C,R15*%
X109000000Y-118650000D03*
X109000000Y-120150000D03*
%TD*%
D12*
%TO.C,R10*%
X92850000Y-110800000D03*
X94350000Y-110800000D03*
%TD*%
D20*
%TO.C,POT1*%
X137300000Y-86000000D03*
X132300000Y-86000000D03*
X134800000Y-96000000D03*
%TD*%
D25*
%TO.C,L3*%
X128950000Y-107800000D03*
X126650000Y-107800000D03*
%TD*%
D18*
%TO.C,C16*%
X126141000Y-91365000D03*
X124641000Y-91365000D03*
%TD*%
D35*
%TO.C,J1*%
X111010000Y-70700000D03*
D36*
X111010000Y-75700000D03*
D35*
X103390000Y-70700000D03*
X103390000Y-75700000D03*
%TD*%
D18*
%TO.C,C29*%
X91850000Y-119400000D03*
X90350000Y-119400000D03*
%TD*%
D12*
%TO.C,C9*%
X93050000Y-88399000D03*
X94550000Y-88399000D03*
%TD*%
D14*
%TO.C,TP21*%
X150000000Y-80800000D03*
%TD*%
%TO.C,TP22*%
X158500000Y-97900000D03*
%TD*%
D10*
%TO.C,C25*%
X131200000Y-109250000D03*
X131200000Y-107750000D03*
%TD*%
D18*
%TO.C,R8*%
X95250000Y-82500000D03*
X93750000Y-82500000D03*
%TD*%
D37*
%TO.C,Q1*%
X162000000Y-99050000D03*
X162000000Y-100350000D03*
X163600000Y-99700000D03*
%TD*%
D38*
%TO.C,C46*%
X154525000Y-106800000D03*
X155475000Y-106800000D03*
%TD*%
D18*
%TO.C,R25*%
X155350000Y-105200000D03*
X153850000Y-105200000D03*
%TD*%
D10*
%TO.C,C24*%
X138000000Y-109250000D03*
X138000000Y-107750000D03*
%TD*%
%TO.C,C28*%
X110600000Y-109550000D03*
X110600000Y-108050000D03*
%TD*%
D30*
%TO.C,C1*%
X119000000Y-81210000D03*
X119000000Y-83210000D03*
%TD*%
D14*
%TO.C,TP11*%
X94900000Y-117900000D03*
%TD*%
D18*
%TO.C,C42*%
X161350000Y-116800000D03*
X159850000Y-116800000D03*
%TD*%
D39*
%TO.C,C10*%
X93200000Y-90400000D03*
X95200000Y-90400000D03*
%TD*%
D14*
%TO.C,TP18*%
X159800000Y-107600000D03*
%TD*%
D10*
%TO.C,C48*%
X165200000Y-99350000D03*
X165200000Y-97850000D03*
%TD*%
D14*
%TO.C,TP23*%
X156100000Y-108200000D03*
%TD*%
D18*
%TO.C,C43*%
X158550000Y-94500000D03*
X157050000Y-94500000D03*
%TD*%
D12*
%TO.C,C15*%
X124641000Y-89460000D03*
X126141000Y-89460000D03*
%TD*%
D40*
%TO.C,C34*%
X156800000Y-80700000D03*
X154800000Y-80700000D03*
%TD*%
D41*
%TO.C,U1*%
X135600000Y-79850000D03*
X135600000Y-80800000D03*
X135600000Y-81750000D03*
X138400000Y-81750000D03*
X138400000Y-79850000D03*
%TD*%
D12*
%TO.C,R22*%
X161850000Y-96300000D03*
X163350000Y-96300000D03*
%TD*%
%TO.C,R20*%
X153850000Y-117400000D03*
X155350000Y-117400000D03*
%TD*%
D10*
%TO.C,C12*%
X90600000Y-87550000D03*
X90600000Y-86050000D03*
%TD*%
D14*
%TO.C,TP8*%
X121200000Y-98600000D03*
%TD*%
D13*
%TO.C,TP3*%
X102400000Y-95400000D03*
%TD*%
D19*
%TO.C,J2*%
X147066000Y-90805000D03*
D20*
X144526000Y-93345000D03*
X149606000Y-93345000D03*
X149606000Y-88265000D03*
X144526000Y-88265000D03*
%TD*%
D42*
%TO.C,C3*%
X128400000Y-80500000D03*
X128400000Y-78500000D03*
%TD*%
D14*
%TO.C,TP16*%
X115200000Y-96400000D03*
%TD*%
D43*
%TO.C,C18*%
X110400000Y-100400000D03*
X104800000Y-100400000D03*
%TD*%
D10*
%TO.C,C13*%
X98800000Y-82750000D03*
X98800000Y-81250000D03*
%TD*%
%TO.C,C49*%
X150800000Y-102150000D03*
X150800000Y-100650000D03*
%TD*%
D13*
%TO.C,TP5*%
X108000000Y-91700000D03*
%TD*%
D14*
%TO.C,TP29*%
X151900000Y-113000000D03*
%TD*%
D18*
%TO.C,C23*%
X114850000Y-110500000D03*
X113350000Y-110500000D03*
%TD*%
%TO.C,R11*%
X94350000Y-112600000D03*
X92850000Y-112600000D03*
%TD*%
%TO.C,R26*%
X155150000Y-99800000D03*
X153650000Y-99800000D03*
%TD*%
D10*
%TO.C,C27*%
X117600000Y-109250000D03*
X117600000Y-107750000D03*
%TD*%
D12*
%TO.C,C47*%
X157450000Y-102400000D03*
X158950000Y-102400000D03*
%TD*%
D18*
%TO.C,C39*%
X160950000Y-81400000D03*
X159450000Y-81400000D03*
%TD*%
%TO.C,R1*%
X125750000Y-82800000D03*
X124250000Y-82800000D03*
%TD*%
D30*
%TO.C,C6*%
X99400000Y-87400000D03*
X99400000Y-89400000D03*
%TD*%
D39*
%TO.C,C37*%
X159600000Y-79400000D03*
X161600000Y-79400000D03*
%TD*%
D25*
%TO.C,L2*%
X135750000Y-107800000D03*
X133450000Y-107800000D03*
%TD*%
%TO.C,L6*%
X134550000Y-118600000D03*
X132250000Y-118600000D03*
%TD*%
%TO.C,L4*%
X122150000Y-107800000D03*
X119850000Y-107800000D03*
%TD*%
D21*
%TO.C,H1*%
X171500000Y-120000000D03*
%TD*%
D10*
%TO.C,R16*%
X161000000Y-113150000D03*
X161000000Y-111650000D03*
%TD*%
D14*
%TO.C,TP15*%
X85800000Y-120300000D03*
%TD*%
%TO.C,TP20*%
X151800000Y-117400000D03*
%TD*%
%TO.C,TP12*%
X89700000Y-121700000D03*
%TD*%
D18*
%TO.C,R23*%
X153350000Y-84200000D03*
X151850000Y-84200000D03*
%TD*%
%TO.C,C22*%
X121750000Y-110500000D03*
X120250000Y-110500000D03*
%TD*%
D44*
%TO.C,U5*%
X123110000Y-89300000D03*
X121840000Y-89300000D03*
X120570000Y-89300000D03*
X119300000Y-89300000D03*
X119300000Y-94700000D03*
X120570000Y-94700000D03*
X121840000Y-94700000D03*
X123110000Y-94700000D03*
%TD*%
D11*
%TO.C,C2*%
X121000000Y-81250000D03*
X121000000Y-82750000D03*
%TD*%
%TO.C,C33*%
X112500000Y-118650000D03*
X112500000Y-120150000D03*
%TD*%
%TO.C,C40*%
X152900000Y-87850000D03*
X152900000Y-89350000D03*
%TD*%
D13*
%TO.C,K1*%
X149010000Y-107450000D03*
X149010000Y-120150000D03*
X141390000Y-120150000D03*
X141390000Y-112530000D03*
X141390000Y-107450000D03*
%TD*%
D21*
%TO.C,H3*%
X77500000Y-120000000D03*
%TD*%
D12*
%TO.C,R4*%
X103850000Y-84200000D03*
X105350000Y-84200000D03*
%TD*%
D41*
%TO.C,U3*%
X100600000Y-91450000D03*
X100600000Y-92400000D03*
X100600000Y-93350000D03*
X103400000Y-93350000D03*
X103400000Y-91450000D03*
%TD*%
D45*
%TO.C,U2*%
X124154000Y-79924000D03*
D23*
X125504000Y-80674000D03*
X125504000Y-80174000D03*
X125504000Y-79674000D03*
X125504000Y-79174000D03*
X122804000Y-79174000D03*
X122804000Y-79674000D03*
X122804000Y-80174000D03*
X122804000Y-80674000D03*
%TD*%
D14*
%TO.C,TP26*%
X152100000Y-97800000D03*
%TD*%
D10*
%TO.C,C14*%
X97000000Y-82750000D03*
X97000000Y-81250000D03*
%TD*%
%TO.C,R9*%
X93600000Y-93950000D03*
X93600000Y-92450000D03*
%TD*%
D46*
%TO.C,J4*%
X159512000Y-68000000D03*
D47*
X156972000Y-68000000D03*
X154432000Y-68000000D03*
X151892000Y-68000000D03*
X149352000Y-68000000D03*
X146812000Y-68000000D03*
X144272000Y-68000000D03*
X141732000Y-68000000D03*
X139192000Y-68000000D03*
X136652000Y-68000000D03*
%TD*%
D10*
%TO.C,R18*%
X161800000Y-105950000D03*
X161800000Y-104450000D03*
%TD*%
G36*
X158867232Y-91071637D02*
G01*
X158867400Y-91072912D01*
X158857000Y-91125199D01*
X158857000Y-92399801D01*
X158867400Y-92452088D01*
X158866757Y-92453982D01*
X158864795Y-92454372D01*
X158863775Y-92453589D01*
X158861659Y-92450422D01*
X158813883Y-92412757D01*
X158753428Y-92410382D01*
X158702876Y-92444159D01*
X158698500Y-92450184D01*
X158696225Y-92453589D01*
X158694431Y-92454474D01*
X158692768Y-92453363D01*
X158692600Y-92452088D01*
X158703000Y-92399801D01*
X158703000Y-91125199D01*
X158692600Y-91072912D01*
X158693243Y-91071018D01*
X158695205Y-91070628D01*
X158696225Y-91071411D01*
X158698341Y-91074578D01*
X158746117Y-91112243D01*
X158806572Y-91114618D01*
X158857124Y-91080841D01*
X158861500Y-91074816D01*
X158863775Y-91071411D01*
X158865569Y-91070526D01*
X158867232Y-91071637D01*
G37*
G36*
X155617232Y-91071637D02*
G01*
X155617400Y-91072912D01*
X155607000Y-91125199D01*
X155607000Y-92399801D01*
X155617400Y-92452088D01*
X155616757Y-92453982D01*
X155614795Y-92454372D01*
X155613775Y-92453589D01*
X155611659Y-92450422D01*
X155563883Y-92412757D01*
X155503428Y-92410382D01*
X155452876Y-92444159D01*
X155448500Y-92450184D01*
X155446225Y-92453589D01*
X155444431Y-92454474D01*
X155442768Y-92453363D01*
X155442600Y-92452088D01*
X155453000Y-92399801D01*
X155453000Y-91125199D01*
X155442600Y-91072912D01*
X155443243Y-91071018D01*
X155445205Y-91070628D01*
X155446225Y-91071411D01*
X155448341Y-91074578D01*
X155496117Y-91112243D01*
X155556572Y-91114618D01*
X155607124Y-91080841D01*
X155611500Y-91074816D01*
X155613775Y-91071411D01*
X155615569Y-91070526D01*
X155617232Y-91071637D01*
G37*
G36*
X159517232Y-91071637D02*
G01*
X159517400Y-91072912D01*
X159507000Y-91125199D01*
X159507000Y-92399801D01*
X159517400Y-92452088D01*
X159516757Y-92453982D01*
X159514795Y-92454372D01*
X159513775Y-92453589D01*
X159511659Y-92450422D01*
X159463883Y-92412757D01*
X159403428Y-92410382D01*
X159352876Y-92444159D01*
X159348500Y-92450184D01*
X159346225Y-92453589D01*
X159344431Y-92454474D01*
X159342768Y-92453363D01*
X159342600Y-92452088D01*
X159353000Y-92399801D01*
X159353000Y-91125199D01*
X159342600Y-91072912D01*
X159343243Y-91071018D01*
X159345205Y-91070628D01*
X159346225Y-91071411D01*
X159348341Y-91074578D01*
X159396117Y-91112243D01*
X159456572Y-91114618D01*
X159507124Y-91080841D01*
X159511500Y-91074816D01*
X159513775Y-91071411D01*
X159515569Y-91070526D01*
X159517232Y-91071637D01*
G37*
G36*
X160167232Y-91071637D02*
G01*
X160167400Y-91072912D01*
X160157000Y-91125199D01*
X160157000Y-92399801D01*
X160167400Y-92452088D01*
X160166757Y-92453982D01*
X160164795Y-92454372D01*
X160163775Y-92453589D01*
X160161659Y-92450422D01*
X160113883Y-92412757D01*
X160053428Y-92410382D01*
X160002876Y-92444159D01*
X159998500Y-92450184D01*
X159996225Y-92453589D01*
X159994431Y-92454474D01*
X159992768Y-92453363D01*
X159992600Y-92452088D01*
X160003000Y-92399801D01*
X160003000Y-91125199D01*
X159992600Y-91072912D01*
X159993243Y-91071018D01*
X159995205Y-91070628D01*
X159996225Y-91071411D01*
X159998341Y-91074578D01*
X160046117Y-91112243D01*
X160106572Y-91114618D01*
X160157124Y-91080841D01*
X160161500Y-91074816D01*
X160163775Y-91071411D01*
X160165569Y-91070526D01*
X160167232Y-91071637D01*
G37*
G36*
X157567232Y-91071637D02*
G01*
X157567400Y-91072912D01*
X157557000Y-91125199D01*
X157557000Y-92399801D01*
X157567400Y-92452088D01*
X157566757Y-92453982D01*
X157564795Y-92454372D01*
X157563775Y-92453589D01*
X157561659Y-92450422D01*
X157513883Y-92412757D01*
X157453428Y-92410382D01*
X157402876Y-92444159D01*
X157398500Y-92450184D01*
X157396225Y-92453589D01*
X157394431Y-92454474D01*
X157392768Y-92453363D01*
X157392600Y-92452088D01*
X157403000Y-92399801D01*
X157403000Y-91125199D01*
X157392600Y-91072912D01*
X157393243Y-91071018D01*
X157395205Y-91070628D01*
X157396225Y-91071411D01*
X157398341Y-91074578D01*
X157446117Y-91112243D01*
X157506572Y-91114618D01*
X157557124Y-91080841D01*
X157561500Y-91074816D01*
X157563775Y-91071411D01*
X157565569Y-91070526D01*
X157567232Y-91071637D01*
G37*
G36*
X154967232Y-91071637D02*
G01*
X154967400Y-91072912D01*
X154957000Y-91125199D01*
X154957000Y-92399801D01*
X154967400Y-92452088D01*
X154966757Y-92453982D01*
X154964795Y-92454372D01*
X154963775Y-92453589D01*
X154961659Y-92450422D01*
X154913883Y-92412757D01*
X154853428Y-92410382D01*
X154802876Y-92444159D01*
X154798500Y-92450184D01*
X154796225Y-92453589D01*
X154794431Y-92454474D01*
X154792768Y-92453363D01*
X154792600Y-92452088D01*
X154803000Y-92399801D01*
X154803000Y-91125199D01*
X154792600Y-91072912D01*
X154793243Y-91071018D01*
X154795205Y-91070628D01*
X154796225Y-91071411D01*
X154798341Y-91074578D01*
X154846117Y-91112243D01*
X154906572Y-91114618D01*
X154957124Y-91080841D01*
X154961500Y-91074816D01*
X154963775Y-91071411D01*
X154965569Y-91070526D01*
X154967232Y-91071637D01*
G37*
G36*
X158217232Y-91071637D02*
G01*
X158217400Y-91072912D01*
X158207000Y-91125199D01*
X158207000Y-92399801D01*
X158217400Y-92452088D01*
X158216757Y-92453982D01*
X158214795Y-92454372D01*
X158213775Y-92453589D01*
X158211659Y-92450422D01*
X158163883Y-92412757D01*
X158103428Y-92410382D01*
X158052876Y-92444159D01*
X158048500Y-92450184D01*
X158046225Y-92453589D01*
X158044431Y-92454474D01*
X158042768Y-92453363D01*
X158042600Y-92452088D01*
X158053000Y-92399801D01*
X158053000Y-91125199D01*
X158042600Y-91072912D01*
X158043243Y-91071018D01*
X158045205Y-91070628D01*
X158046225Y-91071411D01*
X158048341Y-91074578D01*
X158096117Y-91112243D01*
X158156572Y-91114618D01*
X158207124Y-91080841D01*
X158211500Y-91074816D01*
X158213775Y-91071411D01*
X158215569Y-91070526D01*
X158217232Y-91071637D01*
G37*
G36*
X156267232Y-91071637D02*
G01*
X156267400Y-91072912D01*
X156257000Y-91125199D01*
X156257000Y-92399801D01*
X156267400Y-92452088D01*
X156266757Y-92453982D01*
X156264795Y-92454372D01*
X156263775Y-92453589D01*
X156261659Y-92450422D01*
X156213883Y-92412757D01*
X156153428Y-92410382D01*
X156102876Y-92444159D01*
X156098500Y-92450184D01*
X156096225Y-92453589D01*
X156094431Y-92454474D01*
X156092768Y-92453363D01*
X156092600Y-92452088D01*
X156103000Y-92399801D01*
X156103000Y-91125199D01*
X156092600Y-91072912D01*
X156093243Y-91071018D01*
X156095205Y-91070628D01*
X156096225Y-91071411D01*
X156098341Y-91074578D01*
X156146117Y-91112243D01*
X156206572Y-91114618D01*
X156257124Y-91080841D01*
X156261500Y-91074816D01*
X156263775Y-91071411D01*
X156265569Y-91070526D01*
X156267232Y-91071637D01*
G37*
G36*
X156917232Y-91071637D02*
G01*
X156917400Y-91072912D01*
X156907000Y-91125199D01*
X156907000Y-92399801D01*
X156917400Y-92452088D01*
X156916757Y-92453982D01*
X156914795Y-92454372D01*
X156913775Y-92453589D01*
X156911659Y-92450422D01*
X156863883Y-92412757D01*
X156803428Y-92410382D01*
X156752876Y-92444159D01*
X156748500Y-92450184D01*
X156746225Y-92453589D01*
X156744431Y-92454474D01*
X156742768Y-92453363D01*
X156742600Y-92452088D01*
X156753000Y-92399801D01*
X156753000Y-91125199D01*
X156742600Y-91072912D01*
X156743243Y-91071018D01*
X156745205Y-91070628D01*
X156746225Y-91071411D01*
X156748341Y-91074578D01*
X156796117Y-91112243D01*
X156856572Y-91114618D01*
X156907124Y-91080841D01*
X156911500Y-91074816D01*
X156913775Y-91071411D01*
X156915569Y-91070526D01*
X156917232Y-91071637D01*
G37*
G36*
X155617232Y-85346637D02*
G01*
X155617400Y-85347912D01*
X155607000Y-85400199D01*
X155607000Y-86674801D01*
X155617400Y-86727088D01*
X155616757Y-86728982D01*
X155614795Y-86729372D01*
X155613775Y-86728589D01*
X155611659Y-86725422D01*
X155563883Y-86687757D01*
X155503428Y-86685382D01*
X155452876Y-86719159D01*
X155448500Y-86725184D01*
X155446225Y-86728589D01*
X155444431Y-86729474D01*
X155442768Y-86728363D01*
X155442600Y-86727088D01*
X155453000Y-86674801D01*
X155453000Y-85400199D01*
X155442600Y-85347912D01*
X155443243Y-85346018D01*
X155445205Y-85345628D01*
X155446225Y-85346411D01*
X155448341Y-85349578D01*
X155496117Y-85387243D01*
X155556572Y-85389618D01*
X155607124Y-85355841D01*
X155611500Y-85349816D01*
X155613775Y-85346411D01*
X155615569Y-85345526D01*
X155617232Y-85346637D01*
G37*
G36*
X157567232Y-85346637D02*
G01*
X157567400Y-85347912D01*
X157557000Y-85400199D01*
X157557000Y-86674801D01*
X157567400Y-86727088D01*
X157566757Y-86728982D01*
X157564795Y-86729372D01*
X157563775Y-86728589D01*
X157561659Y-86725422D01*
X157513883Y-86687757D01*
X157453428Y-86685382D01*
X157402876Y-86719159D01*
X157398500Y-86725184D01*
X157396225Y-86728589D01*
X157394431Y-86729474D01*
X157392768Y-86728363D01*
X157392600Y-86727088D01*
X157403000Y-86674801D01*
X157403000Y-85400199D01*
X157392600Y-85347912D01*
X157393243Y-85346018D01*
X157395205Y-85345628D01*
X157396225Y-85346411D01*
X157398341Y-85349578D01*
X157446117Y-85387243D01*
X157506572Y-85389618D01*
X157557124Y-85355841D01*
X157561500Y-85349816D01*
X157563775Y-85346411D01*
X157565569Y-85345526D01*
X157567232Y-85346637D01*
G37*
G36*
X159517232Y-85346637D02*
G01*
X159517400Y-85347912D01*
X159507000Y-85400199D01*
X159507000Y-86674801D01*
X159517400Y-86727088D01*
X159516757Y-86728982D01*
X159514795Y-86729372D01*
X159513775Y-86728589D01*
X159511659Y-86725422D01*
X159463883Y-86687757D01*
X159403428Y-86685382D01*
X159352876Y-86719159D01*
X159348500Y-86725184D01*
X159346225Y-86728589D01*
X159344431Y-86729474D01*
X159342768Y-86728363D01*
X159342600Y-86727088D01*
X159353000Y-86674801D01*
X159353000Y-85400199D01*
X159342600Y-85347912D01*
X159343243Y-85346018D01*
X159345205Y-85345628D01*
X159346225Y-85346411D01*
X159348341Y-85349578D01*
X159396117Y-85387243D01*
X159456572Y-85389618D01*
X159507124Y-85355841D01*
X159511500Y-85349816D01*
X159513775Y-85346411D01*
X159515569Y-85345526D01*
X159517232Y-85346637D01*
G37*
G36*
X158867232Y-85346637D02*
G01*
X158867400Y-85347912D01*
X158857000Y-85400199D01*
X158857000Y-86674801D01*
X158867400Y-86727088D01*
X158866757Y-86728982D01*
X158864795Y-86729372D01*
X158863775Y-86728589D01*
X158861659Y-86725422D01*
X158813883Y-86687757D01*
X158753428Y-86685382D01*
X158702876Y-86719159D01*
X158698500Y-86725184D01*
X158696225Y-86728589D01*
X158694431Y-86729474D01*
X158692768Y-86728363D01*
X158692600Y-86727088D01*
X158703000Y-86674801D01*
X158703000Y-85400199D01*
X158692600Y-85347912D01*
X158693243Y-85346018D01*
X158695205Y-85345628D01*
X158696225Y-85346411D01*
X158698341Y-85349578D01*
X158746117Y-85387243D01*
X158806572Y-85389618D01*
X158857124Y-85355841D01*
X158861500Y-85349816D01*
X158863775Y-85346411D01*
X158865569Y-85345526D01*
X158867232Y-85346637D01*
G37*
G36*
X156917232Y-85346637D02*
G01*
X156917400Y-85347912D01*
X156907000Y-85400199D01*
X156907000Y-86674801D01*
X156917400Y-86727088D01*
X156916757Y-86728982D01*
X156914795Y-86729372D01*
X156913775Y-86728589D01*
X156911659Y-86725422D01*
X156863883Y-86687757D01*
X156803428Y-86685382D01*
X156752876Y-86719159D01*
X156748500Y-86725184D01*
X156746225Y-86728589D01*
X156744431Y-86729474D01*
X156742768Y-86728363D01*
X156742600Y-86727088D01*
X156753000Y-86674801D01*
X156753000Y-85400199D01*
X156742600Y-85347912D01*
X156743243Y-85346018D01*
X156745205Y-85345628D01*
X156746225Y-85346411D01*
X156748341Y-85349578D01*
X156796117Y-85387243D01*
X156856572Y-85389618D01*
X156907124Y-85355841D01*
X156911500Y-85349816D01*
X156913775Y-85346411D01*
X156915569Y-85345526D01*
X156917232Y-85346637D01*
G37*
G36*
X158217232Y-85346637D02*
G01*
X158217400Y-85347912D01*
X158207000Y-85400199D01*
X158207000Y-86674801D01*
X158217400Y-86727088D01*
X158216757Y-86728982D01*
X158214795Y-86729372D01*
X158213775Y-86728589D01*
X158211659Y-86725422D01*
X158163883Y-86687757D01*
X158103428Y-86685382D01*
X158052876Y-86719159D01*
X158048500Y-86725184D01*
X158046225Y-86728589D01*
X158044431Y-86729474D01*
X158042768Y-86728363D01*
X158042600Y-86727088D01*
X158053000Y-86674801D01*
X158053000Y-85400199D01*
X158042600Y-85347912D01*
X158043243Y-85346018D01*
X158045205Y-85345628D01*
X158046225Y-85346411D01*
X158048341Y-85349578D01*
X158096117Y-85387243D01*
X158156572Y-85389618D01*
X158207124Y-85355841D01*
X158211500Y-85349816D01*
X158213775Y-85346411D01*
X158215569Y-85345526D01*
X158217232Y-85346637D01*
G37*
G36*
X156267232Y-85346637D02*
G01*
X156267400Y-85347912D01*
X156257000Y-85400199D01*
X156257000Y-86674801D01*
X156267400Y-86727088D01*
X156266757Y-86728982D01*
X156264795Y-86729372D01*
X156263775Y-86728589D01*
X156261659Y-86725422D01*
X156213883Y-86687757D01*
X156153428Y-86685382D01*
X156102876Y-86719159D01*
X156098500Y-86725184D01*
X156096225Y-86728589D01*
X156094431Y-86729474D01*
X156092768Y-86728363D01*
X156092600Y-86727088D01*
X156103000Y-86674801D01*
X156103000Y-85400199D01*
X156092600Y-85347912D01*
X156093243Y-85346018D01*
X156095205Y-85345628D01*
X156096225Y-85346411D01*
X156098341Y-85349578D01*
X156146117Y-85387243D01*
X156206572Y-85389618D01*
X156257124Y-85355841D01*
X156261500Y-85349816D01*
X156263775Y-85346411D01*
X156265569Y-85345526D01*
X156267232Y-85346637D01*
G37*
G36*
X160167232Y-85346637D02*
G01*
X160167400Y-85347912D01*
X160157000Y-85400199D01*
X160157000Y-86674801D01*
X160167400Y-86727088D01*
X160166757Y-86728982D01*
X160164795Y-86729372D01*
X160163775Y-86728589D01*
X160161659Y-86725422D01*
X160113883Y-86687757D01*
X160053428Y-86685382D01*
X160002876Y-86719159D01*
X159998500Y-86725184D01*
X159996225Y-86728589D01*
X159994431Y-86729474D01*
X159992768Y-86728363D01*
X159992600Y-86727088D01*
X160003000Y-86674801D01*
X160003000Y-85400199D01*
X159992600Y-85347912D01*
X159993243Y-85346018D01*
X159995205Y-85345628D01*
X159996225Y-85346411D01*
X159998341Y-85349578D01*
X160046117Y-85387243D01*
X160106572Y-85389618D01*
X160157124Y-85355841D01*
X160161500Y-85349816D01*
X160163775Y-85346411D01*
X160165569Y-85345526D01*
X160167232Y-85346637D01*
G37*
G36*
X154967232Y-85346637D02*
G01*
X154967400Y-85347912D01*
X154957000Y-85400199D01*
X154957000Y-86674801D01*
X154967400Y-86727088D01*
X154966757Y-86728982D01*
X154964795Y-86729372D01*
X154963775Y-86728589D01*
X154961659Y-86725422D01*
X154913883Y-86687757D01*
X154853428Y-86685382D01*
X154802876Y-86719159D01*
X154798500Y-86725184D01*
X154796225Y-86728589D01*
X154794431Y-86729474D01*
X154792768Y-86728363D01*
X154792600Y-86727088D01*
X154803000Y-86674801D01*
X154803000Y-85400199D01*
X154792600Y-85347912D01*
X154793243Y-85346018D01*
X154795205Y-85345628D01*
X154796225Y-85346411D01*
X154798341Y-85349578D01*
X154846117Y-85387243D01*
X154906572Y-85389618D01*
X154957124Y-85355841D01*
X154961500Y-85349816D01*
X154963775Y-85346411D01*
X154965569Y-85345526D01*
X154967232Y-85346637D01*
G37*
G36*
X95078718Y-86427696D02*
G01*
X95100164Y-86442025D01*
X95130199Y-86448000D01*
X95719801Y-86448000D01*
X95749836Y-86442025D01*
X95771282Y-86427696D01*
X95773278Y-86427565D01*
X95774389Y-86429228D01*
X95774056Y-86430470D01*
X95766906Y-86441171D01*
X95767806Y-86441773D01*
X95768691Y-86443567D01*
X95768266Y-86444674D01*
X95751360Y-86466120D01*
X95748987Y-86526575D01*
X95768307Y-86555488D01*
X95768438Y-86557484D01*
X95767755Y-86558262D01*
X95766906Y-86558829D01*
X95774056Y-86569530D01*
X95774187Y-86571526D01*
X95772524Y-86572637D01*
X95771282Y-86572304D01*
X95749836Y-86557975D01*
X95719801Y-86552000D01*
X95130199Y-86552000D01*
X95100164Y-86557975D01*
X95078718Y-86572304D01*
X95076722Y-86572435D01*
X95075611Y-86570772D01*
X95075944Y-86569530D01*
X95083094Y-86558829D01*
X95082194Y-86558227D01*
X95081309Y-86556433D01*
X95081734Y-86555326D01*
X95098640Y-86533880D01*
X95101013Y-86473425D01*
X95081693Y-86444512D01*
X95081562Y-86442516D01*
X95082245Y-86441738D01*
X95083094Y-86441171D01*
X95075944Y-86430470D01*
X95075813Y-86428474D01*
X95077476Y-86427363D01*
X95078718Y-86427696D01*
G37*
G36*
X92118718Y-86427696D02*
G01*
X92140164Y-86442025D01*
X92170199Y-86448000D01*
X92759801Y-86448000D01*
X92789836Y-86442025D01*
X92811282Y-86427696D01*
X92813278Y-86427565D01*
X92814389Y-86429228D01*
X92814056Y-86430470D01*
X92806906Y-86441171D01*
X92807806Y-86441773D01*
X92808691Y-86443567D01*
X92808266Y-86444674D01*
X92791360Y-86466120D01*
X92788987Y-86526575D01*
X92808307Y-86555488D01*
X92808438Y-86557484D01*
X92807755Y-86558262D01*
X92806906Y-86558829D01*
X92814056Y-86569530D01*
X92814187Y-86571526D01*
X92812524Y-86572637D01*
X92811282Y-86572304D01*
X92789836Y-86557975D01*
X92759801Y-86552000D01*
X92170199Y-86552000D01*
X92140164Y-86557975D01*
X92118718Y-86572304D01*
X92116722Y-86572435D01*
X92115611Y-86570772D01*
X92115944Y-86569530D01*
X92123094Y-86558829D01*
X92122194Y-86558227D01*
X92121309Y-86556433D01*
X92121734Y-86555326D01*
X92138640Y-86533880D01*
X92141013Y-86473425D01*
X92121693Y-86444512D01*
X92121562Y-86442516D01*
X92122245Y-86441738D01*
X92123094Y-86441171D01*
X92115944Y-86430470D01*
X92115813Y-86428474D01*
X92117476Y-86427363D01*
X92118718Y-86427696D01*
G37*
G36*
X95078718Y-85927696D02*
G01*
X95100164Y-85942025D01*
X95130199Y-85948000D01*
X95719801Y-85948000D01*
X95749836Y-85942025D01*
X95771282Y-85927696D01*
X95773278Y-85927565D01*
X95774389Y-85929228D01*
X95774056Y-85930470D01*
X95766906Y-85941171D01*
X95767806Y-85941773D01*
X95768691Y-85943567D01*
X95768266Y-85944674D01*
X95751360Y-85966120D01*
X95748987Y-86026575D01*
X95768307Y-86055488D01*
X95768438Y-86057484D01*
X95767755Y-86058262D01*
X95766906Y-86058829D01*
X95774056Y-86069530D01*
X95774187Y-86071526D01*
X95772524Y-86072637D01*
X95771282Y-86072304D01*
X95749836Y-86057975D01*
X95719801Y-86052000D01*
X95130199Y-86052000D01*
X95100164Y-86057975D01*
X95078718Y-86072304D01*
X95076722Y-86072435D01*
X95075611Y-86070772D01*
X95075944Y-86069530D01*
X95083094Y-86058829D01*
X95082194Y-86058227D01*
X95081309Y-86056433D01*
X95081734Y-86055326D01*
X95098640Y-86033880D01*
X95101013Y-85973425D01*
X95081693Y-85944512D01*
X95081562Y-85942516D01*
X95082245Y-85941738D01*
X95083094Y-85941171D01*
X95075944Y-85930470D01*
X95075813Y-85928474D01*
X95077476Y-85927363D01*
X95078718Y-85927696D01*
G37*
G36*
X92118718Y-85927696D02*
G01*
X92140164Y-85942025D01*
X92170199Y-85948000D01*
X92759801Y-85948000D01*
X92789836Y-85942025D01*
X92811282Y-85927696D01*
X92813278Y-85927565D01*
X92814389Y-85929228D01*
X92814056Y-85930470D01*
X92806906Y-85941171D01*
X92807806Y-85941773D01*
X92808691Y-85943567D01*
X92808266Y-85944674D01*
X92791360Y-85966120D01*
X92788987Y-86026575D01*
X92808307Y-86055488D01*
X92808438Y-86057484D01*
X92807755Y-86058262D01*
X92806906Y-86058829D01*
X92814056Y-86069530D01*
X92814187Y-86071526D01*
X92812524Y-86072637D01*
X92811282Y-86072304D01*
X92789836Y-86057975D01*
X92759801Y-86052000D01*
X92170199Y-86052000D01*
X92140164Y-86057975D01*
X92118718Y-86072304D01*
X92116722Y-86072435D01*
X92115611Y-86070772D01*
X92115944Y-86069530D01*
X92123094Y-86058829D01*
X92122194Y-86058227D01*
X92121309Y-86056433D01*
X92121734Y-86055326D01*
X92138640Y-86033880D01*
X92141013Y-85973425D01*
X92121693Y-85944512D01*
X92121562Y-85942516D01*
X92122245Y-85941738D01*
X92123094Y-85941171D01*
X92115944Y-85930470D01*
X92115813Y-85928474D01*
X92117476Y-85927363D01*
X92118718Y-85927696D01*
G37*
G36*
X92118718Y-85427696D02*
G01*
X92140164Y-85442025D01*
X92170199Y-85448000D01*
X92759801Y-85448000D01*
X92789836Y-85442025D01*
X92811282Y-85427696D01*
X92813278Y-85427565D01*
X92814389Y-85429228D01*
X92814056Y-85430470D01*
X92806906Y-85441171D01*
X92807806Y-85441773D01*
X92808691Y-85443567D01*
X92808266Y-85444674D01*
X92791360Y-85466120D01*
X92788987Y-85526575D01*
X92808307Y-85555488D01*
X92808438Y-85557484D01*
X92807755Y-85558262D01*
X92806906Y-85558829D01*
X92814056Y-85569530D01*
X92814187Y-85571526D01*
X92812524Y-85572637D01*
X92811282Y-85572304D01*
X92789836Y-85557975D01*
X92759801Y-85552000D01*
X92170199Y-85552000D01*
X92140164Y-85557975D01*
X92118718Y-85572304D01*
X92116722Y-85572435D01*
X92115611Y-85570772D01*
X92115944Y-85569530D01*
X92123094Y-85558829D01*
X92122194Y-85558227D01*
X92121309Y-85556433D01*
X92121734Y-85555326D01*
X92138640Y-85533880D01*
X92141013Y-85473425D01*
X92121693Y-85444512D01*
X92121562Y-85442516D01*
X92122245Y-85441738D01*
X92123094Y-85441171D01*
X92115944Y-85430470D01*
X92115813Y-85428474D01*
X92117476Y-85427363D01*
X92118718Y-85427696D01*
G37*
G36*
X95078718Y-85427696D02*
G01*
X95100164Y-85442025D01*
X95130199Y-85448000D01*
X95719801Y-85448000D01*
X95749836Y-85442025D01*
X95771282Y-85427696D01*
X95773278Y-85427565D01*
X95774389Y-85429228D01*
X95774056Y-85430470D01*
X95766906Y-85441171D01*
X95767806Y-85441773D01*
X95768691Y-85443567D01*
X95768266Y-85444674D01*
X95751360Y-85466120D01*
X95748987Y-85526575D01*
X95768307Y-85555488D01*
X95768438Y-85557484D01*
X95767755Y-85558262D01*
X95766906Y-85558829D01*
X95774056Y-85569530D01*
X95774187Y-85571526D01*
X95772524Y-85572637D01*
X95771282Y-85572304D01*
X95749836Y-85557975D01*
X95719801Y-85552000D01*
X95130199Y-85552000D01*
X95100164Y-85557975D01*
X95078718Y-85572304D01*
X95076722Y-85572435D01*
X95075611Y-85570772D01*
X95075944Y-85569530D01*
X95083094Y-85558829D01*
X95082194Y-85558227D01*
X95081309Y-85556433D01*
X95081734Y-85555326D01*
X95098640Y-85533880D01*
X95101013Y-85473425D01*
X95081693Y-85444512D01*
X95081562Y-85442516D01*
X95082245Y-85441738D01*
X95083094Y-85441171D01*
X95075944Y-85430470D01*
X95075813Y-85428474D01*
X95077476Y-85427363D01*
X95078718Y-85427696D01*
G37*
G36*
X92118718Y-84927696D02*
G01*
X92140164Y-84942025D01*
X92170199Y-84948000D01*
X92759801Y-84948000D01*
X92789836Y-84942025D01*
X92811282Y-84927696D01*
X92813278Y-84927565D01*
X92814389Y-84929228D01*
X92814056Y-84930470D01*
X92806906Y-84941171D01*
X92807806Y-84941773D01*
X92808691Y-84943567D01*
X92808266Y-84944674D01*
X92791360Y-84966120D01*
X92788987Y-85026575D01*
X92808307Y-85055488D01*
X92808438Y-85057484D01*
X92807755Y-85058262D01*
X92806906Y-85058829D01*
X92814056Y-85069530D01*
X92814187Y-85071526D01*
X92812524Y-85072637D01*
X92811282Y-85072304D01*
X92789836Y-85057975D01*
X92759801Y-85052000D01*
X92170199Y-85052000D01*
X92140164Y-85057975D01*
X92118718Y-85072304D01*
X92116722Y-85072435D01*
X92115611Y-85070772D01*
X92115944Y-85069530D01*
X92123094Y-85058829D01*
X92122194Y-85058227D01*
X92121309Y-85056433D01*
X92121734Y-85055326D01*
X92138640Y-85033880D01*
X92141013Y-84973425D01*
X92121693Y-84944512D01*
X92121562Y-84942516D01*
X92122245Y-84941738D01*
X92123094Y-84941171D01*
X92115944Y-84930470D01*
X92115813Y-84928474D01*
X92117476Y-84927363D01*
X92118718Y-84927696D01*
G37*
G36*
X95078718Y-84927696D02*
G01*
X95100164Y-84942025D01*
X95130199Y-84948000D01*
X95719801Y-84948000D01*
X95749836Y-84942025D01*
X95771282Y-84927696D01*
X95773278Y-84927565D01*
X95774389Y-84929228D01*
X95774056Y-84930470D01*
X95766906Y-84941171D01*
X95767806Y-84941773D01*
X95768691Y-84943567D01*
X95768266Y-84944674D01*
X95751360Y-84966120D01*
X95748987Y-85026575D01*
X95768307Y-85055488D01*
X95768438Y-85057484D01*
X95767755Y-85058262D01*
X95766906Y-85058829D01*
X95774056Y-85069530D01*
X95774187Y-85071526D01*
X95772524Y-85072637D01*
X95771282Y-85072304D01*
X95749836Y-85057975D01*
X95719801Y-85052000D01*
X95130199Y-85052000D01*
X95100164Y-85057975D01*
X95078718Y-85072304D01*
X95076722Y-85072435D01*
X95075611Y-85070772D01*
X95075944Y-85069530D01*
X95083094Y-85058829D01*
X95082194Y-85058227D01*
X95081309Y-85056433D01*
X95081734Y-85055326D01*
X95098640Y-85033880D01*
X95101013Y-84973425D01*
X95081693Y-84944512D01*
X95081562Y-84942516D01*
X95082245Y-84941738D01*
X95083094Y-84941171D01*
X95075944Y-84930470D01*
X95075813Y-84928474D01*
X95077476Y-84927363D01*
X95078718Y-84927696D01*
G37*
G36*
X92118718Y-84427696D02*
G01*
X92140164Y-84442025D01*
X92170199Y-84448000D01*
X92759801Y-84448000D01*
X92789836Y-84442025D01*
X92811282Y-84427696D01*
X92813278Y-84427565D01*
X92814389Y-84429228D01*
X92814056Y-84430470D01*
X92806906Y-84441171D01*
X92807806Y-84441773D01*
X92808691Y-84443567D01*
X92808266Y-84444674D01*
X92791360Y-84466120D01*
X92788987Y-84526575D01*
X92808307Y-84555488D01*
X92808438Y-84557484D01*
X92807755Y-84558262D01*
X92806906Y-84558829D01*
X92814056Y-84569530D01*
X92814187Y-84571526D01*
X92812524Y-84572637D01*
X92811282Y-84572304D01*
X92789836Y-84557975D01*
X92759801Y-84552000D01*
X92170199Y-84552000D01*
X92140164Y-84557975D01*
X92118718Y-84572304D01*
X92116722Y-84572435D01*
X92115611Y-84570772D01*
X92115944Y-84569530D01*
X92123094Y-84558829D01*
X92122194Y-84558227D01*
X92121309Y-84556433D01*
X92121734Y-84555326D01*
X92138640Y-84533880D01*
X92141013Y-84473425D01*
X92121693Y-84444512D01*
X92121562Y-84442516D01*
X92122245Y-84441738D01*
X92123094Y-84441171D01*
X92115944Y-84430470D01*
X92115813Y-84428474D01*
X92117476Y-84427363D01*
X92118718Y-84427696D01*
G37*
G36*
X95078718Y-84427696D02*
G01*
X95100164Y-84442025D01*
X95130199Y-84448000D01*
X95719801Y-84448000D01*
X95749836Y-84442025D01*
X95771282Y-84427696D01*
X95773278Y-84427565D01*
X95774389Y-84429228D01*
X95774056Y-84430470D01*
X95766906Y-84441171D01*
X95767806Y-84441773D01*
X95768691Y-84443567D01*
X95768266Y-84444674D01*
X95751360Y-84466120D01*
X95748987Y-84526575D01*
X95768307Y-84555488D01*
X95768438Y-84557484D01*
X95767755Y-84558262D01*
X95766906Y-84558829D01*
X95774056Y-84569530D01*
X95774187Y-84571526D01*
X95772524Y-84572637D01*
X95771282Y-84572304D01*
X95749836Y-84557975D01*
X95719801Y-84552000D01*
X95130199Y-84552000D01*
X95100164Y-84557975D01*
X95078718Y-84572304D01*
X95076722Y-84572435D01*
X95075611Y-84570772D01*
X95075944Y-84569530D01*
X95083094Y-84558829D01*
X95082194Y-84558227D01*
X95081309Y-84556433D01*
X95081734Y-84555326D01*
X95098640Y-84533880D01*
X95101013Y-84473425D01*
X95081693Y-84444512D01*
X95081562Y-84442516D01*
X95082245Y-84441738D01*
X95083094Y-84441171D01*
X95075944Y-84430470D01*
X95075813Y-84428474D01*
X95077476Y-84427363D01*
X95078718Y-84427696D01*
G37*
G36*
X125030902Y-78894517D02*
G01*
X125049798Y-78952673D01*
X125098747Y-78988237D01*
X125159438Y-78988237D01*
X125171062Y-78982600D01*
X125173057Y-78982744D01*
X125173930Y-78984544D01*
X125173046Y-78986063D01*
X125153873Y-78998873D01*
X125136975Y-79024164D01*
X125131000Y-79054199D01*
X125131000Y-79293801D01*
X125136975Y-79323836D01*
X125153873Y-79349127D01*
X125179164Y-79366025D01*
X125209199Y-79372000D01*
X125798801Y-79372000D01*
X125828836Y-79366025D01*
X125850282Y-79351696D01*
X125852278Y-79351565D01*
X125853389Y-79353228D01*
X125853056Y-79354470D01*
X125845906Y-79365171D01*
X125846806Y-79365773D01*
X125847691Y-79367567D01*
X125847266Y-79368674D01*
X125830360Y-79390120D01*
X125827987Y-79450575D01*
X125847307Y-79479488D01*
X125847438Y-79481484D01*
X125846755Y-79482262D01*
X125845906Y-79482829D01*
X125853056Y-79493530D01*
X125853187Y-79495526D01*
X125851524Y-79496637D01*
X125850282Y-79496304D01*
X125828836Y-79481975D01*
X125798801Y-79476000D01*
X125209199Y-79476000D01*
X125179164Y-79481975D01*
X125153873Y-79498873D01*
X125136975Y-79524164D01*
X125131000Y-79554199D01*
X125131000Y-79793801D01*
X125136975Y-79823836D01*
X125153873Y-79849127D01*
X125179164Y-79866025D01*
X125209199Y-79872000D01*
X125798801Y-79872000D01*
X125828836Y-79866025D01*
X125850282Y-79851696D01*
X125852278Y-79851565D01*
X125853389Y-79853228D01*
X125853056Y-79854470D01*
X125845906Y-79865171D01*
X125846806Y-79865773D01*
X125847691Y-79867567D01*
X125847266Y-79868674D01*
X125830360Y-79890120D01*
X125827987Y-79950575D01*
X125847307Y-79979488D01*
X125847438Y-79981484D01*
X125846755Y-79982262D01*
X125845906Y-79982829D01*
X125853056Y-79993530D01*
X125853187Y-79995526D01*
X125851524Y-79996637D01*
X125850282Y-79996304D01*
X125828836Y-79981975D01*
X125798801Y-79976000D01*
X125209199Y-79976000D01*
X125179164Y-79981975D01*
X125153873Y-79998873D01*
X125136975Y-80024164D01*
X125131000Y-80054199D01*
X125131000Y-80293801D01*
X125136975Y-80323836D01*
X125153873Y-80349127D01*
X125179164Y-80366025D01*
X125209199Y-80372000D01*
X125798801Y-80372000D01*
X125828836Y-80366025D01*
X125850282Y-80351696D01*
X125852278Y-80351565D01*
X125853389Y-80353228D01*
X125853056Y-80354470D01*
X125845906Y-80365171D01*
X125846806Y-80365773D01*
X125847691Y-80367567D01*
X125847266Y-80368674D01*
X125830360Y-80390120D01*
X125827987Y-80450575D01*
X125847307Y-80479488D01*
X125847438Y-80481484D01*
X125846755Y-80482262D01*
X125845906Y-80482829D01*
X125853056Y-80493530D01*
X125853187Y-80495526D01*
X125851524Y-80496637D01*
X125850282Y-80496304D01*
X125828836Y-80481975D01*
X125798801Y-80476000D01*
X125209199Y-80476000D01*
X125179164Y-80481975D01*
X125153873Y-80498873D01*
X125136975Y-80524164D01*
X125131000Y-80554199D01*
X125131000Y-80793801D01*
X125136975Y-80823836D01*
X125153873Y-80849127D01*
X125175322Y-80863458D01*
X125176207Y-80865252D01*
X125175096Y-80866915D01*
X125173821Y-80867083D01*
X125160321Y-80864398D01*
X125160179Y-80864560D01*
X125158994Y-80864591D01*
X125125156Y-80855047D01*
X125068393Y-80875987D01*
X125034673Y-80926452D01*
X125030981Y-80953142D01*
X125029753Y-80954721D01*
X125027772Y-80954447D01*
X125027000Y-80952868D01*
X125027000Y-78895135D01*
X125028000Y-78893403D01*
X125030000Y-78893403D01*
X125030902Y-78894517D01*
G37*
G36*
X123280228Y-78893553D02*
G01*
X123281000Y-78895132D01*
X123281000Y-80952865D01*
X123280000Y-80954597D01*
X123278000Y-80954597D01*
X123277098Y-80953483D01*
X123258202Y-80895327D01*
X123209253Y-80859763D01*
X123148562Y-80859763D01*
X123136938Y-80865400D01*
X123134943Y-80865256D01*
X123134070Y-80863456D01*
X123134954Y-80861937D01*
X123154127Y-80849127D01*
X123171025Y-80823836D01*
X123177000Y-80793801D01*
X123177000Y-80554199D01*
X123171025Y-80524164D01*
X123154127Y-80498873D01*
X123128836Y-80481975D01*
X123098801Y-80476000D01*
X122509199Y-80476000D01*
X122479164Y-80481975D01*
X122457718Y-80496304D01*
X122455722Y-80496435D01*
X122454611Y-80494772D01*
X122454944Y-80493530D01*
X122462094Y-80482829D01*
X122461194Y-80482227D01*
X122460309Y-80480433D01*
X122460734Y-80479326D01*
X122477640Y-80457880D01*
X122480013Y-80397425D01*
X122460693Y-80368512D01*
X122460562Y-80366516D01*
X122461245Y-80365738D01*
X122462094Y-80365171D01*
X122454944Y-80354470D01*
X122454813Y-80352474D01*
X122456476Y-80351363D01*
X122457718Y-80351696D01*
X122479164Y-80366025D01*
X122509199Y-80372000D01*
X123098801Y-80372000D01*
X123128836Y-80366025D01*
X123154127Y-80349127D01*
X123171025Y-80323836D01*
X123177000Y-80293801D01*
X123177000Y-80054199D01*
X123171025Y-80024164D01*
X123154127Y-79998873D01*
X123128836Y-79981975D01*
X123098801Y-79976000D01*
X122509199Y-79976000D01*
X122479164Y-79981975D01*
X122457718Y-79996304D01*
X122455722Y-79996435D01*
X122454611Y-79994772D01*
X122454944Y-79993530D01*
X122462094Y-79982829D01*
X122461194Y-79982227D01*
X122460309Y-79980433D01*
X122460734Y-79979326D01*
X122477640Y-79957880D01*
X122480013Y-79897425D01*
X122460693Y-79868512D01*
X122460562Y-79866516D01*
X122461245Y-79865738D01*
X122462094Y-79865171D01*
X122454944Y-79854470D01*
X122454813Y-79852474D01*
X122456476Y-79851363D01*
X122457718Y-79851696D01*
X122479164Y-79866025D01*
X122509199Y-79872000D01*
X123098801Y-79872000D01*
X123128836Y-79866025D01*
X123154127Y-79849127D01*
X123171025Y-79823836D01*
X123177000Y-79793801D01*
X123177000Y-79554199D01*
X123171025Y-79524164D01*
X123154127Y-79498873D01*
X123128836Y-79481975D01*
X123098801Y-79476000D01*
X122509199Y-79476000D01*
X122479164Y-79481975D01*
X122457718Y-79496304D01*
X122455722Y-79496435D01*
X122454611Y-79494772D01*
X122454944Y-79493530D01*
X122462094Y-79482829D01*
X122461194Y-79482227D01*
X122460309Y-79480433D01*
X122460734Y-79479326D01*
X122477640Y-79457880D01*
X122480013Y-79397425D01*
X122460693Y-79368512D01*
X122460562Y-79366516D01*
X122461245Y-79365738D01*
X122462094Y-79365171D01*
X122454944Y-79354470D01*
X122454813Y-79352474D01*
X122456476Y-79351363D01*
X122457718Y-79351696D01*
X122479164Y-79366025D01*
X122509199Y-79372000D01*
X123098801Y-79372000D01*
X123128836Y-79366025D01*
X123154127Y-79349127D01*
X123171025Y-79323836D01*
X123177000Y-79293801D01*
X123177000Y-79054199D01*
X123171025Y-79024164D01*
X123154127Y-78998873D01*
X123132678Y-78984542D01*
X123131793Y-78982748D01*
X123132904Y-78981085D01*
X123134179Y-78980917D01*
X123147679Y-78983602D01*
X123147821Y-78983440D01*
X123149006Y-78983409D01*
X123182844Y-78992953D01*
X123239607Y-78972013D01*
X123273327Y-78921548D01*
X123277019Y-78894858D01*
X123278247Y-78893279D01*
X123280228Y-78893553D01*
G37*
M02*
