%TF.GenerationSoftware,KiCad,Pcbnew,(6.0.6)*%
%TF.CreationDate,2023-01-28T17:13:45-04:00*%
%TF.ProjectId,DDS_FunctionGenerator,4444535f-4675-46e6-9374-696f6e47656e,rev?*%
%TF.SameCoordinates,Original*%
%TF.FileFunction,Legend,Top*%
%TF.FilePolarity,Positive*%
%FSLAX46Y46*%
G04 Gerber Fmt 4.6, Leading zero omitted, Abs format (unit mm)*
G04 Created by KiCad (PCBNEW (6.0.6)) date 2023-01-28 17:13:45*
%MOMM*%
%LPD*%
G01*
G04 APERTURE LIST*
G04 Aperture macros list*
%AMRoundRect*
0 Rectangle with rounded corners*
0 $1 Rounding radius*
0 $2 $3 $4 $5 $6 $7 $8 $9 X,Y pos of 4 corners*
0 Add a 4 corners polygon primitive as box body*
4,1,4,$2,$3,$4,$5,$6,$7,$8,$9,$2,$3,0*
0 Add four circle primitives for the rounded corners*
1,1,$1+$1,$2,$3*
1,1,$1+$1,$4,$5*
1,1,$1+$1,$6,$7*
1,1,$1+$1,$8,$9*
0 Add four rect primitives between the rounded corners*
20,1,$1+$1,$2,$3,$4,$5,0*
20,1,$1+$1,$4,$5,$6,$7,0*
20,1,$1+$1,$6,$7,$8,$9,0*
20,1,$1+$1,$8,$9,$2,$3,0*%
G04 Aperture macros list end*
%ADD10C,0.150000*%
%ADD11C,0.200000*%
%ADD12C,0.220000*%
%ADD13C,0.180000*%
%ADD14C,0.153000*%
%ADD15C,0.120000*%
%ADD16C,0.203200*%
%ADD17RoundRect,0.170000X-0.330000X0.280000X-0.330000X-0.280000X0.330000X-0.280000X0.330000X0.280000X0*%
%ADD18RoundRect,0.170000X0.330000X-0.280000X0.330000X0.280000X-0.330000X0.280000X-0.330000X-0.280000X0*%
%ADD19RoundRect,0.170000X0.280000X0.330000X-0.280000X0.330000X-0.280000X-0.330000X0.280000X-0.330000X0*%
%ADD20C,1.600000*%
%ADD21C,0.900000*%
%ADD22RoundRect,0.135000X-0.340000X0.340000X-0.340000X-0.340000X0.340000X-0.340000X0.340000X0.340000X0*%
%ADD23RoundRect,0.250000X-0.200000X-0.250000X0.200000X-0.250000X0.200000X0.250000X-0.200000X0.250000X0*%
%ADD24RoundRect,0.164300X-0.266700X0.457200X-0.266700X-0.457200X0.266700X-0.457200X0.266700X0.457200X0*%
%ADD25RoundRect,0.170000X-0.280000X-0.330000X0.280000X-0.330000X0.280000X0.330000X-0.280000X0.330000X0*%
%ADD26C,2.400000*%
%ADD27C,2.700000*%
%ADD28C,3.960800*%
%ADD29RoundRect,0.080000X0.295000X0.120000X-0.295000X0.120000X-0.295000X-0.120000X0.295000X-0.120000X0*%
%ADD30RoundRect,0.080000X-0.295000X-0.120000X0.295000X-0.120000X0.295000X0.120000X-0.295000X0.120000X0*%
%ADD31RoundRect,0.135000X0.765000X1.165000X-0.765000X1.165000X-0.765000X-1.165000X0.765000X-1.165000X0*%
%ADD32RoundRect,0.215000X0.385000X1.085000X-0.385000X1.085000X-0.385000X-1.085000X0.385000X-1.085000X0*%
%ADD33RoundRect,0.150000X0.200000X-0.510000X0.200000X0.510000X-0.200000X0.510000X-0.200000X-0.510000X0*%
%ADD34RoundRect,0.170000X-0.426612X-0.072814X0.002373X-0.432775X0.426612X0.072814X-0.002373X0.432775X0*%
%ADD35RoundRect,0.090000X-0.210000X0.235000X-0.210000X-0.235000X0.210000X-0.235000X0.210000X0.235000X0*%
%ADD36RoundRect,0.210000X-1.590000X-0.640000X1.590000X-0.640000X1.590000X0.640000X-1.590000X0.640000X0*%
%ADD37RoundRect,0.185000X-0.515000X0.315000X-0.515000X-0.315000X0.515000X-0.315000X0.515000X0.315000X0*%
%ADD38RoundRect,0.282000X2.468000X1.218000X-2.468000X1.218000X-2.468000X-1.218000X2.468000X-1.218000X0*%
%ADD39RoundRect,0.170000X0.180000X-0.280000X0.180000X0.280000X-0.180000X0.280000X-0.180000X-0.280000X0*%
%ADD40RoundRect,0.150000X-0.100000X0.637500X-0.100000X-0.637500X0.100000X-0.637500X0.100000X0.637500X0*%
%ADD41RoundRect,0.135000X0.340000X-0.340000X0.340000X0.340000X-0.340000X0.340000X-0.340000X-0.340000X0*%
%ADD42C,2.100000*%
%ADD43RoundRect,0.050000X1.000000X1.000000X-1.000000X1.000000X-1.000000X-1.000000X1.000000X-1.000000X0*%
%ADD44RoundRect,0.170000X0.280000X0.180000X-0.280000X0.180000X-0.280000X-0.180000X0.280000X-0.180000X0*%
%ADD45RoundRect,0.090000X-0.235000X-0.210000X0.235000X-0.210000X0.235000X0.210000X-0.235000X0.210000X0*%
%ADD46RoundRect,0.185000X-0.315000X-0.515000X0.315000X-0.515000X0.315000X0.515000X-0.315000X0.515000X0*%
%ADD47RoundRect,0.185000X0.315000X0.515000X-0.315000X0.515000X-0.315000X-0.515000X0.315000X-0.515000X0*%
%ADD48RoundRect,0.110000X0.490000X0.240000X-0.490000X0.240000X-0.490000X-0.240000X0.490000X-0.240000X0*%
%ADD49RoundRect,0.185000X0.515000X-0.315000X0.515000X0.315000X-0.515000X0.315000X-0.515000X-0.315000X0*%
%ADD50RoundRect,0.210000X1.590000X0.640000X-1.590000X0.640000X-1.590000X-0.640000X1.590000X-0.640000X0*%
%ADD51RoundRect,0.110000X-0.240000X0.640000X-0.240000X-0.640000X0.240000X-0.640000X0.240000X0.640000X0*%
%ADD52RoundRect,0.132500X-0.742500X-1.117500X0.742500X-1.117500X0.742500X1.117500X-0.742500X1.117500X0*%
%ADD53RoundRect,0.050000X-0.850000X0.850000X-0.850000X-0.850000X0.850000X-0.850000X0.850000X0.850000X0*%
%ADD54O,1.800000X1.800000*%
G04 APERTURE END LIST*
D10*
X97738095Y-103200000D02*
X97642857Y-103152380D01*
X97500000Y-103152380D01*
X97357142Y-103200000D01*
X97261904Y-103295238D01*
X97214285Y-103390476D01*
X97166666Y-103580952D01*
X97166666Y-103723809D01*
X97214285Y-103914285D01*
X97261904Y-104009523D01*
X97357142Y-104104761D01*
X97500000Y-104152380D01*
X97595238Y-104152380D01*
X97738095Y-104104761D01*
X97785714Y-104057142D01*
X97785714Y-103723809D01*
X97595238Y-103723809D01*
X98214285Y-104152380D02*
X98214285Y-103152380D01*
X98785714Y-104152380D01*
X98785714Y-103152380D01*
X99261904Y-104152380D02*
X99261904Y-103152380D01*
X99500000Y-103152380D01*
X99642857Y-103200000D01*
X99738095Y-103295238D01*
X99785714Y-103390476D01*
X99833333Y-103580952D01*
X99833333Y-103723809D01*
X99785714Y-103914285D01*
X99738095Y-104009523D01*
X99642857Y-104104761D01*
X99500000Y-104152380D01*
X99261904Y-104152380D01*
X104638095Y-95500000D02*
X104542857Y-95452380D01*
X104400000Y-95452380D01*
X104257142Y-95500000D01*
X104161904Y-95595238D01*
X104114285Y-95690476D01*
X104066666Y-95880952D01*
X104066666Y-96023809D01*
X104114285Y-96214285D01*
X104161904Y-96309523D01*
X104257142Y-96404761D01*
X104400000Y-96452380D01*
X104495238Y-96452380D01*
X104638095Y-96404761D01*
X104685714Y-96357142D01*
X104685714Y-96023809D01*
X104495238Y-96023809D01*
X105114285Y-96452380D02*
X105114285Y-95452380D01*
X105685714Y-96452380D01*
X105685714Y-95452380D01*
X106161904Y-96452380D02*
X106161904Y-95452380D01*
X106400000Y-95452380D01*
X106542857Y-95500000D01*
X106638095Y-95595238D01*
X106685714Y-95690476D01*
X106733333Y-95880952D01*
X106733333Y-96023809D01*
X106685714Y-96214285D01*
X106638095Y-96309523D01*
X106542857Y-96404761D01*
X106400000Y-96452380D01*
X106161904Y-96452380D01*
D11*
X82300000Y-100578571D02*
X82585714Y-100578571D01*
X82728571Y-100650000D01*
X82871428Y-100792857D01*
X82942857Y-101078571D01*
X82942857Y-101578571D01*
X82871428Y-101864285D01*
X82728571Y-102007142D01*
X82585714Y-102078571D01*
X82300000Y-102078571D01*
X82157142Y-102007142D01*
X82014285Y-101864285D01*
X81942857Y-101578571D01*
X81942857Y-101078571D01*
X82014285Y-100792857D01*
X82157142Y-100650000D01*
X82300000Y-100578571D01*
X83585714Y-100578571D02*
X83585714Y-101792857D01*
X83657142Y-101935714D01*
X83728571Y-102007142D01*
X83871428Y-102078571D01*
X84157142Y-102078571D01*
X84300000Y-102007142D01*
X84371428Y-101935714D01*
X84442857Y-101792857D01*
X84442857Y-100578571D01*
X84942857Y-100578571D02*
X85800000Y-100578571D01*
X85371428Y-102078571D02*
X85371428Y-100578571D01*
D10*
X169838095Y-97300000D02*
X169742857Y-97252380D01*
X169600000Y-97252380D01*
X169457142Y-97300000D01*
X169361904Y-97395238D01*
X169314285Y-97490476D01*
X169266666Y-97680952D01*
X169266666Y-97823809D01*
X169314285Y-98014285D01*
X169361904Y-98109523D01*
X169457142Y-98204761D01*
X169600000Y-98252380D01*
X169695238Y-98252380D01*
X169838095Y-98204761D01*
X169885714Y-98157142D01*
X169885714Y-97823809D01*
X169695238Y-97823809D01*
X170314285Y-98252380D02*
X170314285Y-97252380D01*
X170885714Y-98252380D01*
X170885714Y-97252380D01*
X171361904Y-98252380D02*
X171361904Y-97252380D01*
X171600000Y-97252380D01*
X171742857Y-97300000D01*
X171838095Y-97395238D01*
X171885714Y-97490476D01*
X171933333Y-97680952D01*
X171933333Y-97823809D01*
X171885714Y-98014285D01*
X171838095Y-98109523D01*
X171742857Y-98204761D01*
X171600000Y-98252380D01*
X171361904Y-98252380D01*
X136580571Y-73677690D02*
X136580571Y-74011023D01*
X137104380Y-74011023D02*
X136104380Y-74011023D01*
X136104380Y-73534833D01*
X136723428Y-73153880D02*
X136723428Y-72391976D01*
X136580571Y-71915785D02*
X136580571Y-71582452D01*
X137104380Y-71439595D02*
X137104380Y-71915785D01*
X136104380Y-71915785D01*
X136104380Y-71439595D01*
X137104380Y-71011023D02*
X136104380Y-71011023D01*
X137104380Y-70439595D01*
X136104380Y-70439595D01*
X85738095Y-121400000D02*
X85642857Y-121352380D01*
X85500000Y-121352380D01*
X85357142Y-121400000D01*
X85261904Y-121495238D01*
X85214285Y-121590476D01*
X85166666Y-121780952D01*
X85166666Y-121923809D01*
X85214285Y-122114285D01*
X85261904Y-122209523D01*
X85357142Y-122304761D01*
X85500000Y-122352380D01*
X85595238Y-122352380D01*
X85738095Y-122304761D01*
X85785714Y-122257142D01*
X85785714Y-121923809D01*
X85595238Y-121923809D01*
X86214285Y-122352380D02*
X86214285Y-121352380D01*
X86785714Y-122352380D01*
X86785714Y-121352380D01*
X87261904Y-122352380D02*
X87261904Y-121352380D01*
X87500000Y-121352380D01*
X87642857Y-121400000D01*
X87738095Y-121495238D01*
X87785714Y-121590476D01*
X87833333Y-121780952D01*
X87833333Y-121923809D01*
X87785714Y-122114285D01*
X87738095Y-122209523D01*
X87642857Y-122304761D01*
X87500000Y-122352380D01*
X87261904Y-122352380D01*
D11*
X166914285Y-85007142D02*
X167128571Y-85078571D01*
X167485714Y-85078571D01*
X167628571Y-85007142D01*
X167700000Y-84935714D01*
X167771428Y-84792857D01*
X167771428Y-84650000D01*
X167700000Y-84507142D01*
X167628571Y-84435714D01*
X167485714Y-84364285D01*
X167200000Y-84292857D01*
X167057142Y-84221428D01*
X166985714Y-84150000D01*
X166914285Y-84007142D01*
X166914285Y-83864285D01*
X166985714Y-83721428D01*
X167057142Y-83650000D01*
X167200000Y-83578571D01*
X167557142Y-83578571D01*
X167771428Y-83650000D01*
X169414285Y-85221428D02*
X169271428Y-85150000D01*
X169128571Y-85007142D01*
X168914285Y-84792857D01*
X168771428Y-84721428D01*
X168628571Y-84721428D01*
X168700000Y-85078571D02*
X168557142Y-85007142D01*
X168414285Y-84864285D01*
X168342857Y-84578571D01*
X168342857Y-84078571D01*
X168414285Y-83792857D01*
X168557142Y-83650000D01*
X168700000Y-83578571D01*
X168985714Y-83578571D01*
X169128571Y-83650000D01*
X169271428Y-83792857D01*
X169342857Y-84078571D01*
X169342857Y-84578571D01*
X169271428Y-84864285D01*
X169128571Y-85007142D01*
X168985714Y-85078571D01*
X168700000Y-85078571D01*
X169985714Y-84507142D02*
X171128571Y-84507142D01*
X171842857Y-85078571D02*
X171842857Y-83578571D01*
X172557142Y-85078571D02*
X172557142Y-83578571D01*
X173414285Y-85078571D01*
X173414285Y-83578571D01*
D10*
X113838095Y-94500000D02*
X113742857Y-94452380D01*
X113600000Y-94452380D01*
X113457142Y-94500000D01*
X113361904Y-94595238D01*
X113314285Y-94690476D01*
X113266666Y-94880952D01*
X113266666Y-95023809D01*
X113314285Y-95214285D01*
X113361904Y-95309523D01*
X113457142Y-95404761D01*
X113600000Y-95452380D01*
X113695238Y-95452380D01*
X113838095Y-95404761D01*
X113885714Y-95357142D01*
X113885714Y-95023809D01*
X113695238Y-95023809D01*
X114314285Y-95452380D02*
X114314285Y-94452380D01*
X114885714Y-95452380D01*
X114885714Y-94452380D01*
X115361904Y-95452380D02*
X115361904Y-94452380D01*
X115600000Y-94452380D01*
X115742857Y-94500000D01*
X115838095Y-94595238D01*
X115885714Y-94690476D01*
X115933333Y-94880952D01*
X115933333Y-95023809D01*
X115885714Y-95214285D01*
X115838095Y-95309523D01*
X115742857Y-95404761D01*
X115600000Y-95452380D01*
X115361904Y-95452380D01*
X95038095Y-95071428D02*
X95800000Y-95071428D01*
X96752380Y-94452380D02*
X96276190Y-94452380D01*
X96228571Y-94928571D01*
X96276190Y-94880952D01*
X96371428Y-94833333D01*
X96609523Y-94833333D01*
X96704761Y-94880952D01*
X96752380Y-94928571D01*
X96800000Y-95023809D01*
X96800000Y-95261904D01*
X96752380Y-95357142D01*
X96704761Y-95404761D01*
X96609523Y-95452380D01*
X96371428Y-95452380D01*
X96276190Y-95404761D01*
X96228571Y-95357142D01*
X97085714Y-94452380D02*
X97419047Y-95452380D01*
X97752380Y-94452380D01*
X98228571Y-94880952D02*
X98133333Y-94833333D01*
X98085714Y-94785714D01*
X98038095Y-94690476D01*
X98038095Y-94642857D01*
X98085714Y-94547619D01*
X98133333Y-94500000D01*
X98228571Y-94452380D01*
X98419047Y-94452380D01*
X98514285Y-94500000D01*
X98561904Y-94547619D01*
X98609523Y-94642857D01*
X98609523Y-94690476D01*
X98561904Y-94785714D01*
X98514285Y-94833333D01*
X98419047Y-94880952D01*
X98228571Y-94880952D01*
X98133333Y-94928571D01*
X98085714Y-94976190D01*
X98038095Y-95071428D01*
X98038095Y-95261904D01*
X98085714Y-95357142D01*
X98133333Y-95404761D01*
X98228571Y-95452380D01*
X98419047Y-95452380D01*
X98514285Y-95404761D01*
X98561904Y-95357142D01*
X98609523Y-95261904D01*
X98609523Y-95071428D01*
X98561904Y-94976190D01*
X98514285Y-94928571D01*
X98419047Y-94880952D01*
X139120571Y-73820547D02*
X139120571Y-74153880D01*
X139644380Y-74153880D02*
X138644380Y-74153880D01*
X138644380Y-73677690D01*
X139263428Y-73296738D02*
X139263428Y-72534833D01*
X139596761Y-72106261D02*
X139644380Y-71963404D01*
X139644380Y-71725309D01*
X139596761Y-71630071D01*
X139549142Y-71582452D01*
X139453904Y-71534833D01*
X139358666Y-71534833D01*
X139263428Y-71582452D01*
X139215809Y-71630071D01*
X139168190Y-71725309D01*
X139120571Y-71915785D01*
X139072952Y-72011023D01*
X139025333Y-72058642D01*
X138930095Y-72106261D01*
X138834857Y-72106261D01*
X138739619Y-72058642D01*
X138692000Y-72011023D01*
X138644380Y-71915785D01*
X138644380Y-71677690D01*
X138692000Y-71534833D01*
X138644380Y-71201500D02*
X139644380Y-70963404D01*
X138930095Y-70772928D01*
X139644380Y-70582452D01*
X138644380Y-70344357D01*
X144724380Y-74487214D02*
X143724380Y-74487214D01*
X143724380Y-74106261D01*
X143772000Y-74011023D01*
X143819619Y-73963404D01*
X143914857Y-73915785D01*
X144057714Y-73915785D01*
X144152952Y-73963404D01*
X144200571Y-74011023D01*
X144248190Y-74106261D01*
X144248190Y-74487214D01*
X144676761Y-73534833D02*
X144724380Y-73391976D01*
X144724380Y-73153880D01*
X144676761Y-73058642D01*
X144629142Y-73011023D01*
X144533904Y-72963404D01*
X144438666Y-72963404D01*
X144343428Y-73011023D01*
X144295809Y-73058642D01*
X144248190Y-73153880D01*
X144200571Y-73344357D01*
X144152952Y-73439595D01*
X144105333Y-73487214D01*
X144010095Y-73534833D01*
X143914857Y-73534833D01*
X143819619Y-73487214D01*
X143772000Y-73439595D01*
X143724380Y-73344357D01*
X143724380Y-73106261D01*
X143772000Y-72963404D01*
X144724380Y-72058642D02*
X144724380Y-72534833D01*
X143724380Y-72534833D01*
X144629142Y-71153880D02*
X144676761Y-71201500D01*
X144724380Y-71344357D01*
X144724380Y-71439595D01*
X144676761Y-71582452D01*
X144581523Y-71677690D01*
X144486285Y-71725309D01*
X144295809Y-71772928D01*
X144152952Y-71772928D01*
X143962476Y-71725309D01*
X143867238Y-71677690D01*
X143772000Y-71582452D01*
X143724380Y-71439595D01*
X143724380Y-71344357D01*
X143772000Y-71201500D01*
X143819619Y-71153880D01*
X143724380Y-70868166D02*
X143724380Y-70296738D01*
X144724380Y-70582452D02*
X143724380Y-70582452D01*
X150138095Y-96100000D02*
X150042857Y-96052380D01*
X149900000Y-96052380D01*
X149757142Y-96100000D01*
X149661904Y-96195238D01*
X149614285Y-96290476D01*
X149566666Y-96480952D01*
X149566666Y-96623809D01*
X149614285Y-96814285D01*
X149661904Y-96909523D01*
X149757142Y-97004761D01*
X149900000Y-97052380D01*
X149995238Y-97052380D01*
X150138095Y-97004761D01*
X150185714Y-96957142D01*
X150185714Y-96623809D01*
X149995238Y-96623809D01*
X150614285Y-97052380D02*
X150614285Y-96052380D01*
X151185714Y-97052380D01*
X151185714Y-96052380D01*
X151661904Y-97052380D02*
X151661904Y-96052380D01*
X151900000Y-96052380D01*
X152042857Y-96100000D01*
X152138095Y-96195238D01*
X152185714Y-96290476D01*
X152233333Y-96480952D01*
X152233333Y-96623809D01*
X152185714Y-96814285D01*
X152138095Y-96909523D01*
X152042857Y-97004761D01*
X151900000Y-97052380D01*
X151661904Y-97052380D01*
X159012000Y-72487214D02*
X158964380Y-72582452D01*
X158964380Y-72725309D01*
X159012000Y-72868166D01*
X159107238Y-72963404D01*
X159202476Y-73011023D01*
X159392952Y-73058642D01*
X159535809Y-73058642D01*
X159726285Y-73011023D01*
X159821523Y-72963404D01*
X159916761Y-72868166D01*
X159964380Y-72725309D01*
X159964380Y-72630071D01*
X159916761Y-72487214D01*
X159869142Y-72439595D01*
X159535809Y-72439595D01*
X159535809Y-72630071D01*
X159964380Y-72011023D02*
X158964380Y-72011023D01*
X159964380Y-71439595D01*
X158964380Y-71439595D01*
X159964380Y-70963404D02*
X158964380Y-70963404D01*
X158964380Y-70725309D01*
X159012000Y-70582452D01*
X159107238Y-70487214D01*
X159202476Y-70439595D01*
X159392952Y-70391976D01*
X159535809Y-70391976D01*
X159726285Y-70439595D01*
X159821523Y-70487214D01*
X159916761Y-70582452D01*
X159964380Y-70725309D01*
X159964380Y-70963404D01*
X141660571Y-74011023D02*
X141660571Y-74344357D01*
X142184380Y-74344357D02*
X141184380Y-74344357D01*
X141184380Y-73868166D01*
X142136761Y-73534833D02*
X142184380Y-73391976D01*
X142184380Y-73153880D01*
X142136761Y-73058642D01*
X142089142Y-73011023D01*
X141993904Y-72963404D01*
X141898666Y-72963404D01*
X141803428Y-73011023D01*
X141755809Y-73058642D01*
X141708190Y-73153880D01*
X141660571Y-73344357D01*
X141612952Y-73439595D01*
X141565333Y-73487214D01*
X141470095Y-73534833D01*
X141374857Y-73534833D01*
X141279619Y-73487214D01*
X141232000Y-73439595D01*
X141184380Y-73344357D01*
X141184380Y-73106261D01*
X141232000Y-72963404D01*
X142184380Y-72058642D02*
X142184380Y-72534833D01*
X141184380Y-72534833D01*
X142089142Y-71153880D02*
X142136761Y-71201500D01*
X142184380Y-71344357D01*
X142184380Y-71439595D01*
X142136761Y-71582452D01*
X142041523Y-71677690D01*
X141946285Y-71725309D01*
X141755809Y-71772928D01*
X141612952Y-71772928D01*
X141422476Y-71725309D01*
X141327238Y-71677690D01*
X141232000Y-71582452D01*
X141184380Y-71439595D01*
X141184380Y-71344357D01*
X141232000Y-71201500D01*
X141279619Y-71153880D01*
X141184380Y-70868166D02*
X141184380Y-70296738D01*
X142184380Y-70582452D02*
X141184380Y-70582452D01*
X135838095Y-74900000D02*
X135742857Y-74852380D01*
X135600000Y-74852380D01*
X135457142Y-74900000D01*
X135361904Y-74995238D01*
X135314285Y-75090476D01*
X135266666Y-75280952D01*
X135266666Y-75423809D01*
X135314285Y-75614285D01*
X135361904Y-75709523D01*
X135457142Y-75804761D01*
X135600000Y-75852380D01*
X135695238Y-75852380D01*
X135838095Y-75804761D01*
X135885714Y-75757142D01*
X135885714Y-75423809D01*
X135695238Y-75423809D01*
X136314285Y-75852380D02*
X136314285Y-74852380D01*
X136885714Y-75852380D01*
X136885714Y-74852380D01*
X137361904Y-75852380D02*
X137361904Y-74852380D01*
X137600000Y-74852380D01*
X137742857Y-74900000D01*
X137838095Y-74995238D01*
X137885714Y-75090476D01*
X137933333Y-75280952D01*
X137933333Y-75423809D01*
X137885714Y-75614285D01*
X137838095Y-75709523D01*
X137742857Y-75804761D01*
X137600000Y-75852380D01*
X137361904Y-75852380D01*
D12*
X116428571Y-66765285D02*
X117028571Y-68565285D01*
X117628571Y-66765285D01*
X118228571Y-68565285D02*
X118228571Y-66765285D01*
X119085714Y-68565285D02*
X119085714Y-66765285D01*
X120114285Y-68565285D01*
X120114285Y-66765285D01*
X116300000Y-70777571D02*
X116385714Y-70691857D01*
X116557142Y-70606142D01*
X116900000Y-70777571D01*
X117071428Y-70691857D01*
X117157142Y-70606142D01*
X118614285Y-69663285D02*
X118271428Y-69663285D01*
X118100000Y-69749000D01*
X118014285Y-69834714D01*
X117842857Y-70091857D01*
X117757142Y-70434714D01*
X117757142Y-71120428D01*
X117842857Y-71291857D01*
X117928571Y-71377571D01*
X118100000Y-71463285D01*
X118442857Y-71463285D01*
X118614285Y-71377571D01*
X118700000Y-71291857D01*
X118785714Y-71120428D01*
X118785714Y-70691857D01*
X118700000Y-70520428D01*
X118614285Y-70434714D01*
X118442857Y-70349000D01*
X118100000Y-70349000D01*
X117928571Y-70434714D01*
X117842857Y-70520428D01*
X117757142Y-70691857D01*
X119300000Y-69663285D02*
X119900000Y-71463285D01*
X120500000Y-69663285D01*
D10*
X152200000Y-109538095D02*
X152247619Y-109442857D01*
X152247619Y-109300000D01*
X152200000Y-109157142D01*
X152104761Y-109061904D01*
X152009523Y-109014285D01*
X151819047Y-108966666D01*
X151676190Y-108966666D01*
X151485714Y-109014285D01*
X151390476Y-109061904D01*
X151295238Y-109157142D01*
X151247619Y-109300000D01*
X151247619Y-109395238D01*
X151295238Y-109538095D01*
X151342857Y-109585714D01*
X151676190Y-109585714D01*
X151676190Y-109395238D01*
X151247619Y-110014285D02*
X152247619Y-110014285D01*
X151247619Y-110585714D01*
X152247619Y-110585714D01*
X151247619Y-111061904D02*
X152247619Y-111061904D01*
X152247619Y-111300000D01*
X152200000Y-111442857D01*
X152104761Y-111538095D01*
X152009523Y-111585714D01*
X151819047Y-111633333D01*
X151676190Y-111633333D01*
X151485714Y-111585714D01*
X151390476Y-111538095D01*
X151295238Y-111442857D01*
X151247619Y-111300000D01*
X151247619Y-111061904D01*
X157376761Y-73772928D02*
X157424380Y-73630071D01*
X157424380Y-73391976D01*
X157376761Y-73296738D01*
X157329142Y-73249119D01*
X157233904Y-73201500D01*
X157138666Y-73201500D01*
X157043428Y-73249119D01*
X156995809Y-73296738D01*
X156948190Y-73391976D01*
X156900571Y-73582452D01*
X156852952Y-73677690D01*
X156805333Y-73725309D01*
X156710095Y-73772928D01*
X156614857Y-73772928D01*
X156519619Y-73725309D01*
X156472000Y-73677690D01*
X156424380Y-73582452D01*
X156424380Y-73344357D01*
X156472000Y-73201500D01*
X157329142Y-72201500D02*
X157376761Y-72249119D01*
X157424380Y-72391976D01*
X157424380Y-72487214D01*
X157376761Y-72630071D01*
X157281523Y-72725309D01*
X157186285Y-72772928D01*
X156995809Y-72820547D01*
X156852952Y-72820547D01*
X156662476Y-72772928D01*
X156567238Y-72725309D01*
X156472000Y-72630071D01*
X156424380Y-72487214D01*
X156424380Y-72391976D01*
X156472000Y-72249119D01*
X156519619Y-72201500D01*
X157424380Y-71296738D02*
X157424380Y-71772928D01*
X156424380Y-71772928D01*
X157424380Y-70963404D02*
X156424380Y-70963404D01*
X157424380Y-70391976D02*
X156852952Y-70820547D01*
X156424380Y-70391976D02*
X156995809Y-70963404D01*
D12*
X93428571Y-66900000D02*
X93257142Y-66814285D01*
X93000000Y-66814285D01*
X92742857Y-66900000D01*
X92571428Y-67071428D01*
X92485714Y-67242857D01*
X92400000Y-67585714D01*
X92400000Y-67842857D01*
X92485714Y-68185714D01*
X92571428Y-68357142D01*
X92742857Y-68528571D01*
X93000000Y-68614285D01*
X93171428Y-68614285D01*
X93428571Y-68528571D01*
X93514285Y-68442857D01*
X93514285Y-67842857D01*
X93171428Y-67842857D01*
X94285714Y-68614285D02*
X94285714Y-66814285D01*
X95314285Y-68614285D01*
X95314285Y-66814285D01*
X96171428Y-68614285D02*
X96171428Y-66814285D01*
X96600000Y-66814285D01*
X96857142Y-66900000D01*
X97028571Y-67071428D01*
X97114285Y-67242857D01*
X97200000Y-67585714D01*
X97200000Y-67842857D01*
X97114285Y-68185714D01*
X97028571Y-68357142D01*
X96857142Y-68528571D01*
X96600000Y-68614285D01*
X96171428Y-68614285D01*
D10*
X141238095Y-81471428D02*
X142000000Y-81471428D01*
X141619047Y-81852380D02*
X141619047Y-81090476D01*
X142380952Y-80852380D02*
X143000000Y-80852380D01*
X142666666Y-81233333D01*
X142809523Y-81233333D01*
X142904761Y-81280952D01*
X142952380Y-81328571D01*
X143000000Y-81423809D01*
X143000000Y-81661904D01*
X142952380Y-81757142D01*
X142904761Y-81804761D01*
X142809523Y-81852380D01*
X142523809Y-81852380D01*
X142428571Y-81804761D01*
X142380952Y-81757142D01*
X143285714Y-80852380D02*
X143619047Y-81852380D01*
X143952380Y-80852380D01*
X144190476Y-80852380D02*
X144809523Y-80852380D01*
X144476190Y-81233333D01*
X144619047Y-81233333D01*
X144714285Y-81280952D01*
X144761904Y-81328571D01*
X144809523Y-81423809D01*
X144809523Y-81661904D01*
X144761904Y-81757142D01*
X144714285Y-81804761D01*
X144619047Y-81852380D01*
X144333333Y-81852380D01*
X144238095Y-81804761D01*
X144190476Y-81757142D01*
X143438095Y-104500000D02*
X143342857Y-104452380D01*
X143200000Y-104452380D01*
X143057142Y-104500000D01*
X142961904Y-104595238D01*
X142914285Y-104690476D01*
X142866666Y-104880952D01*
X142866666Y-105023809D01*
X142914285Y-105214285D01*
X142961904Y-105309523D01*
X143057142Y-105404761D01*
X143200000Y-105452380D01*
X143295238Y-105452380D01*
X143438095Y-105404761D01*
X143485714Y-105357142D01*
X143485714Y-105023809D01*
X143295238Y-105023809D01*
X143914285Y-105452380D02*
X143914285Y-104452380D01*
X144485714Y-105452380D01*
X144485714Y-104452380D01*
X144961904Y-105452380D02*
X144961904Y-104452380D01*
X145200000Y-104452380D01*
X145342857Y-104500000D01*
X145438095Y-104595238D01*
X145485714Y-104690476D01*
X145533333Y-104880952D01*
X145533333Y-105023809D01*
X145485714Y-105214285D01*
X145438095Y-105309523D01*
X145342857Y-105404761D01*
X145200000Y-105452380D01*
X144961904Y-105452380D01*
X149534571Y-74344357D02*
X149534571Y-74677690D01*
X150058380Y-74677690D02*
X149058380Y-74677690D01*
X149058380Y-74201500D01*
X150010761Y-73868166D02*
X150058380Y-73725309D01*
X150058380Y-73487214D01*
X150010761Y-73391976D01*
X149963142Y-73344357D01*
X149867904Y-73296738D01*
X149772666Y-73296738D01*
X149677428Y-73344357D01*
X149629809Y-73391976D01*
X149582190Y-73487214D01*
X149534571Y-73677690D01*
X149486952Y-73772928D01*
X149439333Y-73820547D01*
X149344095Y-73868166D01*
X149248857Y-73868166D01*
X149153619Y-73820547D01*
X149106000Y-73772928D01*
X149058380Y-73677690D01*
X149058380Y-73439595D01*
X149106000Y-73296738D01*
X149582190Y-72677690D02*
X150058380Y-72677690D01*
X149058380Y-73011023D02*
X149582190Y-72677690D01*
X149058380Y-72344357D01*
X150058380Y-72011023D02*
X149058380Y-72011023D01*
X150058380Y-71439595D01*
X149058380Y-71439595D01*
X149963142Y-70391976D02*
X150010761Y-70439595D01*
X150058380Y-70582452D01*
X150058380Y-70677690D01*
X150010761Y-70820547D01*
X149915523Y-70915785D01*
X149820285Y-70963404D01*
X149629809Y-71011023D01*
X149486952Y-71011023D01*
X149296476Y-70963404D01*
X149201238Y-70915785D01*
X149106000Y-70820547D01*
X149058380Y-70677690D01*
X149058380Y-70582452D01*
X149106000Y-70439595D01*
X149153619Y-70391976D01*
X152296761Y-74439595D02*
X152344380Y-74296738D01*
X152344380Y-74058642D01*
X152296761Y-73963404D01*
X152249142Y-73915785D01*
X152153904Y-73868166D01*
X152058666Y-73868166D01*
X151963428Y-73915785D01*
X151915809Y-73963404D01*
X151868190Y-74058642D01*
X151820571Y-74249119D01*
X151772952Y-74344357D01*
X151725333Y-74391976D01*
X151630095Y-74439595D01*
X151534857Y-74439595D01*
X151439619Y-74391976D01*
X151392000Y-74344357D01*
X151344380Y-74249119D01*
X151344380Y-74011023D01*
X151392000Y-73868166D01*
X152344380Y-73439595D02*
X151344380Y-73439595D01*
X151344380Y-73201500D01*
X151392000Y-73058642D01*
X151487238Y-72963404D01*
X151582476Y-72915785D01*
X151772952Y-72868166D01*
X151915809Y-72868166D01*
X152106285Y-72915785D01*
X152201523Y-72963404D01*
X152296761Y-73058642D01*
X152344380Y-73201500D01*
X152344380Y-73439595D01*
X152058666Y-72487214D02*
X152058666Y-72011023D01*
X152344380Y-72582452D02*
X151344380Y-72249119D01*
X152344380Y-71915785D01*
X151344380Y-71725309D02*
X151344380Y-71153880D01*
X152344380Y-71439595D02*
X151344380Y-71439595D01*
X152058666Y-70868166D02*
X152058666Y-70391976D01*
X152344380Y-70963404D02*
X151344380Y-70630071D01*
X152344380Y-70296738D01*
D11*
X142785714Y-85807142D02*
X143000000Y-85878571D01*
X143357142Y-85878571D01*
X143500000Y-85807142D01*
X143571428Y-85735714D01*
X143642857Y-85592857D01*
X143642857Y-85450000D01*
X143571428Y-85307142D01*
X143500000Y-85235714D01*
X143357142Y-85164285D01*
X143071428Y-85092857D01*
X142928571Y-85021428D01*
X142857142Y-84950000D01*
X142785714Y-84807142D01*
X142785714Y-84664285D01*
X142857142Y-84521428D01*
X142928571Y-84450000D01*
X143071428Y-84378571D01*
X143428571Y-84378571D01*
X143642857Y-84450000D01*
X145285714Y-86021428D02*
X145142857Y-85950000D01*
X145000000Y-85807142D01*
X144785714Y-85592857D01*
X144642857Y-85521428D01*
X144500000Y-85521428D01*
X144571428Y-85878571D02*
X144428571Y-85807142D01*
X144285714Y-85664285D01*
X144214285Y-85378571D01*
X144214285Y-84878571D01*
X144285714Y-84592857D01*
X144428571Y-84450000D01*
X144571428Y-84378571D01*
X144857142Y-84378571D01*
X145000000Y-84450000D01*
X145142857Y-84592857D01*
X145214285Y-84878571D01*
X145214285Y-85378571D01*
X145142857Y-85664285D01*
X145000000Y-85807142D01*
X144857142Y-85878571D01*
X144571428Y-85878571D01*
D10*
X158638095Y-120300000D02*
X158542857Y-120252380D01*
X158400000Y-120252380D01*
X158257142Y-120300000D01*
X158161904Y-120395238D01*
X158114285Y-120490476D01*
X158066666Y-120680952D01*
X158066666Y-120823809D01*
X158114285Y-121014285D01*
X158161904Y-121109523D01*
X158257142Y-121204761D01*
X158400000Y-121252380D01*
X158495238Y-121252380D01*
X158638095Y-121204761D01*
X158685714Y-121157142D01*
X158685714Y-120823809D01*
X158495238Y-120823809D01*
X159114285Y-121252380D02*
X159114285Y-120252380D01*
X159685714Y-121252380D01*
X159685714Y-120252380D01*
X160161904Y-121252380D02*
X160161904Y-120252380D01*
X160400000Y-120252380D01*
X160542857Y-120300000D01*
X160638095Y-120395238D01*
X160685714Y-120490476D01*
X160733333Y-120680952D01*
X160733333Y-120823809D01*
X160685714Y-121014285D01*
X160638095Y-121109523D01*
X160542857Y-121204761D01*
X160400000Y-121252380D01*
X160161904Y-121252380D01*
X141338095Y-82700000D02*
X141242857Y-82652380D01*
X141100000Y-82652380D01*
X140957142Y-82700000D01*
X140861904Y-82795238D01*
X140814285Y-82890476D01*
X140766666Y-83080952D01*
X140766666Y-83223809D01*
X140814285Y-83414285D01*
X140861904Y-83509523D01*
X140957142Y-83604761D01*
X141100000Y-83652380D01*
X141195238Y-83652380D01*
X141338095Y-83604761D01*
X141385714Y-83557142D01*
X141385714Y-83223809D01*
X141195238Y-83223809D01*
X141814285Y-83652380D02*
X141814285Y-82652380D01*
X142385714Y-83652380D01*
X142385714Y-82652380D01*
X142861904Y-83652380D02*
X142861904Y-82652380D01*
X143100000Y-82652380D01*
X143242857Y-82700000D01*
X143338095Y-82795238D01*
X143385714Y-82890476D01*
X143433333Y-83080952D01*
X143433333Y-83223809D01*
X143385714Y-83414285D01*
X143338095Y-83509523D01*
X143242857Y-83604761D01*
X143100000Y-83652380D01*
X142861904Y-83652380D01*
X147186761Y-74582452D02*
X147234380Y-74439595D01*
X147234380Y-74201500D01*
X147186761Y-74106261D01*
X147139142Y-74058642D01*
X147043904Y-74011023D01*
X146948666Y-74011023D01*
X146853428Y-74058642D01*
X146805809Y-74106261D01*
X146758190Y-74201500D01*
X146710571Y-74391976D01*
X146662952Y-74487214D01*
X146615333Y-74534833D01*
X146520095Y-74582452D01*
X146424857Y-74582452D01*
X146329619Y-74534833D01*
X146282000Y-74487214D01*
X146234380Y-74391976D01*
X146234380Y-74153880D01*
X146282000Y-74011023D01*
X147234380Y-73106261D02*
X147234380Y-73582452D01*
X146234380Y-73582452D01*
X146710571Y-72772928D02*
X146710571Y-72439595D01*
X147234380Y-72296738D02*
X147234380Y-72772928D01*
X146234380Y-72772928D01*
X146234380Y-72296738D01*
X146710571Y-71868166D02*
X146710571Y-71534833D01*
X147234380Y-71391976D02*
X147234380Y-71868166D01*
X146234380Y-71868166D01*
X146234380Y-71391976D01*
X147234380Y-70963404D02*
X146234380Y-70963404D01*
X146234380Y-70582452D01*
X146282000Y-70487214D01*
X146329619Y-70439595D01*
X146424857Y-70391976D01*
X146567714Y-70391976D01*
X146662952Y-70439595D01*
X146710571Y-70487214D01*
X146758190Y-70582452D01*
X146758190Y-70963404D01*
X167838095Y-106700000D02*
X167742857Y-106652380D01*
X167600000Y-106652380D01*
X167457142Y-106700000D01*
X167361904Y-106795238D01*
X167314285Y-106890476D01*
X167266666Y-107080952D01*
X167266666Y-107223809D01*
X167314285Y-107414285D01*
X167361904Y-107509523D01*
X167457142Y-107604761D01*
X167600000Y-107652380D01*
X167695238Y-107652380D01*
X167838095Y-107604761D01*
X167885714Y-107557142D01*
X167885714Y-107223809D01*
X167695238Y-107223809D01*
X168314285Y-107652380D02*
X168314285Y-106652380D01*
X168885714Y-107652380D01*
X168885714Y-106652380D01*
X169361904Y-107652380D02*
X169361904Y-106652380D01*
X169600000Y-106652380D01*
X169742857Y-106700000D01*
X169838095Y-106795238D01*
X169885714Y-106890476D01*
X169933333Y-107080952D01*
X169933333Y-107223809D01*
X169885714Y-107414285D01*
X169838095Y-107509523D01*
X169742857Y-107604761D01*
X169600000Y-107652380D01*
X169361904Y-107652380D01*
X154884380Y-72106261D02*
X154408190Y-72439595D01*
X154884380Y-72677690D02*
X153884380Y-72677690D01*
X153884380Y-72296738D01*
X153932000Y-72201500D01*
X153979619Y-72153880D01*
X154074857Y-72106261D01*
X154217714Y-72106261D01*
X154312952Y-72153880D01*
X154360571Y-72201500D01*
X154408190Y-72296738D01*
X154408190Y-72677690D01*
X154836761Y-71725309D02*
X154884380Y-71582452D01*
X154884380Y-71344357D01*
X154836761Y-71249119D01*
X154789142Y-71201500D01*
X154693904Y-71153880D01*
X154598666Y-71153880D01*
X154503428Y-71201500D01*
X154455809Y-71249119D01*
X154408190Y-71344357D01*
X154360571Y-71534833D01*
X154312952Y-71630071D01*
X154265333Y-71677690D01*
X154170095Y-71725309D01*
X154074857Y-71725309D01*
X153979619Y-71677690D01*
X153932000Y-71630071D01*
X153884380Y-71534833D01*
X153884380Y-71296738D01*
X153932000Y-71153880D01*
X153884380Y-70868166D02*
X153884380Y-70296738D01*
X154884380Y-70582452D02*
X153884380Y-70582452D01*
X106914285Y-93671428D02*
X107676190Y-93671428D01*
X108628571Y-93052380D02*
X108152380Y-93052380D01*
X108104761Y-93528571D01*
X108152380Y-93480952D01*
X108247619Y-93433333D01*
X108485714Y-93433333D01*
X108580952Y-93480952D01*
X108628571Y-93528571D01*
X108676190Y-93623809D01*
X108676190Y-93861904D01*
X108628571Y-93957142D01*
X108580952Y-94004761D01*
X108485714Y-94052380D01*
X108247619Y-94052380D01*
X108152380Y-94004761D01*
X108104761Y-93957142D01*
X108961904Y-93052380D02*
X109295238Y-94052380D01*
X109628571Y-93052380D01*
X128913285Y-82839428D02*
X129675190Y-82839428D01*
X129294238Y-83220380D02*
X129294238Y-82458476D01*
X130627571Y-82220380D02*
X130151380Y-82220380D01*
X130103761Y-82696571D01*
X130151380Y-82648952D01*
X130246619Y-82601333D01*
X130484714Y-82601333D01*
X130579952Y-82648952D01*
X130627571Y-82696571D01*
X130675190Y-82791809D01*
X130675190Y-83029904D01*
X130627571Y-83125142D01*
X130579952Y-83172761D01*
X130484714Y-83220380D01*
X130246619Y-83220380D01*
X130151380Y-83172761D01*
X130103761Y-83125142D01*
X130960904Y-82220380D02*
X131294238Y-83220380D01*
X131627571Y-82220380D01*
D13*
%TO.C,C26*%
X123692857Y-105692857D02*
X123640476Y-105745238D01*
X123483333Y-105797619D01*
X123378571Y-105797619D01*
X123221428Y-105745238D01*
X123116666Y-105640476D01*
X123064285Y-105535714D01*
X123011904Y-105326190D01*
X123011904Y-105169047D01*
X123064285Y-104959523D01*
X123116666Y-104854761D01*
X123221428Y-104750000D01*
X123378571Y-104697619D01*
X123483333Y-104697619D01*
X123640476Y-104750000D01*
X123692857Y-104802380D01*
X124111904Y-104802380D02*
X124164285Y-104750000D01*
X124269047Y-104697619D01*
X124530952Y-104697619D01*
X124635714Y-104750000D01*
X124688095Y-104802380D01*
X124740476Y-104907142D01*
X124740476Y-105011904D01*
X124688095Y-105169047D01*
X124059523Y-105797619D01*
X124740476Y-105797619D01*
X125683333Y-104697619D02*
X125473809Y-104697619D01*
X125369047Y-104750000D01*
X125316666Y-104802380D01*
X125211904Y-104959523D01*
X125159523Y-105169047D01*
X125159523Y-105588095D01*
X125211904Y-105692857D01*
X125264285Y-105745238D01*
X125369047Y-105797619D01*
X125578571Y-105797619D01*
X125683333Y-105745238D01*
X125735714Y-105692857D01*
X125788095Y-105588095D01*
X125788095Y-105326190D01*
X125735714Y-105221428D01*
X125683333Y-105169047D01*
X125578571Y-105116666D01*
X125369047Y-105116666D01*
X125264285Y-105169047D01*
X125211904Y-105221428D01*
X125159523Y-105326190D01*
%TO.C,R2*%
X116616666Y-78497619D02*
X116250000Y-77973809D01*
X115988095Y-78497619D02*
X115988095Y-77397619D01*
X116407142Y-77397619D01*
X116511904Y-77450000D01*
X116564285Y-77502380D01*
X116616666Y-77607142D01*
X116616666Y-77764285D01*
X116564285Y-77869047D01*
X116511904Y-77921428D01*
X116407142Y-77973809D01*
X115988095Y-77973809D01*
X117035714Y-77502380D02*
X117088095Y-77450000D01*
X117192857Y-77397619D01*
X117454761Y-77397619D01*
X117559523Y-77450000D01*
X117611904Y-77502380D01*
X117664285Y-77607142D01*
X117664285Y-77711904D01*
X117611904Y-77869047D01*
X116983333Y-78497619D01*
X117664285Y-78497619D01*
%TO.C,C7*%
X101807142Y-88916666D02*
X101754761Y-88864285D01*
X101702380Y-88707142D01*
X101702380Y-88602380D01*
X101754761Y-88445238D01*
X101859523Y-88340476D01*
X101964285Y-88288095D01*
X102173809Y-88235714D01*
X102330952Y-88235714D01*
X102540476Y-88288095D01*
X102645238Y-88340476D01*
X102750000Y-88445238D01*
X102802380Y-88602380D01*
X102802380Y-88707142D01*
X102750000Y-88864285D01*
X102697619Y-88916666D01*
X102802380Y-89283333D02*
X102802380Y-90016666D01*
X101702380Y-89545238D01*
%TO.C,R19*%
X164292857Y-104497619D02*
X163926190Y-103973809D01*
X163664285Y-104497619D02*
X163664285Y-103397619D01*
X164083333Y-103397619D01*
X164188095Y-103450000D01*
X164240476Y-103502380D01*
X164292857Y-103607142D01*
X164292857Y-103764285D01*
X164240476Y-103869047D01*
X164188095Y-103921428D01*
X164083333Y-103973809D01*
X163664285Y-103973809D01*
X165340476Y-104497619D02*
X164711904Y-104497619D01*
X165026190Y-104497619D02*
X165026190Y-103397619D01*
X164921428Y-103554761D01*
X164816666Y-103659523D01*
X164711904Y-103711904D01*
X165864285Y-104497619D02*
X166073809Y-104497619D01*
X166178571Y-104445238D01*
X166230952Y-104392857D01*
X166335714Y-104235714D01*
X166388095Y-104026190D01*
X166388095Y-103607142D01*
X166335714Y-103502380D01*
X166283333Y-103450000D01*
X166178571Y-103397619D01*
X165969047Y-103397619D01*
X165864285Y-103450000D01*
X165811904Y-103502380D01*
X165759523Y-103607142D01*
X165759523Y-103869047D01*
X165811904Y-103973809D01*
X165864285Y-104026190D01*
X165969047Y-104078571D01*
X166178571Y-104078571D01*
X166283333Y-104026190D01*
X166335714Y-103973809D01*
X166388095Y-103869047D01*
D10*
%TO.C,K2*%
X107061904Y-115052380D02*
X107061904Y-114052380D01*
X107633333Y-115052380D02*
X107204761Y-114480952D01*
X107633333Y-114052380D02*
X107061904Y-114623809D01*
X108014285Y-114147619D02*
X108061904Y-114100000D01*
X108157142Y-114052380D01*
X108395238Y-114052380D01*
X108490476Y-114100000D01*
X108538095Y-114147619D01*
X108585714Y-114242857D01*
X108585714Y-114338095D01*
X108538095Y-114480952D01*
X107966666Y-115052380D01*
X108585714Y-115052380D01*
D13*
%TO.C,C32*%
X120892857Y-122992857D02*
X120840476Y-123045238D01*
X120683333Y-123097619D01*
X120578571Y-123097619D01*
X120421428Y-123045238D01*
X120316666Y-122940476D01*
X120264285Y-122835714D01*
X120211904Y-122626190D01*
X120211904Y-122469047D01*
X120264285Y-122259523D01*
X120316666Y-122154761D01*
X120421428Y-122050000D01*
X120578571Y-121997619D01*
X120683333Y-121997619D01*
X120840476Y-122050000D01*
X120892857Y-122102380D01*
X121259523Y-121997619D02*
X121940476Y-121997619D01*
X121573809Y-122416666D01*
X121730952Y-122416666D01*
X121835714Y-122469047D01*
X121888095Y-122521428D01*
X121940476Y-122626190D01*
X121940476Y-122888095D01*
X121888095Y-122992857D01*
X121835714Y-123045238D01*
X121730952Y-123097619D01*
X121416666Y-123097619D01*
X121311904Y-123045238D01*
X121259523Y-122992857D01*
X122359523Y-122102380D02*
X122411904Y-122050000D01*
X122516666Y-121997619D01*
X122778571Y-121997619D01*
X122883333Y-122050000D01*
X122935714Y-122102380D01*
X122988095Y-122207142D01*
X122988095Y-122311904D01*
X122935714Y-122469047D01*
X122307142Y-123097619D01*
X122988095Y-123097619D01*
%TO.C,C5*%
X140016666Y-78519857D02*
X139964285Y-78572238D01*
X139807142Y-78624619D01*
X139702380Y-78624619D01*
X139545238Y-78572238D01*
X139440476Y-78467476D01*
X139388095Y-78362714D01*
X139335714Y-78153190D01*
X139335714Y-77996047D01*
X139388095Y-77786523D01*
X139440476Y-77681761D01*
X139545238Y-77577000D01*
X139702380Y-77524619D01*
X139807142Y-77524619D01*
X139964285Y-77577000D01*
X140016666Y-77629380D01*
X141011904Y-77524619D02*
X140488095Y-77524619D01*
X140435714Y-78048428D01*
X140488095Y-77996047D01*
X140592857Y-77943666D01*
X140854761Y-77943666D01*
X140959523Y-77996047D01*
X141011904Y-78048428D01*
X141064285Y-78153190D01*
X141064285Y-78415095D01*
X141011904Y-78519857D01*
X140959523Y-78572238D01*
X140854761Y-78624619D01*
X140592857Y-78624619D01*
X140488095Y-78572238D01*
X140435714Y-78519857D01*
D10*
%TO.C,D1*%
X126261904Y-98952380D02*
X126261904Y-97952380D01*
X126500000Y-97952380D01*
X126642857Y-98000000D01*
X126738095Y-98095238D01*
X126785714Y-98190476D01*
X126833333Y-98380952D01*
X126833333Y-98523809D01*
X126785714Y-98714285D01*
X126738095Y-98809523D01*
X126642857Y-98904761D01*
X126500000Y-98952380D01*
X126261904Y-98952380D01*
X127785714Y-98952380D02*
X127214285Y-98952380D01*
X127500000Y-98952380D02*
X127500000Y-97952380D01*
X127404761Y-98095238D01*
X127309523Y-98190476D01*
X127214285Y-98238095D01*
%TO.C,X1*%
X146190476Y-82352380D02*
X146857142Y-83352380D01*
X146857142Y-82352380D02*
X146190476Y-83352380D01*
X147761904Y-83352380D02*
X147190476Y-83352380D01*
X147476190Y-83352380D02*
X147476190Y-82352380D01*
X147380952Y-82495238D01*
X147285714Y-82590476D01*
X147190476Y-82638095D01*
%TO.C,U8*%
X160538095Y-109552380D02*
X160538095Y-110361904D01*
X160585714Y-110457142D01*
X160633333Y-110504761D01*
X160728571Y-110552380D01*
X160919047Y-110552380D01*
X161014285Y-110504761D01*
X161061904Y-110457142D01*
X161109523Y-110361904D01*
X161109523Y-109552380D01*
X161728571Y-109980952D02*
X161633333Y-109933333D01*
X161585714Y-109885714D01*
X161538095Y-109790476D01*
X161538095Y-109742857D01*
X161585714Y-109647619D01*
X161633333Y-109600000D01*
X161728571Y-109552380D01*
X161919047Y-109552380D01*
X162014285Y-109600000D01*
X162061904Y-109647619D01*
X162109523Y-109742857D01*
X162109523Y-109790476D01*
X162061904Y-109885714D01*
X162014285Y-109933333D01*
X161919047Y-109980952D01*
X161728571Y-109980952D01*
X161633333Y-110028571D01*
X161585714Y-110076190D01*
X161538095Y-110171428D01*
X161538095Y-110361904D01*
X161585714Y-110457142D01*
X161633333Y-110504761D01*
X161728571Y-110552380D01*
X161919047Y-110552380D01*
X162014285Y-110504761D01*
X162061904Y-110457142D01*
X162109523Y-110361904D01*
X162109523Y-110171428D01*
X162061904Y-110076190D01*
X162014285Y-110028571D01*
X161919047Y-109980952D01*
D13*
%TO.C,C21*%
X126965857Y-112670857D02*
X126913476Y-112723238D01*
X126756333Y-112775619D01*
X126651571Y-112775619D01*
X126494428Y-112723238D01*
X126389666Y-112618476D01*
X126337285Y-112513714D01*
X126284904Y-112304190D01*
X126284904Y-112147047D01*
X126337285Y-111937523D01*
X126389666Y-111832761D01*
X126494428Y-111728000D01*
X126651571Y-111675619D01*
X126756333Y-111675619D01*
X126913476Y-111728000D01*
X126965857Y-111780380D01*
X127384904Y-111780380D02*
X127437285Y-111728000D01*
X127542047Y-111675619D01*
X127803952Y-111675619D01*
X127908714Y-111728000D01*
X127961095Y-111780380D01*
X128013476Y-111885142D01*
X128013476Y-111989904D01*
X127961095Y-112147047D01*
X127332523Y-112775619D01*
X128013476Y-112775619D01*
X129061095Y-112775619D02*
X128432523Y-112775619D01*
X128746809Y-112775619D02*
X128746809Y-111675619D01*
X128642047Y-111832761D01*
X128537285Y-111937523D01*
X128432523Y-111989904D01*
%TO.C,R17*%
X164892857Y-83297619D02*
X164526190Y-82773809D01*
X164264285Y-83297619D02*
X164264285Y-82197619D01*
X164683333Y-82197619D01*
X164788095Y-82250000D01*
X164840476Y-82302380D01*
X164892857Y-82407142D01*
X164892857Y-82564285D01*
X164840476Y-82669047D01*
X164788095Y-82721428D01*
X164683333Y-82773809D01*
X164264285Y-82773809D01*
X165940476Y-83297619D02*
X165311904Y-83297619D01*
X165626190Y-83297619D02*
X165626190Y-82197619D01*
X165521428Y-82354761D01*
X165416666Y-82459523D01*
X165311904Y-82511904D01*
X166307142Y-82197619D02*
X167040476Y-82197619D01*
X166569047Y-83297619D01*
D10*
%TO.C,U4*%
X91038095Y-81452380D02*
X91038095Y-82261904D01*
X91085714Y-82357142D01*
X91133333Y-82404761D01*
X91228571Y-82452380D01*
X91419047Y-82452380D01*
X91514285Y-82404761D01*
X91561904Y-82357142D01*
X91609523Y-82261904D01*
X91609523Y-81452380D01*
X92514285Y-81785714D02*
X92514285Y-82452380D01*
X92276190Y-81404761D02*
X92038095Y-82119047D01*
X92657142Y-82119047D01*
%TO.C,L8*%
X116833333Y-121752380D02*
X116357142Y-121752380D01*
X116357142Y-120752380D01*
X117309523Y-121180952D02*
X117214285Y-121133333D01*
X117166666Y-121085714D01*
X117119047Y-120990476D01*
X117119047Y-120942857D01*
X117166666Y-120847619D01*
X117214285Y-120800000D01*
X117309523Y-120752380D01*
X117500000Y-120752380D01*
X117595238Y-120800000D01*
X117642857Y-120847619D01*
X117690476Y-120942857D01*
X117690476Y-120990476D01*
X117642857Y-121085714D01*
X117595238Y-121133333D01*
X117500000Y-121180952D01*
X117309523Y-121180952D01*
X117214285Y-121228571D01*
X117166666Y-121276190D01*
X117119047Y-121371428D01*
X117119047Y-121561904D01*
X117166666Y-121657142D01*
X117214285Y-121704761D01*
X117309523Y-121752380D01*
X117500000Y-121752380D01*
X117595238Y-121704761D01*
X117642857Y-121657142D01*
X117690476Y-121561904D01*
X117690476Y-121371428D01*
X117642857Y-121276190D01*
X117595238Y-121228571D01*
X117500000Y-121180952D01*
D13*
%TO.C,C31*%
X128292857Y-122992857D02*
X128240476Y-123045238D01*
X128083333Y-123097619D01*
X127978571Y-123097619D01*
X127821428Y-123045238D01*
X127716666Y-122940476D01*
X127664285Y-122835714D01*
X127611904Y-122626190D01*
X127611904Y-122469047D01*
X127664285Y-122259523D01*
X127716666Y-122154761D01*
X127821428Y-122050000D01*
X127978571Y-121997619D01*
X128083333Y-121997619D01*
X128240476Y-122050000D01*
X128292857Y-122102380D01*
X128659523Y-121997619D02*
X129340476Y-121997619D01*
X128973809Y-122416666D01*
X129130952Y-122416666D01*
X129235714Y-122469047D01*
X129288095Y-122521428D01*
X129340476Y-122626190D01*
X129340476Y-122888095D01*
X129288095Y-122992857D01*
X129235714Y-123045238D01*
X129130952Y-123097619D01*
X128816666Y-123097619D01*
X128711904Y-123045238D01*
X128659523Y-122992857D01*
X130388095Y-123097619D02*
X129759523Y-123097619D01*
X130073809Y-123097619D02*
X130073809Y-121997619D01*
X129969047Y-122154761D01*
X129864285Y-122259523D01*
X129759523Y-122311904D01*
%TO.C,C30*%
X136492857Y-122992857D02*
X136440476Y-123045238D01*
X136283333Y-123097619D01*
X136178571Y-123097619D01*
X136021428Y-123045238D01*
X135916666Y-122940476D01*
X135864285Y-122835714D01*
X135811904Y-122626190D01*
X135811904Y-122469047D01*
X135864285Y-122259523D01*
X135916666Y-122154761D01*
X136021428Y-122050000D01*
X136178571Y-121997619D01*
X136283333Y-121997619D01*
X136440476Y-122050000D01*
X136492857Y-122102380D01*
X136859523Y-121997619D02*
X137540476Y-121997619D01*
X137173809Y-122416666D01*
X137330952Y-122416666D01*
X137435714Y-122469047D01*
X137488095Y-122521428D01*
X137540476Y-122626190D01*
X137540476Y-122888095D01*
X137488095Y-122992857D01*
X137435714Y-123045238D01*
X137330952Y-123097619D01*
X137016666Y-123097619D01*
X136911904Y-123045238D01*
X136859523Y-122992857D01*
X138221428Y-121997619D02*
X138326190Y-121997619D01*
X138430952Y-122050000D01*
X138483333Y-122102380D01*
X138535714Y-122207142D01*
X138588095Y-122416666D01*
X138588095Y-122678571D01*
X138535714Y-122888095D01*
X138483333Y-122992857D01*
X138430952Y-123045238D01*
X138326190Y-123097619D01*
X138221428Y-123097619D01*
X138116666Y-123045238D01*
X138064285Y-122992857D01*
X138011904Y-122888095D01*
X137959523Y-122678571D01*
X137959523Y-122416666D01*
X138011904Y-122207142D01*
X138064285Y-122102380D01*
X138116666Y-122050000D01*
X138221428Y-121997619D01*
%TO.C,R3*%
X122416666Y-74497619D02*
X122050000Y-73973809D01*
X121788095Y-74497619D02*
X121788095Y-73397619D01*
X122207142Y-73397619D01*
X122311904Y-73450000D01*
X122364285Y-73502380D01*
X122416666Y-73607142D01*
X122416666Y-73764285D01*
X122364285Y-73869047D01*
X122311904Y-73921428D01*
X122207142Y-73973809D01*
X121788095Y-73973809D01*
X122783333Y-73397619D02*
X123464285Y-73397619D01*
X123097619Y-73816666D01*
X123254761Y-73816666D01*
X123359523Y-73869047D01*
X123411904Y-73921428D01*
X123464285Y-74026190D01*
X123464285Y-74288095D01*
X123411904Y-74392857D01*
X123359523Y-74445238D01*
X123254761Y-74497619D01*
X122940476Y-74497619D01*
X122835714Y-74445238D01*
X122783333Y-74392857D01*
%TO.C,C41*%
X162092857Y-86992857D02*
X162040476Y-87045238D01*
X161883333Y-87097619D01*
X161778571Y-87097619D01*
X161621428Y-87045238D01*
X161516666Y-86940476D01*
X161464285Y-86835714D01*
X161411904Y-86626190D01*
X161411904Y-86469047D01*
X161464285Y-86259523D01*
X161516666Y-86154761D01*
X161621428Y-86050000D01*
X161778571Y-85997619D01*
X161883333Y-85997619D01*
X162040476Y-86050000D01*
X162092857Y-86102380D01*
X163035714Y-86364285D02*
X163035714Y-87097619D01*
X162773809Y-85945238D02*
X162511904Y-86730952D01*
X163192857Y-86730952D01*
X164188095Y-87097619D02*
X163559523Y-87097619D01*
X163873809Y-87097619D02*
X163873809Y-85997619D01*
X163769047Y-86154761D01*
X163664285Y-86259523D01*
X163559523Y-86311904D01*
D10*
%TO.C,U6*%
X87738095Y-118952380D02*
X87738095Y-119761904D01*
X87785714Y-119857142D01*
X87833333Y-119904761D01*
X87928571Y-119952380D01*
X88119047Y-119952380D01*
X88214285Y-119904761D01*
X88261904Y-119857142D01*
X88309523Y-119761904D01*
X88309523Y-118952380D01*
X89214285Y-118952380D02*
X89023809Y-118952380D01*
X88928571Y-119000000D01*
X88880952Y-119047619D01*
X88785714Y-119190476D01*
X88738095Y-119380952D01*
X88738095Y-119761904D01*
X88785714Y-119857142D01*
X88833333Y-119904761D01*
X88928571Y-119952380D01*
X89119047Y-119952380D01*
X89214285Y-119904761D01*
X89261904Y-119857142D01*
X89309523Y-119761904D01*
X89309523Y-119523809D01*
X89261904Y-119428571D01*
X89214285Y-119380952D01*
X89119047Y-119333333D01*
X88928571Y-119333333D01*
X88833333Y-119380952D01*
X88785714Y-119428571D01*
X88738095Y-119523809D01*
D13*
%TO.C,R13*%
X83638433Y-116926655D02*
X83694249Y-116289705D01*
X83156920Y-116522617D02*
X83863986Y-115679968D01*
X84184995Y-115949327D01*
X84231578Y-116056793D01*
X84238034Y-116130589D01*
X84210820Y-116244511D01*
X84109811Y-116364889D01*
X84002345Y-116411472D01*
X83928549Y-116417928D01*
X83814627Y-116390714D01*
X83493618Y-116121356D01*
X84440956Y-117600052D02*
X83959442Y-117196014D01*
X84200199Y-117398033D02*
X84907266Y-116555384D01*
X84726004Y-116608423D01*
X84578412Y-116621335D01*
X84464490Y-116594122D01*
X85428905Y-116993092D02*
X85950545Y-117430799D01*
X85400304Y-117516120D01*
X85520682Y-117617129D01*
X85567264Y-117724595D01*
X85573721Y-117798391D01*
X85546507Y-117912313D01*
X85378158Y-118112944D01*
X85270692Y-118159526D01*
X85196896Y-118165982D01*
X85082974Y-118138769D01*
X84842217Y-117936750D01*
X84795635Y-117829284D01*
X84789179Y-117755488D01*
D10*
%TO.C,C38*%
X165290857Y-111503142D02*
X165243238Y-111455523D01*
X165195619Y-111312666D01*
X165195619Y-111217428D01*
X165243238Y-111074571D01*
X165338476Y-110979333D01*
X165433714Y-110931714D01*
X165624190Y-110884095D01*
X165767047Y-110884095D01*
X165957523Y-110931714D01*
X166052761Y-110979333D01*
X166148000Y-111074571D01*
X166195619Y-111217428D01*
X166195619Y-111312666D01*
X166148000Y-111455523D01*
X166100380Y-111503142D01*
X166195619Y-111836476D02*
X166195619Y-112455523D01*
X165814666Y-112122190D01*
X165814666Y-112265047D01*
X165767047Y-112360285D01*
X165719428Y-112407904D01*
X165624190Y-112455523D01*
X165386095Y-112455523D01*
X165290857Y-112407904D01*
X165243238Y-112360285D01*
X165195619Y-112265047D01*
X165195619Y-111979333D01*
X165243238Y-111884095D01*
X165290857Y-111836476D01*
X165767047Y-113026952D02*
X165814666Y-112931714D01*
X165862285Y-112884095D01*
X165957523Y-112836476D01*
X166005142Y-112836476D01*
X166100380Y-112884095D01*
X166148000Y-112931714D01*
X166195619Y-113026952D01*
X166195619Y-113217428D01*
X166148000Y-113312666D01*
X166100380Y-113360285D01*
X166005142Y-113407904D01*
X165957523Y-113407904D01*
X165862285Y-113360285D01*
X165814666Y-113312666D01*
X165767047Y-113217428D01*
X165767047Y-113026952D01*
X165719428Y-112931714D01*
X165671809Y-112884095D01*
X165576571Y-112836476D01*
X165386095Y-112836476D01*
X165290857Y-112884095D01*
X165243238Y-112931714D01*
X165195619Y-113026952D01*
X165195619Y-113217428D01*
X165243238Y-113312666D01*
X165290857Y-113360285D01*
X165386095Y-113407904D01*
X165576571Y-113407904D01*
X165671809Y-113360285D01*
X165719428Y-113312666D01*
X165767047Y-113217428D01*
D13*
%TO.C,R14*%
X82738433Y-118026655D02*
X82794249Y-117389705D01*
X82256920Y-117622617D02*
X82963986Y-116779968D01*
X83284995Y-117049327D01*
X83331578Y-117156793D01*
X83338034Y-117230589D01*
X83310820Y-117344511D01*
X83209811Y-117464889D01*
X83102345Y-117511472D01*
X83028549Y-117517928D01*
X82914627Y-117490714D01*
X82593618Y-117221356D01*
X83540956Y-118700052D02*
X83059442Y-118296014D01*
X83300199Y-118498033D02*
X84007266Y-117655384D01*
X83826004Y-117708423D01*
X83678412Y-117721335D01*
X83564490Y-117694122D01*
X84734604Y-118744343D02*
X84263227Y-119306109D01*
X84803332Y-118254984D02*
X84097654Y-118688527D01*
X84619294Y-119126235D01*
%TO.C,C44*%
X166492857Y-95792857D02*
X166440476Y-95845238D01*
X166283333Y-95897619D01*
X166178571Y-95897619D01*
X166021428Y-95845238D01*
X165916666Y-95740476D01*
X165864285Y-95635714D01*
X165811904Y-95426190D01*
X165811904Y-95269047D01*
X165864285Y-95059523D01*
X165916666Y-94954761D01*
X166021428Y-94850000D01*
X166178571Y-94797619D01*
X166283333Y-94797619D01*
X166440476Y-94850000D01*
X166492857Y-94902380D01*
X167435714Y-95164285D02*
X167435714Y-95897619D01*
X167173809Y-94745238D02*
X166911904Y-95530952D01*
X167592857Y-95530952D01*
X168483333Y-95164285D02*
X168483333Y-95897619D01*
X168221428Y-94745238D02*
X167959523Y-95530952D01*
X168640476Y-95530952D01*
%TO.C,C11*%
X99207142Y-94806857D02*
X99154761Y-94754476D01*
X99102380Y-94597333D01*
X99102380Y-94492571D01*
X99154761Y-94335428D01*
X99259523Y-94230666D01*
X99364285Y-94178285D01*
X99573809Y-94125904D01*
X99730952Y-94125904D01*
X99940476Y-94178285D01*
X100045238Y-94230666D01*
X100150000Y-94335428D01*
X100202380Y-94492571D01*
X100202380Y-94597333D01*
X100150000Y-94754476D01*
X100097619Y-94806857D01*
X99102380Y-95854476D02*
X99102380Y-95225904D01*
X99102380Y-95540190D02*
X100202380Y-95540190D01*
X100045238Y-95435428D01*
X99940476Y-95330666D01*
X99888095Y-95225904D01*
X99102380Y-96902095D02*
X99102380Y-96273523D01*
X99102380Y-96587809D02*
X100202380Y-96587809D01*
X100045238Y-96483047D01*
X99940476Y-96378285D01*
X99888095Y-96273523D01*
%TO.C,C19*%
X88892857Y-109492857D02*
X88840476Y-109545238D01*
X88683333Y-109597619D01*
X88578571Y-109597619D01*
X88421428Y-109545238D01*
X88316666Y-109440476D01*
X88264285Y-109335714D01*
X88211904Y-109126190D01*
X88211904Y-108969047D01*
X88264285Y-108759523D01*
X88316666Y-108654761D01*
X88421428Y-108550000D01*
X88578571Y-108497619D01*
X88683333Y-108497619D01*
X88840476Y-108550000D01*
X88892857Y-108602380D01*
X89940476Y-109597619D02*
X89311904Y-109597619D01*
X89626190Y-109597619D02*
X89626190Y-108497619D01*
X89521428Y-108654761D01*
X89416666Y-108759523D01*
X89311904Y-108811904D01*
X90464285Y-109597619D02*
X90673809Y-109597619D01*
X90778571Y-109545238D01*
X90830952Y-109492857D01*
X90935714Y-109335714D01*
X90988095Y-109126190D01*
X90988095Y-108707142D01*
X90935714Y-108602380D01*
X90883333Y-108550000D01*
X90778571Y-108497619D01*
X90569047Y-108497619D01*
X90464285Y-108550000D01*
X90411904Y-108602380D01*
X90359523Y-108707142D01*
X90359523Y-108969047D01*
X90411904Y-109073809D01*
X90464285Y-109126190D01*
X90569047Y-109178571D01*
X90778571Y-109178571D01*
X90883333Y-109126190D01*
X90935714Y-109073809D01*
X90988095Y-108969047D01*
%TO.C,R12*%
X107392857Y-105797619D02*
X107026190Y-105273809D01*
X106764285Y-105797619D02*
X106764285Y-104697619D01*
X107183333Y-104697619D01*
X107288095Y-104750000D01*
X107340476Y-104802380D01*
X107392857Y-104907142D01*
X107392857Y-105064285D01*
X107340476Y-105169047D01*
X107288095Y-105221428D01*
X107183333Y-105273809D01*
X106764285Y-105273809D01*
X108440476Y-105797619D02*
X107811904Y-105797619D01*
X108126190Y-105797619D02*
X108126190Y-104697619D01*
X108021428Y-104854761D01*
X107916666Y-104959523D01*
X107811904Y-105011904D01*
X108859523Y-104802380D02*
X108911904Y-104750000D01*
X109016666Y-104697619D01*
X109278571Y-104697619D01*
X109383333Y-104750000D01*
X109435714Y-104802380D01*
X109488095Y-104907142D01*
X109488095Y-105011904D01*
X109435714Y-105169047D01*
X108807142Y-105797619D01*
X109488095Y-105797619D01*
D10*
%TO.C,L5*%
X113933333Y-105752380D02*
X113457142Y-105752380D01*
X113457142Y-104752380D01*
X114742857Y-104752380D02*
X114266666Y-104752380D01*
X114219047Y-105228571D01*
X114266666Y-105180952D01*
X114361904Y-105133333D01*
X114600000Y-105133333D01*
X114695238Y-105180952D01*
X114742857Y-105228571D01*
X114790476Y-105323809D01*
X114790476Y-105561904D01*
X114742857Y-105657142D01*
X114695238Y-105704761D01*
X114600000Y-105752380D01*
X114361904Y-105752380D01*
X114266666Y-105704761D01*
X114219047Y-105657142D01*
D13*
%TO.C,C17*%
X146292857Y-96292857D02*
X146240476Y-96345238D01*
X146083333Y-96397619D01*
X145978571Y-96397619D01*
X145821428Y-96345238D01*
X145716666Y-96240476D01*
X145664285Y-96135714D01*
X145611904Y-95926190D01*
X145611904Y-95769047D01*
X145664285Y-95559523D01*
X145716666Y-95454761D01*
X145821428Y-95350000D01*
X145978571Y-95297619D01*
X146083333Y-95297619D01*
X146240476Y-95350000D01*
X146292857Y-95402380D01*
X147340476Y-96397619D02*
X146711904Y-96397619D01*
X147026190Y-96397619D02*
X147026190Y-95297619D01*
X146921428Y-95454761D01*
X146816666Y-95559523D01*
X146711904Y-95611904D01*
X147707142Y-95297619D02*
X148440476Y-95297619D01*
X147969047Y-96397619D01*
%TO.C,C36*%
X163892857Y-81192857D02*
X163840476Y-81245238D01*
X163683333Y-81297619D01*
X163578571Y-81297619D01*
X163421428Y-81245238D01*
X163316666Y-81140476D01*
X163264285Y-81035714D01*
X163211904Y-80826190D01*
X163211904Y-80669047D01*
X163264285Y-80459523D01*
X163316666Y-80354761D01*
X163421428Y-80250000D01*
X163578571Y-80197619D01*
X163683333Y-80197619D01*
X163840476Y-80250000D01*
X163892857Y-80302380D01*
X164259523Y-80197619D02*
X164940476Y-80197619D01*
X164573809Y-80616666D01*
X164730952Y-80616666D01*
X164835714Y-80669047D01*
X164888095Y-80721428D01*
X164940476Y-80826190D01*
X164940476Y-81088095D01*
X164888095Y-81192857D01*
X164835714Y-81245238D01*
X164730952Y-81297619D01*
X164416666Y-81297619D01*
X164311904Y-81245238D01*
X164259523Y-81192857D01*
X165883333Y-80197619D02*
X165673809Y-80197619D01*
X165569047Y-80250000D01*
X165516666Y-80302380D01*
X165411904Y-80459523D01*
X165359523Y-80669047D01*
X165359523Y-81088095D01*
X165411904Y-81192857D01*
X165464285Y-81245238D01*
X165569047Y-81297619D01*
X165778571Y-81297619D01*
X165883333Y-81245238D01*
X165935714Y-81192857D01*
X165988095Y-81088095D01*
X165988095Y-80826190D01*
X165935714Y-80721428D01*
X165883333Y-80669047D01*
X165778571Y-80616666D01*
X165569047Y-80616666D01*
X165464285Y-80669047D01*
X165411904Y-80721428D01*
X165359523Y-80826190D01*
%TO.C,C45*%
X152192857Y-115392857D02*
X152140476Y-115445238D01*
X151983333Y-115497619D01*
X151878571Y-115497619D01*
X151721428Y-115445238D01*
X151616666Y-115340476D01*
X151564285Y-115235714D01*
X151511904Y-115026190D01*
X151511904Y-114869047D01*
X151564285Y-114659523D01*
X151616666Y-114554761D01*
X151721428Y-114450000D01*
X151878571Y-114397619D01*
X151983333Y-114397619D01*
X152140476Y-114450000D01*
X152192857Y-114502380D01*
X153135714Y-114764285D02*
X153135714Y-115497619D01*
X152873809Y-114345238D02*
X152611904Y-115130952D01*
X153292857Y-115130952D01*
X154235714Y-114397619D02*
X153711904Y-114397619D01*
X153659523Y-114921428D01*
X153711904Y-114869047D01*
X153816666Y-114816666D01*
X154078571Y-114816666D01*
X154183333Y-114869047D01*
X154235714Y-114921428D01*
X154288095Y-115026190D01*
X154288095Y-115288095D01*
X154235714Y-115392857D01*
X154183333Y-115445238D01*
X154078571Y-115497619D01*
X153816666Y-115497619D01*
X153711904Y-115445238D01*
X153659523Y-115392857D01*
%TO.C,R21*%
X153192857Y-96797619D02*
X152826190Y-96273809D01*
X152564285Y-96797619D02*
X152564285Y-95697619D01*
X152983333Y-95697619D01*
X153088095Y-95750000D01*
X153140476Y-95802380D01*
X153192857Y-95907142D01*
X153192857Y-96064285D01*
X153140476Y-96169047D01*
X153088095Y-96221428D01*
X152983333Y-96273809D01*
X152564285Y-96273809D01*
X153611904Y-95802380D02*
X153664285Y-95750000D01*
X153769047Y-95697619D01*
X154030952Y-95697619D01*
X154135714Y-95750000D01*
X154188095Y-95802380D01*
X154240476Y-95907142D01*
X154240476Y-96011904D01*
X154188095Y-96169047D01*
X153559523Y-96797619D01*
X154240476Y-96797619D01*
X155288095Y-96797619D02*
X154659523Y-96797619D01*
X154973809Y-96797619D02*
X154973809Y-95697619D01*
X154869047Y-95854761D01*
X154764285Y-95959523D01*
X154659523Y-96011904D01*
%TO.C,C8*%
X105916666Y-89092857D02*
X105864285Y-89145238D01*
X105707142Y-89197619D01*
X105602380Y-89197619D01*
X105445238Y-89145238D01*
X105340476Y-89040476D01*
X105288095Y-88935714D01*
X105235714Y-88726190D01*
X105235714Y-88569047D01*
X105288095Y-88359523D01*
X105340476Y-88254761D01*
X105445238Y-88150000D01*
X105602380Y-88097619D01*
X105707142Y-88097619D01*
X105864285Y-88150000D01*
X105916666Y-88202380D01*
X106545238Y-88569047D02*
X106440476Y-88516666D01*
X106388095Y-88464285D01*
X106335714Y-88359523D01*
X106335714Y-88307142D01*
X106388095Y-88202380D01*
X106440476Y-88150000D01*
X106545238Y-88097619D01*
X106754761Y-88097619D01*
X106859523Y-88150000D01*
X106911904Y-88202380D01*
X106964285Y-88307142D01*
X106964285Y-88359523D01*
X106911904Y-88464285D01*
X106859523Y-88516666D01*
X106754761Y-88569047D01*
X106545238Y-88569047D01*
X106440476Y-88621428D01*
X106388095Y-88673809D01*
X106335714Y-88778571D01*
X106335714Y-88988095D01*
X106388095Y-89092857D01*
X106440476Y-89145238D01*
X106545238Y-89197619D01*
X106754761Y-89197619D01*
X106859523Y-89145238D01*
X106911904Y-89092857D01*
X106964285Y-88988095D01*
X106964285Y-88778571D01*
X106911904Y-88673809D01*
X106859523Y-88621428D01*
X106754761Y-88569047D01*
%TO.C,C35*%
X155092857Y-79207857D02*
X155040476Y-79260238D01*
X154883333Y-79312619D01*
X154778571Y-79312619D01*
X154621428Y-79260238D01*
X154516666Y-79155476D01*
X154464285Y-79050714D01*
X154411904Y-78841190D01*
X154411904Y-78684047D01*
X154464285Y-78474523D01*
X154516666Y-78369761D01*
X154621428Y-78265000D01*
X154778571Y-78212619D01*
X154883333Y-78212619D01*
X155040476Y-78265000D01*
X155092857Y-78317380D01*
X155459523Y-78212619D02*
X156140476Y-78212619D01*
X155773809Y-78631666D01*
X155930952Y-78631666D01*
X156035714Y-78684047D01*
X156088095Y-78736428D01*
X156140476Y-78841190D01*
X156140476Y-79103095D01*
X156088095Y-79207857D01*
X156035714Y-79260238D01*
X155930952Y-79312619D01*
X155616666Y-79312619D01*
X155511904Y-79260238D01*
X155459523Y-79207857D01*
X157135714Y-78212619D02*
X156611904Y-78212619D01*
X156559523Y-78736428D01*
X156611904Y-78684047D01*
X156716666Y-78631666D01*
X156978571Y-78631666D01*
X157083333Y-78684047D01*
X157135714Y-78736428D01*
X157188095Y-78841190D01*
X157188095Y-79103095D01*
X157135714Y-79207857D01*
X157083333Y-79260238D01*
X156978571Y-79312619D01*
X156716666Y-79312619D01*
X156611904Y-79260238D01*
X156559523Y-79207857D01*
%TO.C,FB1*%
X146470333Y-78648428D02*
X146103666Y-78648428D01*
X146103666Y-79224619D02*
X146103666Y-78124619D01*
X146627476Y-78124619D01*
X147413190Y-78648428D02*
X147570333Y-78700809D01*
X147622714Y-78753190D01*
X147675095Y-78857952D01*
X147675095Y-79015095D01*
X147622714Y-79119857D01*
X147570333Y-79172238D01*
X147465571Y-79224619D01*
X147046523Y-79224619D01*
X147046523Y-78124619D01*
X147413190Y-78124619D01*
X147517952Y-78177000D01*
X147570333Y-78229380D01*
X147622714Y-78334142D01*
X147622714Y-78438904D01*
X147570333Y-78543666D01*
X147517952Y-78596047D01*
X147413190Y-78648428D01*
X147046523Y-78648428D01*
X148722714Y-79224619D02*
X148094142Y-79224619D01*
X148408428Y-79224619D02*
X148408428Y-78124619D01*
X148303666Y-78281761D01*
X148198904Y-78386523D01*
X148094142Y-78438904D01*
%TO.C,R6*%
X90810666Y-96335619D02*
X90444000Y-95811809D01*
X90182095Y-96335619D02*
X90182095Y-95235619D01*
X90601142Y-95235619D01*
X90705904Y-95288000D01*
X90758285Y-95340380D01*
X90810666Y-95445142D01*
X90810666Y-95602285D01*
X90758285Y-95707047D01*
X90705904Y-95759428D01*
X90601142Y-95811809D01*
X90182095Y-95811809D01*
X91753523Y-95235619D02*
X91544000Y-95235619D01*
X91439238Y-95288000D01*
X91386857Y-95340380D01*
X91282095Y-95497523D01*
X91229714Y-95707047D01*
X91229714Y-96126095D01*
X91282095Y-96230857D01*
X91334476Y-96283238D01*
X91439238Y-96335619D01*
X91648761Y-96335619D01*
X91753523Y-96283238D01*
X91805904Y-96230857D01*
X91858285Y-96126095D01*
X91858285Y-95864190D01*
X91805904Y-95759428D01*
X91753523Y-95707047D01*
X91648761Y-95654666D01*
X91439238Y-95654666D01*
X91334476Y-95707047D01*
X91282095Y-95759428D01*
X91229714Y-95864190D01*
%TO.C,L7*%
X125233666Y-121497619D02*
X124709857Y-121497619D01*
X124709857Y-120397619D01*
X125495571Y-120397619D02*
X126228904Y-120397619D01*
X125757476Y-121497619D01*
%TO.C,R5*%
X101416666Y-81497619D02*
X101050000Y-80973809D01*
X100788095Y-81497619D02*
X100788095Y-80397619D01*
X101207142Y-80397619D01*
X101311904Y-80450000D01*
X101364285Y-80502380D01*
X101416666Y-80607142D01*
X101416666Y-80764285D01*
X101364285Y-80869047D01*
X101311904Y-80921428D01*
X101207142Y-80973809D01*
X100788095Y-80973809D01*
X102411904Y-80397619D02*
X101888095Y-80397619D01*
X101835714Y-80921428D01*
X101888095Y-80869047D01*
X101992857Y-80816666D01*
X102254761Y-80816666D01*
X102359523Y-80869047D01*
X102411904Y-80921428D01*
X102464285Y-81026190D01*
X102464285Y-81288095D01*
X102411904Y-81392857D01*
X102359523Y-81445238D01*
X102254761Y-81497619D01*
X101992857Y-81497619D01*
X101888095Y-81445238D01*
X101835714Y-81392857D01*
D10*
%TO.C,L1*%
X78207333Y-77232380D02*
X77731142Y-77232380D01*
X77731142Y-76232380D01*
X79064476Y-77232380D02*
X78493047Y-77232380D01*
X78778761Y-77232380D02*
X78778761Y-76232380D01*
X78683523Y-76375238D01*
X78588285Y-76470476D01*
X78493047Y-76518095D01*
D13*
%TO.C,R24*%
X152924380Y-101892857D02*
X153448190Y-101526190D01*
X152924380Y-101264285D02*
X154024380Y-101264285D01*
X154024380Y-101683333D01*
X153972000Y-101788095D01*
X153919619Y-101840476D01*
X153814857Y-101892857D01*
X153657714Y-101892857D01*
X153552952Y-101840476D01*
X153500571Y-101788095D01*
X153448190Y-101683333D01*
X153448190Y-101264285D01*
X153919619Y-102311904D02*
X153972000Y-102364285D01*
X154024380Y-102469047D01*
X154024380Y-102730952D01*
X153972000Y-102835714D01*
X153919619Y-102888095D01*
X153814857Y-102940476D01*
X153710095Y-102940476D01*
X153552952Y-102888095D01*
X152924380Y-102259523D01*
X152924380Y-102940476D01*
X153657714Y-103883333D02*
X152924380Y-103883333D01*
X154076761Y-103621428D02*
X153291047Y-103359523D01*
X153291047Y-104040476D01*
D14*
%TO.C,Q2*%
X159252380Y-98304761D02*
X159300000Y-98209523D01*
X159395238Y-98114285D01*
X159538095Y-97971428D01*
X159585714Y-97876190D01*
X159585714Y-97780952D01*
X159347619Y-97828571D02*
X159395238Y-97733333D01*
X159490476Y-97638095D01*
X159680952Y-97590476D01*
X160014285Y-97590476D01*
X160204761Y-97638095D01*
X160300000Y-97733333D01*
X160347619Y-97828571D01*
X160347619Y-98019047D01*
X160300000Y-98114285D01*
X160204761Y-98209523D01*
X160014285Y-98257142D01*
X159680952Y-98257142D01*
X159490476Y-98209523D01*
X159395238Y-98114285D01*
X159347619Y-98019047D01*
X159347619Y-97828571D01*
X160252380Y-98638095D02*
X160300000Y-98685714D01*
X160347619Y-98780952D01*
X160347619Y-99019047D01*
X160300000Y-99114285D01*
X160252380Y-99161904D01*
X160157142Y-99209523D01*
X160061904Y-99209523D01*
X159919047Y-99161904D01*
X159347619Y-98590476D01*
X159347619Y-99209523D01*
D13*
%TO.C,R7*%
X107591666Y-81497619D02*
X107225000Y-80973809D01*
X106963095Y-81497619D02*
X106963095Y-80397619D01*
X107382142Y-80397619D01*
X107486904Y-80450000D01*
X107539285Y-80502380D01*
X107591666Y-80607142D01*
X107591666Y-80764285D01*
X107539285Y-80869047D01*
X107486904Y-80921428D01*
X107382142Y-80973809D01*
X106963095Y-80973809D01*
X107958333Y-80397619D02*
X108691666Y-80397619D01*
X108220238Y-81497619D01*
%TO.C,C50*%
X169821857Y-102392857D02*
X169769476Y-102445238D01*
X169612333Y-102497619D01*
X169507571Y-102497619D01*
X169350428Y-102445238D01*
X169245666Y-102340476D01*
X169193285Y-102235714D01*
X169140904Y-102026190D01*
X169140904Y-101869047D01*
X169193285Y-101659523D01*
X169245666Y-101554761D01*
X169350428Y-101450000D01*
X169507571Y-101397619D01*
X169612333Y-101397619D01*
X169769476Y-101450000D01*
X169821857Y-101502380D01*
X170817095Y-101397619D02*
X170293285Y-101397619D01*
X170240904Y-101921428D01*
X170293285Y-101869047D01*
X170398047Y-101816666D01*
X170659952Y-101816666D01*
X170764714Y-101869047D01*
X170817095Y-101921428D01*
X170869476Y-102026190D01*
X170869476Y-102288095D01*
X170817095Y-102392857D01*
X170764714Y-102445238D01*
X170659952Y-102497619D01*
X170398047Y-102497619D01*
X170293285Y-102445238D01*
X170240904Y-102392857D01*
X171550428Y-101397619D02*
X171655190Y-101397619D01*
X171759952Y-101450000D01*
X171812333Y-101502380D01*
X171864714Y-101607142D01*
X171917095Y-101816666D01*
X171917095Y-102078571D01*
X171864714Y-102288095D01*
X171812333Y-102392857D01*
X171759952Y-102445238D01*
X171655190Y-102497619D01*
X171550428Y-102497619D01*
X171445666Y-102445238D01*
X171393285Y-102392857D01*
X171340904Y-102288095D01*
X171288523Y-102078571D01*
X171288523Y-101816666D01*
X171340904Y-101607142D01*
X171393285Y-101502380D01*
X171445666Y-101450000D01*
X171550428Y-101397619D01*
%TO.C,C4*%
X132716666Y-78392857D02*
X132664285Y-78445238D01*
X132507142Y-78497619D01*
X132402380Y-78497619D01*
X132245238Y-78445238D01*
X132140476Y-78340476D01*
X132088095Y-78235714D01*
X132035714Y-78026190D01*
X132035714Y-77869047D01*
X132088095Y-77659523D01*
X132140476Y-77554761D01*
X132245238Y-77450000D01*
X132402380Y-77397619D01*
X132507142Y-77397619D01*
X132664285Y-77450000D01*
X132716666Y-77502380D01*
X133659523Y-77764285D02*
X133659523Y-78497619D01*
X133397619Y-77345238D02*
X133135714Y-78130952D01*
X133816666Y-78130952D01*
D10*
%TO.C,U7*%
X161544095Y-91146380D02*
X161544095Y-91955904D01*
X161591714Y-92051142D01*
X161639333Y-92098761D01*
X161734571Y-92146380D01*
X161925047Y-92146380D01*
X162020285Y-92098761D01*
X162067904Y-92051142D01*
X162115523Y-91955904D01*
X162115523Y-91146380D01*
X162496476Y-91146380D02*
X163163142Y-91146380D01*
X162734571Y-92146380D01*
%TO.C,D2*%
X116561904Y-95052380D02*
X116561904Y-94052380D01*
X116800000Y-94052380D01*
X116942857Y-94100000D01*
X117038095Y-94195238D01*
X117085714Y-94290476D01*
X117133333Y-94480952D01*
X117133333Y-94623809D01*
X117085714Y-94814285D01*
X117038095Y-94909523D01*
X116942857Y-95004761D01*
X116800000Y-95052380D01*
X116561904Y-95052380D01*
X117514285Y-94147619D02*
X117561904Y-94100000D01*
X117657142Y-94052380D01*
X117895238Y-94052380D01*
X117990476Y-94100000D01*
X118038095Y-94147619D01*
X118085714Y-94242857D01*
X118085714Y-94338095D01*
X118038095Y-94480952D01*
X117466666Y-95052380D01*
X118085714Y-95052380D01*
D13*
%TO.C,C20*%
X133892857Y-112692857D02*
X133840476Y-112745238D01*
X133683333Y-112797619D01*
X133578571Y-112797619D01*
X133421428Y-112745238D01*
X133316666Y-112640476D01*
X133264285Y-112535714D01*
X133211904Y-112326190D01*
X133211904Y-112169047D01*
X133264285Y-111959523D01*
X133316666Y-111854761D01*
X133421428Y-111750000D01*
X133578571Y-111697619D01*
X133683333Y-111697619D01*
X133840476Y-111750000D01*
X133892857Y-111802380D01*
X134311904Y-111802380D02*
X134364285Y-111750000D01*
X134469047Y-111697619D01*
X134730952Y-111697619D01*
X134835714Y-111750000D01*
X134888095Y-111802380D01*
X134940476Y-111907142D01*
X134940476Y-112011904D01*
X134888095Y-112169047D01*
X134259523Y-112797619D01*
X134940476Y-112797619D01*
X135621428Y-111697619D02*
X135726190Y-111697619D01*
X135830952Y-111750000D01*
X135883333Y-111802380D01*
X135935714Y-111907142D01*
X135988095Y-112116666D01*
X135988095Y-112378571D01*
X135935714Y-112588095D01*
X135883333Y-112692857D01*
X135830952Y-112745238D01*
X135726190Y-112797619D01*
X135621428Y-112797619D01*
X135516666Y-112745238D01*
X135464285Y-112692857D01*
X135411904Y-112588095D01*
X135359523Y-112378571D01*
X135359523Y-112116666D01*
X135411904Y-111907142D01*
X135464285Y-111802380D01*
X135516666Y-111750000D01*
X135621428Y-111697619D01*
%TO.C,R15*%
X108292857Y-123097619D02*
X107926190Y-122573809D01*
X107664285Y-123097619D02*
X107664285Y-121997619D01*
X108083333Y-121997619D01*
X108188095Y-122050000D01*
X108240476Y-122102380D01*
X108292857Y-122207142D01*
X108292857Y-122364285D01*
X108240476Y-122469047D01*
X108188095Y-122521428D01*
X108083333Y-122573809D01*
X107664285Y-122573809D01*
X109340476Y-123097619D02*
X108711904Y-123097619D01*
X109026190Y-123097619D02*
X109026190Y-121997619D01*
X108921428Y-122154761D01*
X108816666Y-122259523D01*
X108711904Y-122311904D01*
X110335714Y-121997619D02*
X109811904Y-121997619D01*
X109759523Y-122521428D01*
X109811904Y-122469047D01*
X109916666Y-122416666D01*
X110178571Y-122416666D01*
X110283333Y-122469047D01*
X110335714Y-122521428D01*
X110388095Y-122626190D01*
X110388095Y-122888095D01*
X110335714Y-122992857D01*
X110283333Y-123045238D01*
X110178571Y-123097619D01*
X109916666Y-123097619D01*
X109811904Y-123045238D01*
X109759523Y-122992857D01*
%TO.C,R10*%
X92792857Y-108097619D02*
X92426190Y-107573809D01*
X92164285Y-108097619D02*
X92164285Y-106997619D01*
X92583333Y-106997619D01*
X92688095Y-107050000D01*
X92740476Y-107102380D01*
X92792857Y-107207142D01*
X92792857Y-107364285D01*
X92740476Y-107469047D01*
X92688095Y-107521428D01*
X92583333Y-107573809D01*
X92164285Y-107573809D01*
X93840476Y-108097619D02*
X93211904Y-108097619D01*
X93526190Y-108097619D02*
X93526190Y-106997619D01*
X93421428Y-107154761D01*
X93316666Y-107259523D01*
X93211904Y-107311904D01*
X94521428Y-106997619D02*
X94626190Y-106997619D01*
X94730952Y-107050000D01*
X94783333Y-107102380D01*
X94835714Y-107207142D01*
X94888095Y-107416666D01*
X94888095Y-107678571D01*
X94835714Y-107888095D01*
X94783333Y-107992857D01*
X94730952Y-108045238D01*
X94626190Y-108097619D01*
X94521428Y-108097619D01*
X94416666Y-108045238D01*
X94364285Y-107992857D01*
X94311904Y-107888095D01*
X94259523Y-107678571D01*
X94259523Y-107416666D01*
X94311904Y-107207142D01*
X94364285Y-107102380D01*
X94416666Y-107050000D01*
X94521428Y-106997619D01*
D10*
%TO.C,POT1*%
X133157142Y-91452380D02*
X133157142Y-90452380D01*
X133538095Y-90452380D01*
X133633333Y-90500000D01*
X133680952Y-90547619D01*
X133728571Y-90642857D01*
X133728571Y-90785714D01*
X133680952Y-90880952D01*
X133633333Y-90928571D01*
X133538095Y-90976190D01*
X133157142Y-90976190D01*
X134347619Y-90452380D02*
X134538095Y-90452380D01*
X134633333Y-90500000D01*
X134728571Y-90595238D01*
X134776190Y-90785714D01*
X134776190Y-91119047D01*
X134728571Y-91309523D01*
X134633333Y-91404761D01*
X134538095Y-91452380D01*
X134347619Y-91452380D01*
X134252380Y-91404761D01*
X134157142Y-91309523D01*
X134109523Y-91119047D01*
X134109523Y-90785714D01*
X134157142Y-90595238D01*
X134252380Y-90500000D01*
X134347619Y-90452380D01*
X135061904Y-90452380D02*
X135633333Y-90452380D01*
X135347619Y-91452380D02*
X135347619Y-90452380D01*
X136490476Y-91452380D02*
X135919047Y-91452380D01*
X136204761Y-91452380D02*
X136204761Y-90452380D01*
X136109523Y-90595238D01*
X136014285Y-90690476D01*
X135919047Y-90738095D01*
%TO.C,L3*%
X127633333Y-105739380D02*
X127157142Y-105739380D01*
X127157142Y-104739380D01*
X127871428Y-104739380D02*
X128490476Y-104739380D01*
X128157142Y-105120333D01*
X128300000Y-105120333D01*
X128395238Y-105167952D01*
X128442857Y-105215571D01*
X128490476Y-105310809D01*
X128490476Y-105548904D01*
X128442857Y-105644142D01*
X128395238Y-105691761D01*
X128300000Y-105739380D01*
X128014285Y-105739380D01*
X127919047Y-105691761D01*
X127871428Y-105644142D01*
D13*
%TO.C,C16*%
X124492857Y-93592857D02*
X124440476Y-93645238D01*
X124283333Y-93697619D01*
X124178571Y-93697619D01*
X124021428Y-93645238D01*
X123916666Y-93540476D01*
X123864285Y-93435714D01*
X123811904Y-93226190D01*
X123811904Y-93069047D01*
X123864285Y-92859523D01*
X123916666Y-92754761D01*
X124021428Y-92650000D01*
X124178571Y-92597619D01*
X124283333Y-92597619D01*
X124440476Y-92650000D01*
X124492857Y-92702380D01*
X125540476Y-93697619D02*
X124911904Y-93697619D01*
X125226190Y-93697619D02*
X125226190Y-92597619D01*
X125121428Y-92754761D01*
X125016666Y-92859523D01*
X124911904Y-92911904D01*
X126483333Y-92597619D02*
X126273809Y-92597619D01*
X126169047Y-92650000D01*
X126116666Y-92702380D01*
X126011904Y-92859523D01*
X125959523Y-93069047D01*
X125959523Y-93488095D01*
X126011904Y-93592857D01*
X126064285Y-93645238D01*
X126169047Y-93697619D01*
X126378571Y-93697619D01*
X126483333Y-93645238D01*
X126535714Y-93592857D01*
X126588095Y-93488095D01*
X126588095Y-93226190D01*
X126535714Y-93121428D01*
X126483333Y-93069047D01*
X126378571Y-93016666D01*
X126169047Y-93016666D01*
X126064285Y-93069047D01*
X126011904Y-93121428D01*
X125959523Y-93226190D01*
%TO.C,C29*%
X92192857Y-121592857D02*
X92140476Y-121645238D01*
X91983333Y-121697619D01*
X91878571Y-121697619D01*
X91721428Y-121645238D01*
X91616666Y-121540476D01*
X91564285Y-121435714D01*
X91511904Y-121226190D01*
X91511904Y-121069047D01*
X91564285Y-120859523D01*
X91616666Y-120754761D01*
X91721428Y-120650000D01*
X91878571Y-120597619D01*
X91983333Y-120597619D01*
X92140476Y-120650000D01*
X92192857Y-120702380D01*
X92611904Y-120702380D02*
X92664285Y-120650000D01*
X92769047Y-120597619D01*
X93030952Y-120597619D01*
X93135714Y-120650000D01*
X93188095Y-120702380D01*
X93240476Y-120807142D01*
X93240476Y-120911904D01*
X93188095Y-121069047D01*
X92559523Y-121697619D01*
X93240476Y-121697619D01*
X93764285Y-121697619D02*
X93973809Y-121697619D01*
X94078571Y-121645238D01*
X94130952Y-121592857D01*
X94235714Y-121435714D01*
X94288095Y-121226190D01*
X94288095Y-120807142D01*
X94235714Y-120702380D01*
X94183333Y-120650000D01*
X94078571Y-120597619D01*
X93869047Y-120597619D01*
X93764285Y-120650000D01*
X93711904Y-120702380D01*
X93659523Y-120807142D01*
X93659523Y-121069047D01*
X93711904Y-121173809D01*
X93764285Y-121226190D01*
X93869047Y-121278571D01*
X94078571Y-121278571D01*
X94183333Y-121226190D01*
X94235714Y-121173809D01*
X94288095Y-121069047D01*
%TO.C,C9*%
X88716666Y-92392857D02*
X88664285Y-92445238D01*
X88507142Y-92497619D01*
X88402380Y-92497619D01*
X88245238Y-92445238D01*
X88140476Y-92340476D01*
X88088095Y-92235714D01*
X88035714Y-92026190D01*
X88035714Y-91869047D01*
X88088095Y-91659523D01*
X88140476Y-91554761D01*
X88245238Y-91450000D01*
X88402380Y-91397619D01*
X88507142Y-91397619D01*
X88664285Y-91450000D01*
X88716666Y-91502380D01*
X89240476Y-92497619D02*
X89450000Y-92497619D01*
X89554761Y-92445238D01*
X89607142Y-92392857D01*
X89711904Y-92235714D01*
X89764285Y-92026190D01*
X89764285Y-91607142D01*
X89711904Y-91502380D01*
X89659523Y-91450000D01*
X89554761Y-91397619D01*
X89345238Y-91397619D01*
X89240476Y-91450000D01*
X89188095Y-91502380D01*
X89135714Y-91607142D01*
X89135714Y-91869047D01*
X89188095Y-91973809D01*
X89240476Y-92026190D01*
X89345238Y-92078571D01*
X89554761Y-92078571D01*
X89659523Y-92026190D01*
X89711904Y-91973809D01*
X89764285Y-91869047D01*
%TO.C,C25*%
X130492857Y-105692857D02*
X130440476Y-105745238D01*
X130283333Y-105797619D01*
X130178571Y-105797619D01*
X130021428Y-105745238D01*
X129916666Y-105640476D01*
X129864285Y-105535714D01*
X129811904Y-105326190D01*
X129811904Y-105169047D01*
X129864285Y-104959523D01*
X129916666Y-104854761D01*
X130021428Y-104750000D01*
X130178571Y-104697619D01*
X130283333Y-104697619D01*
X130440476Y-104750000D01*
X130492857Y-104802380D01*
X130911904Y-104802380D02*
X130964285Y-104750000D01*
X131069047Y-104697619D01*
X131330952Y-104697619D01*
X131435714Y-104750000D01*
X131488095Y-104802380D01*
X131540476Y-104907142D01*
X131540476Y-105011904D01*
X131488095Y-105169047D01*
X130859523Y-105797619D01*
X131540476Y-105797619D01*
X132535714Y-104697619D02*
X132011904Y-104697619D01*
X131959523Y-105221428D01*
X132011904Y-105169047D01*
X132116666Y-105116666D01*
X132378571Y-105116666D01*
X132483333Y-105169047D01*
X132535714Y-105221428D01*
X132588095Y-105326190D01*
X132588095Y-105588095D01*
X132535714Y-105692857D01*
X132483333Y-105745238D01*
X132378571Y-105797619D01*
X132116666Y-105797619D01*
X132011904Y-105745238D01*
X131959523Y-105692857D01*
%TO.C,R8*%
X94216666Y-81297619D02*
X93850000Y-80773809D01*
X93588095Y-81297619D02*
X93588095Y-80197619D01*
X94007142Y-80197619D01*
X94111904Y-80250000D01*
X94164285Y-80302380D01*
X94216666Y-80407142D01*
X94216666Y-80564285D01*
X94164285Y-80669047D01*
X94111904Y-80721428D01*
X94007142Y-80773809D01*
X93588095Y-80773809D01*
X94845238Y-80669047D02*
X94740476Y-80616666D01*
X94688095Y-80564285D01*
X94635714Y-80459523D01*
X94635714Y-80407142D01*
X94688095Y-80302380D01*
X94740476Y-80250000D01*
X94845238Y-80197619D01*
X95054761Y-80197619D01*
X95159523Y-80250000D01*
X95211904Y-80302380D01*
X95264285Y-80407142D01*
X95264285Y-80459523D01*
X95211904Y-80564285D01*
X95159523Y-80616666D01*
X95054761Y-80669047D01*
X94845238Y-80669047D01*
X94740476Y-80721428D01*
X94688095Y-80773809D01*
X94635714Y-80878571D01*
X94635714Y-81088095D01*
X94688095Y-81192857D01*
X94740476Y-81245238D01*
X94845238Y-81297619D01*
X95054761Y-81297619D01*
X95159523Y-81245238D01*
X95211904Y-81192857D01*
X95264285Y-81088095D01*
X95264285Y-80878571D01*
X95211904Y-80773809D01*
X95159523Y-80721428D01*
X95054761Y-80669047D01*
D14*
%TO.C,Q1*%
X161047619Y-100295238D02*
X161000000Y-100390476D01*
X160904761Y-100485714D01*
X160761904Y-100628571D01*
X160714285Y-100723809D01*
X160714285Y-100819047D01*
X160952380Y-100771428D02*
X160904761Y-100866666D01*
X160809523Y-100961904D01*
X160619047Y-101009523D01*
X160285714Y-101009523D01*
X160095238Y-100961904D01*
X160000000Y-100866666D01*
X159952380Y-100771428D01*
X159952380Y-100580952D01*
X160000000Y-100485714D01*
X160095238Y-100390476D01*
X160285714Y-100342857D01*
X160619047Y-100342857D01*
X160809523Y-100390476D01*
X160904761Y-100485714D01*
X160952380Y-100580952D01*
X160952380Y-100771428D01*
X160952380Y-99390476D02*
X160952380Y-99961904D01*
X160952380Y-99676190D02*
X159952380Y-99676190D01*
X160095238Y-99771428D01*
X160190476Y-99866666D01*
X160238095Y-99961904D01*
D10*
%TO.C,C46*%
X151657142Y-108157142D02*
X151609523Y-108204761D01*
X151466666Y-108252380D01*
X151371428Y-108252380D01*
X151228571Y-108204761D01*
X151133333Y-108109523D01*
X151085714Y-108014285D01*
X151038095Y-107823809D01*
X151038095Y-107680952D01*
X151085714Y-107490476D01*
X151133333Y-107395238D01*
X151228571Y-107300000D01*
X151371428Y-107252380D01*
X151466666Y-107252380D01*
X151609523Y-107300000D01*
X151657142Y-107347619D01*
X152514285Y-107585714D02*
X152514285Y-108252380D01*
X152276190Y-107204761D02*
X152038095Y-107919047D01*
X152657142Y-107919047D01*
X153466666Y-107252380D02*
X153276190Y-107252380D01*
X153180952Y-107300000D01*
X153133333Y-107347619D01*
X153038095Y-107490476D01*
X152990476Y-107680952D01*
X152990476Y-108061904D01*
X153038095Y-108157142D01*
X153085714Y-108204761D01*
X153180952Y-108252380D01*
X153371428Y-108252380D01*
X153466666Y-108204761D01*
X153514285Y-108157142D01*
X153561904Y-108061904D01*
X153561904Y-107823809D01*
X153514285Y-107728571D01*
X153466666Y-107680952D01*
X153371428Y-107633333D01*
X153180952Y-107633333D01*
X153085714Y-107680952D01*
X153038095Y-107728571D01*
X152990476Y-107823809D01*
D13*
%TO.C,R25*%
X150592857Y-105097619D02*
X150226190Y-104573809D01*
X149964285Y-105097619D02*
X149964285Y-103997619D01*
X150383333Y-103997619D01*
X150488095Y-104050000D01*
X150540476Y-104102380D01*
X150592857Y-104207142D01*
X150592857Y-104364285D01*
X150540476Y-104469047D01*
X150488095Y-104521428D01*
X150383333Y-104573809D01*
X149964285Y-104573809D01*
X151011904Y-104102380D02*
X151064285Y-104050000D01*
X151169047Y-103997619D01*
X151430952Y-103997619D01*
X151535714Y-104050000D01*
X151588095Y-104102380D01*
X151640476Y-104207142D01*
X151640476Y-104311904D01*
X151588095Y-104469047D01*
X150959523Y-105097619D01*
X151640476Y-105097619D01*
X152635714Y-103997619D02*
X152111904Y-103997619D01*
X152059523Y-104521428D01*
X152111904Y-104469047D01*
X152216666Y-104416666D01*
X152478571Y-104416666D01*
X152583333Y-104469047D01*
X152635714Y-104521428D01*
X152688095Y-104626190D01*
X152688095Y-104888095D01*
X152635714Y-104992857D01*
X152583333Y-105045238D01*
X152478571Y-105097619D01*
X152216666Y-105097619D01*
X152111904Y-105045238D01*
X152059523Y-104992857D01*
%TO.C,C24*%
X137292857Y-105692857D02*
X137240476Y-105745238D01*
X137083333Y-105797619D01*
X136978571Y-105797619D01*
X136821428Y-105745238D01*
X136716666Y-105640476D01*
X136664285Y-105535714D01*
X136611904Y-105326190D01*
X136611904Y-105169047D01*
X136664285Y-104959523D01*
X136716666Y-104854761D01*
X136821428Y-104750000D01*
X136978571Y-104697619D01*
X137083333Y-104697619D01*
X137240476Y-104750000D01*
X137292857Y-104802380D01*
X137711904Y-104802380D02*
X137764285Y-104750000D01*
X137869047Y-104697619D01*
X138130952Y-104697619D01*
X138235714Y-104750000D01*
X138288095Y-104802380D01*
X138340476Y-104907142D01*
X138340476Y-105011904D01*
X138288095Y-105169047D01*
X137659523Y-105797619D01*
X138340476Y-105797619D01*
X139283333Y-105064285D02*
X139283333Y-105797619D01*
X139021428Y-104645238D02*
X138759523Y-105430952D01*
X139440476Y-105430952D01*
%TO.C,C28*%
X110592857Y-105692857D02*
X110540476Y-105745238D01*
X110383333Y-105797619D01*
X110278571Y-105797619D01*
X110121428Y-105745238D01*
X110016666Y-105640476D01*
X109964285Y-105535714D01*
X109911904Y-105326190D01*
X109911904Y-105169047D01*
X109964285Y-104959523D01*
X110016666Y-104854761D01*
X110121428Y-104750000D01*
X110278571Y-104697619D01*
X110383333Y-104697619D01*
X110540476Y-104750000D01*
X110592857Y-104802380D01*
X111011904Y-104802380D02*
X111064285Y-104750000D01*
X111169047Y-104697619D01*
X111430952Y-104697619D01*
X111535714Y-104750000D01*
X111588095Y-104802380D01*
X111640476Y-104907142D01*
X111640476Y-105011904D01*
X111588095Y-105169047D01*
X110959523Y-105797619D01*
X111640476Y-105797619D01*
X112269047Y-105169047D02*
X112164285Y-105116666D01*
X112111904Y-105064285D01*
X112059523Y-104959523D01*
X112059523Y-104907142D01*
X112111904Y-104802380D01*
X112164285Y-104750000D01*
X112269047Y-104697619D01*
X112478571Y-104697619D01*
X112583333Y-104750000D01*
X112635714Y-104802380D01*
X112688095Y-104907142D01*
X112688095Y-104959523D01*
X112635714Y-105064285D01*
X112583333Y-105116666D01*
X112478571Y-105169047D01*
X112269047Y-105169047D01*
X112164285Y-105221428D01*
X112111904Y-105273809D01*
X112059523Y-105378571D01*
X112059523Y-105588095D01*
X112111904Y-105692857D01*
X112164285Y-105745238D01*
X112269047Y-105797619D01*
X112478571Y-105797619D01*
X112583333Y-105745238D01*
X112635714Y-105692857D01*
X112688095Y-105588095D01*
X112688095Y-105378571D01*
X112635714Y-105273809D01*
X112583333Y-105221428D01*
X112478571Y-105169047D01*
%TO.C,C1*%
X118316666Y-85292857D02*
X118264285Y-85345238D01*
X118107142Y-85397619D01*
X118002380Y-85397619D01*
X117845238Y-85345238D01*
X117740476Y-85240476D01*
X117688095Y-85135714D01*
X117635714Y-84926190D01*
X117635714Y-84769047D01*
X117688095Y-84559523D01*
X117740476Y-84454761D01*
X117845238Y-84350000D01*
X118002380Y-84297619D01*
X118107142Y-84297619D01*
X118264285Y-84350000D01*
X118316666Y-84402380D01*
X119364285Y-85397619D02*
X118735714Y-85397619D01*
X119050000Y-85397619D02*
X119050000Y-84297619D01*
X118945238Y-84454761D01*
X118840476Y-84559523D01*
X118735714Y-84611904D01*
%TO.C,C42*%
X160654857Y-118970857D02*
X160602476Y-119023238D01*
X160445333Y-119075619D01*
X160340571Y-119075619D01*
X160183428Y-119023238D01*
X160078666Y-118918476D01*
X160026285Y-118813714D01*
X159973904Y-118604190D01*
X159973904Y-118447047D01*
X160026285Y-118237523D01*
X160078666Y-118132761D01*
X160183428Y-118028000D01*
X160340571Y-117975619D01*
X160445333Y-117975619D01*
X160602476Y-118028000D01*
X160654857Y-118080380D01*
X161597714Y-118342285D02*
X161597714Y-119075619D01*
X161335809Y-117923238D02*
X161073904Y-118708952D01*
X161754857Y-118708952D01*
X162121523Y-118080380D02*
X162173904Y-118028000D01*
X162278666Y-117975619D01*
X162540571Y-117975619D01*
X162645333Y-118028000D01*
X162697714Y-118080380D01*
X162750095Y-118185142D01*
X162750095Y-118289904D01*
X162697714Y-118447047D01*
X162069142Y-119075619D01*
X162750095Y-119075619D01*
%TO.C,C10*%
X86692857Y-93992857D02*
X86640476Y-94045238D01*
X86483333Y-94097619D01*
X86378571Y-94097619D01*
X86221428Y-94045238D01*
X86116666Y-93940476D01*
X86064285Y-93835714D01*
X86011904Y-93626190D01*
X86011904Y-93469047D01*
X86064285Y-93259523D01*
X86116666Y-93154761D01*
X86221428Y-93050000D01*
X86378571Y-92997619D01*
X86483333Y-92997619D01*
X86640476Y-93050000D01*
X86692857Y-93102380D01*
X87740476Y-94097619D02*
X87111904Y-94097619D01*
X87426190Y-94097619D02*
X87426190Y-92997619D01*
X87321428Y-93154761D01*
X87216666Y-93259523D01*
X87111904Y-93311904D01*
X88421428Y-92997619D02*
X88526190Y-92997619D01*
X88630952Y-93050000D01*
X88683333Y-93102380D01*
X88735714Y-93207142D01*
X88788095Y-93416666D01*
X88788095Y-93678571D01*
X88735714Y-93888095D01*
X88683333Y-93992857D01*
X88630952Y-94045238D01*
X88526190Y-94097619D01*
X88421428Y-94097619D01*
X88316666Y-94045238D01*
X88264285Y-93992857D01*
X88211904Y-93888095D01*
X88159523Y-93678571D01*
X88159523Y-93416666D01*
X88211904Y-93207142D01*
X88264285Y-93102380D01*
X88316666Y-93050000D01*
X88421428Y-92997619D01*
%TO.C,C48*%
X166992857Y-99692857D02*
X166940476Y-99745238D01*
X166783333Y-99797619D01*
X166678571Y-99797619D01*
X166521428Y-99745238D01*
X166416666Y-99640476D01*
X166364285Y-99535714D01*
X166311904Y-99326190D01*
X166311904Y-99169047D01*
X166364285Y-98959523D01*
X166416666Y-98854761D01*
X166521428Y-98750000D01*
X166678571Y-98697619D01*
X166783333Y-98697619D01*
X166940476Y-98750000D01*
X166992857Y-98802380D01*
X167935714Y-99064285D02*
X167935714Y-99797619D01*
X167673809Y-98645238D02*
X167411904Y-99430952D01*
X168092857Y-99430952D01*
X168669047Y-99169047D02*
X168564285Y-99116666D01*
X168511904Y-99064285D01*
X168459523Y-98959523D01*
X168459523Y-98907142D01*
X168511904Y-98802380D01*
X168564285Y-98750000D01*
X168669047Y-98697619D01*
X168878571Y-98697619D01*
X168983333Y-98750000D01*
X169035714Y-98802380D01*
X169088095Y-98907142D01*
X169088095Y-98959523D01*
X169035714Y-99064285D01*
X168983333Y-99116666D01*
X168878571Y-99169047D01*
X168669047Y-99169047D01*
X168564285Y-99221428D01*
X168511904Y-99273809D01*
X168459523Y-99378571D01*
X168459523Y-99588095D01*
X168511904Y-99692857D01*
X168564285Y-99745238D01*
X168669047Y-99797619D01*
X168878571Y-99797619D01*
X168983333Y-99745238D01*
X169035714Y-99692857D01*
X169088095Y-99588095D01*
X169088095Y-99378571D01*
X169035714Y-99273809D01*
X168983333Y-99221428D01*
X168878571Y-99169047D01*
%TO.C,C43*%
X152692857Y-94892857D02*
X152640476Y-94945238D01*
X152483333Y-94997619D01*
X152378571Y-94997619D01*
X152221428Y-94945238D01*
X152116666Y-94840476D01*
X152064285Y-94735714D01*
X152011904Y-94526190D01*
X152011904Y-94369047D01*
X152064285Y-94159523D01*
X152116666Y-94054761D01*
X152221428Y-93950000D01*
X152378571Y-93897619D01*
X152483333Y-93897619D01*
X152640476Y-93950000D01*
X152692857Y-94002380D01*
X153635714Y-94264285D02*
X153635714Y-94997619D01*
X153373809Y-93845238D02*
X153111904Y-94630952D01*
X153792857Y-94630952D01*
X154107142Y-93897619D02*
X154788095Y-93897619D01*
X154421428Y-94316666D01*
X154578571Y-94316666D01*
X154683333Y-94369047D01*
X154735714Y-94421428D01*
X154788095Y-94526190D01*
X154788095Y-94788095D01*
X154735714Y-94892857D01*
X154683333Y-94945238D01*
X154578571Y-94997619D01*
X154264285Y-94997619D01*
X154159523Y-94945238D01*
X154107142Y-94892857D01*
%TO.C,C15*%
X124492857Y-88192857D02*
X124440476Y-88245238D01*
X124283333Y-88297619D01*
X124178571Y-88297619D01*
X124021428Y-88245238D01*
X123916666Y-88140476D01*
X123864285Y-88035714D01*
X123811904Y-87826190D01*
X123811904Y-87669047D01*
X123864285Y-87459523D01*
X123916666Y-87354761D01*
X124021428Y-87250000D01*
X124178571Y-87197619D01*
X124283333Y-87197619D01*
X124440476Y-87250000D01*
X124492857Y-87302380D01*
X125540476Y-88297619D02*
X124911904Y-88297619D01*
X125226190Y-88297619D02*
X125226190Y-87197619D01*
X125121428Y-87354761D01*
X125016666Y-87459523D01*
X124911904Y-87511904D01*
X126535714Y-87197619D02*
X126011904Y-87197619D01*
X125959523Y-87721428D01*
X126011904Y-87669047D01*
X126116666Y-87616666D01*
X126378571Y-87616666D01*
X126483333Y-87669047D01*
X126535714Y-87721428D01*
X126588095Y-87826190D01*
X126588095Y-88088095D01*
X126535714Y-88192857D01*
X126483333Y-88245238D01*
X126378571Y-88297619D01*
X126116666Y-88297619D01*
X126011904Y-88245238D01*
X125959523Y-88192857D01*
%TO.C,C34*%
X155292857Y-77536857D02*
X155240476Y-77589238D01*
X155083333Y-77641619D01*
X154978571Y-77641619D01*
X154821428Y-77589238D01*
X154716666Y-77484476D01*
X154664285Y-77379714D01*
X154611904Y-77170190D01*
X154611904Y-77013047D01*
X154664285Y-76803523D01*
X154716666Y-76698761D01*
X154821428Y-76594000D01*
X154978571Y-76541619D01*
X155083333Y-76541619D01*
X155240476Y-76594000D01*
X155292857Y-76646380D01*
X155659523Y-76541619D02*
X156340476Y-76541619D01*
X155973809Y-76960666D01*
X156130952Y-76960666D01*
X156235714Y-77013047D01*
X156288095Y-77065428D01*
X156340476Y-77170190D01*
X156340476Y-77432095D01*
X156288095Y-77536857D01*
X156235714Y-77589238D01*
X156130952Y-77641619D01*
X155816666Y-77641619D01*
X155711904Y-77589238D01*
X155659523Y-77536857D01*
X157283333Y-76908285D02*
X157283333Y-77641619D01*
X157021428Y-76489238D02*
X156759523Y-77274952D01*
X157440476Y-77274952D01*
D10*
%TO.C,U1*%
X136238095Y-82452380D02*
X136238095Y-83261904D01*
X136285714Y-83357142D01*
X136333333Y-83404761D01*
X136428571Y-83452380D01*
X136619047Y-83452380D01*
X136714285Y-83404761D01*
X136761904Y-83357142D01*
X136809523Y-83261904D01*
X136809523Y-82452380D01*
X137809523Y-83452380D02*
X137238095Y-83452380D01*
X137523809Y-83452380D02*
X137523809Y-82452380D01*
X137428571Y-82595238D01*
X137333333Y-82690476D01*
X137238095Y-82738095D01*
D13*
%TO.C,R22*%
X169792857Y-96785619D02*
X169426190Y-96261809D01*
X169164285Y-96785619D02*
X169164285Y-95685619D01*
X169583333Y-95685619D01*
X169688095Y-95738000D01*
X169740476Y-95790380D01*
X169792857Y-95895142D01*
X169792857Y-96052285D01*
X169740476Y-96157047D01*
X169688095Y-96209428D01*
X169583333Y-96261809D01*
X169164285Y-96261809D01*
X170211904Y-95790380D02*
X170264285Y-95738000D01*
X170369047Y-95685619D01*
X170630952Y-95685619D01*
X170735714Y-95738000D01*
X170788095Y-95790380D01*
X170840476Y-95895142D01*
X170840476Y-95999904D01*
X170788095Y-96157047D01*
X170159523Y-96785619D01*
X170840476Y-96785619D01*
X171259523Y-95790380D02*
X171311904Y-95738000D01*
X171416666Y-95685619D01*
X171678571Y-95685619D01*
X171783333Y-95738000D01*
X171835714Y-95790380D01*
X171888095Y-95895142D01*
X171888095Y-95999904D01*
X171835714Y-96157047D01*
X171207142Y-96785619D01*
X171888095Y-96785619D01*
%TO.C,R20*%
X154092857Y-119897619D02*
X153726190Y-119373809D01*
X153464285Y-119897619D02*
X153464285Y-118797619D01*
X153883333Y-118797619D01*
X153988095Y-118850000D01*
X154040476Y-118902380D01*
X154092857Y-119007142D01*
X154092857Y-119164285D01*
X154040476Y-119269047D01*
X153988095Y-119321428D01*
X153883333Y-119373809D01*
X153464285Y-119373809D01*
X154511904Y-118902380D02*
X154564285Y-118850000D01*
X154669047Y-118797619D01*
X154930952Y-118797619D01*
X155035714Y-118850000D01*
X155088095Y-118902380D01*
X155140476Y-119007142D01*
X155140476Y-119111904D01*
X155088095Y-119269047D01*
X154459523Y-119897619D01*
X155140476Y-119897619D01*
X155821428Y-118797619D02*
X155926190Y-118797619D01*
X156030952Y-118850000D01*
X156083333Y-118902380D01*
X156135714Y-119007142D01*
X156188095Y-119216666D01*
X156188095Y-119478571D01*
X156135714Y-119688095D01*
X156083333Y-119792857D01*
X156030952Y-119845238D01*
X155926190Y-119897619D01*
X155821428Y-119897619D01*
X155716666Y-119845238D01*
X155664285Y-119792857D01*
X155611904Y-119688095D01*
X155559523Y-119478571D01*
X155559523Y-119216666D01*
X155611904Y-119007142D01*
X155664285Y-118902380D01*
X155716666Y-118850000D01*
X155821428Y-118797619D01*
%TO.C,C12*%
X90407142Y-89544857D02*
X90354761Y-89492476D01*
X90302380Y-89335333D01*
X90302380Y-89230571D01*
X90354761Y-89073428D01*
X90459523Y-88968666D01*
X90564285Y-88916285D01*
X90773809Y-88863904D01*
X90930952Y-88863904D01*
X91140476Y-88916285D01*
X91245238Y-88968666D01*
X91350000Y-89073428D01*
X91402380Y-89230571D01*
X91402380Y-89335333D01*
X91350000Y-89492476D01*
X91297619Y-89544857D01*
X90302380Y-90592476D02*
X90302380Y-89963904D01*
X90302380Y-90278190D02*
X91402380Y-90278190D01*
X91245238Y-90173428D01*
X91140476Y-90068666D01*
X91088095Y-89963904D01*
X91297619Y-91011523D02*
X91350000Y-91063904D01*
X91402380Y-91168666D01*
X91402380Y-91430571D01*
X91350000Y-91535333D01*
X91297619Y-91587714D01*
X91192857Y-91640095D01*
X91088095Y-91640095D01*
X90930952Y-91587714D01*
X90302380Y-90959142D01*
X90302380Y-91640095D01*
%TO.C,C3*%
X129616666Y-77324857D02*
X129564285Y-77377238D01*
X129407142Y-77429619D01*
X129302380Y-77429619D01*
X129145238Y-77377238D01*
X129040476Y-77272476D01*
X128988095Y-77167714D01*
X128935714Y-76958190D01*
X128935714Y-76801047D01*
X128988095Y-76591523D01*
X129040476Y-76486761D01*
X129145238Y-76382000D01*
X129302380Y-76329619D01*
X129407142Y-76329619D01*
X129564285Y-76382000D01*
X129616666Y-76434380D01*
X129983333Y-76329619D02*
X130664285Y-76329619D01*
X130297619Y-76748666D01*
X130454761Y-76748666D01*
X130559523Y-76801047D01*
X130611904Y-76853428D01*
X130664285Y-76958190D01*
X130664285Y-77220095D01*
X130611904Y-77324857D01*
X130559523Y-77377238D01*
X130454761Y-77429619D01*
X130140476Y-77429619D01*
X130035714Y-77377238D01*
X129983333Y-77324857D01*
%TO.C,C18*%
X99892857Y-100592857D02*
X99840476Y-100645238D01*
X99683333Y-100697619D01*
X99578571Y-100697619D01*
X99421428Y-100645238D01*
X99316666Y-100540476D01*
X99264285Y-100435714D01*
X99211904Y-100226190D01*
X99211904Y-100069047D01*
X99264285Y-99859523D01*
X99316666Y-99754761D01*
X99421428Y-99650000D01*
X99578571Y-99597619D01*
X99683333Y-99597619D01*
X99840476Y-99650000D01*
X99892857Y-99702380D01*
X100940476Y-100697619D02*
X100311904Y-100697619D01*
X100626190Y-100697619D02*
X100626190Y-99597619D01*
X100521428Y-99754761D01*
X100416666Y-99859523D01*
X100311904Y-99911904D01*
X101569047Y-100069047D02*
X101464285Y-100016666D01*
X101411904Y-99964285D01*
X101359523Y-99859523D01*
X101359523Y-99807142D01*
X101411904Y-99702380D01*
X101464285Y-99650000D01*
X101569047Y-99597619D01*
X101778571Y-99597619D01*
X101883333Y-99650000D01*
X101935714Y-99702380D01*
X101988095Y-99807142D01*
X101988095Y-99859523D01*
X101935714Y-99964285D01*
X101883333Y-100016666D01*
X101778571Y-100069047D01*
X101569047Y-100069047D01*
X101464285Y-100121428D01*
X101411904Y-100173809D01*
X101359523Y-100278571D01*
X101359523Y-100488095D01*
X101411904Y-100592857D01*
X101464285Y-100645238D01*
X101569047Y-100697619D01*
X101778571Y-100697619D01*
X101883333Y-100645238D01*
X101935714Y-100592857D01*
X101988095Y-100488095D01*
X101988095Y-100278571D01*
X101935714Y-100173809D01*
X101883333Y-100121428D01*
X101778571Y-100069047D01*
%TO.C,C13*%
X97207142Y-77970857D02*
X97154761Y-77918476D01*
X97102380Y-77761333D01*
X97102380Y-77656571D01*
X97154761Y-77499428D01*
X97259523Y-77394666D01*
X97364285Y-77342285D01*
X97573809Y-77289904D01*
X97730952Y-77289904D01*
X97940476Y-77342285D01*
X98045238Y-77394666D01*
X98150000Y-77499428D01*
X98202380Y-77656571D01*
X98202380Y-77761333D01*
X98150000Y-77918476D01*
X98097619Y-77970857D01*
X97102380Y-79018476D02*
X97102380Y-78389904D01*
X97102380Y-78704190D02*
X98202380Y-78704190D01*
X98045238Y-78599428D01*
X97940476Y-78494666D01*
X97888095Y-78389904D01*
X98202380Y-79385142D02*
X98202380Y-80066095D01*
X97783333Y-79699428D01*
X97783333Y-79856571D01*
X97730952Y-79961333D01*
X97678571Y-80013714D01*
X97573809Y-80066095D01*
X97311904Y-80066095D01*
X97207142Y-80013714D01*
X97154761Y-79961333D01*
X97102380Y-79856571D01*
X97102380Y-79542285D01*
X97154761Y-79437523D01*
X97207142Y-79385142D01*
%TO.C,C49*%
X150592857Y-99592857D02*
X150540476Y-99645238D01*
X150383333Y-99697619D01*
X150278571Y-99697619D01*
X150121428Y-99645238D01*
X150016666Y-99540476D01*
X149964285Y-99435714D01*
X149911904Y-99226190D01*
X149911904Y-99069047D01*
X149964285Y-98859523D01*
X150016666Y-98754761D01*
X150121428Y-98650000D01*
X150278571Y-98597619D01*
X150383333Y-98597619D01*
X150540476Y-98650000D01*
X150592857Y-98702380D01*
X151535714Y-98964285D02*
X151535714Y-99697619D01*
X151273809Y-98545238D02*
X151011904Y-99330952D01*
X151692857Y-99330952D01*
X152164285Y-99697619D02*
X152373809Y-99697619D01*
X152478571Y-99645238D01*
X152530952Y-99592857D01*
X152635714Y-99435714D01*
X152688095Y-99226190D01*
X152688095Y-98807142D01*
X152635714Y-98702380D01*
X152583333Y-98650000D01*
X152478571Y-98597619D01*
X152269047Y-98597619D01*
X152164285Y-98650000D01*
X152111904Y-98702380D01*
X152059523Y-98807142D01*
X152059523Y-99069047D01*
X152111904Y-99173809D01*
X152164285Y-99226190D01*
X152269047Y-99278571D01*
X152478571Y-99278571D01*
X152583333Y-99226190D01*
X152635714Y-99173809D01*
X152688095Y-99069047D01*
%TO.C,C23*%
X113392857Y-112692857D02*
X113340476Y-112745238D01*
X113183333Y-112797619D01*
X113078571Y-112797619D01*
X112921428Y-112745238D01*
X112816666Y-112640476D01*
X112764285Y-112535714D01*
X112711904Y-112326190D01*
X112711904Y-112169047D01*
X112764285Y-111959523D01*
X112816666Y-111854761D01*
X112921428Y-111750000D01*
X113078571Y-111697619D01*
X113183333Y-111697619D01*
X113340476Y-111750000D01*
X113392857Y-111802380D01*
X113811904Y-111802380D02*
X113864285Y-111750000D01*
X113969047Y-111697619D01*
X114230952Y-111697619D01*
X114335714Y-111750000D01*
X114388095Y-111802380D01*
X114440476Y-111907142D01*
X114440476Y-112011904D01*
X114388095Y-112169047D01*
X113759523Y-112797619D01*
X114440476Y-112797619D01*
X114807142Y-111697619D02*
X115488095Y-111697619D01*
X115121428Y-112116666D01*
X115278571Y-112116666D01*
X115383333Y-112169047D01*
X115435714Y-112221428D01*
X115488095Y-112326190D01*
X115488095Y-112588095D01*
X115435714Y-112692857D01*
X115383333Y-112745238D01*
X115278571Y-112797619D01*
X114964285Y-112797619D01*
X114859523Y-112745238D01*
X114807142Y-112692857D01*
%TO.C,R11*%
X92792857Y-109597619D02*
X92426190Y-109073809D01*
X92164285Y-109597619D02*
X92164285Y-108497619D01*
X92583333Y-108497619D01*
X92688095Y-108550000D01*
X92740476Y-108602380D01*
X92792857Y-108707142D01*
X92792857Y-108864285D01*
X92740476Y-108969047D01*
X92688095Y-109021428D01*
X92583333Y-109073809D01*
X92164285Y-109073809D01*
X93840476Y-109597619D02*
X93211904Y-109597619D01*
X93526190Y-109597619D02*
X93526190Y-108497619D01*
X93421428Y-108654761D01*
X93316666Y-108759523D01*
X93211904Y-108811904D01*
X94888095Y-109597619D02*
X94259523Y-109597619D01*
X94573809Y-109597619D02*
X94573809Y-108497619D01*
X94469047Y-108654761D01*
X94364285Y-108759523D01*
X94259523Y-108811904D01*
%TO.C,R26*%
X153992857Y-98597619D02*
X153626190Y-98073809D01*
X153364285Y-98597619D02*
X153364285Y-97497619D01*
X153783333Y-97497619D01*
X153888095Y-97550000D01*
X153940476Y-97602380D01*
X153992857Y-97707142D01*
X153992857Y-97864285D01*
X153940476Y-97969047D01*
X153888095Y-98021428D01*
X153783333Y-98073809D01*
X153364285Y-98073809D01*
X154411904Y-97602380D02*
X154464285Y-97550000D01*
X154569047Y-97497619D01*
X154830952Y-97497619D01*
X154935714Y-97550000D01*
X154988095Y-97602380D01*
X155040476Y-97707142D01*
X155040476Y-97811904D01*
X154988095Y-97969047D01*
X154359523Y-98597619D01*
X155040476Y-98597619D01*
X155983333Y-97497619D02*
X155773809Y-97497619D01*
X155669047Y-97550000D01*
X155616666Y-97602380D01*
X155511904Y-97759523D01*
X155459523Y-97969047D01*
X155459523Y-98388095D01*
X155511904Y-98492857D01*
X155564285Y-98545238D01*
X155669047Y-98597619D01*
X155878571Y-98597619D01*
X155983333Y-98545238D01*
X156035714Y-98492857D01*
X156088095Y-98388095D01*
X156088095Y-98126190D01*
X156035714Y-98021428D01*
X155983333Y-97969047D01*
X155878571Y-97916666D01*
X155669047Y-97916666D01*
X155564285Y-97969047D01*
X155511904Y-98021428D01*
X155459523Y-98126190D01*
%TO.C,C27*%
X116892857Y-105692857D02*
X116840476Y-105745238D01*
X116683333Y-105797619D01*
X116578571Y-105797619D01*
X116421428Y-105745238D01*
X116316666Y-105640476D01*
X116264285Y-105535714D01*
X116211904Y-105326190D01*
X116211904Y-105169047D01*
X116264285Y-104959523D01*
X116316666Y-104854761D01*
X116421428Y-104750000D01*
X116578571Y-104697619D01*
X116683333Y-104697619D01*
X116840476Y-104750000D01*
X116892857Y-104802380D01*
X117311904Y-104802380D02*
X117364285Y-104750000D01*
X117469047Y-104697619D01*
X117730952Y-104697619D01*
X117835714Y-104750000D01*
X117888095Y-104802380D01*
X117940476Y-104907142D01*
X117940476Y-105011904D01*
X117888095Y-105169047D01*
X117259523Y-105797619D01*
X117940476Y-105797619D01*
X118307142Y-104697619D02*
X119040476Y-104697619D01*
X118569047Y-105797619D01*
%TO.C,C47*%
X157492857Y-104570857D02*
X157440476Y-104623238D01*
X157283333Y-104675619D01*
X157178571Y-104675619D01*
X157021428Y-104623238D01*
X156916666Y-104518476D01*
X156864285Y-104413714D01*
X156811904Y-104204190D01*
X156811904Y-104047047D01*
X156864285Y-103837523D01*
X156916666Y-103732761D01*
X157021428Y-103628000D01*
X157178571Y-103575619D01*
X157283333Y-103575619D01*
X157440476Y-103628000D01*
X157492857Y-103680380D01*
X158435714Y-103942285D02*
X158435714Y-104675619D01*
X158173809Y-103523238D02*
X157911904Y-104308952D01*
X158592857Y-104308952D01*
X158907142Y-103575619D02*
X159640476Y-103575619D01*
X159169047Y-104675619D01*
%TO.C,C39*%
X163892857Y-79592857D02*
X163840476Y-79645238D01*
X163683333Y-79697619D01*
X163578571Y-79697619D01*
X163421428Y-79645238D01*
X163316666Y-79540476D01*
X163264285Y-79435714D01*
X163211904Y-79226190D01*
X163211904Y-79069047D01*
X163264285Y-78859523D01*
X163316666Y-78754761D01*
X163421428Y-78650000D01*
X163578571Y-78597619D01*
X163683333Y-78597619D01*
X163840476Y-78650000D01*
X163892857Y-78702380D01*
X164259523Y-78597619D02*
X164940476Y-78597619D01*
X164573809Y-79016666D01*
X164730952Y-79016666D01*
X164835714Y-79069047D01*
X164888095Y-79121428D01*
X164940476Y-79226190D01*
X164940476Y-79488095D01*
X164888095Y-79592857D01*
X164835714Y-79645238D01*
X164730952Y-79697619D01*
X164416666Y-79697619D01*
X164311904Y-79645238D01*
X164259523Y-79592857D01*
X165464285Y-79697619D02*
X165673809Y-79697619D01*
X165778571Y-79645238D01*
X165830952Y-79592857D01*
X165935714Y-79435714D01*
X165988095Y-79226190D01*
X165988095Y-78807142D01*
X165935714Y-78702380D01*
X165883333Y-78650000D01*
X165778571Y-78597619D01*
X165569047Y-78597619D01*
X165464285Y-78650000D01*
X165411904Y-78702380D01*
X165359523Y-78807142D01*
X165359523Y-79069047D01*
X165411904Y-79173809D01*
X165464285Y-79226190D01*
X165569047Y-79278571D01*
X165778571Y-79278571D01*
X165883333Y-79226190D01*
X165935714Y-79173809D01*
X165988095Y-79069047D01*
%TO.C,R1*%
X124816666Y-84948619D02*
X124450000Y-84424809D01*
X124188095Y-84948619D02*
X124188095Y-83848619D01*
X124607142Y-83848619D01*
X124711904Y-83901000D01*
X124764285Y-83953380D01*
X124816666Y-84058142D01*
X124816666Y-84215285D01*
X124764285Y-84320047D01*
X124711904Y-84372428D01*
X124607142Y-84424809D01*
X124188095Y-84424809D01*
X125864285Y-84948619D02*
X125235714Y-84948619D01*
X125550000Y-84948619D02*
X125550000Y-83848619D01*
X125445238Y-84005761D01*
X125340476Y-84110523D01*
X125235714Y-84162904D01*
%TO.C,C6*%
X103307142Y-88916666D02*
X103254761Y-88864285D01*
X103202380Y-88707142D01*
X103202380Y-88602380D01*
X103254761Y-88445238D01*
X103359523Y-88340476D01*
X103464285Y-88288095D01*
X103673809Y-88235714D01*
X103830952Y-88235714D01*
X104040476Y-88288095D01*
X104145238Y-88340476D01*
X104250000Y-88445238D01*
X104302380Y-88602380D01*
X104302380Y-88707142D01*
X104250000Y-88864285D01*
X104197619Y-88916666D01*
X104302380Y-89859523D02*
X104302380Y-89650000D01*
X104250000Y-89545238D01*
X104197619Y-89492857D01*
X104040476Y-89388095D01*
X103830952Y-89335714D01*
X103411904Y-89335714D01*
X103307142Y-89388095D01*
X103254761Y-89440476D01*
X103202380Y-89545238D01*
X103202380Y-89754761D01*
X103254761Y-89859523D01*
X103307142Y-89911904D01*
X103411904Y-89964285D01*
X103673809Y-89964285D01*
X103778571Y-89911904D01*
X103830952Y-89859523D01*
X103883333Y-89754761D01*
X103883333Y-89545238D01*
X103830952Y-89440476D01*
X103778571Y-89388095D01*
X103673809Y-89335714D01*
%TO.C,C37*%
X163892857Y-77992857D02*
X163840476Y-78045238D01*
X163683333Y-78097619D01*
X163578571Y-78097619D01*
X163421428Y-78045238D01*
X163316666Y-77940476D01*
X163264285Y-77835714D01*
X163211904Y-77626190D01*
X163211904Y-77469047D01*
X163264285Y-77259523D01*
X163316666Y-77154761D01*
X163421428Y-77050000D01*
X163578571Y-76997619D01*
X163683333Y-76997619D01*
X163840476Y-77050000D01*
X163892857Y-77102380D01*
X164259523Y-76997619D02*
X164940476Y-76997619D01*
X164573809Y-77416666D01*
X164730952Y-77416666D01*
X164835714Y-77469047D01*
X164888095Y-77521428D01*
X164940476Y-77626190D01*
X164940476Y-77888095D01*
X164888095Y-77992857D01*
X164835714Y-78045238D01*
X164730952Y-78097619D01*
X164416666Y-78097619D01*
X164311904Y-78045238D01*
X164259523Y-77992857D01*
X165307142Y-76997619D02*
X166040476Y-76997619D01*
X165569047Y-78097619D01*
D10*
%TO.C,L2*%
X134433333Y-105752380D02*
X133957142Y-105752380D01*
X133957142Y-104752380D01*
X134719047Y-104847619D02*
X134766666Y-104800000D01*
X134861904Y-104752380D01*
X135100000Y-104752380D01*
X135195238Y-104800000D01*
X135242857Y-104847619D01*
X135290476Y-104942857D01*
X135290476Y-105038095D01*
X135242857Y-105180952D01*
X134671428Y-105752380D01*
X135290476Y-105752380D01*
%TO.C,L6*%
X133333333Y-121952380D02*
X132857142Y-121952380D01*
X132857142Y-120952380D01*
X134095238Y-120952380D02*
X133904761Y-120952380D01*
X133809523Y-121000000D01*
X133761904Y-121047619D01*
X133666666Y-121190476D01*
X133619047Y-121380952D01*
X133619047Y-121761904D01*
X133666666Y-121857142D01*
X133714285Y-121904761D01*
X133809523Y-121952380D01*
X134000000Y-121952380D01*
X134095238Y-121904761D01*
X134142857Y-121857142D01*
X134190476Y-121761904D01*
X134190476Y-121523809D01*
X134142857Y-121428571D01*
X134095238Y-121380952D01*
X134000000Y-121333333D01*
X133809523Y-121333333D01*
X133714285Y-121380952D01*
X133666666Y-121428571D01*
X133619047Y-121523809D01*
%TO.C,L4*%
X120833333Y-105752380D02*
X120357142Y-105752380D01*
X120357142Y-104752380D01*
X121595238Y-105085714D02*
X121595238Y-105752380D01*
X121357142Y-104704761D02*
X121119047Y-105419047D01*
X121738095Y-105419047D01*
D13*
%TO.C,R16*%
X163677380Y-111565857D02*
X164201190Y-111199190D01*
X163677380Y-110937285D02*
X164777380Y-110937285D01*
X164777380Y-111356333D01*
X164725000Y-111461095D01*
X164672619Y-111513476D01*
X164567857Y-111565857D01*
X164410714Y-111565857D01*
X164305952Y-111513476D01*
X164253571Y-111461095D01*
X164201190Y-111356333D01*
X164201190Y-110937285D01*
X163677380Y-112613476D02*
X163677380Y-111984904D01*
X163677380Y-112299190D02*
X164777380Y-112299190D01*
X164620238Y-112194428D01*
X164515476Y-112089666D01*
X164463095Y-111984904D01*
X164777380Y-113556333D02*
X164777380Y-113346809D01*
X164725000Y-113242047D01*
X164672619Y-113189666D01*
X164515476Y-113084904D01*
X164305952Y-113032523D01*
X163886904Y-113032523D01*
X163782142Y-113084904D01*
X163729761Y-113137285D01*
X163677380Y-113242047D01*
X163677380Y-113451571D01*
X163729761Y-113556333D01*
X163782142Y-113608714D01*
X163886904Y-113661095D01*
X164148809Y-113661095D01*
X164253571Y-113608714D01*
X164305952Y-113556333D01*
X164358333Y-113451571D01*
X164358333Y-113242047D01*
X164305952Y-113137285D01*
X164253571Y-113084904D01*
X164148809Y-113032523D01*
%TO.C,R23*%
X151592857Y-82897619D02*
X151226190Y-82373809D01*
X150964285Y-82897619D02*
X150964285Y-81797619D01*
X151383333Y-81797619D01*
X151488095Y-81850000D01*
X151540476Y-81902380D01*
X151592857Y-82007142D01*
X151592857Y-82164285D01*
X151540476Y-82269047D01*
X151488095Y-82321428D01*
X151383333Y-82373809D01*
X150964285Y-82373809D01*
X152011904Y-81902380D02*
X152064285Y-81850000D01*
X152169047Y-81797619D01*
X152430952Y-81797619D01*
X152535714Y-81850000D01*
X152588095Y-81902380D01*
X152640476Y-82007142D01*
X152640476Y-82111904D01*
X152588095Y-82269047D01*
X151959523Y-82897619D01*
X152640476Y-82897619D01*
X153007142Y-81797619D02*
X153688095Y-81797619D01*
X153321428Y-82216666D01*
X153478571Y-82216666D01*
X153583333Y-82269047D01*
X153635714Y-82321428D01*
X153688095Y-82426190D01*
X153688095Y-82688095D01*
X153635714Y-82792857D01*
X153583333Y-82845238D01*
X153478571Y-82897619D01*
X153164285Y-82897619D01*
X153059523Y-82845238D01*
X153007142Y-82792857D01*
%TO.C,C22*%
X120292857Y-112692857D02*
X120240476Y-112745238D01*
X120083333Y-112797619D01*
X119978571Y-112797619D01*
X119821428Y-112745238D01*
X119716666Y-112640476D01*
X119664285Y-112535714D01*
X119611904Y-112326190D01*
X119611904Y-112169047D01*
X119664285Y-111959523D01*
X119716666Y-111854761D01*
X119821428Y-111750000D01*
X119978571Y-111697619D01*
X120083333Y-111697619D01*
X120240476Y-111750000D01*
X120292857Y-111802380D01*
X120711904Y-111802380D02*
X120764285Y-111750000D01*
X120869047Y-111697619D01*
X121130952Y-111697619D01*
X121235714Y-111750000D01*
X121288095Y-111802380D01*
X121340476Y-111907142D01*
X121340476Y-112011904D01*
X121288095Y-112169047D01*
X120659523Y-112797619D01*
X121340476Y-112797619D01*
X121759523Y-111802380D02*
X121811904Y-111750000D01*
X121916666Y-111697619D01*
X122178571Y-111697619D01*
X122283333Y-111750000D01*
X122335714Y-111802380D01*
X122388095Y-111907142D01*
X122388095Y-112011904D01*
X122335714Y-112169047D01*
X121707142Y-112797619D01*
X122388095Y-112797619D01*
D10*
%TO.C,U5*%
X116628095Y-90452380D02*
X116628095Y-91261904D01*
X116675714Y-91357142D01*
X116723333Y-91404761D01*
X116818571Y-91452380D01*
X117009047Y-91452380D01*
X117104285Y-91404761D01*
X117151904Y-91357142D01*
X117199523Y-91261904D01*
X117199523Y-90452380D01*
X118151904Y-90452380D02*
X117675714Y-90452380D01*
X117628095Y-90928571D01*
X117675714Y-90880952D01*
X117770952Y-90833333D01*
X118009047Y-90833333D01*
X118104285Y-90880952D01*
X118151904Y-90928571D01*
X118199523Y-91023809D01*
X118199523Y-91261904D01*
X118151904Y-91357142D01*
X118104285Y-91404761D01*
X118009047Y-91452380D01*
X117770952Y-91452380D01*
X117675714Y-91404761D01*
X117628095Y-91357142D01*
D13*
%TO.C,C2*%
X121016666Y-85092857D02*
X120964285Y-85145238D01*
X120807142Y-85197619D01*
X120702380Y-85197619D01*
X120545238Y-85145238D01*
X120440476Y-85040476D01*
X120388095Y-84935714D01*
X120335714Y-84726190D01*
X120335714Y-84569047D01*
X120388095Y-84359523D01*
X120440476Y-84254761D01*
X120545238Y-84150000D01*
X120702380Y-84097619D01*
X120807142Y-84097619D01*
X120964285Y-84150000D01*
X121016666Y-84202380D01*
X121435714Y-84202380D02*
X121488095Y-84150000D01*
X121592857Y-84097619D01*
X121854761Y-84097619D01*
X121959523Y-84150000D01*
X122011904Y-84202380D01*
X122064285Y-84307142D01*
X122064285Y-84411904D01*
X122011904Y-84569047D01*
X121383333Y-85197619D01*
X122064285Y-85197619D01*
%TO.C,C33*%
X111792857Y-122992857D02*
X111740476Y-123045238D01*
X111583333Y-123097619D01*
X111478571Y-123097619D01*
X111321428Y-123045238D01*
X111216666Y-122940476D01*
X111164285Y-122835714D01*
X111111904Y-122626190D01*
X111111904Y-122469047D01*
X111164285Y-122259523D01*
X111216666Y-122154761D01*
X111321428Y-122050000D01*
X111478571Y-121997619D01*
X111583333Y-121997619D01*
X111740476Y-122050000D01*
X111792857Y-122102380D01*
X112159523Y-121997619D02*
X112840476Y-121997619D01*
X112473809Y-122416666D01*
X112630952Y-122416666D01*
X112735714Y-122469047D01*
X112788095Y-122521428D01*
X112840476Y-122626190D01*
X112840476Y-122888095D01*
X112788095Y-122992857D01*
X112735714Y-123045238D01*
X112630952Y-123097619D01*
X112316666Y-123097619D01*
X112211904Y-123045238D01*
X112159523Y-122992857D01*
X113207142Y-121997619D02*
X113888095Y-121997619D01*
X113521428Y-122416666D01*
X113678571Y-122416666D01*
X113783333Y-122469047D01*
X113835714Y-122521428D01*
X113888095Y-122626190D01*
X113888095Y-122888095D01*
X113835714Y-122992857D01*
X113783333Y-123045238D01*
X113678571Y-123097619D01*
X113364285Y-123097619D01*
X113259523Y-123045238D01*
X113207142Y-122992857D01*
%TO.C,C40*%
X148892857Y-86192857D02*
X148840476Y-86245238D01*
X148683333Y-86297619D01*
X148578571Y-86297619D01*
X148421428Y-86245238D01*
X148316666Y-86140476D01*
X148264285Y-86035714D01*
X148211904Y-85826190D01*
X148211904Y-85669047D01*
X148264285Y-85459523D01*
X148316666Y-85354761D01*
X148421428Y-85250000D01*
X148578571Y-85197619D01*
X148683333Y-85197619D01*
X148840476Y-85250000D01*
X148892857Y-85302380D01*
X149835714Y-85564285D02*
X149835714Y-86297619D01*
X149573809Y-85145238D02*
X149311904Y-85930952D01*
X149992857Y-85930952D01*
X150621428Y-85197619D02*
X150726190Y-85197619D01*
X150830952Y-85250000D01*
X150883333Y-85302380D01*
X150935714Y-85407142D01*
X150988095Y-85616666D01*
X150988095Y-85878571D01*
X150935714Y-86088095D01*
X150883333Y-86192857D01*
X150830952Y-86245238D01*
X150726190Y-86297619D01*
X150621428Y-86297619D01*
X150516666Y-86245238D01*
X150464285Y-86192857D01*
X150411904Y-86088095D01*
X150359523Y-85878571D01*
X150359523Y-85616666D01*
X150411904Y-85407142D01*
X150464285Y-85302380D01*
X150516666Y-85250000D01*
X150621428Y-85197619D01*
D10*
%TO.C,K1*%
X151000904Y-121441380D02*
X151000904Y-120441380D01*
X151572333Y-121441380D02*
X151143761Y-120869952D01*
X151572333Y-120441380D02*
X151000904Y-121012809D01*
X152524714Y-121441380D02*
X151953285Y-121441380D01*
X152239000Y-121441380D02*
X152239000Y-120441380D01*
X152143761Y-120584238D01*
X152048523Y-120679476D01*
X151953285Y-120727095D01*
D13*
%TO.C,R4*%
X107464666Y-84697619D02*
X107098000Y-84173809D01*
X106836095Y-84697619D02*
X106836095Y-83597619D01*
X107255142Y-83597619D01*
X107359904Y-83650000D01*
X107412285Y-83702380D01*
X107464666Y-83807142D01*
X107464666Y-83964285D01*
X107412285Y-84069047D01*
X107359904Y-84121428D01*
X107255142Y-84173809D01*
X106836095Y-84173809D01*
X108407523Y-83964285D02*
X108407523Y-84697619D01*
X108145619Y-83545238D02*
X107883714Y-84330952D01*
X108564666Y-84330952D01*
D10*
%TO.C,U3*%
X104538095Y-89552380D02*
X104538095Y-90361904D01*
X104585714Y-90457142D01*
X104633333Y-90504761D01*
X104728571Y-90552380D01*
X104919047Y-90552380D01*
X105014285Y-90504761D01*
X105061904Y-90457142D01*
X105109523Y-90361904D01*
X105109523Y-89552380D01*
X105490476Y-89552380D02*
X106109523Y-89552380D01*
X105776190Y-89933333D01*
X105919047Y-89933333D01*
X106014285Y-89980952D01*
X106061904Y-90028571D01*
X106109523Y-90123809D01*
X106109523Y-90361904D01*
X106061904Y-90457142D01*
X106014285Y-90504761D01*
X105919047Y-90552380D01*
X105633333Y-90552380D01*
X105538095Y-90504761D01*
X105490476Y-90457142D01*
%TO.C,U2*%
X124662095Y-76836380D02*
X124662095Y-77645904D01*
X124709714Y-77741142D01*
X124757333Y-77788761D01*
X124852571Y-77836380D01*
X125043047Y-77836380D01*
X125138285Y-77788761D01*
X125185904Y-77741142D01*
X125233523Y-77645904D01*
X125233523Y-76836380D01*
X125662095Y-76931619D02*
X125709714Y-76884000D01*
X125804952Y-76836380D01*
X126043047Y-76836380D01*
X126138285Y-76884000D01*
X126185904Y-76931619D01*
X126233523Y-77026857D01*
X126233523Y-77122095D01*
X126185904Y-77264952D01*
X125614476Y-77836380D01*
X126233523Y-77836380D01*
D13*
%TO.C,C14*%
X95541142Y-77970857D02*
X95488761Y-77918476D01*
X95436380Y-77761333D01*
X95436380Y-77656571D01*
X95488761Y-77499428D01*
X95593523Y-77394666D01*
X95698285Y-77342285D01*
X95907809Y-77289904D01*
X96064952Y-77289904D01*
X96274476Y-77342285D01*
X96379238Y-77394666D01*
X96484000Y-77499428D01*
X96536380Y-77656571D01*
X96536380Y-77761333D01*
X96484000Y-77918476D01*
X96431619Y-77970857D01*
X95436380Y-79018476D02*
X95436380Y-78389904D01*
X95436380Y-78704190D02*
X96536380Y-78704190D01*
X96379238Y-78599428D01*
X96274476Y-78494666D01*
X96222095Y-78389904D01*
X96169714Y-79961333D02*
X95436380Y-79961333D01*
X96588761Y-79699428D02*
X95803047Y-79437523D01*
X95803047Y-80118476D01*
%TO.C,R9*%
X93416666Y-96237619D02*
X93050000Y-95713809D01*
X92788095Y-96237619D02*
X92788095Y-95137619D01*
X93207142Y-95137619D01*
X93311904Y-95190000D01*
X93364285Y-95242380D01*
X93416666Y-95347142D01*
X93416666Y-95504285D01*
X93364285Y-95609047D01*
X93311904Y-95661428D01*
X93207142Y-95713809D01*
X92788095Y-95713809D01*
X93940476Y-96237619D02*
X94150000Y-96237619D01*
X94254761Y-96185238D01*
X94307142Y-96132857D01*
X94411904Y-95975714D01*
X94464285Y-95766190D01*
X94464285Y-95347142D01*
X94411904Y-95242380D01*
X94359523Y-95190000D01*
X94254761Y-95137619D01*
X94045238Y-95137619D01*
X93940476Y-95190000D01*
X93888095Y-95242380D01*
X93835714Y-95347142D01*
X93835714Y-95609047D01*
X93888095Y-95713809D01*
X93940476Y-95766190D01*
X94045238Y-95818571D01*
X94254761Y-95818571D01*
X94359523Y-95766190D01*
X94411904Y-95713809D01*
X94464285Y-95609047D01*
%TO.C,R18*%
X163002380Y-105392857D02*
X163526190Y-105026190D01*
X163002380Y-104764285D02*
X164102380Y-104764285D01*
X164102380Y-105183333D01*
X164050000Y-105288095D01*
X163997619Y-105340476D01*
X163892857Y-105392857D01*
X163735714Y-105392857D01*
X163630952Y-105340476D01*
X163578571Y-105288095D01*
X163526190Y-105183333D01*
X163526190Y-104764285D01*
X163002380Y-106440476D02*
X163002380Y-105811904D01*
X163002380Y-106126190D02*
X164102380Y-106126190D01*
X163945238Y-106021428D01*
X163840476Y-105916666D01*
X163788095Y-105811904D01*
X163630952Y-107069047D02*
X163683333Y-106964285D01*
X163735714Y-106911904D01*
X163840476Y-106859523D01*
X163892857Y-106859523D01*
X163997619Y-106911904D01*
X164050000Y-106964285D01*
X164102380Y-107069047D01*
X164102380Y-107278571D01*
X164050000Y-107383333D01*
X163997619Y-107435714D01*
X163892857Y-107488095D01*
X163840476Y-107488095D01*
X163735714Y-107435714D01*
X163683333Y-107383333D01*
X163630952Y-107278571D01*
X163630952Y-107069047D01*
X163578571Y-106964285D01*
X163526190Y-106911904D01*
X163421428Y-106859523D01*
X163211904Y-106859523D01*
X163107142Y-106911904D01*
X163054761Y-106964285D01*
X163002380Y-107069047D01*
X163002380Y-107278571D01*
X163054761Y-107383333D01*
X163107142Y-107435714D01*
X163211904Y-107488095D01*
X163421428Y-107488095D01*
X163526190Y-107435714D01*
X163578571Y-107383333D01*
X163630952Y-107278571D01*
D10*
%TO.C,C26*%
X125150000Y-109950000D02*
X125150000Y-107050000D01*
X125150000Y-107050000D02*
X123650000Y-107050000D01*
X123650000Y-107050000D02*
X123650000Y-109950000D01*
X125150000Y-109950000D02*
X123650000Y-109950000D01*
%TO.C,R2*%
X117750000Y-81850000D02*
X116250000Y-81850000D01*
X117750000Y-81850000D02*
X117750000Y-78950000D01*
X116250000Y-78950000D02*
X116250000Y-81850000D01*
X117750000Y-78950000D02*
X116250000Y-78950000D01*
%TO.C,C7*%
X98150000Y-89450000D02*
X98150000Y-86550000D01*
X96650000Y-89450000D02*
X98150000Y-89450000D01*
X96650000Y-86550000D02*
X96650000Y-89450000D01*
X96650000Y-86550000D02*
X98150000Y-86550000D01*
%TO.C,R19*%
X161250000Y-102750000D02*
X164150000Y-102750000D01*
X164150000Y-101250000D02*
X161250000Y-101250000D01*
X161250000Y-102750000D02*
X161250000Y-101250000D01*
X164150000Y-102750000D02*
X164150000Y-101250000D01*
%TO.C,K2*%
X106334000Y-105926000D02*
X106334000Y-121674000D01*
X95666000Y-121674000D02*
X95666000Y-105926000D01*
X95666000Y-105926000D02*
X106334000Y-105926000D01*
X106334000Y-121674000D02*
X95666000Y-121674000D01*
X106334000Y-109990000D02*
X95666000Y-109990000D01*
D15*
%TO.C,TP2*%
X143450000Y-79400000D02*
G75*
G03*
X143450000Y-79400000I-1050000J0D01*
G01*
D10*
%TO.C,C32*%
X122350000Y-120850000D02*
X122350000Y-117950000D01*
X120850000Y-117950000D02*
X122350000Y-117950000D01*
X120850000Y-120850000D02*
X122350000Y-120850000D01*
X120850000Y-117950000D02*
X120850000Y-120850000D01*
%TO.C,C5*%
X139450000Y-82050000D02*
X140950000Y-82050000D01*
X139450000Y-79150000D02*
X140950000Y-79150000D01*
X140950000Y-82050000D02*
X140950000Y-79150000D01*
X139450000Y-79150000D02*
X139450000Y-82050000D01*
%TO.C,D1*%
X124100000Y-96300000D02*
X125900000Y-96300000D01*
X124100000Y-101100000D02*
X124100000Y-95950000D01*
X125900000Y-95950000D02*
X124100000Y-95950000D01*
X125900000Y-101100000D02*
X124100000Y-101100000D01*
X125900000Y-95950000D02*
X125900000Y-101100000D01*
D15*
%TO.C,X1*%
X149230000Y-84660000D02*
X149570000Y-84660000D01*
X149020000Y-81740000D02*
X148330000Y-81740000D01*
X148290000Y-83620000D02*
X148290000Y-82980000D01*
X149240000Y-81940000D02*
X149570000Y-81940000D01*
X150510000Y-83620000D02*
X150510000Y-82980000D01*
X149240001Y-81940000D02*
G75*
G03*
X149020000Y-81740000I-310002J-120002D01*
G01*
D16*
%TO.C,U8*%
X159300000Y-111705000D02*
X159300000Y-113864000D01*
X158538000Y-110943000D02*
X159300000Y-111705000D01*
X159300000Y-113864000D02*
X155490000Y-113864000D01*
X155490000Y-110943000D02*
X158538000Y-110943000D01*
X155490000Y-113864000D02*
X155490000Y-110943000D01*
G36*
X158919000Y-111324000D02*
G01*
X155490000Y-111324000D01*
X155490000Y-110943000D01*
X158538000Y-110943000D01*
X158919000Y-111324000D01*
G37*
D15*
X158919000Y-111324000D02*
X155490000Y-111324000D01*
X155490000Y-110943000D01*
X158538000Y-110943000D01*
X158919000Y-111324000D01*
D10*
%TO.C,C21*%
X126350000Y-109750000D02*
X126350000Y-111250000D01*
X129250000Y-109750000D02*
X129250000Y-111250000D01*
X129250000Y-109750000D02*
X126350000Y-109750000D01*
X126350000Y-111250000D02*
X129250000Y-111250000D01*
%TO.C,R17*%
X166050000Y-83850000D02*
X163150000Y-83850000D01*
X163150000Y-85350000D02*
X166050000Y-85350000D01*
X166050000Y-83850000D02*
X166050000Y-85350000D01*
X163150000Y-83850000D02*
X163150000Y-85350000D01*
%TO.C,J3*%
X174100000Y-85870000D02*
X174100000Y-94470000D01*
X169800000Y-94470000D02*
X165500000Y-94470000D01*
X174100000Y-94470000D02*
X169800000Y-94470000D01*
X165500000Y-94470000D02*
X165500000Y-85870000D01*
X165500000Y-85870000D02*
X174100000Y-85870000D01*
D15*
%TO.C,TP1*%
X131850000Y-80200000D02*
G75*
G03*
X131850000Y-80200000I-1050000J0D01*
G01*
D10*
%TO.C,U4*%
X91745000Y-83700000D02*
X96145000Y-83700000D01*
X95845000Y-87300000D02*
X91745000Y-87300000D01*
X91745000Y-87300000D02*
X91745000Y-83700000D01*
X95845000Y-87300000D02*
X96145000Y-87000000D01*
X96145000Y-83700000D02*
X96145000Y-87000000D01*
%TO.C,L8*%
X119000000Y-120150000D02*
X115000000Y-120150000D01*
X115000000Y-120150000D02*
X115000000Y-117050000D01*
X115000000Y-117050000D02*
X119000000Y-117050000D01*
X119000000Y-117050000D02*
X119000000Y-120150000D01*
%TO.C,C31*%
X128250000Y-117950000D02*
X128250000Y-120850000D01*
X128250000Y-117950000D02*
X129750000Y-117950000D01*
X128250000Y-120850000D02*
X129750000Y-120850000D01*
X129750000Y-120850000D02*
X129750000Y-117950000D01*
%TO.C,C30*%
X136450000Y-117950000D02*
X137950000Y-117950000D01*
X136450000Y-117950000D02*
X136450000Y-120850000D01*
X137950000Y-120850000D02*
X137950000Y-117950000D01*
X136450000Y-120850000D02*
X137950000Y-120850000D01*
%TO.C,R3*%
X123350000Y-77850000D02*
X123350000Y-74950000D01*
X123350000Y-77850000D02*
X121850000Y-77850000D01*
X121850000Y-74950000D02*
X121850000Y-77850000D01*
X123350000Y-74950000D02*
X121850000Y-74950000D01*
%TO.C,C41*%
X164250000Y-87450000D02*
X161350000Y-87450000D01*
X161350000Y-88950000D02*
X161350000Y-87450000D01*
X164250000Y-88950000D02*
X164250000Y-87450000D01*
X161350000Y-88950000D02*
X164250000Y-88950000D01*
%TO.C,U6*%
X90650000Y-113575000D02*
X90650000Y-118225000D01*
X94150000Y-113575000D02*
X90650000Y-113575000D01*
X94150000Y-118425000D02*
X94150000Y-113575000D01*
X90800000Y-118425000D02*
X94150000Y-118425000D01*
G36*
X91150000Y-118425000D02*
G01*
X90650000Y-118425000D01*
X90650000Y-117925000D01*
X91150000Y-118425000D01*
G37*
X91150000Y-118425000D02*
X90650000Y-118425000D01*
X90650000Y-117925000D01*
X91150000Y-118425000D01*
%TO.C,J5*%
X87700000Y-103300000D02*
X87700000Y-107600000D01*
X79100000Y-111900000D02*
X79100000Y-103300000D01*
X87700000Y-111900000D02*
X79100000Y-111900000D01*
X79100000Y-103300000D02*
X87700000Y-103300000D01*
X87700000Y-107600000D02*
X87700000Y-111900000D01*
%TO.C,R13*%
X85807145Y-113742491D02*
X88028674Y-115606575D01*
X88992855Y-114457509D02*
X88028674Y-115606575D01*
X86771326Y-112593425D02*
X85807145Y-113742491D01*
X88992855Y-114457509D02*
X86771326Y-112593425D01*
%TO.C,C38*%
X163150000Y-113450000D02*
X163150000Y-111350000D01*
X162050000Y-111350000D02*
X162050000Y-113450000D01*
X162050000Y-113450000D02*
X163150000Y-113450000D01*
X163150000Y-111350000D02*
X162050000Y-111350000D01*
%TO.C,R14*%
X87892855Y-116157509D02*
X86928674Y-117306575D01*
X84707145Y-115442491D02*
X86928674Y-117306575D01*
X85671326Y-114293425D02*
X84707145Y-115442491D01*
X87892855Y-116157509D02*
X85671326Y-114293425D01*
%TO.C,C44*%
X161150000Y-95238000D02*
X161150000Y-93738000D01*
X164050000Y-93738000D02*
X161150000Y-93738000D01*
X161150000Y-95238000D02*
X164050000Y-95238000D01*
X164050000Y-95238000D02*
X164050000Y-93738000D01*
%TO.C,C11*%
X99350000Y-90350000D02*
X97850000Y-90350000D01*
X97850000Y-90350000D02*
X97850000Y-93250000D01*
X99350000Y-93250000D02*
X99350000Y-90350000D01*
X99350000Y-93250000D02*
X97850000Y-93250000D01*
%TO.C,C19*%
X88950000Y-111350000D02*
X88950000Y-112850000D01*
X91850000Y-111350000D02*
X91850000Y-112850000D01*
X88950000Y-112850000D02*
X91850000Y-112850000D01*
X91850000Y-111350000D02*
X88950000Y-111350000D01*
%TO.C,R12*%
X109150000Y-110250000D02*
X109150000Y-107350000D01*
X107650000Y-107350000D02*
X107650000Y-110250000D01*
X109150000Y-107350000D02*
X107650000Y-107350000D01*
X109150000Y-110250000D02*
X107650000Y-110250000D01*
%TO.C,L5*%
X116100000Y-106250000D02*
X116100000Y-109350000D01*
X112100000Y-106250000D02*
X116100000Y-106250000D01*
X116100000Y-109350000D02*
X112100000Y-109350000D01*
X112100000Y-109350000D02*
X112100000Y-106250000D01*
%TO.C,C17*%
X149600000Y-97900000D02*
X148500000Y-96800000D01*
X148500000Y-104000000D02*
X139600000Y-104000000D01*
X149600000Y-102900000D02*
X148500000Y-104000000D01*
X139600000Y-104000000D02*
X139600000Y-96800000D01*
X149600000Y-97900000D02*
X149600000Y-104000000D01*
X139600000Y-96800000D02*
X148500000Y-96800000D01*
G36*
X149600000Y-104000000D02*
G01*
X148500000Y-104000000D01*
X149600000Y-102900000D01*
X149600000Y-104000000D01*
G37*
X149600000Y-104000000D02*
X148500000Y-104000000D01*
X149600000Y-102900000D01*
X149600000Y-104000000D01*
%TO.C,C36*%
X158316000Y-82435000D02*
X158316000Y-83935000D01*
X161216000Y-82435000D02*
X158316000Y-82435000D01*
X161216000Y-82435000D02*
X161216000Y-83935000D01*
X158316000Y-83935000D02*
X161216000Y-83935000D01*
%TO.C,C45*%
X153150000Y-110050000D02*
X153150000Y-112950000D01*
X154650000Y-112950000D02*
X153150000Y-112950000D01*
X154650000Y-110050000D02*
X153150000Y-110050000D01*
X154650000Y-112950000D02*
X154650000Y-110050000D01*
%TO.C,R21*%
X156350000Y-97050000D02*
X159250000Y-97050000D01*
X156350000Y-95550000D02*
X156350000Y-97050000D01*
X159250000Y-95550000D02*
X159250000Y-97050000D01*
X159250000Y-95550000D02*
X156350000Y-95550000D01*
D15*
%TO.C,TP6*%
X137650000Y-77200000D02*
G75*
G03*
X137650000Y-77200000I-1050000J0D01*
G01*
D10*
%TO.C,C8*%
X104650000Y-91050000D02*
X104650000Y-94550000D01*
X106550000Y-91050000D02*
X104650000Y-91050000D01*
X104650000Y-94550000D02*
X106550000Y-94550000D01*
X106550000Y-94550000D02*
X106550000Y-91050000D01*
%TO.C,C35*%
X157850000Y-82250000D02*
X154950000Y-82250000D01*
X154950000Y-83750000D02*
X154950000Y-82250000D01*
X157850000Y-83750000D02*
X157850000Y-82250000D01*
X154950000Y-83750000D02*
X157850000Y-83750000D01*
%TO.C,FB1*%
X149050000Y-77150000D02*
X149050000Y-80050000D01*
X149050000Y-77150000D02*
X150550000Y-77150000D01*
X149050000Y-80050000D02*
X150550000Y-80050000D01*
X150550000Y-80050000D02*
X150550000Y-77150000D01*
%TO.C,R6*%
X92450000Y-94750000D02*
X92450000Y-93250000D01*
X92450000Y-93250000D02*
X89550000Y-93250000D01*
X89550000Y-94750000D02*
X89550000Y-93250000D01*
X89550000Y-94750000D02*
X92450000Y-94750000D01*
%TO.C,L7*%
X123950000Y-117950000D02*
X123950000Y-119450000D01*
X126850000Y-117950000D02*
X126850000Y-119450000D01*
X123950000Y-119450000D02*
X126850000Y-119450000D01*
X126850000Y-117950000D02*
X123950000Y-117950000D01*
%TO.C,R5*%
X101450000Y-81950000D02*
X102950000Y-81950000D01*
X101450000Y-81950000D02*
X101450000Y-84850000D01*
X102950000Y-84850000D02*
X102950000Y-81950000D01*
X101450000Y-84850000D02*
X102950000Y-84850000D01*
%TO.C,L1*%
X89600000Y-90800000D02*
X89600000Y-78000000D01*
X76800000Y-78000000D02*
X80100000Y-78000000D01*
X86300000Y-90800000D02*
X89600000Y-90800000D01*
X80100000Y-90800000D02*
X76800000Y-90800000D01*
X89600000Y-78000000D02*
X86300000Y-78000000D01*
X76800000Y-90800000D02*
X76800000Y-78000000D01*
G36*
X89600000Y-78900000D02*
G01*
X88700000Y-78000000D01*
X89600000Y-78000000D01*
X89600000Y-78900000D01*
G37*
X89600000Y-78900000D02*
X88700000Y-78000000D01*
X89600000Y-78000000D01*
X89600000Y-78900000D01*
%TO.C,R24*%
X154450000Y-101150000D02*
X154450000Y-104050000D01*
X155950000Y-104050000D02*
X154450000Y-104050000D01*
X155950000Y-101150000D02*
X154450000Y-101150000D01*
X155950000Y-104050000D02*
X155950000Y-101150000D01*
D15*
%TO.C,Q2*%
X158250000Y-99800000D02*
X158250000Y-100600000D01*
X158250000Y-100600000D02*
X157950000Y-100600000D01*
D10*
%TO.C,R7*%
X106050000Y-80250000D02*
X103150000Y-80250000D01*
X103150000Y-81750000D02*
X106050000Y-81750000D01*
X106050000Y-80250000D02*
X106050000Y-81750000D01*
X103150000Y-80250000D02*
X103150000Y-81750000D01*
%TO.C,C50*%
X168550000Y-101250000D02*
X168550000Y-102750000D01*
X165650000Y-101250000D02*
X165650000Y-102750000D01*
X168550000Y-101250000D02*
X165650000Y-101250000D01*
X165650000Y-102750000D02*
X168550000Y-102750000D01*
%TO.C,C4*%
X132350000Y-81850000D02*
X133850000Y-81850000D01*
X132350000Y-78950000D02*
X133850000Y-78950000D01*
X133850000Y-81850000D02*
X133850000Y-78950000D01*
X132350000Y-78950000D02*
X132350000Y-81850000D01*
D15*
%TO.C,U7*%
X154095000Y-88900000D02*
X154095000Y-91100000D01*
X154095000Y-88900000D02*
X154095000Y-86700000D01*
X160865000Y-88900000D02*
X160865000Y-85300000D01*
X160865000Y-88900000D02*
X160865000Y-91100000D01*
%TO.C,TP4*%
X97250000Y-92800000D02*
G75*
G03*
X97250000Y-92800000I-1050000J0D01*
G01*
D10*
%TO.C,D2*%
X118200000Y-96300000D02*
X118200000Y-101450000D01*
X118200000Y-101100000D02*
X116400000Y-101100000D01*
X116400000Y-96300000D02*
X118200000Y-96300000D01*
X116400000Y-101450000D02*
X116400000Y-96300000D01*
X116400000Y-101450000D02*
X118200000Y-101450000D01*
%TO.C,C20*%
X133150000Y-111250000D02*
X136050000Y-111250000D01*
X136050000Y-109750000D02*
X136050000Y-111250000D01*
X133150000Y-109750000D02*
X133150000Y-111250000D01*
X136050000Y-109750000D02*
X133150000Y-109750000D01*
%TO.C,R15*%
X108250000Y-117950000D02*
X109750000Y-117950000D01*
X108250000Y-120850000D02*
X109750000Y-120850000D01*
X108250000Y-117950000D02*
X108250000Y-120850000D01*
X109750000Y-120850000D02*
X109750000Y-117950000D01*
%TO.C,R10*%
X95050000Y-111550000D02*
X95050000Y-110050000D01*
X95050000Y-110050000D02*
X92150000Y-110050000D01*
X92150000Y-111550000D02*
X95050000Y-111550000D01*
X92150000Y-111550000D02*
X92150000Y-110050000D01*
%TO.C,POT1*%
X141800000Y-84000000D02*
X141800000Y-91000000D01*
X127800000Y-84000000D02*
X141800000Y-84000000D01*
X127800000Y-91000000D02*
X127800000Y-84000000D01*
X127800000Y-91000000D02*
G75*
G03*
X141800000Y-91000000I7000000J0D01*
G01*
%TO.C,L3*%
X129800000Y-109350000D02*
X125800000Y-109350000D01*
X125800000Y-109350000D02*
X125800000Y-106250000D01*
X125800000Y-106250000D02*
X129800000Y-106250000D01*
X129800000Y-106250000D02*
X129800000Y-109350000D01*
%TO.C,C16*%
X126841000Y-90615000D02*
X126841000Y-92115000D01*
X126841000Y-90615000D02*
X123941000Y-90615000D01*
X123941000Y-92115000D02*
X126841000Y-92115000D01*
X123941000Y-90615000D02*
X123941000Y-92115000D01*
%TO.C,J1*%
X98700000Y-77600000D02*
X99200000Y-77600000D01*
X99200000Y-79600000D02*
X99200000Y-66800000D01*
X99200000Y-67800000D02*
X98700000Y-67800000D01*
X99200000Y-66800000D02*
X115200000Y-66800000D01*
X98700000Y-78600000D02*
X98700000Y-77600000D01*
X98700000Y-68800000D02*
X99200000Y-68800000D01*
X115200000Y-79600000D02*
X99200000Y-79600000D01*
X115200000Y-66800000D02*
X115200000Y-79600000D01*
X115200000Y-66300000D02*
X115200000Y-66800000D01*
X98700000Y-67800000D02*
X98700000Y-68800000D01*
X99200000Y-66800000D02*
X99200000Y-66300000D01*
X99200000Y-66300000D02*
X115200000Y-66300000D01*
X99200000Y-78600000D02*
X98700000Y-78600000D01*
%TO.C,C29*%
X89650000Y-120150000D02*
X92550000Y-120150000D01*
X92550000Y-118650000D02*
X92550000Y-120150000D01*
X89650000Y-118650000D02*
X89650000Y-120150000D01*
X92550000Y-118650000D02*
X89650000Y-118650000D01*
%TO.C,C9*%
X95250000Y-89149000D02*
X95250000Y-87649000D01*
X95250000Y-87649000D02*
X92350000Y-87649000D01*
X92350000Y-89149000D02*
X92350000Y-87649000D01*
X92350000Y-89149000D02*
X95250000Y-89149000D01*
%TO.C,C25*%
X131950000Y-109950000D02*
X130450000Y-109950000D01*
X130450000Y-107050000D02*
X130450000Y-109950000D01*
X131950000Y-107050000D02*
X130450000Y-107050000D01*
X131950000Y-109950000D02*
X131950000Y-107050000D01*
%TO.C,R8*%
X95950000Y-81750000D02*
X93050000Y-81750000D01*
X93050000Y-83250000D02*
X95950000Y-83250000D01*
X95950000Y-81750000D02*
X95950000Y-83250000D01*
X93050000Y-81750000D02*
X93050000Y-83250000D01*
D15*
%TO.C,Q1*%
X162600000Y-98850000D02*
X163400000Y-98850000D01*
X163400000Y-98850000D02*
X163400000Y-99150000D01*
D10*
%TO.C,C46*%
X153950000Y-106250000D02*
X153950000Y-107350000D01*
X156050000Y-107350000D02*
X156050000Y-106250000D01*
X156050000Y-106250000D02*
X153950000Y-106250000D01*
X153950000Y-107350000D02*
X156050000Y-107350000D01*
%TO.C,R25*%
X153150000Y-105950000D02*
X156050000Y-105950000D01*
X156050000Y-104450000D02*
X156050000Y-105950000D01*
X153150000Y-104450000D02*
X153150000Y-105950000D01*
X156050000Y-104450000D02*
X153150000Y-104450000D01*
%TO.C,C24*%
X137250000Y-107050000D02*
X137250000Y-109950000D01*
X138750000Y-107050000D02*
X137250000Y-107050000D01*
X138750000Y-109950000D02*
X137250000Y-109950000D01*
X138750000Y-109950000D02*
X138750000Y-107050000D01*
%TO.C,C28*%
X111350000Y-107350000D02*
X109850000Y-107350000D01*
X111350000Y-110250000D02*
X109850000Y-110250000D01*
X111350000Y-110250000D02*
X111350000Y-107350000D01*
X109850000Y-107350000D02*
X109850000Y-110250000D01*
%TO.C,C1*%
X118050000Y-83960000D02*
X119950000Y-83960000D01*
X119950000Y-80460000D02*
X118050000Y-80460000D01*
X119950000Y-83960000D02*
X119950000Y-80460000D01*
X118050000Y-80460000D02*
X118050000Y-83960000D01*
%TO.C,C42*%
X159150000Y-117550000D02*
X162050000Y-117550000D01*
X162050000Y-116050000D02*
X162050000Y-117550000D01*
X159150000Y-116050000D02*
X159150000Y-117550000D01*
X162050000Y-116050000D02*
X159150000Y-116050000D01*
%TO.C,C10*%
X95950000Y-91350000D02*
X95950000Y-89450000D01*
X92450000Y-91350000D02*
X95950000Y-91350000D01*
X92450000Y-89450000D02*
X92450000Y-91350000D01*
X95950000Y-89450000D02*
X92450000Y-89450000D01*
%TO.C,C48*%
X165950000Y-100050000D02*
X164450000Y-100050000D01*
X165950000Y-97150000D02*
X164450000Y-97150000D01*
X164450000Y-97150000D02*
X164450000Y-100050000D01*
X165950000Y-100050000D02*
X165950000Y-97150000D01*
%TO.C,C43*%
X156350000Y-95250000D02*
X159250000Y-95250000D01*
X159250000Y-93750000D02*
X156350000Y-93750000D01*
X159250000Y-93750000D02*
X159250000Y-95250000D01*
X156350000Y-93750000D02*
X156350000Y-95250000D01*
%TO.C,C15*%
X126841000Y-90210000D02*
X126841000Y-88710000D01*
X123941000Y-90210000D02*
X123941000Y-88710000D01*
X123941000Y-90210000D02*
X126841000Y-90210000D01*
X126841000Y-88710000D02*
X123941000Y-88710000D01*
%TO.C,C34*%
X157550000Y-81650000D02*
X157550000Y-79750000D01*
X157550000Y-79750000D02*
X154050000Y-79750000D01*
X154050000Y-79750000D02*
X154050000Y-81650000D01*
X154050000Y-81650000D02*
X157550000Y-81650000D01*
X157550000Y-81650000D02*
X158050000Y-81650000D01*
X158050000Y-81650000D02*
X158050000Y-79750000D01*
X158050000Y-79750000D02*
X157550000Y-79750000D01*
X157550000Y-79750000D02*
X157550000Y-81650000D01*
%TO.C,U1*%
X137500000Y-79800000D02*
X137500000Y-81800000D01*
X137500000Y-79800000D02*
X136800000Y-79800000D01*
X136800000Y-79800000D02*
X136500000Y-80100000D01*
X137500000Y-81800000D02*
X136500000Y-81800000D01*
X136500000Y-81800000D02*
X136500000Y-80100000D01*
%TO.C,R22*%
X161150000Y-97050000D02*
X164050000Y-97050000D01*
X164050000Y-97050000D02*
X164050000Y-95550000D01*
X164050000Y-95550000D02*
X161150000Y-95550000D01*
X161150000Y-97050000D02*
X161150000Y-95550000D01*
%TO.C,R20*%
X153150000Y-118150000D02*
X153150000Y-116650000D01*
X156050000Y-116650000D02*
X153150000Y-116650000D01*
X156050000Y-118150000D02*
X156050000Y-116650000D01*
X153150000Y-118150000D02*
X156050000Y-118150000D01*
%TO.C,C12*%
X91350000Y-85350000D02*
X89850000Y-85350000D01*
X89850000Y-85350000D02*
X89850000Y-88250000D01*
X91350000Y-88250000D02*
X91350000Y-85350000D01*
X91350000Y-88250000D02*
X89850000Y-88250000D01*
D15*
%TO.C,TP3*%
X103450000Y-95400000D02*
G75*
G03*
X103450000Y-95400000I-1050000J0D01*
G01*
D10*
%TO.C,J2*%
X142766000Y-95105000D02*
X142766000Y-86505000D01*
X151366000Y-86505000D02*
X151366000Y-90805000D01*
X151366000Y-90805000D02*
X151366000Y-95105000D01*
X151366000Y-95105000D02*
X142766000Y-95105000D01*
X142766000Y-86505000D02*
X151366000Y-86505000D01*
%TO.C,C3*%
X127450000Y-81250000D02*
X129350000Y-81250000D01*
X127450000Y-77750000D02*
X127450000Y-81250000D01*
X129350000Y-77750000D02*
X127450000Y-77750000D01*
X129350000Y-81250000D02*
X129350000Y-77750000D01*
%TO.C,C18*%
X102600000Y-102900000D02*
X102600000Y-96800000D01*
X112600000Y-96800000D02*
X112600000Y-104000000D01*
X102600000Y-97900000D02*
X103700000Y-96800000D01*
X103700000Y-96800000D02*
X112600000Y-96800000D01*
X112600000Y-104000000D02*
X103700000Y-104000000D01*
X102600000Y-102900000D02*
X103700000Y-104000000D01*
G36*
X102600000Y-97900000D02*
G01*
X102600000Y-96800000D01*
X103700000Y-96800000D01*
X102600000Y-97900000D01*
G37*
X102600000Y-97900000D02*
X102600000Y-96800000D01*
X103700000Y-96800000D01*
X102600000Y-97900000D01*
%TO.C,C13*%
X99550000Y-80550000D02*
X98050000Y-80550000D01*
X98050000Y-80550000D02*
X98050000Y-83450000D01*
X99550000Y-83450000D02*
X98050000Y-83450000D01*
X99550000Y-83450000D02*
X99550000Y-80550000D01*
%TO.C,C49*%
X150050000Y-99950000D02*
X150050000Y-102850000D01*
X151550000Y-102850000D02*
X150050000Y-102850000D01*
X151550000Y-102850000D02*
X151550000Y-99950000D01*
X151550000Y-99950000D02*
X150050000Y-99950000D01*
D15*
%TO.C,TP5*%
X109050000Y-91700000D02*
G75*
G03*
X109050000Y-91700000I-1050000J0D01*
G01*
D10*
%TO.C,C23*%
X115550000Y-109750000D02*
X115550000Y-111250000D01*
X115550000Y-109750000D02*
X112650000Y-109750000D01*
X112650000Y-111250000D02*
X115550000Y-111250000D01*
X112650000Y-109750000D02*
X112650000Y-111250000D01*
%TO.C,R11*%
X92150000Y-113350000D02*
X95050000Y-113350000D01*
X92150000Y-111850000D02*
X92150000Y-113350000D01*
X95050000Y-111850000D02*
X95050000Y-113350000D01*
X95050000Y-111850000D02*
X92150000Y-111850000D01*
%TO.C,R26*%
X152950000Y-99050000D02*
X152950000Y-100550000D01*
X155850000Y-99050000D02*
X152950000Y-99050000D01*
X155850000Y-99050000D02*
X155850000Y-100550000D01*
X152950000Y-100550000D02*
X155850000Y-100550000D01*
%TO.C,C27*%
X118350000Y-109950000D02*
X118350000Y-107050000D01*
X118350000Y-107050000D02*
X116850000Y-107050000D01*
X116850000Y-107050000D02*
X116850000Y-109950000D01*
X118350000Y-109950000D02*
X116850000Y-109950000D01*
%TO.C,C47*%
X156750000Y-103150000D02*
X159650000Y-103150000D01*
X159650000Y-101650000D02*
X156750000Y-101650000D01*
X156750000Y-103150000D02*
X156750000Y-101650000D01*
X159650000Y-103150000D02*
X159650000Y-101650000D01*
%TO.C,C39*%
X161650000Y-80650000D02*
X161650000Y-82150000D01*
X158750000Y-80650000D02*
X158750000Y-82150000D01*
X158750000Y-82150000D02*
X161650000Y-82150000D01*
X161650000Y-80650000D02*
X158750000Y-80650000D01*
%TO.C,R1*%
X126450000Y-82050000D02*
X126450000Y-83550000D01*
X123550000Y-82050000D02*
X123550000Y-83550000D01*
X123550000Y-83550000D02*
X126450000Y-83550000D01*
X126450000Y-82050000D02*
X123550000Y-82050000D01*
%TO.C,C6*%
X98450000Y-86650000D02*
X98450000Y-90150000D01*
X98450000Y-90150000D02*
X100350000Y-90150000D01*
X100350000Y-90150000D02*
X100350000Y-86650000D01*
X100350000Y-86650000D02*
X98450000Y-86650000D01*
%TO.C,C37*%
X162350000Y-78450000D02*
X158850000Y-78450000D01*
X158850000Y-78450000D02*
X158850000Y-80350000D01*
X162350000Y-80350000D02*
X162350000Y-78450000D01*
X158850000Y-80350000D02*
X162350000Y-80350000D01*
X158850000Y-78450000D02*
X158350000Y-78450000D01*
X158350000Y-78450000D02*
X158350000Y-80350000D01*
X158350000Y-80350000D02*
X158850000Y-80350000D01*
X158850000Y-80350000D02*
X158850000Y-78450000D01*
%TO.C,L2*%
X136600000Y-109350000D02*
X132600000Y-109350000D01*
X136600000Y-106250000D02*
X136600000Y-109350000D01*
X132600000Y-106250000D02*
X136600000Y-106250000D01*
X132600000Y-109350000D02*
X132600000Y-106250000D01*
%TO.C,L6*%
X131400000Y-120150000D02*
X131400000Y-117050000D01*
X135400000Y-117050000D02*
X135400000Y-120150000D01*
X131400000Y-117050000D02*
X135400000Y-117050000D01*
X135400000Y-120150000D02*
X131400000Y-120150000D01*
%TO.C,L4*%
X119000000Y-109350000D02*
X119000000Y-106250000D01*
X123000000Y-106250000D02*
X123000000Y-109350000D01*
X119000000Y-106250000D02*
X123000000Y-106250000D01*
X123000000Y-109350000D02*
X119000000Y-109350000D01*
%TO.C,R16*%
X161750000Y-113850000D02*
X160250000Y-113850000D01*
X160250000Y-110950000D02*
X160250000Y-113850000D01*
X161750000Y-113850000D02*
X161750000Y-110950000D01*
X161750000Y-110950000D02*
X160250000Y-110950000D01*
%TO.C,R23*%
X151150000Y-83450000D02*
X151150000Y-84950000D01*
X154050000Y-83450000D02*
X154050000Y-84950000D01*
X154050000Y-83450000D02*
X151150000Y-83450000D01*
X151150000Y-84950000D02*
X154050000Y-84950000D01*
%TO.C,C22*%
X119550000Y-111250000D02*
X122450000Y-111250000D01*
X122450000Y-109750000D02*
X119550000Y-109750000D01*
X119550000Y-109750000D02*
X119550000Y-111250000D01*
X122450000Y-109750000D02*
X122450000Y-111250000D01*
%TO.C,U5*%
X122500000Y-90500000D02*
X118900000Y-90500000D01*
X123500000Y-93500000D02*
X123500000Y-91500000D01*
X118900000Y-90500000D02*
X118900000Y-93500000D01*
X118900000Y-93500000D02*
X123500000Y-93500000D01*
X123500000Y-91500000D02*
X122500000Y-90500000D01*
%TO.C,C2*%
X121750000Y-83450000D02*
X121750000Y-80550000D01*
X120250000Y-80550000D02*
X120250000Y-83450000D01*
X120250000Y-83450000D02*
X121750000Y-83450000D01*
X120250000Y-80550000D02*
X121750000Y-80550000D01*
%TO.C,C33*%
X111750000Y-117950000D02*
X111750000Y-120850000D01*
X113250000Y-120850000D02*
X113250000Y-117950000D01*
X111750000Y-120850000D02*
X113250000Y-120850000D01*
X111750000Y-117950000D02*
X113250000Y-117950000D01*
%TO.C,C40*%
X153650000Y-90050000D02*
X153650000Y-87150000D01*
X152150000Y-87150000D02*
X153650000Y-87150000D01*
X152150000Y-87150000D02*
X152150000Y-90050000D01*
X152150000Y-90050000D02*
X153650000Y-90050000D01*
%TO.C,K1*%
X150534000Y-109990000D02*
X139866000Y-109990000D01*
X139866000Y-121674000D02*
X139866000Y-105926000D01*
X139866000Y-105926000D02*
X150534000Y-105926000D01*
X150534000Y-105926000D02*
X150534000Y-121674000D01*
X150534000Y-121674000D02*
X139866000Y-121674000D01*
%TO.C,R4*%
X106050000Y-83450000D02*
X103150000Y-83450000D01*
X103150000Y-84950000D02*
X106050000Y-84950000D01*
X103150000Y-84950000D02*
X103150000Y-83450000D01*
X106050000Y-84950000D02*
X106050000Y-83450000D01*
%TO.C,U3*%
X102500000Y-93400000D02*
X101500000Y-93400000D01*
X102500000Y-91400000D02*
X102500000Y-93400000D01*
X102500000Y-91400000D02*
X101800000Y-91400000D01*
X101800000Y-91400000D02*
X101500000Y-91700000D01*
X101500000Y-93400000D02*
X101500000Y-91700000D01*
%TO.C,U2*%
X125754000Y-81724000D02*
X126154000Y-81324000D01*
X122154000Y-78124000D02*
X126154000Y-78124000D01*
X125754000Y-81724000D02*
X122154000Y-81724000D01*
X122154000Y-81724000D02*
X122154000Y-78124000D01*
X126154000Y-78124000D02*
X126154000Y-81324000D01*
%TO.C,C14*%
X97750000Y-83450000D02*
X96250000Y-83450000D01*
X97750000Y-83450000D02*
X97750000Y-80550000D01*
X96250000Y-80550000D02*
X96250000Y-83450000D01*
X97750000Y-80550000D02*
X96250000Y-80550000D01*
%TO.C,R9*%
X94350000Y-94650000D02*
X92850000Y-94650000D01*
X92850000Y-91750000D02*
X92850000Y-94650000D01*
X94350000Y-94650000D02*
X94350000Y-91750000D01*
X94350000Y-91750000D02*
X92850000Y-91750000D01*
D15*
%TO.C,J4*%
X158242000Y-66670000D02*
X135322000Y-66670000D01*
X158242000Y-66670000D02*
X158242000Y-69330000D01*
X160842000Y-69330000D02*
X159512000Y-69330000D01*
X160842000Y-68000000D02*
X160842000Y-69330000D01*
X135322000Y-66670000D02*
X135322000Y-69330000D01*
X158242000Y-69330000D02*
X135322000Y-69330000D01*
D10*
%TO.C,R18*%
X161050000Y-103750000D02*
X161050000Y-106650000D01*
X162550000Y-106650000D02*
X162550000Y-103750000D01*
X162550000Y-103750000D02*
X161050000Y-103750000D01*
X162550000Y-106650000D02*
X161050000Y-106650000D01*
%TD*%
%LPC*%
D17*
%TO.C,C26*%
X124400000Y-109250000D03*
X124400000Y-107750000D03*
%TD*%
%TO.C,R2*%
X117000000Y-81150000D03*
X117000000Y-79650000D03*
%TD*%
D18*
%TO.C,C7*%
X97400000Y-87250000D03*
X97400000Y-88750000D03*
%TD*%
D19*
%TO.C,R19*%
X161950000Y-102000000D03*
X163450000Y-102000000D03*
%TD*%
D20*
%TO.C,K2*%
X104810000Y-107450000D03*
X104810000Y-120150000D03*
X97190000Y-120150000D03*
X97190000Y-112530000D03*
X97190000Y-107450000D03*
%TD*%
D21*
%TO.C,TP17*%
X161800000Y-97900000D03*
%TD*%
D20*
%TO.C,TP2*%
X142400000Y-79400000D03*
%TD*%
D21*
%TO.C,TP7*%
X148400000Y-105000000D03*
%TD*%
D18*
%TO.C,C32*%
X121600000Y-118650000D03*
X121600000Y-120150000D03*
%TD*%
%TO.C,C5*%
X140200000Y-79850000D03*
X140200000Y-81350000D03*
%TD*%
D22*
%TO.C,D1*%
X125000000Y-97025000D03*
X125000000Y-100375000D03*
%TD*%
D23*
%TO.C,X1*%
X148675000Y-82375000D03*
X148675000Y-84225000D03*
X150125000Y-84225000D03*
X150125000Y-82375000D03*
%TD*%
D24*
%TO.C,U8*%
X159300000Y-109800000D03*
X158030000Y-109800000D03*
X156760000Y-109800000D03*
X155490000Y-109800000D03*
X155490000Y-115007000D03*
X156760000Y-115007000D03*
X158030000Y-115007000D03*
X159300000Y-115007000D03*
%TD*%
D21*
%TO.C,TP28*%
X144200000Y-83400000D03*
%TD*%
D25*
%TO.C,C21*%
X128550000Y-110500000D03*
X127050000Y-110500000D03*
%TD*%
%TO.C,R17*%
X165350000Y-84600000D03*
X163850000Y-84600000D03*
%TD*%
D26*
%TO.C,J3*%
X169800000Y-90170000D03*
D27*
X172340000Y-92710000D03*
X167260000Y-87630000D03*
X172340000Y-87630000D03*
X167260000Y-92710000D03*
%TD*%
D28*
%TO.C,H2*%
X171500000Y-69500000D03*
%TD*%
D20*
%TO.C,TP1*%
X130800000Y-80200000D03*
%TD*%
D29*
%TO.C,U4*%
X95425000Y-86750000D03*
X95425000Y-86250000D03*
X95425000Y-85750000D03*
X95425000Y-85250000D03*
X95425000Y-84750000D03*
X95425000Y-84250000D03*
D30*
X92465000Y-84250000D03*
X92465000Y-84750000D03*
X92465000Y-85250000D03*
X92465000Y-85750000D03*
X92465000Y-86250000D03*
X92465000Y-86750000D03*
D31*
X93945000Y-85500000D03*
%TD*%
D32*
%TO.C,L8*%
X118150000Y-118600000D03*
X115850000Y-118600000D03*
%TD*%
D18*
%TO.C,C31*%
X129000000Y-118650000D03*
X129000000Y-120150000D03*
%TD*%
%TO.C,C30*%
X137200000Y-118650000D03*
X137200000Y-120150000D03*
%TD*%
D17*
%TO.C,R3*%
X122600000Y-77150000D03*
X122600000Y-75650000D03*
%TD*%
D19*
%TO.C,C41*%
X162050000Y-88200000D03*
X163550000Y-88200000D03*
%TD*%
D33*
%TO.C,U6*%
X91550000Y-117225000D03*
X92500000Y-117225000D03*
X93450000Y-117225000D03*
X93450000Y-114605000D03*
X91550000Y-114605000D03*
%TD*%
D26*
%TO.C,J5*%
X83400000Y-107600000D03*
D27*
X80860000Y-105060000D03*
X85940000Y-110140000D03*
X85940000Y-105060000D03*
X80860000Y-110140000D03*
%TD*%
D34*
%TO.C,R13*%
X87974533Y-114582091D03*
X86825467Y-113617909D03*
%TD*%
D35*
%TO.C,C38*%
X162600000Y-111925000D03*
X162600000Y-112875000D03*
%TD*%
D34*
%TO.C,R14*%
X86874533Y-116282091D03*
X85725467Y-115317909D03*
%TD*%
D19*
%TO.C,C44*%
X161850000Y-94488000D03*
X163350000Y-94488000D03*
%TD*%
D17*
%TO.C,C11*%
X98600000Y-92550000D03*
X98600000Y-91050000D03*
%TD*%
D25*
%TO.C,C19*%
X91150000Y-112100000D03*
X89650000Y-112100000D03*
%TD*%
D17*
%TO.C,R12*%
X108400000Y-109550000D03*
X108400000Y-108050000D03*
%TD*%
D32*
%TO.C,L5*%
X115250000Y-107800000D03*
X112950000Y-107800000D03*
%TD*%
D36*
%TO.C,C17*%
X141800000Y-100400000D03*
X147400000Y-100400000D03*
%TD*%
D28*
%TO.C,H4*%
X77500000Y-69500000D03*
%TD*%
D25*
%TO.C,C36*%
X160516000Y-83185000D03*
X159016000Y-83185000D03*
%TD*%
D21*
%TO.C,TP13*%
X142000000Y-105000000D03*
%TD*%
D17*
%TO.C,C45*%
X153900000Y-112250000D03*
X153900000Y-110750000D03*
%TD*%
D25*
%TO.C,R21*%
X158550000Y-96300000D03*
X157050000Y-96300000D03*
%TD*%
D21*
%TO.C,TP27*%
X168200000Y-97800000D03*
%TD*%
D20*
%TO.C,TP6*%
X136600000Y-77200000D03*
%TD*%
D37*
%TO.C,C8*%
X105600000Y-91800000D03*
X105600000Y-93800000D03*
%TD*%
D19*
%TO.C,C35*%
X155650000Y-83000000D03*
X157150000Y-83000000D03*
%TD*%
D18*
%TO.C,FB1*%
X149800000Y-77850000D03*
X149800000Y-79350000D03*
%TD*%
D19*
%TO.C,R6*%
X90250000Y-94000000D03*
X91750000Y-94000000D03*
%TD*%
D21*
%TO.C,TP9*%
X104800000Y-105000000D03*
%TD*%
%TO.C,TP25*%
X166200000Y-107600000D03*
%TD*%
D25*
%TO.C,L7*%
X126150000Y-118700000D03*
X124650000Y-118700000D03*
%TD*%
D18*
%TO.C,R5*%
X102200000Y-82650000D03*
X102200000Y-84150000D03*
%TD*%
D38*
%TO.C,L1*%
X83200000Y-89350000D03*
X83200000Y-79450000D03*
%TD*%
D17*
%TO.C,R24*%
X155200000Y-103350000D03*
X155200000Y-101850000D03*
%TD*%
D39*
%TO.C,Q2*%
X158050000Y-99200000D03*
X156750000Y-99200000D03*
X157400000Y-100800000D03*
%TD*%
D25*
%TO.C,R7*%
X105350000Y-81000000D03*
X103850000Y-81000000D03*
%TD*%
%TO.C,C50*%
X167850000Y-102000000D03*
X166350000Y-102000000D03*
%TD*%
D18*
%TO.C,C4*%
X133100000Y-79650000D03*
X133100000Y-81150000D03*
%TD*%
D21*
%TO.C,TP24*%
X157200000Y-120800000D03*
%TD*%
D40*
%TO.C,U7*%
X160405000Y-86037500D03*
X159755000Y-86037500D03*
X159105000Y-86037500D03*
X158455000Y-86037500D03*
X157805000Y-86037500D03*
X157155000Y-86037500D03*
X156505000Y-86037500D03*
X155855000Y-86037500D03*
X155205000Y-86037500D03*
X154555000Y-86037500D03*
X154555000Y-91762500D03*
X155205000Y-91762500D03*
X155855000Y-91762500D03*
X156505000Y-91762500D03*
X157155000Y-91762500D03*
X157805000Y-91762500D03*
X158455000Y-91762500D03*
X159105000Y-91762500D03*
X159755000Y-91762500D03*
X160405000Y-91762500D03*
%TD*%
D20*
%TO.C,TP4*%
X96200000Y-92800000D03*
%TD*%
D21*
%TO.C,TP14*%
X98400000Y-105000000D03*
%TD*%
D41*
%TO.C,D2*%
X117300000Y-100375000D03*
X117300000Y-97025000D03*
%TD*%
D25*
%TO.C,C20*%
X135350000Y-110500000D03*
X133850000Y-110500000D03*
%TD*%
D18*
%TO.C,R15*%
X109000000Y-118650000D03*
X109000000Y-120150000D03*
%TD*%
D19*
%TO.C,R10*%
X92850000Y-110800000D03*
X94350000Y-110800000D03*
%TD*%
D27*
%TO.C,POT1*%
X137300000Y-86000000D03*
X132300000Y-86000000D03*
X134800000Y-96000000D03*
%TD*%
D32*
%TO.C,L3*%
X128950000Y-107800000D03*
X126650000Y-107800000D03*
%TD*%
D25*
%TO.C,C16*%
X126141000Y-91365000D03*
X124641000Y-91365000D03*
%TD*%
D42*
%TO.C,J1*%
X111010000Y-70700000D03*
D43*
X111010000Y-75700000D03*
D42*
X103390000Y-70700000D03*
X103390000Y-75700000D03*
%TD*%
D25*
%TO.C,C29*%
X91850000Y-119400000D03*
X90350000Y-119400000D03*
%TD*%
D19*
%TO.C,C9*%
X93050000Y-88399000D03*
X94550000Y-88399000D03*
%TD*%
D21*
%TO.C,TP21*%
X150000000Y-80800000D03*
%TD*%
%TO.C,TP22*%
X158500000Y-97900000D03*
%TD*%
D17*
%TO.C,C25*%
X131200000Y-109250000D03*
X131200000Y-107750000D03*
%TD*%
D25*
%TO.C,R8*%
X95250000Y-82500000D03*
X93750000Y-82500000D03*
%TD*%
D44*
%TO.C,Q1*%
X162000000Y-99050000D03*
X162000000Y-100350000D03*
X163600000Y-99700000D03*
%TD*%
D45*
%TO.C,C46*%
X154525000Y-106800000D03*
X155475000Y-106800000D03*
%TD*%
D25*
%TO.C,R25*%
X155350000Y-105200000D03*
X153850000Y-105200000D03*
%TD*%
D17*
%TO.C,C24*%
X138000000Y-109250000D03*
X138000000Y-107750000D03*
%TD*%
%TO.C,C28*%
X110600000Y-109550000D03*
X110600000Y-108050000D03*
%TD*%
D37*
%TO.C,C1*%
X119000000Y-81210000D03*
X119000000Y-83210000D03*
%TD*%
D21*
%TO.C,TP11*%
X94900000Y-117900000D03*
%TD*%
D25*
%TO.C,C42*%
X161350000Y-116800000D03*
X159850000Y-116800000D03*
%TD*%
D46*
%TO.C,C10*%
X93200000Y-90400000D03*
X95200000Y-90400000D03*
%TD*%
D21*
%TO.C,TP18*%
X159800000Y-107600000D03*
%TD*%
D17*
%TO.C,C48*%
X165200000Y-99350000D03*
X165200000Y-97850000D03*
%TD*%
D21*
%TO.C,TP23*%
X156100000Y-108200000D03*
%TD*%
D25*
%TO.C,C43*%
X158550000Y-94500000D03*
X157050000Y-94500000D03*
%TD*%
D19*
%TO.C,C15*%
X124641000Y-89460000D03*
X126141000Y-89460000D03*
%TD*%
D47*
%TO.C,C34*%
X156800000Y-80700000D03*
X154800000Y-80700000D03*
%TD*%
D48*
%TO.C,U1*%
X135600000Y-79850000D03*
X135600000Y-80800000D03*
X135600000Y-81750000D03*
X138400000Y-81750000D03*
X138400000Y-79850000D03*
%TD*%
D19*
%TO.C,R22*%
X161850000Y-96300000D03*
X163350000Y-96300000D03*
%TD*%
%TO.C,R20*%
X153850000Y-117400000D03*
X155350000Y-117400000D03*
%TD*%
D17*
%TO.C,C12*%
X90600000Y-87550000D03*
X90600000Y-86050000D03*
%TD*%
D21*
%TO.C,TP8*%
X121200000Y-98600000D03*
%TD*%
D20*
%TO.C,TP3*%
X102400000Y-95400000D03*
%TD*%
D26*
%TO.C,J2*%
X147066000Y-90805000D03*
D27*
X144526000Y-93345000D03*
X149606000Y-93345000D03*
X149606000Y-88265000D03*
X144526000Y-88265000D03*
%TD*%
D49*
%TO.C,C3*%
X128400000Y-80500000D03*
X128400000Y-78500000D03*
%TD*%
D21*
%TO.C,TP16*%
X115200000Y-96400000D03*
%TD*%
D50*
%TO.C,C18*%
X110400000Y-100400000D03*
X104800000Y-100400000D03*
%TD*%
D17*
%TO.C,C13*%
X98800000Y-82750000D03*
X98800000Y-81250000D03*
%TD*%
%TO.C,C49*%
X150800000Y-102150000D03*
X150800000Y-100650000D03*
%TD*%
D20*
%TO.C,TP5*%
X108000000Y-91700000D03*
%TD*%
D21*
%TO.C,TP29*%
X151900000Y-113000000D03*
%TD*%
D25*
%TO.C,C23*%
X114850000Y-110500000D03*
X113350000Y-110500000D03*
%TD*%
%TO.C,R11*%
X94350000Y-112600000D03*
X92850000Y-112600000D03*
%TD*%
%TO.C,R26*%
X155150000Y-99800000D03*
X153650000Y-99800000D03*
%TD*%
D17*
%TO.C,C27*%
X117600000Y-109250000D03*
X117600000Y-107750000D03*
%TD*%
D19*
%TO.C,C47*%
X157450000Y-102400000D03*
X158950000Y-102400000D03*
%TD*%
D25*
%TO.C,C39*%
X160950000Y-81400000D03*
X159450000Y-81400000D03*
%TD*%
%TO.C,R1*%
X125750000Y-82800000D03*
X124250000Y-82800000D03*
%TD*%
D37*
%TO.C,C6*%
X99400000Y-87400000D03*
X99400000Y-89400000D03*
%TD*%
D46*
%TO.C,C37*%
X159600000Y-79400000D03*
X161600000Y-79400000D03*
%TD*%
D32*
%TO.C,L2*%
X135750000Y-107800000D03*
X133450000Y-107800000D03*
%TD*%
%TO.C,L6*%
X134550000Y-118600000D03*
X132250000Y-118600000D03*
%TD*%
%TO.C,L4*%
X122150000Y-107800000D03*
X119850000Y-107800000D03*
%TD*%
D28*
%TO.C,H1*%
X171500000Y-120000000D03*
%TD*%
D17*
%TO.C,R16*%
X161000000Y-113150000D03*
X161000000Y-111650000D03*
%TD*%
D21*
%TO.C,TP15*%
X85800000Y-120300000D03*
%TD*%
%TO.C,TP20*%
X151800000Y-117400000D03*
%TD*%
%TO.C,TP12*%
X89700000Y-121700000D03*
%TD*%
D25*
%TO.C,R23*%
X153350000Y-84200000D03*
X151850000Y-84200000D03*
%TD*%
%TO.C,C22*%
X121750000Y-110500000D03*
X120250000Y-110500000D03*
%TD*%
D51*
%TO.C,U5*%
X123110000Y-89300000D03*
X121840000Y-89300000D03*
X120570000Y-89300000D03*
X119300000Y-89300000D03*
X119300000Y-94700000D03*
X120570000Y-94700000D03*
X121840000Y-94700000D03*
X123110000Y-94700000D03*
%TD*%
D18*
%TO.C,C2*%
X121000000Y-81250000D03*
X121000000Y-82750000D03*
%TD*%
%TO.C,C33*%
X112500000Y-118650000D03*
X112500000Y-120150000D03*
%TD*%
%TO.C,C40*%
X152900000Y-87850000D03*
X152900000Y-89350000D03*
%TD*%
D20*
%TO.C,K1*%
X149010000Y-107450000D03*
X149010000Y-120150000D03*
X141390000Y-120150000D03*
X141390000Y-112530000D03*
X141390000Y-107450000D03*
%TD*%
D28*
%TO.C,H3*%
X77500000Y-120000000D03*
%TD*%
D19*
%TO.C,R4*%
X103850000Y-84200000D03*
X105350000Y-84200000D03*
%TD*%
D48*
%TO.C,U3*%
X100600000Y-91450000D03*
X100600000Y-92400000D03*
X100600000Y-93350000D03*
X103400000Y-93350000D03*
X103400000Y-91450000D03*
%TD*%
D52*
%TO.C,U2*%
X124154000Y-79924000D03*
D30*
X125504000Y-80674000D03*
X125504000Y-80174000D03*
X125504000Y-79674000D03*
X125504000Y-79174000D03*
X122804000Y-79174000D03*
X122804000Y-79674000D03*
X122804000Y-80174000D03*
X122804000Y-80674000D03*
%TD*%
D21*
%TO.C,TP26*%
X152100000Y-97800000D03*
%TD*%
D17*
%TO.C,C14*%
X97000000Y-82750000D03*
X97000000Y-81250000D03*
%TD*%
%TO.C,R9*%
X93600000Y-93950000D03*
X93600000Y-92450000D03*
%TD*%
D53*
%TO.C,J4*%
X159512000Y-68000000D03*
D54*
X156972000Y-68000000D03*
X154432000Y-68000000D03*
X151892000Y-68000000D03*
X149352000Y-68000000D03*
X146812000Y-68000000D03*
X144272000Y-68000000D03*
X141732000Y-68000000D03*
X139192000Y-68000000D03*
X136652000Y-68000000D03*
%TD*%
D17*
%TO.C,R18*%
X161800000Y-105950000D03*
X161800000Y-104450000D03*
%TD*%
M02*
