%TF.GenerationSoftware,KiCad,Pcbnew,(6.0.6)*%
%TF.CreationDate,2023-01-28T17:13:44-04:00*%
%TF.ProjectId,DDS_FunctionGenerator,4444535f-4675-46e6-9374-696f6e47656e,rev?*%
%TF.SameCoordinates,Original*%
%TF.FileFunction,Copper,L2,Inr*%
%TF.FilePolarity,Positive*%
%FSLAX46Y46*%
G04 Gerber Fmt 4.6, Leading zero omitted, Abs format (unit mm)*
G04 Created by KiCad (PCBNEW (6.0.6)) date 2023-01-28 17:13:44*
%MOMM*%
%LPD*%
G01*
G04 APERTURE LIST*
%TA.AperFunction,ComponentPad*%
%ADD10C,1.500000*%
%TD*%
%TA.AperFunction,ComponentPad*%
%ADD11C,2.300000*%
%TD*%
%TA.AperFunction,ComponentPad*%
%ADD12C,2.600000*%
%TD*%
%TA.AperFunction,ComponentPad*%
%ADD13C,2.000000*%
%TD*%
%TA.AperFunction,ComponentPad*%
%ADD14R,2.000000X2.000000*%
%TD*%
%TA.AperFunction,ComponentPad*%
%ADD15R,1.700000X1.700000*%
%TD*%
%TA.AperFunction,ComponentPad*%
%ADD16O,1.700000X1.700000*%
%TD*%
%TA.AperFunction,ViaPad*%
%ADD17C,0.600000*%
%TD*%
G04 APERTURE END LIST*
D10*
%TO.N,/Output_Stage/FILTER-SW-OUT*%
%TO.C,K2*%
X104810000Y-107450000D03*
%TO.N,GND*%
X104810000Y-120150000D03*
%TO.N,/Output_Stage/FILT-OUT*%
X97190000Y-120150000D03*
%TO.N,/Output_Stage/LIN-PHASE-OUT*%
X97190000Y-112530000D03*
%TO.N,/Output_Stage/ELLIP-OUT*%
X97190000Y-107450000D03*
%TD*%
D11*
%TO.N,/DDS/DDS-VIN*%
%TO.C,J3*%
X169800000Y-90170000D03*
D12*
%TO.N,GND*%
X172340000Y-92710000D03*
X167260000Y-87630000D03*
X172340000Y-87630000D03*
X167260000Y-92710000D03*
%TD*%
D11*
%TO.N,/Output_Stage/OUT*%
%TO.C,J5*%
X83400000Y-107600000D03*
D12*
%TO.N,GND*%
X80860000Y-105060000D03*
X85940000Y-110140000D03*
X85940000Y-105060000D03*
X80860000Y-110140000D03*
%TD*%
%TO.N,Net-(POT1-Pad1)*%
%TO.C,POT1*%
X137300000Y-86000000D03*
%TO.N,GND*%
X132300000Y-86000000D03*
%TO.N,Net-(POT1-Pad1)*%
X134800000Y-96000000D03*
%TD*%
D13*
%TO.N,/VIN*%
%TO.C,J1*%
X111010000Y-70700000D03*
D14*
X111010000Y-75700000D03*
D13*
%TO.N,GND*%
X103390000Y-70700000D03*
X103390000Y-75700000D03*
%TD*%
D11*
%TO.N,/DDS/SIGNBITOUT*%
%TO.C,J2*%
X147066000Y-90805000D03*
D12*
%TO.N,GND*%
X144526000Y-93345000D03*
X149606000Y-93345000D03*
X149606000Y-88265000D03*
X144526000Y-88265000D03*
%TD*%
D10*
%TO.N,/Output_Stage/FILTER-SW-IN*%
%TO.C,K1*%
X149010000Y-107450000D03*
%TO.N,GND*%
X149010000Y-120150000D03*
%TO.N,/DDS/FILT-IN*%
X141390000Y-120150000D03*
%TO.N,/Output_Stage/LIN-PHASE-IN*%
X141390000Y-112530000D03*
%TO.N,/Output_Stage/ELLIP-IN*%
X141390000Y-107450000D03*
%TD*%
D15*
%TO.N,GND*%
%TO.C,J4*%
X159512000Y-68000000D03*
D16*
%TO.N,/DDS/SCLK*%
X156972000Y-68000000D03*
%TO.N,/DDS/RESET*%
X154432000Y-68000000D03*
%TO.N,/DDS/SDATA*%
X151892000Y-68000000D03*
%TO.N,/DDS/FSYNC*%
X149352000Y-68000000D03*
%TO.N,/DDS/SLEEP*%
X146812000Y-68000000D03*
%TO.N,/DDS/PSELECT*%
X144272000Y-68000000D03*
%TO.N,/DDS/FSELECT*%
X141732000Y-68000000D03*
%TO.N,/Output_Stage/FILT-SWITCH*%
X139192000Y-68000000D03*
%TO.N,/Output_Stage/FILT-EN*%
X136652000Y-68000000D03*
%TD*%
D17*
%TO.N,GND*%
X119400000Y-87600000D03*
X158400000Y-93100000D03*
X98400000Y-105000000D03*
X124100000Y-79100000D03*
X90800000Y-120800000D03*
X105600000Y-95000000D03*
X124400000Y-106400000D03*
X143300000Y-120400000D03*
X91100000Y-83650000D03*
X121600000Y-121400000D03*
X160400000Y-101800000D03*
X166300000Y-100550000D03*
X166200000Y-107600000D03*
X117600000Y-106400000D03*
X137200000Y-121400000D03*
X127200000Y-88200000D03*
X124100000Y-80700000D03*
X85800000Y-120300000D03*
X109000000Y-121400000D03*
X138000000Y-106400000D03*
X110600000Y-106700000D03*
X96150000Y-89100000D03*
X131200000Y-106400000D03*
X91100000Y-84700000D03*
X95900000Y-88100000D03*
X124000000Y-75700000D03*
X155700000Y-96300000D03*
X88500000Y-110700000D03*
X128400000Y-77100000D03*
X112500000Y-121400000D03*
X153300000Y-106600000D03*
X108400000Y-106700000D03*
X152500000Y-105800000D03*
X97600000Y-118500000D03*
X90300000Y-92600000D03*
X142000000Y-105000000D03*
X97000000Y-109400000D03*
X127300000Y-92500000D03*
X129000000Y-121400000D03*
X155700000Y-71400000D03*
X161600000Y-77800000D03*
X155700000Y-94500000D03*
X156500000Y-84600000D03*
X165700000Y-96600000D03*
X136600000Y-77200000D03*
X101200000Y-90500000D03*
X122400000Y-83400000D03*
X102400000Y-95400000D03*
X152000000Y-86600000D03*
X119300000Y-96100000D03*
X117300000Y-95700000D03*
X164900000Y-87400000D03*
X162700000Y-116800000D03*
X161800000Y-83200000D03*
X152100000Y-103300000D03*
X167100000Y-103400000D03*
X101000000Y-89400000D03*
X168200000Y-97800000D03*
X157200000Y-120800000D03*
X97300000Y-90100000D03*
X140200000Y-82700000D03*
X152100000Y-97800000D03*
X135300000Y-70200000D03*
X153100000Y-113600000D03*
X124100000Y-79900000D03*
X143000000Y-70100000D03*
X147600000Y-84200000D03*
X158800000Y-88800000D03*
X141500000Y-109400000D03*
X133100000Y-82500000D03*
X144200000Y-83400000D03*
X115200000Y-96400000D03*
X103700000Y-82600000D03*
X164700000Y-96100000D03*
X134500000Y-80800000D03*
X153400000Y-80700000D03*
X137600000Y-96000000D03*
X117400000Y-83200000D03*
X91500000Y-110600000D03*
X164700000Y-94488000D03*
X154300000Y-82800000D03*
X151900000Y-113000000D03*
X111300000Y-92900000D03*
X96600000Y-90900000D03*
X89700000Y-121700000D03*
%TO.N,+5V*%
X138200000Y-94900000D03*
X164700000Y-100700000D03*
X90000000Y-113700000D03*
X159000000Y-100800000D03*
X128700000Y-98000000D03*
X158500000Y-116400000D03*
X138900000Y-95600000D03*
%TO.N,-5V*%
X111900000Y-91700000D03*
X164900000Y-102450000D03*
X154200000Y-109300000D03*
X101100000Y-104900000D03*
X152300000Y-100500000D03*
X110800000Y-91700000D03*
X93400000Y-119200000D03*
%TO.N,-5V8*%
X94000000Y-85500000D03*
X94000000Y-84700000D03*
X94000000Y-86300000D03*
%TO.N,/DDS/SCLK*%
X158200000Y-71200000D03*
X157000000Y-89400000D03*
%TO.N,/DDS/RESET*%
X153000000Y-72600000D03*
X153600000Y-91600000D03*
%TO.N,/DDS/SDATA*%
X153000000Y-71200000D03*
X155600000Y-90100000D03*
%TO.N,/DDS/FSYNC*%
X158000000Y-89700000D03*
X150800000Y-70200000D03*
%TO.N,/DDS/SLEEP*%
X152800000Y-90800000D03*
X145400000Y-72900000D03*
%TO.N,/DDS/PSELECT*%
X153600000Y-85700000D03*
X145400000Y-70200000D03*
%TO.N,/DDS/FSELECT*%
X143000000Y-71300000D03*
X154700000Y-87600000D03*
%TO.N,/Output_Stage/FILT-EN*%
X121100000Y-87100000D03*
X134000000Y-70100000D03*
%TO.N,/Output_Stage/FILT-SWITCH*%
X138000000Y-70400000D03*
X121800000Y-87800000D03*
%TO.N,Net-(POT1-Pad1)*%
X164800000Y-86000000D03*
%TO.N,/PG*%
X120800000Y-80000000D03*
X122900000Y-82400000D03*
%TO.N,/FB*%
X91700000Y-92600000D03*
X92000000Y-83000000D03*
%TD*%
%TA.AperFunction,Conductor*%
%TO.N,GND*%
G36*
X171468581Y-66001679D02*
G01*
X171471356Y-66002111D01*
X171493823Y-66005609D01*
X171500821Y-66004694D01*
X171500822Y-66004694D01*
X171515092Y-66002828D01*
X171532785Y-66002111D01*
X171838162Y-66017113D01*
X171847830Y-66018066D01*
X172177904Y-66067028D01*
X172187433Y-66068923D01*
X172511131Y-66150005D01*
X172520428Y-66152825D01*
X172834622Y-66265246D01*
X172843598Y-66268964D01*
X173145259Y-66411639D01*
X173153827Y-66416219D01*
X173440050Y-66587774D01*
X173448116Y-66593163D01*
X173716172Y-66791967D01*
X173723644Y-66798099D01*
X173968380Y-67019915D01*
X173970917Y-67022214D01*
X173977781Y-67029078D01*
X174201901Y-67276356D01*
X174208033Y-67283828D01*
X174406837Y-67551884D01*
X174412226Y-67559950D01*
X174583781Y-67846173D01*
X174588361Y-67854741D01*
X174731036Y-68156402D01*
X174734754Y-68165378D01*
X174847175Y-68479572D01*
X174849995Y-68488869D01*
X174931077Y-68812567D01*
X174932972Y-68822096D01*
X174981934Y-69152170D01*
X174982887Y-69161838D01*
X174997548Y-69460265D01*
X174996489Y-69480346D01*
X174994391Y-69493823D01*
X174995306Y-69500820D01*
X174995306Y-69500821D01*
X174998664Y-69526500D01*
X174999500Y-69539336D01*
X174999500Y-119953351D01*
X174998321Y-119968581D01*
X174994391Y-119993823D01*
X174995306Y-120000821D01*
X174995306Y-120000822D01*
X174997172Y-120015092D01*
X174997889Y-120032785D01*
X174982887Y-120338162D01*
X174981934Y-120347830D01*
X174932972Y-120677904D01*
X174931077Y-120687433D01*
X174849995Y-121011131D01*
X174847175Y-121020428D01*
X174734754Y-121334622D01*
X174731036Y-121343598D01*
X174588361Y-121645259D01*
X174583781Y-121653827D01*
X174412226Y-121940050D01*
X174406837Y-121948116D01*
X174208033Y-122216172D01*
X174201901Y-122223644D01*
X173977786Y-122470917D01*
X173970922Y-122477781D01*
X173723644Y-122701901D01*
X173716172Y-122708033D01*
X173448116Y-122906837D01*
X173440050Y-122912226D01*
X173153827Y-123083781D01*
X173145259Y-123088361D01*
X172843598Y-123231036D01*
X172834622Y-123234754D01*
X172520428Y-123347175D01*
X172511131Y-123349995D01*
X172187433Y-123431077D01*
X172177904Y-123432972D01*
X171847830Y-123481934D01*
X171838162Y-123482887D01*
X171539735Y-123497548D01*
X171519654Y-123496489D01*
X171506177Y-123494391D01*
X171499180Y-123495306D01*
X171499179Y-123495306D01*
X171473500Y-123498664D01*
X171460664Y-123499500D01*
X77546649Y-123499500D01*
X77531419Y-123498321D01*
X77513152Y-123495477D01*
X77506177Y-123494391D01*
X77499179Y-123495306D01*
X77499178Y-123495306D01*
X77484908Y-123497172D01*
X77467215Y-123497889D01*
X77161838Y-123482887D01*
X77152170Y-123481934D01*
X76822096Y-123432972D01*
X76812567Y-123431077D01*
X76488869Y-123349995D01*
X76479572Y-123347175D01*
X76165378Y-123234754D01*
X76156402Y-123231036D01*
X75854741Y-123088361D01*
X75846173Y-123083781D01*
X75559950Y-122912226D01*
X75551884Y-122906837D01*
X75283828Y-122708033D01*
X75276356Y-122701901D01*
X75029078Y-122477781D01*
X75022214Y-122470917D01*
X74798099Y-122223644D01*
X74791967Y-122216172D01*
X74593163Y-121948116D01*
X74587774Y-121940050D01*
X74416219Y-121653827D01*
X74411639Y-121645259D01*
X74268964Y-121343598D01*
X74265246Y-121334622D01*
X74152825Y-121020428D01*
X74150005Y-121011131D01*
X74068923Y-120687433D01*
X74067028Y-120677904D01*
X74018066Y-120347830D01*
X74017113Y-120338162D01*
X74002625Y-120043253D01*
X74003878Y-120021970D01*
X74004862Y-120016124D01*
X74004862Y-120016121D01*
X74005496Y-120012354D01*
X74005647Y-120000000D01*
X75164099Y-120000000D01*
X75164311Y-120003234D01*
X75175497Y-120173894D01*
X75184083Y-120304896D01*
X75243693Y-120604576D01*
X75341909Y-120893911D01*
X75477050Y-121167950D01*
X75478857Y-121170654D01*
X75635040Y-121404398D01*
X75646805Y-121422006D01*
X75848269Y-121651731D01*
X76077994Y-121853195D01*
X76080696Y-121855000D01*
X76080698Y-121855002D01*
X76205022Y-121938073D01*
X76332050Y-122022950D01*
X76606089Y-122158091D01*
X76895424Y-122256307D01*
X77195104Y-122315917D01*
X77198326Y-122316128D01*
X77198332Y-122316129D01*
X77422082Y-122330794D01*
X77422084Y-122330794D01*
X77423700Y-122330900D01*
X77576300Y-122330900D01*
X77577916Y-122330794D01*
X77577918Y-122330794D01*
X77801668Y-122316129D01*
X77801674Y-122316128D01*
X77804896Y-122315917D01*
X78104576Y-122256307D01*
X78393911Y-122158091D01*
X78667950Y-122022950D01*
X78794978Y-121938073D01*
X78919302Y-121855002D01*
X78919304Y-121855000D01*
X78922006Y-121853195D01*
X79151731Y-121651731D01*
X79353195Y-121422006D01*
X79505597Y-121193922D01*
X104125460Y-121193922D01*
X104125558Y-121194544D01*
X104130385Y-121200097D01*
X104179067Y-121234185D01*
X104186537Y-121238497D01*
X104376922Y-121327275D01*
X104385015Y-121330221D01*
X104587944Y-121384595D01*
X104596412Y-121386088D01*
X104805691Y-121404398D01*
X104814309Y-121404398D01*
X105023588Y-121386088D01*
X105032056Y-121384595D01*
X105234985Y-121330221D01*
X105243078Y-121327275D01*
X105433463Y-121238497D01*
X105440933Y-121234185D01*
X105486728Y-121202119D01*
X105492904Y-121193922D01*
X148325460Y-121193922D01*
X148325558Y-121194544D01*
X148330385Y-121200097D01*
X148379067Y-121234185D01*
X148386537Y-121238497D01*
X148576922Y-121327275D01*
X148585015Y-121330221D01*
X148787944Y-121384595D01*
X148796412Y-121386088D01*
X149005691Y-121404398D01*
X149014309Y-121404398D01*
X149223588Y-121386088D01*
X149232056Y-121384595D01*
X149434985Y-121330221D01*
X149443078Y-121327275D01*
X149633463Y-121238497D01*
X149640933Y-121234185D01*
X149686728Y-121202119D01*
X149694754Y-121191467D01*
X149694766Y-121190835D01*
X149690978Y-121184531D01*
X149021086Y-120514639D01*
X149009203Y-120508585D01*
X149004172Y-120509381D01*
X148331514Y-121182039D01*
X148325460Y-121193922D01*
X105492904Y-121193922D01*
X105494754Y-121191467D01*
X105494766Y-121190835D01*
X105490978Y-121184531D01*
X104821086Y-120514639D01*
X104809203Y-120508585D01*
X104804172Y-120509381D01*
X104131514Y-121182039D01*
X104125460Y-121193922D01*
X79505597Y-121193922D01*
X79522950Y-121167951D01*
X79658091Y-120893911D01*
X79756307Y-120604576D01*
X79815917Y-120304896D01*
X79824504Y-120173894D01*
X79826944Y-120136665D01*
X96234994Y-120136665D01*
X96250592Y-120322414D01*
X96251925Y-120327062D01*
X96251925Y-120327063D01*
X96270723Y-120392618D01*
X96301971Y-120501595D01*
X96387176Y-120667385D01*
X96502959Y-120813468D01*
X96506646Y-120816606D01*
X96506648Y-120816608D01*
X96641224Y-120931141D01*
X96641229Y-120931144D01*
X96644912Y-120934279D01*
X96649134Y-120936639D01*
X96649139Y-120936642D01*
X96679191Y-120953437D01*
X96807627Y-121025217D01*
X96812225Y-121026711D01*
X96980302Y-121081323D01*
X96980304Y-121081324D01*
X96984907Y-121082819D01*
X97169998Y-121104890D01*
X97174820Y-121104519D01*
X97174823Y-121104519D01*
X97351023Y-121090961D01*
X97351028Y-121090960D01*
X97355851Y-121090589D01*
X97535387Y-121040462D01*
X97539700Y-121038283D01*
X97539706Y-121038281D01*
X97697447Y-120958600D01*
X97697449Y-120958598D01*
X97701768Y-120956417D01*
X97848655Y-120841656D01*
X97970454Y-120700550D01*
X98026777Y-120601403D01*
X98060137Y-120542680D01*
X98060138Y-120542677D01*
X98062526Y-120538474D01*
X98073361Y-120505905D01*
X98119837Y-120366192D01*
X98119837Y-120366190D01*
X98121364Y-120361601D01*
X98128936Y-120301668D01*
X98144379Y-120179420D01*
X98144727Y-120176668D01*
X98145039Y-120154309D01*
X103555602Y-120154309D01*
X103573912Y-120363588D01*
X103575405Y-120372056D01*
X103629779Y-120574985D01*
X103632725Y-120583078D01*
X103721503Y-120773462D01*
X103725815Y-120780932D01*
X103757881Y-120826727D01*
X103768534Y-120834754D01*
X103769164Y-120834765D01*
X103775470Y-120830977D01*
X104445361Y-120161086D01*
X104450603Y-120150797D01*
X105168585Y-120150797D01*
X105169381Y-120155828D01*
X105842039Y-120828486D01*
X105853922Y-120834540D01*
X105854544Y-120834442D01*
X105860097Y-120829615D01*
X105894185Y-120780932D01*
X105898497Y-120773462D01*
X105987275Y-120583078D01*
X105990221Y-120574985D01*
X106044595Y-120372056D01*
X106046088Y-120363588D01*
X106064398Y-120154309D01*
X106064398Y-120145691D01*
X106063608Y-120136665D01*
X140434994Y-120136665D01*
X140450592Y-120322414D01*
X140451925Y-120327062D01*
X140451925Y-120327063D01*
X140470723Y-120392618D01*
X140501971Y-120501595D01*
X140587176Y-120667385D01*
X140702959Y-120813468D01*
X140706646Y-120816606D01*
X140706648Y-120816608D01*
X140841224Y-120931141D01*
X140841229Y-120931144D01*
X140844912Y-120934279D01*
X140849134Y-120936639D01*
X140849139Y-120936642D01*
X140879191Y-120953437D01*
X141007627Y-121025217D01*
X141012225Y-121026711D01*
X141180302Y-121081323D01*
X141180304Y-121081324D01*
X141184907Y-121082819D01*
X141369998Y-121104890D01*
X141374820Y-121104519D01*
X141374823Y-121104519D01*
X141551023Y-121090961D01*
X141551028Y-121090960D01*
X141555851Y-121090589D01*
X141735387Y-121040462D01*
X141739700Y-121038283D01*
X141739706Y-121038281D01*
X141897447Y-120958600D01*
X141897449Y-120958598D01*
X141901768Y-120956417D01*
X142048655Y-120841656D01*
X142170454Y-120700550D01*
X142226777Y-120601403D01*
X142260137Y-120542680D01*
X142260138Y-120542677D01*
X142262526Y-120538474D01*
X142273361Y-120505905D01*
X142319837Y-120366192D01*
X142319837Y-120366190D01*
X142321364Y-120361601D01*
X142328936Y-120301668D01*
X142344379Y-120179420D01*
X142344727Y-120176668D01*
X142345039Y-120154309D01*
X147755602Y-120154309D01*
X147773912Y-120363588D01*
X147775405Y-120372056D01*
X147829779Y-120574985D01*
X147832725Y-120583078D01*
X147921503Y-120773462D01*
X147925815Y-120780932D01*
X147957881Y-120826727D01*
X147968534Y-120834754D01*
X147969164Y-120834765D01*
X147975470Y-120830977D01*
X148645361Y-120161086D01*
X148650603Y-120150797D01*
X149368585Y-120150797D01*
X149369381Y-120155828D01*
X150042039Y-120828486D01*
X150053922Y-120834540D01*
X150054544Y-120834442D01*
X150060097Y-120829615D01*
X150094185Y-120780932D01*
X150098497Y-120773462D01*
X150187275Y-120583078D01*
X150190221Y-120574985D01*
X150244595Y-120372056D01*
X150246088Y-120363588D01*
X150264398Y-120154309D01*
X150264398Y-120145691D01*
X150251651Y-120000000D01*
X169164099Y-120000000D01*
X169164311Y-120003234D01*
X169175497Y-120173894D01*
X169184083Y-120304896D01*
X169243693Y-120604576D01*
X169341909Y-120893911D01*
X169477050Y-121167950D01*
X169478857Y-121170654D01*
X169635040Y-121404398D01*
X169646805Y-121422006D01*
X169848269Y-121651731D01*
X170077994Y-121853195D01*
X170080696Y-121855000D01*
X170080698Y-121855002D01*
X170205022Y-121938073D01*
X170332050Y-122022950D01*
X170606089Y-122158091D01*
X170895424Y-122256307D01*
X171195104Y-122315917D01*
X171198326Y-122316128D01*
X171198332Y-122316129D01*
X171422082Y-122330794D01*
X171422084Y-122330794D01*
X171423700Y-122330900D01*
X171576300Y-122330900D01*
X171577916Y-122330794D01*
X171577918Y-122330794D01*
X171801668Y-122316129D01*
X171801674Y-122316128D01*
X171804896Y-122315917D01*
X172104576Y-122256307D01*
X172393911Y-122158091D01*
X172667950Y-122022950D01*
X172794978Y-121938073D01*
X172919302Y-121855002D01*
X172919304Y-121855000D01*
X172922006Y-121853195D01*
X173151731Y-121651731D01*
X173353195Y-121422006D01*
X173522950Y-121167951D01*
X173658091Y-120893911D01*
X173756307Y-120604576D01*
X173815917Y-120304896D01*
X173824504Y-120173894D01*
X173835689Y-120003234D01*
X173835901Y-120000000D01*
X173822181Y-119790672D01*
X173816129Y-119698332D01*
X173816128Y-119698326D01*
X173815917Y-119695104D01*
X173756307Y-119395424D01*
X173658091Y-119106089D01*
X173522950Y-118832050D01*
X173353195Y-118577994D01*
X173151731Y-118348269D01*
X172922006Y-118146805D01*
X172667950Y-117977050D01*
X172393911Y-117841909D01*
X172104576Y-117743693D01*
X171804896Y-117684083D01*
X171801674Y-117683872D01*
X171801668Y-117683871D01*
X171577918Y-117669206D01*
X171577916Y-117669206D01*
X171576300Y-117669100D01*
X171423700Y-117669100D01*
X171422084Y-117669206D01*
X171422082Y-117669206D01*
X171198332Y-117683871D01*
X171198326Y-117683872D01*
X171195104Y-117684083D01*
X170895424Y-117743693D01*
X170606089Y-117841909D01*
X170332050Y-117977050D01*
X170077994Y-118146805D01*
X169848269Y-118348269D01*
X169646805Y-118577994D01*
X169477050Y-118832049D01*
X169341909Y-119106089D01*
X169340868Y-119109156D01*
X169340866Y-119109161D01*
X169337879Y-119117961D01*
X169243693Y-119395424D01*
X169184083Y-119695104D01*
X169183872Y-119698326D01*
X169183871Y-119698332D01*
X169177819Y-119790672D01*
X169164099Y-120000000D01*
X150251651Y-120000000D01*
X150246088Y-119936412D01*
X150244595Y-119927944D01*
X150190221Y-119725015D01*
X150187275Y-119716922D01*
X150098497Y-119526538D01*
X150094185Y-119519068D01*
X150062119Y-119473273D01*
X150051466Y-119465246D01*
X150050836Y-119465235D01*
X150044530Y-119469023D01*
X149374639Y-120138914D01*
X149368585Y-120150797D01*
X148650603Y-120150797D01*
X148651415Y-120149203D01*
X148650619Y-120144172D01*
X147977961Y-119471514D01*
X147966078Y-119465460D01*
X147965456Y-119465558D01*
X147959903Y-119470385D01*
X147925815Y-119519068D01*
X147921503Y-119526538D01*
X147832725Y-119716922D01*
X147829779Y-119725015D01*
X147775405Y-119927944D01*
X147773912Y-119936412D01*
X147755602Y-120145691D01*
X147755602Y-120154309D01*
X142345039Y-120154309D01*
X142345099Y-120150000D01*
X142326909Y-119964487D01*
X142273033Y-119786040D01*
X142185522Y-119621456D01*
X142067710Y-119477005D01*
X142061073Y-119471514D01*
X141927812Y-119361270D01*
X141927810Y-119361269D01*
X141924085Y-119358187D01*
X141760116Y-119269529D01*
X141582049Y-119214409D01*
X141577239Y-119213903D01*
X141577237Y-119213903D01*
X141401484Y-119195430D01*
X141401482Y-119195430D01*
X141396668Y-119194924D01*
X141334673Y-119200566D01*
X141215852Y-119211379D01*
X141215848Y-119211380D01*
X141211032Y-119211818D01*
X141206390Y-119213184D01*
X141206386Y-119213185D01*
X141036861Y-119263080D01*
X141036858Y-119263081D01*
X141032214Y-119264448D01*
X140867023Y-119350807D01*
X140863247Y-119353843D01*
X140863244Y-119353845D01*
X140807584Y-119398597D01*
X140721752Y-119467608D01*
X140716999Y-119473273D01*
X140605044Y-119606695D01*
X140605041Y-119606699D01*
X140601935Y-119610401D01*
X140512135Y-119773746D01*
X140510672Y-119778359D01*
X140510670Y-119778363D01*
X140506530Y-119791415D01*
X140455772Y-119951424D01*
X140455232Y-119956236D01*
X140455232Y-119956237D01*
X140447815Y-120022367D01*
X140434994Y-120136665D01*
X106063608Y-120136665D01*
X106046088Y-119936412D01*
X106044595Y-119927944D01*
X105990221Y-119725015D01*
X105987275Y-119716922D01*
X105898497Y-119526538D01*
X105894185Y-119519068D01*
X105862119Y-119473273D01*
X105851466Y-119465246D01*
X105850836Y-119465235D01*
X105844530Y-119469023D01*
X105174639Y-120138914D01*
X105168585Y-120150797D01*
X104450603Y-120150797D01*
X104451415Y-120149203D01*
X104450619Y-120144172D01*
X103777961Y-119471514D01*
X103766078Y-119465460D01*
X103765456Y-119465558D01*
X103759903Y-119470385D01*
X103725815Y-119519068D01*
X103721503Y-119526538D01*
X103632725Y-119716922D01*
X103629779Y-119725015D01*
X103575405Y-119927944D01*
X103573912Y-119936412D01*
X103555602Y-120145691D01*
X103555602Y-120154309D01*
X98145039Y-120154309D01*
X98145099Y-120150000D01*
X98126909Y-119964487D01*
X98073033Y-119786040D01*
X97985522Y-119621456D01*
X97867710Y-119477005D01*
X97861073Y-119471514D01*
X97727812Y-119361270D01*
X97727810Y-119361269D01*
X97724085Y-119358187D01*
X97560116Y-119269529D01*
X97382049Y-119214409D01*
X97377239Y-119213903D01*
X97377237Y-119213903D01*
X97201484Y-119195430D01*
X97201482Y-119195430D01*
X97196668Y-119194924D01*
X97134673Y-119200566D01*
X97015852Y-119211379D01*
X97015848Y-119211380D01*
X97011032Y-119211818D01*
X97006390Y-119213184D01*
X97006386Y-119213185D01*
X96836861Y-119263080D01*
X96836858Y-119263081D01*
X96832214Y-119264448D01*
X96667023Y-119350807D01*
X96663247Y-119353843D01*
X96663244Y-119353845D01*
X96607584Y-119398597D01*
X96521752Y-119467608D01*
X96516999Y-119473273D01*
X96405044Y-119606695D01*
X96405041Y-119606699D01*
X96401935Y-119610401D01*
X96312135Y-119773746D01*
X96310672Y-119778359D01*
X96310670Y-119778363D01*
X96306530Y-119791415D01*
X96255772Y-119951424D01*
X96255232Y-119956236D01*
X96255232Y-119956237D01*
X96247815Y-120022367D01*
X96234994Y-120136665D01*
X79826944Y-120136665D01*
X79835689Y-120003234D01*
X79835901Y-120000000D01*
X79822181Y-119790672D01*
X79816129Y-119698332D01*
X79816128Y-119698326D01*
X79815917Y-119695104D01*
X79756307Y-119395424D01*
X79689969Y-119200000D01*
X92824577Y-119200000D01*
X92844184Y-119348930D01*
X92901669Y-119487711D01*
X92993114Y-119606886D01*
X93112288Y-119698331D01*
X93251070Y-119755816D01*
X93257498Y-119756662D01*
X93257501Y-119756663D01*
X93393566Y-119774576D01*
X93400000Y-119775423D01*
X93406434Y-119774576D01*
X93542499Y-119756663D01*
X93542502Y-119756662D01*
X93548930Y-119755816D01*
X93687712Y-119698331D01*
X93806886Y-119606886D01*
X93898331Y-119487711D01*
X93955816Y-119348930D01*
X93975423Y-119200000D01*
X93963464Y-119109164D01*
X104125235Y-119109164D01*
X104129023Y-119115470D01*
X104798914Y-119785361D01*
X104810797Y-119791415D01*
X104815828Y-119790619D01*
X105488486Y-119117961D01*
X105492968Y-119109164D01*
X148325235Y-119109164D01*
X148329023Y-119115470D01*
X148998914Y-119785361D01*
X149010797Y-119791415D01*
X149015828Y-119790619D01*
X149688486Y-119117961D01*
X149694540Y-119106078D01*
X149694442Y-119105456D01*
X149689615Y-119099903D01*
X149640933Y-119065815D01*
X149633463Y-119061503D01*
X149443078Y-118972725D01*
X149434985Y-118969779D01*
X149232056Y-118915405D01*
X149223588Y-118913912D01*
X149014309Y-118895602D01*
X149005691Y-118895602D01*
X148796412Y-118913912D01*
X148787944Y-118915405D01*
X148585015Y-118969779D01*
X148576922Y-118972725D01*
X148386538Y-119061503D01*
X148379068Y-119065815D01*
X148333273Y-119097881D01*
X148325246Y-119108534D01*
X148325235Y-119109164D01*
X105492968Y-119109164D01*
X105494540Y-119106078D01*
X105494442Y-119105456D01*
X105489615Y-119099903D01*
X105440933Y-119065815D01*
X105433463Y-119061503D01*
X105243078Y-118972725D01*
X105234985Y-118969779D01*
X105032056Y-118915405D01*
X105023588Y-118913912D01*
X104814309Y-118895602D01*
X104805691Y-118895602D01*
X104596412Y-118913912D01*
X104587944Y-118915405D01*
X104385015Y-118969779D01*
X104376922Y-118972725D01*
X104186538Y-119061503D01*
X104179068Y-119065815D01*
X104133273Y-119097881D01*
X104125246Y-119108534D01*
X104125235Y-119109164D01*
X93963464Y-119109164D01*
X93955816Y-119051070D01*
X93898331Y-118912289D01*
X93806886Y-118793114D01*
X93687712Y-118701669D01*
X93548930Y-118644184D01*
X93542502Y-118643338D01*
X93542499Y-118643337D01*
X93406434Y-118625424D01*
X93400000Y-118624577D01*
X93251070Y-118644184D01*
X93112289Y-118701669D01*
X92993114Y-118793114D01*
X92901669Y-118912289D01*
X92844184Y-119051070D01*
X92824577Y-119200000D01*
X79689969Y-119200000D01*
X79658091Y-119106089D01*
X79522950Y-118832050D01*
X79353195Y-118577994D01*
X79151731Y-118348269D01*
X78922006Y-118146805D01*
X78667950Y-117977050D01*
X78393911Y-117841909D01*
X78104576Y-117743693D01*
X77804896Y-117684083D01*
X77801674Y-117683872D01*
X77801668Y-117683871D01*
X77577918Y-117669206D01*
X77577916Y-117669206D01*
X77576300Y-117669100D01*
X77423700Y-117669100D01*
X77422084Y-117669206D01*
X77422082Y-117669206D01*
X77198332Y-117683871D01*
X77198326Y-117683872D01*
X77195104Y-117684083D01*
X76895424Y-117743693D01*
X76606089Y-117841909D01*
X76332050Y-117977050D01*
X76077994Y-118146805D01*
X75848269Y-118348269D01*
X75646805Y-118577994D01*
X75477050Y-118832049D01*
X75341909Y-119106089D01*
X75340868Y-119109156D01*
X75340866Y-119109161D01*
X75337879Y-119117961D01*
X75243693Y-119395424D01*
X75184083Y-119695104D01*
X75183872Y-119698326D01*
X75183871Y-119698332D01*
X75177819Y-119790672D01*
X75164099Y-120000000D01*
X74005647Y-120000000D01*
X74001500Y-119971042D01*
X74000500Y-119957008D01*
X74000500Y-116400000D01*
X157924577Y-116400000D01*
X157944184Y-116548930D01*
X158001669Y-116687711D01*
X158093114Y-116806886D01*
X158212288Y-116898331D01*
X158351070Y-116955816D01*
X158357498Y-116956662D01*
X158357501Y-116956663D01*
X158493566Y-116974576D01*
X158500000Y-116975423D01*
X158506434Y-116974576D01*
X158642499Y-116956663D01*
X158642502Y-116956662D01*
X158648930Y-116955816D01*
X158787712Y-116898331D01*
X158906886Y-116806886D01*
X158998331Y-116687711D01*
X159055816Y-116548930D01*
X159075423Y-116400000D01*
X159055816Y-116251070D01*
X158998331Y-116112289D01*
X158906886Y-115993114D01*
X158787712Y-115901669D01*
X158648930Y-115844184D01*
X158642502Y-115843338D01*
X158642499Y-115843337D01*
X158506434Y-115825424D01*
X158500000Y-115824577D01*
X158351070Y-115844184D01*
X158212289Y-115901669D01*
X158093114Y-115993114D01*
X158001669Y-116112289D01*
X157944184Y-116251070D01*
X157924577Y-116400000D01*
X74000500Y-116400000D01*
X74000500Y-113700000D01*
X89424577Y-113700000D01*
X89444184Y-113848930D01*
X89501669Y-113987711D01*
X89593114Y-114106886D01*
X89712288Y-114198331D01*
X89851070Y-114255816D01*
X89857498Y-114256662D01*
X89857501Y-114256663D01*
X89993566Y-114274576D01*
X90000000Y-114275423D01*
X90006434Y-114274576D01*
X90142499Y-114256663D01*
X90142502Y-114256662D01*
X90148930Y-114255816D01*
X90287712Y-114198331D01*
X90406886Y-114106886D01*
X90498331Y-113987711D01*
X90555816Y-113848930D01*
X90575423Y-113700000D01*
X90555816Y-113551070D01*
X90498331Y-113412289D01*
X90406886Y-113293114D01*
X90287712Y-113201669D01*
X90148930Y-113144184D01*
X90142502Y-113143338D01*
X90142499Y-113143337D01*
X90006434Y-113125424D01*
X90000000Y-113124577D01*
X89851070Y-113144184D01*
X89712289Y-113201669D01*
X89593114Y-113293114D01*
X89501669Y-113412289D01*
X89444184Y-113551070D01*
X89424577Y-113700000D01*
X74000500Y-113700000D01*
X74000500Y-112516665D01*
X96234994Y-112516665D01*
X96250592Y-112702414D01*
X96251925Y-112707062D01*
X96251925Y-112707063D01*
X96261829Y-112741601D01*
X96301971Y-112881595D01*
X96387176Y-113047385D01*
X96502959Y-113193468D01*
X96506646Y-113196606D01*
X96506648Y-113196608D01*
X96641224Y-113311141D01*
X96641229Y-113311144D01*
X96644912Y-113314279D01*
X96649134Y-113316639D01*
X96649139Y-113316642D01*
X96679191Y-113333437D01*
X96807627Y-113405217D01*
X96812225Y-113406711D01*
X96980302Y-113461323D01*
X96980304Y-113461324D01*
X96984907Y-113462819D01*
X97169998Y-113484890D01*
X97174820Y-113484519D01*
X97174823Y-113484519D01*
X97351023Y-113470961D01*
X97351028Y-113470960D01*
X97355851Y-113470589D01*
X97535387Y-113420462D01*
X97539700Y-113418283D01*
X97539706Y-113418281D01*
X97697447Y-113338600D01*
X97697449Y-113338598D01*
X97701768Y-113336417D01*
X97848655Y-113221656D01*
X97970454Y-113080550D01*
X98062526Y-112918474D01*
X98073361Y-112885905D01*
X98119837Y-112746192D01*
X98119837Y-112746190D01*
X98121364Y-112741601D01*
X98144727Y-112556668D01*
X98145099Y-112530000D01*
X98143791Y-112516665D01*
X140434994Y-112516665D01*
X140450592Y-112702414D01*
X140451925Y-112707062D01*
X140451925Y-112707063D01*
X140461829Y-112741601D01*
X140501971Y-112881595D01*
X140587176Y-113047385D01*
X140702959Y-113193468D01*
X140706646Y-113196606D01*
X140706648Y-113196608D01*
X140841224Y-113311141D01*
X140841229Y-113311144D01*
X140844912Y-113314279D01*
X140849134Y-113316639D01*
X140849139Y-113316642D01*
X140879191Y-113333437D01*
X141007627Y-113405217D01*
X141012225Y-113406711D01*
X141180302Y-113461323D01*
X141180304Y-113461324D01*
X141184907Y-113462819D01*
X141369998Y-113484890D01*
X141374820Y-113484519D01*
X141374823Y-113484519D01*
X141551023Y-113470961D01*
X141551028Y-113470960D01*
X141555851Y-113470589D01*
X141735387Y-113420462D01*
X141739700Y-113418283D01*
X141739706Y-113418281D01*
X141897447Y-113338600D01*
X141897449Y-113338598D01*
X141901768Y-113336417D01*
X142048655Y-113221656D01*
X142170454Y-113080550D01*
X142262526Y-112918474D01*
X142273361Y-112885905D01*
X142319837Y-112746192D01*
X142319837Y-112746190D01*
X142321364Y-112741601D01*
X142344727Y-112556668D01*
X142345099Y-112530000D01*
X142326909Y-112344487D01*
X142273033Y-112166040D01*
X142185522Y-112001456D01*
X142067710Y-111857005D01*
X142063981Y-111853920D01*
X141927812Y-111741270D01*
X141927810Y-111741269D01*
X141924085Y-111738187D01*
X141802554Y-111672475D01*
X141764370Y-111651829D01*
X141764369Y-111651829D01*
X141760116Y-111649529D01*
X141582049Y-111594409D01*
X141577239Y-111593903D01*
X141577237Y-111593903D01*
X141401484Y-111575430D01*
X141401482Y-111575430D01*
X141396668Y-111574924D01*
X141347441Y-111579404D01*
X141215852Y-111591379D01*
X141215848Y-111591380D01*
X141211032Y-111591818D01*
X141206390Y-111593184D01*
X141206386Y-111593185D01*
X141036861Y-111643080D01*
X141036858Y-111643081D01*
X141032214Y-111644448D01*
X140867023Y-111730807D01*
X140863247Y-111733843D01*
X140863244Y-111733845D01*
X140852420Y-111742548D01*
X140721752Y-111847608D01*
X140718644Y-111851312D01*
X140605044Y-111986695D01*
X140605041Y-111986699D01*
X140601935Y-111990401D01*
X140512135Y-112153746D01*
X140510672Y-112158359D01*
X140510670Y-112158363D01*
X140461013Y-112314902D01*
X140455772Y-112331424D01*
X140434994Y-112516665D01*
X98143791Y-112516665D01*
X98126909Y-112344487D01*
X98073033Y-112166040D01*
X97985522Y-112001456D01*
X97867710Y-111857005D01*
X97863981Y-111853920D01*
X97727812Y-111741270D01*
X97727810Y-111741269D01*
X97724085Y-111738187D01*
X97602554Y-111672475D01*
X97564370Y-111651829D01*
X97564369Y-111651829D01*
X97560116Y-111649529D01*
X97382049Y-111594409D01*
X97377239Y-111593903D01*
X97377237Y-111593903D01*
X97201484Y-111575430D01*
X97201482Y-111575430D01*
X97196668Y-111574924D01*
X97147441Y-111579404D01*
X97015852Y-111591379D01*
X97015848Y-111591380D01*
X97011032Y-111591818D01*
X97006390Y-111593184D01*
X97006386Y-111593185D01*
X96836861Y-111643080D01*
X96836858Y-111643081D01*
X96832214Y-111644448D01*
X96667023Y-111730807D01*
X96663247Y-111733843D01*
X96663244Y-111733845D01*
X96652420Y-111742548D01*
X96521752Y-111847608D01*
X96518644Y-111851312D01*
X96405044Y-111986695D01*
X96405041Y-111986699D01*
X96401935Y-111990401D01*
X96312135Y-112153746D01*
X96310672Y-112158359D01*
X96310670Y-112158363D01*
X96261013Y-112314902D01*
X96255772Y-112331424D01*
X96234994Y-112516665D01*
X74000500Y-112516665D01*
X74000500Y-111578205D01*
X79781177Y-111578205D01*
X79781367Y-111579404D01*
X79785505Y-111584271D01*
X79900512Y-111668597D01*
X79906718Y-111672475D01*
X80136985Y-111793625D01*
X80143712Y-111796550D01*
X80389355Y-111882332D01*
X80396421Y-111884226D01*
X80652054Y-111932759D01*
X80659333Y-111933588D01*
X80919325Y-111943803D01*
X80926645Y-111943547D01*
X81185303Y-111915220D01*
X81192486Y-111913888D01*
X81444115Y-111847640D01*
X81451045Y-111845253D01*
X81690098Y-111742548D01*
X81696605Y-111739161D01*
X81917859Y-111602246D01*
X81923782Y-111597942D01*
X81933806Y-111589456D01*
X81940769Y-111578205D01*
X84861177Y-111578205D01*
X84861367Y-111579404D01*
X84865505Y-111584271D01*
X84980512Y-111668597D01*
X84986718Y-111672475D01*
X85216985Y-111793625D01*
X85223712Y-111796550D01*
X85469355Y-111882332D01*
X85476421Y-111884226D01*
X85732054Y-111932759D01*
X85739333Y-111933588D01*
X85999325Y-111943803D01*
X86006645Y-111943547D01*
X86265303Y-111915220D01*
X86272486Y-111913888D01*
X86524115Y-111847640D01*
X86531045Y-111845253D01*
X86770098Y-111742548D01*
X86776605Y-111739161D01*
X86997859Y-111602246D01*
X87003782Y-111597942D01*
X87013806Y-111589456D01*
X87020824Y-111578116D01*
X87020596Y-111575053D01*
X87018802Y-111572355D01*
X85951086Y-110504639D01*
X85939203Y-110498585D01*
X85934172Y-110499381D01*
X84867231Y-111566322D01*
X84861177Y-111578205D01*
X81940769Y-111578205D01*
X81940824Y-111578116D01*
X81940596Y-111575053D01*
X81938802Y-111572355D01*
X80871086Y-110504639D01*
X80859203Y-110498585D01*
X80854172Y-110499381D01*
X79787231Y-111566322D01*
X79781177Y-111578205D01*
X74000500Y-111578205D01*
X74000500Y-110096417D01*
X79055748Y-110096417D01*
X79068232Y-110356315D01*
X79069124Y-110363578D01*
X79119886Y-110618779D01*
X79121843Y-110625835D01*
X79209765Y-110870717D01*
X79212748Y-110877418D01*
X79335900Y-111106614D01*
X79339839Y-111112797D01*
X79413311Y-111211188D01*
X79424205Y-111218887D01*
X79425654Y-111218868D01*
X79430745Y-111215702D01*
X80495361Y-110151086D01*
X80500603Y-110140797D01*
X81218585Y-110140797D01*
X81219381Y-110145828D01*
X82289686Y-111216133D01*
X82301569Y-111222187D01*
X82304524Y-111221719D01*
X82444316Y-111004387D01*
X82447818Y-110997938D01*
X82554681Y-110760710D01*
X82557185Y-110753831D01*
X82627813Y-110503404D01*
X82629274Y-110496220D01*
X82662259Y-110236936D01*
X82662638Y-110231987D01*
X82664982Y-110142492D01*
X82664863Y-110137517D01*
X82661809Y-110096417D01*
X84135748Y-110096417D01*
X84148232Y-110356315D01*
X84149124Y-110363578D01*
X84199886Y-110618779D01*
X84201843Y-110625835D01*
X84289765Y-110870717D01*
X84292748Y-110877418D01*
X84415900Y-111106614D01*
X84419839Y-111112797D01*
X84493311Y-111211188D01*
X84504205Y-111218887D01*
X84505654Y-111218868D01*
X84510745Y-111215702D01*
X85575361Y-110151086D01*
X85580603Y-110140797D01*
X86298585Y-110140797D01*
X86299381Y-110145828D01*
X87369686Y-111216133D01*
X87381569Y-111222187D01*
X87384524Y-111221719D01*
X87524316Y-111004387D01*
X87527818Y-110997938D01*
X87634681Y-110760710D01*
X87637185Y-110753831D01*
X87707813Y-110503404D01*
X87709274Y-110496220D01*
X87742259Y-110236936D01*
X87742638Y-110231987D01*
X87744982Y-110142492D01*
X87744863Y-110137517D01*
X87725492Y-109876851D01*
X87724411Y-109869622D01*
X87666985Y-109615835D01*
X87664845Y-109608834D01*
X87570539Y-109366326D01*
X87567390Y-109359724D01*
X87533255Y-109300000D01*
X153624577Y-109300000D01*
X153644184Y-109448930D01*
X153701669Y-109587711D01*
X153793114Y-109706886D01*
X153912288Y-109798331D01*
X154051070Y-109855816D01*
X154057498Y-109856662D01*
X154057501Y-109856663D01*
X154193566Y-109874576D01*
X154200000Y-109875423D01*
X154206434Y-109874576D01*
X154342499Y-109856663D01*
X154342502Y-109856662D01*
X154348930Y-109855816D01*
X154487712Y-109798331D01*
X154606886Y-109706886D01*
X154698331Y-109587711D01*
X154755816Y-109448930D01*
X154775423Y-109300000D01*
X154755816Y-109151070D01*
X154698331Y-109012289D01*
X154606886Y-108893114D01*
X154487712Y-108801669D01*
X154348930Y-108744184D01*
X154342502Y-108743338D01*
X154342499Y-108743337D01*
X154206434Y-108725424D01*
X154200000Y-108724577D01*
X154051070Y-108744184D01*
X153912289Y-108801669D01*
X153793114Y-108893114D01*
X153701669Y-109012289D01*
X153644184Y-109151070D01*
X153624577Y-109300000D01*
X87533255Y-109300000D01*
X87438274Y-109133819D01*
X87434174Y-109127742D01*
X87387297Y-109068279D01*
X87376206Y-109060868D01*
X87374063Y-109060952D01*
X87370001Y-109063552D01*
X86304639Y-110128914D01*
X86298585Y-110140797D01*
X85580603Y-110140797D01*
X85581415Y-110139203D01*
X85580619Y-110134172D01*
X84512340Y-109065893D01*
X84500457Y-109059839D01*
X84497655Y-109060282D01*
X84494809Y-109062556D01*
X84472837Y-109088974D01*
X84468574Y-109094950D01*
X84333599Y-109317382D01*
X84330269Y-109323918D01*
X84229653Y-109563860D01*
X84227326Y-109570813D01*
X84163280Y-109822996D01*
X84162008Y-109830212D01*
X84135940Y-110089097D01*
X84135748Y-110096417D01*
X82661809Y-110096417D01*
X82645492Y-109876851D01*
X82644411Y-109869622D01*
X82586985Y-109615835D01*
X82584845Y-109608834D01*
X82490539Y-109366326D01*
X82487390Y-109359724D01*
X82358274Y-109133819D01*
X82354174Y-109127742D01*
X82307297Y-109068279D01*
X82296206Y-109060868D01*
X82294063Y-109060952D01*
X82290001Y-109063552D01*
X81224639Y-110128914D01*
X81218585Y-110140797D01*
X80500603Y-110140797D01*
X80501415Y-110139203D01*
X80500619Y-110134172D01*
X79432340Y-109065893D01*
X79420457Y-109059839D01*
X79417655Y-109060282D01*
X79414809Y-109062556D01*
X79392837Y-109088974D01*
X79388574Y-109094950D01*
X79253599Y-109317382D01*
X79250269Y-109323918D01*
X79149653Y-109563860D01*
X79147326Y-109570813D01*
X79083280Y-109822996D01*
X79082008Y-109830212D01*
X79055940Y-110089097D01*
X79055748Y-110096417D01*
X74000500Y-110096417D01*
X74000500Y-108701619D01*
X79778285Y-108701619D01*
X79782590Y-108709037D01*
X80848914Y-109775361D01*
X80860797Y-109781415D01*
X80865828Y-109780619D01*
X81933666Y-108712781D01*
X81939720Y-108700898D01*
X81939640Y-108700391D01*
X81934675Y-108694705D01*
X81779148Y-108586812D01*
X81772836Y-108583094D01*
X81539482Y-108468017D01*
X81532682Y-108465269D01*
X81284882Y-108385948D01*
X81277755Y-108384237D01*
X81020937Y-108342411D01*
X81013656Y-108341774D01*
X80753469Y-108338368D01*
X80746173Y-108338814D01*
X80488342Y-108373904D01*
X80481190Y-108375424D01*
X80231386Y-108448235D01*
X80224520Y-108450802D01*
X79988231Y-108559733D01*
X79981825Y-108563284D01*
X79786566Y-108691301D01*
X79778285Y-108701619D01*
X74000500Y-108701619D01*
X74000500Y-107600000D01*
X82044341Y-107600000D01*
X82064937Y-107835408D01*
X82126097Y-108063663D01*
X82225965Y-108277829D01*
X82361505Y-108471401D01*
X82528599Y-108638495D01*
X82722170Y-108774035D01*
X82936337Y-108873903D01*
X83164592Y-108935063D01*
X83400000Y-108955659D01*
X83635408Y-108935063D01*
X83863663Y-108873903D01*
X84077830Y-108774035D01*
X84181251Y-108701619D01*
X84858285Y-108701619D01*
X84862590Y-108709037D01*
X85928914Y-109775361D01*
X85940797Y-109781415D01*
X85945828Y-109780619D01*
X87013666Y-108712781D01*
X87019720Y-108700898D01*
X87019640Y-108700391D01*
X87014675Y-108694705D01*
X86859148Y-108586812D01*
X86852836Y-108583094D01*
X86619482Y-108468017D01*
X86612682Y-108465269D01*
X86364882Y-108385948D01*
X86357755Y-108384237D01*
X86100937Y-108342411D01*
X86093656Y-108341774D01*
X85833469Y-108338368D01*
X85826173Y-108338814D01*
X85568342Y-108373904D01*
X85561190Y-108375424D01*
X85311386Y-108448235D01*
X85304520Y-108450802D01*
X85068231Y-108559733D01*
X85061825Y-108563284D01*
X84866566Y-108691301D01*
X84858285Y-108701619D01*
X84181251Y-108701619D01*
X84271401Y-108638495D01*
X84438495Y-108471401D01*
X84574035Y-108277829D01*
X84673903Y-108063663D01*
X84735063Y-107835408D01*
X84755659Y-107600000D01*
X84741369Y-107436665D01*
X96234994Y-107436665D01*
X96238120Y-107473894D01*
X96249072Y-107604309D01*
X96250592Y-107622414D01*
X96251925Y-107627062D01*
X96251925Y-107627063D01*
X96261829Y-107661601D01*
X96301971Y-107801595D01*
X96387176Y-107967385D01*
X96502959Y-108113468D01*
X96506646Y-108116606D01*
X96506648Y-108116608D01*
X96641224Y-108231141D01*
X96641229Y-108231144D01*
X96644912Y-108234279D01*
X96649134Y-108236639D01*
X96649139Y-108236642D01*
X96722836Y-108277829D01*
X96807627Y-108325217D01*
X96812225Y-108326711D01*
X96980302Y-108381323D01*
X96980304Y-108381324D01*
X96984907Y-108382819D01*
X97169998Y-108404890D01*
X97174820Y-108404519D01*
X97174823Y-108404519D01*
X97351023Y-108390961D01*
X97351028Y-108390960D01*
X97355851Y-108390589D01*
X97535387Y-108340462D01*
X97539700Y-108338283D01*
X97539706Y-108338281D01*
X97697447Y-108258600D01*
X97697449Y-108258598D01*
X97701768Y-108256417D01*
X97848655Y-108141656D01*
X97970454Y-108000550D01*
X98062526Y-107838474D01*
X98073361Y-107805905D01*
X98119837Y-107666192D01*
X98119837Y-107666190D01*
X98121364Y-107661601D01*
X98144727Y-107476668D01*
X98145099Y-107450000D01*
X98143791Y-107436665D01*
X103854994Y-107436665D01*
X103858120Y-107473894D01*
X103869072Y-107604309D01*
X103870592Y-107622414D01*
X103871925Y-107627062D01*
X103871925Y-107627063D01*
X103881829Y-107661601D01*
X103921971Y-107801595D01*
X104007176Y-107967385D01*
X104122959Y-108113468D01*
X104126646Y-108116606D01*
X104126648Y-108116608D01*
X104261224Y-108231141D01*
X104261229Y-108231144D01*
X104264912Y-108234279D01*
X104269134Y-108236639D01*
X104269139Y-108236642D01*
X104342836Y-108277829D01*
X104427627Y-108325217D01*
X104432225Y-108326711D01*
X104600302Y-108381323D01*
X104600304Y-108381324D01*
X104604907Y-108382819D01*
X104789998Y-108404890D01*
X104794820Y-108404519D01*
X104794823Y-108404519D01*
X104971023Y-108390961D01*
X104971028Y-108390960D01*
X104975851Y-108390589D01*
X105155387Y-108340462D01*
X105159700Y-108338283D01*
X105159706Y-108338281D01*
X105317447Y-108258600D01*
X105317449Y-108258598D01*
X105321768Y-108256417D01*
X105468655Y-108141656D01*
X105590454Y-108000550D01*
X105682526Y-107838474D01*
X105693361Y-107805905D01*
X105739837Y-107666192D01*
X105739837Y-107666190D01*
X105741364Y-107661601D01*
X105764727Y-107476668D01*
X105765099Y-107450000D01*
X105763791Y-107436665D01*
X140434994Y-107436665D01*
X140438120Y-107473894D01*
X140449072Y-107604309D01*
X140450592Y-107622414D01*
X140451925Y-107627062D01*
X140451925Y-107627063D01*
X140461829Y-107661601D01*
X140501971Y-107801595D01*
X140587176Y-107967385D01*
X140702959Y-108113468D01*
X140706646Y-108116606D01*
X140706648Y-108116608D01*
X140841224Y-108231141D01*
X140841229Y-108231144D01*
X140844912Y-108234279D01*
X140849134Y-108236639D01*
X140849139Y-108236642D01*
X140922836Y-108277829D01*
X141007627Y-108325217D01*
X141012225Y-108326711D01*
X141180302Y-108381323D01*
X141180304Y-108381324D01*
X141184907Y-108382819D01*
X141369998Y-108404890D01*
X141374820Y-108404519D01*
X141374823Y-108404519D01*
X141551023Y-108390961D01*
X141551028Y-108390960D01*
X141555851Y-108390589D01*
X141735387Y-108340462D01*
X141739700Y-108338283D01*
X141739706Y-108338281D01*
X141897447Y-108258600D01*
X141897449Y-108258598D01*
X141901768Y-108256417D01*
X142048655Y-108141656D01*
X142170454Y-108000550D01*
X142262526Y-107838474D01*
X142273361Y-107805905D01*
X142319837Y-107666192D01*
X142319837Y-107666190D01*
X142321364Y-107661601D01*
X142344727Y-107476668D01*
X142345099Y-107450000D01*
X142343791Y-107436665D01*
X148054994Y-107436665D01*
X148058120Y-107473894D01*
X148069072Y-107604309D01*
X148070592Y-107622414D01*
X148071925Y-107627062D01*
X148071925Y-107627063D01*
X148081829Y-107661601D01*
X148121971Y-107801595D01*
X148207176Y-107967385D01*
X148322959Y-108113468D01*
X148326646Y-108116606D01*
X148326648Y-108116608D01*
X148461224Y-108231141D01*
X148461229Y-108231144D01*
X148464912Y-108234279D01*
X148469134Y-108236639D01*
X148469139Y-108236642D01*
X148542836Y-108277829D01*
X148627627Y-108325217D01*
X148632225Y-108326711D01*
X148800302Y-108381323D01*
X148800304Y-108381324D01*
X148804907Y-108382819D01*
X148989998Y-108404890D01*
X148994820Y-108404519D01*
X148994823Y-108404519D01*
X149171023Y-108390961D01*
X149171028Y-108390960D01*
X149175851Y-108390589D01*
X149355387Y-108340462D01*
X149359700Y-108338283D01*
X149359706Y-108338281D01*
X149517447Y-108258600D01*
X149517449Y-108258598D01*
X149521768Y-108256417D01*
X149668655Y-108141656D01*
X149790454Y-108000550D01*
X149882526Y-107838474D01*
X149893361Y-107805905D01*
X149939837Y-107666192D01*
X149939837Y-107666190D01*
X149941364Y-107661601D01*
X149964727Y-107476668D01*
X149965099Y-107450000D01*
X149946909Y-107264487D01*
X149893033Y-107086040D01*
X149805522Y-106921456D01*
X149687710Y-106777005D01*
X149683981Y-106773920D01*
X149547812Y-106661270D01*
X149547810Y-106661269D01*
X149544085Y-106658187D01*
X149422554Y-106592475D01*
X149384370Y-106571829D01*
X149384369Y-106571829D01*
X149380116Y-106569529D01*
X149202049Y-106514409D01*
X149197239Y-106513903D01*
X149197237Y-106513903D01*
X149021484Y-106495430D01*
X149021482Y-106495430D01*
X149016668Y-106494924D01*
X148967441Y-106499404D01*
X148835852Y-106511379D01*
X148835848Y-106511380D01*
X148831032Y-106511818D01*
X148826390Y-106513184D01*
X148826386Y-106513185D01*
X148656861Y-106563080D01*
X148656858Y-106563081D01*
X148652214Y-106564448D01*
X148487023Y-106650807D01*
X148483247Y-106653843D01*
X148483244Y-106653845D01*
X148472420Y-106662548D01*
X148341752Y-106767608D01*
X148338644Y-106771312D01*
X148225044Y-106906695D01*
X148225041Y-106906699D01*
X148221935Y-106910401D01*
X148132135Y-107073746D01*
X148130672Y-107078359D01*
X148130670Y-107078363D01*
X148113523Y-107132418D01*
X148075772Y-107251424D01*
X148075232Y-107256236D01*
X148075232Y-107256237D01*
X148063546Y-107360425D01*
X148054994Y-107436665D01*
X142343791Y-107436665D01*
X142326909Y-107264487D01*
X142273033Y-107086040D01*
X142185522Y-106921456D01*
X142067710Y-106777005D01*
X142063981Y-106773920D01*
X141927812Y-106661270D01*
X141927810Y-106661269D01*
X141924085Y-106658187D01*
X141802554Y-106592475D01*
X141764370Y-106571829D01*
X141764369Y-106571829D01*
X141760116Y-106569529D01*
X141582049Y-106514409D01*
X141577239Y-106513903D01*
X141577237Y-106513903D01*
X141401484Y-106495430D01*
X141401482Y-106495430D01*
X141396668Y-106494924D01*
X141347441Y-106499404D01*
X141215852Y-106511379D01*
X141215848Y-106511380D01*
X141211032Y-106511818D01*
X141206390Y-106513184D01*
X141206386Y-106513185D01*
X141036861Y-106563080D01*
X141036858Y-106563081D01*
X141032214Y-106564448D01*
X140867023Y-106650807D01*
X140863247Y-106653843D01*
X140863244Y-106653845D01*
X140852420Y-106662548D01*
X140721752Y-106767608D01*
X140718644Y-106771312D01*
X140605044Y-106906695D01*
X140605041Y-106906699D01*
X140601935Y-106910401D01*
X140512135Y-107073746D01*
X140510672Y-107078359D01*
X140510670Y-107078363D01*
X140493523Y-107132418D01*
X140455772Y-107251424D01*
X140455232Y-107256236D01*
X140455232Y-107256237D01*
X140443546Y-107360425D01*
X140434994Y-107436665D01*
X105763791Y-107436665D01*
X105746909Y-107264487D01*
X105693033Y-107086040D01*
X105605522Y-106921456D01*
X105487710Y-106777005D01*
X105483981Y-106773920D01*
X105347812Y-106661270D01*
X105347810Y-106661269D01*
X105344085Y-106658187D01*
X105222554Y-106592475D01*
X105184370Y-106571829D01*
X105184369Y-106571829D01*
X105180116Y-106569529D01*
X105002049Y-106514409D01*
X104997239Y-106513903D01*
X104997237Y-106513903D01*
X104821484Y-106495430D01*
X104821482Y-106495430D01*
X104816668Y-106494924D01*
X104767441Y-106499404D01*
X104635852Y-106511379D01*
X104635848Y-106511380D01*
X104631032Y-106511818D01*
X104626390Y-106513184D01*
X104626386Y-106513185D01*
X104456861Y-106563080D01*
X104456858Y-106563081D01*
X104452214Y-106564448D01*
X104287023Y-106650807D01*
X104283247Y-106653843D01*
X104283244Y-106653845D01*
X104272420Y-106662548D01*
X104141752Y-106767608D01*
X104138644Y-106771312D01*
X104025044Y-106906695D01*
X104025041Y-106906699D01*
X104021935Y-106910401D01*
X103932135Y-107073746D01*
X103930672Y-107078359D01*
X103930670Y-107078363D01*
X103913523Y-107132418D01*
X103875772Y-107251424D01*
X103875232Y-107256236D01*
X103875232Y-107256237D01*
X103863546Y-107360425D01*
X103854994Y-107436665D01*
X98143791Y-107436665D01*
X98126909Y-107264487D01*
X98073033Y-107086040D01*
X97985522Y-106921456D01*
X97867710Y-106777005D01*
X97863981Y-106773920D01*
X97727812Y-106661270D01*
X97727810Y-106661269D01*
X97724085Y-106658187D01*
X97602554Y-106592475D01*
X97564370Y-106571829D01*
X97564369Y-106571829D01*
X97560116Y-106569529D01*
X97382049Y-106514409D01*
X97377239Y-106513903D01*
X97377237Y-106513903D01*
X97201484Y-106495430D01*
X97201482Y-106495430D01*
X97196668Y-106494924D01*
X97147441Y-106499404D01*
X97015852Y-106511379D01*
X97015848Y-106511380D01*
X97011032Y-106511818D01*
X97006390Y-106513184D01*
X97006386Y-106513185D01*
X96836861Y-106563080D01*
X96836858Y-106563081D01*
X96832214Y-106564448D01*
X96667023Y-106650807D01*
X96663247Y-106653843D01*
X96663244Y-106653845D01*
X96652420Y-106662548D01*
X96521752Y-106767608D01*
X96518644Y-106771312D01*
X96405044Y-106906695D01*
X96405041Y-106906699D01*
X96401935Y-106910401D01*
X96312135Y-107073746D01*
X96310672Y-107078359D01*
X96310670Y-107078363D01*
X96293523Y-107132418D01*
X96255772Y-107251424D01*
X96255232Y-107256236D01*
X96255232Y-107256237D01*
X96243546Y-107360425D01*
X96234994Y-107436665D01*
X84741369Y-107436665D01*
X84735063Y-107364592D01*
X84673903Y-107136337D01*
X84574035Y-106922171D01*
X84570907Y-106917703D01*
X84525432Y-106852759D01*
X84438495Y-106728599D01*
X84271401Y-106561505D01*
X84180999Y-106498205D01*
X84861177Y-106498205D01*
X84861367Y-106499404D01*
X84865505Y-106504271D01*
X84980512Y-106588597D01*
X84986718Y-106592475D01*
X85216985Y-106713625D01*
X85223712Y-106716550D01*
X85469355Y-106802332D01*
X85476421Y-106804226D01*
X85732054Y-106852759D01*
X85739333Y-106853588D01*
X85999325Y-106863803D01*
X86006645Y-106863547D01*
X86265303Y-106835220D01*
X86272486Y-106833888D01*
X86524115Y-106767640D01*
X86531045Y-106765253D01*
X86770098Y-106662548D01*
X86776605Y-106659161D01*
X86997859Y-106522246D01*
X87003782Y-106517942D01*
X87013806Y-106509456D01*
X87020824Y-106498116D01*
X87020596Y-106495053D01*
X87018802Y-106492355D01*
X85951086Y-105424639D01*
X85939203Y-105418585D01*
X85934172Y-105419381D01*
X84867231Y-106486322D01*
X84861177Y-106498205D01*
X84180999Y-106498205D01*
X84077830Y-106425965D01*
X83863663Y-106326097D01*
X83635408Y-106264937D01*
X83400000Y-106244341D01*
X83164592Y-106264937D01*
X82936337Y-106326097D01*
X82722171Y-106425965D01*
X82528599Y-106561505D01*
X82361505Y-106728599D01*
X82274568Y-106852759D01*
X82229094Y-106917703D01*
X82225965Y-106922171D01*
X82126097Y-107136337D01*
X82064937Y-107364592D01*
X82044341Y-107600000D01*
X74000500Y-107600000D01*
X74000500Y-106498205D01*
X79781177Y-106498205D01*
X79781367Y-106499404D01*
X79785505Y-106504271D01*
X79900512Y-106588597D01*
X79906718Y-106592475D01*
X80136985Y-106713625D01*
X80143712Y-106716550D01*
X80389355Y-106802332D01*
X80396421Y-106804226D01*
X80652054Y-106852759D01*
X80659333Y-106853588D01*
X80919325Y-106863803D01*
X80926645Y-106863547D01*
X81185303Y-106835220D01*
X81192486Y-106833888D01*
X81444115Y-106767640D01*
X81451045Y-106765253D01*
X81690098Y-106662548D01*
X81696605Y-106659161D01*
X81917859Y-106522246D01*
X81923782Y-106517942D01*
X81933806Y-106509456D01*
X81940824Y-106498116D01*
X81940596Y-106495053D01*
X81938802Y-106492355D01*
X80871086Y-105424639D01*
X80859203Y-105418585D01*
X80854172Y-105419381D01*
X79787231Y-106486322D01*
X79781177Y-106498205D01*
X74000500Y-106498205D01*
X74000500Y-105016417D01*
X79055748Y-105016417D01*
X79068232Y-105276315D01*
X79069124Y-105283578D01*
X79119886Y-105538779D01*
X79121843Y-105545835D01*
X79209765Y-105790717D01*
X79212748Y-105797418D01*
X79335900Y-106026614D01*
X79339839Y-106032797D01*
X79413311Y-106131188D01*
X79424205Y-106138887D01*
X79425654Y-106138868D01*
X79430745Y-106135702D01*
X80495361Y-105071086D01*
X80500603Y-105060797D01*
X81218585Y-105060797D01*
X81219381Y-105065828D01*
X82289686Y-106136133D01*
X82301569Y-106142187D01*
X82304524Y-106141719D01*
X82444316Y-105924387D01*
X82447818Y-105917938D01*
X82554681Y-105680710D01*
X82557185Y-105673831D01*
X82627813Y-105423404D01*
X82629274Y-105416220D01*
X82662259Y-105156936D01*
X82662638Y-105151987D01*
X82664982Y-105062492D01*
X82664863Y-105057517D01*
X82661809Y-105016417D01*
X84135748Y-105016417D01*
X84148232Y-105276315D01*
X84149124Y-105283578D01*
X84199886Y-105538779D01*
X84201843Y-105545835D01*
X84289765Y-105790717D01*
X84292748Y-105797418D01*
X84415900Y-106026614D01*
X84419839Y-106032797D01*
X84493311Y-106131188D01*
X84504205Y-106138887D01*
X84505654Y-106138868D01*
X84510745Y-106135702D01*
X85575361Y-105071086D01*
X85580603Y-105060797D01*
X86298585Y-105060797D01*
X86299381Y-105065828D01*
X87369686Y-106136133D01*
X87381569Y-106142187D01*
X87384524Y-106141719D01*
X87524316Y-105924387D01*
X87527818Y-105917938D01*
X87634681Y-105680710D01*
X87637185Y-105673831D01*
X87707813Y-105423404D01*
X87709274Y-105416220D01*
X87742259Y-105156936D01*
X87742638Y-105151987D01*
X87744982Y-105062492D01*
X87744863Y-105057517D01*
X87733157Y-104900000D01*
X100524577Y-104900000D01*
X100544184Y-105048930D01*
X100601669Y-105187711D01*
X100693114Y-105306886D01*
X100812288Y-105398331D01*
X100951070Y-105455816D01*
X100957498Y-105456662D01*
X100957501Y-105456663D01*
X101093566Y-105474576D01*
X101100000Y-105475423D01*
X101106434Y-105474576D01*
X101242499Y-105456663D01*
X101242502Y-105456662D01*
X101248930Y-105455816D01*
X101387712Y-105398331D01*
X101506886Y-105306886D01*
X101598331Y-105187711D01*
X101655816Y-105048930D01*
X101675423Y-104900000D01*
X101655816Y-104751070D01*
X101598331Y-104612289D01*
X101506886Y-104493114D01*
X101387712Y-104401669D01*
X101248930Y-104344184D01*
X101242502Y-104343338D01*
X101242499Y-104343337D01*
X101106434Y-104325424D01*
X101100000Y-104324577D01*
X100951070Y-104344184D01*
X100812289Y-104401669D01*
X100693114Y-104493114D01*
X100601669Y-104612289D01*
X100544184Y-104751070D01*
X100524577Y-104900000D01*
X87733157Y-104900000D01*
X87725492Y-104796851D01*
X87724411Y-104789622D01*
X87666985Y-104535835D01*
X87664845Y-104528834D01*
X87570539Y-104286326D01*
X87567390Y-104279724D01*
X87438274Y-104053819D01*
X87434174Y-104047742D01*
X87387297Y-103988279D01*
X87376206Y-103980868D01*
X87374063Y-103980952D01*
X87370001Y-103983552D01*
X86304639Y-105048914D01*
X86298585Y-105060797D01*
X85580603Y-105060797D01*
X85581415Y-105059203D01*
X85580619Y-105054172D01*
X84512340Y-103985893D01*
X84500457Y-103979839D01*
X84497655Y-103980282D01*
X84494809Y-103982556D01*
X84472837Y-104008974D01*
X84468574Y-104014950D01*
X84333599Y-104237382D01*
X84330269Y-104243918D01*
X84229653Y-104483860D01*
X84227326Y-104490813D01*
X84163280Y-104742996D01*
X84162008Y-104750212D01*
X84135940Y-105009097D01*
X84135748Y-105016417D01*
X82661809Y-105016417D01*
X82645492Y-104796851D01*
X82644411Y-104789622D01*
X82586985Y-104535835D01*
X82584845Y-104528834D01*
X82490539Y-104286326D01*
X82487390Y-104279724D01*
X82358274Y-104053819D01*
X82354174Y-104047742D01*
X82307297Y-103988279D01*
X82296206Y-103980868D01*
X82294063Y-103980952D01*
X82290001Y-103983552D01*
X81224639Y-105048914D01*
X81218585Y-105060797D01*
X80500603Y-105060797D01*
X80501415Y-105059203D01*
X80500619Y-105054172D01*
X79432340Y-103985893D01*
X79420457Y-103979839D01*
X79417655Y-103980282D01*
X79414809Y-103982556D01*
X79392837Y-104008974D01*
X79388574Y-104014950D01*
X79253599Y-104237382D01*
X79250269Y-104243918D01*
X79149653Y-104483860D01*
X79147326Y-104490813D01*
X79083280Y-104742996D01*
X79082008Y-104750212D01*
X79055940Y-105009097D01*
X79055748Y-105016417D01*
X74000500Y-105016417D01*
X74000500Y-103621619D01*
X79778285Y-103621619D01*
X79782590Y-103629037D01*
X80848914Y-104695361D01*
X80860797Y-104701415D01*
X80865828Y-104700619D01*
X81933666Y-103632781D01*
X81939353Y-103621619D01*
X84858285Y-103621619D01*
X84862590Y-103629037D01*
X85928914Y-104695361D01*
X85940797Y-104701415D01*
X85945828Y-104700619D01*
X87013666Y-103632781D01*
X87019720Y-103620898D01*
X87019640Y-103620391D01*
X87014675Y-103614705D01*
X86859148Y-103506812D01*
X86852836Y-103503094D01*
X86619482Y-103388017D01*
X86612682Y-103385269D01*
X86364882Y-103305948D01*
X86357755Y-103304237D01*
X86100937Y-103262411D01*
X86093656Y-103261774D01*
X85833469Y-103258368D01*
X85826173Y-103258814D01*
X85568342Y-103293904D01*
X85561190Y-103295424D01*
X85311386Y-103368235D01*
X85304520Y-103370802D01*
X85068231Y-103479733D01*
X85061825Y-103483284D01*
X84866566Y-103611301D01*
X84858285Y-103621619D01*
X81939353Y-103621619D01*
X81939720Y-103620898D01*
X81939640Y-103620391D01*
X81934675Y-103614705D01*
X81779148Y-103506812D01*
X81772836Y-103503094D01*
X81539482Y-103388017D01*
X81532682Y-103385269D01*
X81284882Y-103305948D01*
X81277755Y-103304237D01*
X81020937Y-103262411D01*
X81013656Y-103261774D01*
X80753469Y-103258368D01*
X80746173Y-103258814D01*
X80488342Y-103293904D01*
X80481190Y-103295424D01*
X80231386Y-103368235D01*
X80224520Y-103370802D01*
X79988231Y-103479733D01*
X79981825Y-103483284D01*
X79786566Y-103611301D01*
X79778285Y-103621619D01*
X74000500Y-103621619D01*
X74000500Y-102450000D01*
X164324577Y-102450000D01*
X164344184Y-102598930D01*
X164401669Y-102737711D01*
X164493114Y-102856886D01*
X164612288Y-102948331D01*
X164751070Y-103005816D01*
X164757498Y-103006662D01*
X164757501Y-103006663D01*
X164893566Y-103024576D01*
X164900000Y-103025423D01*
X164906434Y-103024576D01*
X165042499Y-103006663D01*
X165042502Y-103006662D01*
X165048930Y-103005816D01*
X165187712Y-102948331D01*
X165306886Y-102856886D01*
X165398331Y-102737711D01*
X165455816Y-102598930D01*
X165475423Y-102450000D01*
X165455816Y-102301070D01*
X165398331Y-102162289D01*
X165306886Y-102043114D01*
X165187712Y-101951669D01*
X165048930Y-101894184D01*
X165042502Y-101893338D01*
X165042499Y-101893337D01*
X164906434Y-101875424D01*
X164900000Y-101874577D01*
X164751070Y-101894184D01*
X164612289Y-101951669D01*
X164493114Y-102043114D01*
X164401669Y-102162289D01*
X164344184Y-102301070D01*
X164324577Y-102450000D01*
X74000500Y-102450000D01*
X74000500Y-100500000D01*
X151724577Y-100500000D01*
X151744184Y-100648930D01*
X151801669Y-100787711D01*
X151893114Y-100906886D01*
X152012288Y-100998331D01*
X152151070Y-101055816D01*
X152157498Y-101056662D01*
X152157501Y-101056663D01*
X152293566Y-101074576D01*
X152300000Y-101075423D01*
X152306434Y-101074576D01*
X152442499Y-101056663D01*
X152442502Y-101056662D01*
X152448930Y-101055816D01*
X152587712Y-100998331D01*
X152706886Y-100906886D01*
X152788901Y-100800000D01*
X158424577Y-100800000D01*
X158444184Y-100948930D01*
X158501669Y-101087711D01*
X158593114Y-101206886D01*
X158712288Y-101298331D01*
X158851070Y-101355816D01*
X158857498Y-101356662D01*
X158857501Y-101356663D01*
X158993566Y-101374576D01*
X159000000Y-101375423D01*
X159006434Y-101374576D01*
X159142499Y-101356663D01*
X159142502Y-101356662D01*
X159148930Y-101355816D01*
X159287712Y-101298331D01*
X159406886Y-101206886D01*
X159498331Y-101087711D01*
X159555816Y-100948930D01*
X159575423Y-100800000D01*
X159562258Y-100700000D01*
X164124577Y-100700000D01*
X164144184Y-100848930D01*
X164201669Y-100987711D01*
X164293114Y-101106886D01*
X164412288Y-101198331D01*
X164551070Y-101255816D01*
X164557498Y-101256662D01*
X164557501Y-101256663D01*
X164693566Y-101274576D01*
X164700000Y-101275423D01*
X164706434Y-101274576D01*
X164842499Y-101256663D01*
X164842502Y-101256662D01*
X164848930Y-101255816D01*
X164987712Y-101198331D01*
X165106886Y-101106886D01*
X165198331Y-100987711D01*
X165255816Y-100848930D01*
X165275423Y-100700000D01*
X165255816Y-100551070D01*
X165198331Y-100412289D01*
X165106886Y-100293114D01*
X164987712Y-100201669D01*
X164848930Y-100144184D01*
X164842502Y-100143338D01*
X164842499Y-100143337D01*
X164706434Y-100125424D01*
X164700000Y-100124577D01*
X164551070Y-100144184D01*
X164412289Y-100201669D01*
X164293114Y-100293114D01*
X164201669Y-100412289D01*
X164144184Y-100551070D01*
X164124577Y-100700000D01*
X159562258Y-100700000D01*
X159555816Y-100651070D01*
X159498331Y-100512289D01*
X159406886Y-100393114D01*
X159287712Y-100301669D01*
X159148930Y-100244184D01*
X159142502Y-100243338D01*
X159142499Y-100243337D01*
X159006434Y-100225424D01*
X159000000Y-100224577D01*
X158851070Y-100244184D01*
X158712289Y-100301669D01*
X158593114Y-100393114D01*
X158501669Y-100512289D01*
X158444184Y-100651070D01*
X158424577Y-100800000D01*
X152788901Y-100800000D01*
X152798331Y-100787711D01*
X152855816Y-100648930D01*
X152875423Y-100500000D01*
X152855816Y-100351070D01*
X152798331Y-100212289D01*
X152706886Y-100093114D01*
X152587712Y-100001669D01*
X152448930Y-99944184D01*
X152442502Y-99943338D01*
X152442499Y-99943337D01*
X152306434Y-99925424D01*
X152300000Y-99924577D01*
X152151070Y-99944184D01*
X152012289Y-100001669D01*
X151893114Y-100093114D01*
X151801669Y-100212289D01*
X151744184Y-100351070D01*
X151724577Y-100500000D01*
X74000500Y-100500000D01*
X74000500Y-98000000D01*
X128124577Y-98000000D01*
X128144184Y-98148930D01*
X128201669Y-98287711D01*
X128293114Y-98406886D01*
X128412288Y-98498331D01*
X128551070Y-98555816D01*
X128557498Y-98556662D01*
X128557501Y-98556663D01*
X128693566Y-98574576D01*
X128700000Y-98575423D01*
X128706434Y-98574576D01*
X128842499Y-98556663D01*
X128842502Y-98556662D01*
X128848930Y-98555816D01*
X128987712Y-98498331D01*
X129106886Y-98406886D01*
X129198331Y-98287711D01*
X129255816Y-98148930D01*
X129275423Y-98000000D01*
X129255816Y-97851070D01*
X129198331Y-97712289D01*
X129106886Y-97593114D01*
X128987712Y-97501669D01*
X128848930Y-97444184D01*
X128842502Y-97443338D01*
X128842499Y-97443337D01*
X128706434Y-97425424D01*
X128700000Y-97424577D01*
X128551070Y-97444184D01*
X128412289Y-97501669D01*
X128293114Y-97593114D01*
X128201669Y-97712289D01*
X128144184Y-97851070D01*
X128124577Y-98000000D01*
X74000500Y-98000000D01*
X74000500Y-95963214D01*
X133294806Y-95963214D01*
X133309010Y-96209545D01*
X133363255Y-96450249D01*
X133364784Y-96454013D01*
X133364785Y-96454018D01*
X133451564Y-96667731D01*
X133456084Y-96678861D01*
X133585006Y-96889241D01*
X133587665Y-96892311D01*
X133587666Y-96892312D01*
X133743895Y-97072668D01*
X133746557Y-97075741D01*
X133936399Y-97233351D01*
X134149433Y-97357838D01*
X134153220Y-97359284D01*
X134153224Y-97359286D01*
X134267720Y-97403007D01*
X134379939Y-97445859D01*
X134621726Y-97495052D01*
X134625781Y-97495201D01*
X134625784Y-97495201D01*
X134708474Y-97498233D01*
X134868300Y-97504093D01*
X134872319Y-97503578D01*
X134872323Y-97503578D01*
X135109009Y-97473258D01*
X135109015Y-97473257D01*
X135113041Y-97472741D01*
X135116934Y-97471573D01*
X135116939Y-97471572D01*
X135288132Y-97420211D01*
X135349374Y-97401838D01*
X135465986Y-97344711D01*
X135567307Y-97295074D01*
X135567310Y-97295072D01*
X135570954Y-97293287D01*
X135771829Y-97150004D01*
X135946605Y-96975837D01*
X136090588Y-96775463D01*
X136199911Y-96554264D01*
X136201089Y-96550388D01*
X136201091Y-96550382D01*
X136270459Y-96322064D01*
X136270459Y-96322063D01*
X136271639Y-96318180D01*
X136303845Y-96073550D01*
X136305643Y-96000000D01*
X136285425Y-95754089D01*
X136284130Y-95748930D01*
X136226307Y-95518729D01*
X136225316Y-95514783D01*
X136147452Y-95335708D01*
X136128550Y-95292237D01*
X136128549Y-95292236D01*
X136126928Y-95288507D01*
X135992905Y-95081339D01*
X135827900Y-94900000D01*
X137624577Y-94900000D01*
X137644184Y-95048930D01*
X137701669Y-95187711D01*
X137793114Y-95306886D01*
X137912288Y-95398331D01*
X138051070Y-95455816D01*
X138057498Y-95456662D01*
X138057501Y-95456663D01*
X138193566Y-95474576D01*
X138200000Y-95475423D01*
X138215549Y-95473376D01*
X138275710Y-95484526D01*
X138317827Y-95528909D01*
X138326624Y-95584451D01*
X138324577Y-95600000D01*
X138344184Y-95748930D01*
X138401669Y-95887711D01*
X138493114Y-96006886D01*
X138612288Y-96098331D01*
X138751070Y-96155816D01*
X138757498Y-96156662D01*
X138757501Y-96156663D01*
X138893566Y-96174576D01*
X138900000Y-96175423D01*
X138906434Y-96174576D01*
X139042499Y-96156663D01*
X139042502Y-96156662D01*
X139048930Y-96155816D01*
X139187712Y-96098331D01*
X139306886Y-96006886D01*
X139398331Y-95887711D01*
X139455816Y-95748930D01*
X139475423Y-95600000D01*
X139455816Y-95451070D01*
X139398331Y-95312289D01*
X139306886Y-95193114D01*
X139187712Y-95101669D01*
X139048930Y-95044184D01*
X139042502Y-95043338D01*
X139042499Y-95043337D01*
X138906434Y-95025424D01*
X138900000Y-95024577D01*
X138884451Y-95026624D01*
X138824290Y-95015474D01*
X138782173Y-94971091D01*
X138773376Y-94915549D01*
X138774576Y-94906434D01*
X138775423Y-94900000D01*
X138760047Y-94783205D01*
X143447177Y-94783205D01*
X143447367Y-94784404D01*
X143451505Y-94789271D01*
X143566512Y-94873597D01*
X143572718Y-94877475D01*
X143802985Y-94998625D01*
X143809712Y-95001550D01*
X144055355Y-95087332D01*
X144062421Y-95089226D01*
X144318054Y-95137759D01*
X144325333Y-95138588D01*
X144585325Y-95148803D01*
X144592645Y-95148547D01*
X144851303Y-95120220D01*
X144858486Y-95118888D01*
X145110115Y-95052640D01*
X145117045Y-95050253D01*
X145356098Y-94947548D01*
X145362605Y-94944161D01*
X145583859Y-94807246D01*
X145589782Y-94802942D01*
X145599806Y-94794456D01*
X145606769Y-94783205D01*
X148527177Y-94783205D01*
X148527367Y-94784404D01*
X148531505Y-94789271D01*
X148646512Y-94873597D01*
X148652718Y-94877475D01*
X148882985Y-94998625D01*
X148889712Y-95001550D01*
X149135355Y-95087332D01*
X149142421Y-95089226D01*
X149398054Y-95137759D01*
X149405333Y-95138588D01*
X149665325Y-95148803D01*
X149672645Y-95148547D01*
X149931303Y-95120220D01*
X149938486Y-95118888D01*
X150190115Y-95052640D01*
X150197045Y-95050253D01*
X150436098Y-94947548D01*
X150442605Y-94944161D01*
X150663859Y-94807246D01*
X150669782Y-94802942D01*
X150679806Y-94794456D01*
X150686824Y-94783116D01*
X150686596Y-94780053D01*
X150684802Y-94777355D01*
X149617086Y-93709639D01*
X149605203Y-93703585D01*
X149600172Y-93704381D01*
X148533231Y-94771322D01*
X148527177Y-94783205D01*
X145606769Y-94783205D01*
X145606824Y-94783116D01*
X145606596Y-94780053D01*
X145604802Y-94777355D01*
X144537086Y-93709639D01*
X144525203Y-93703585D01*
X144520172Y-93704381D01*
X143453231Y-94771322D01*
X143447177Y-94783205D01*
X138760047Y-94783205D01*
X138755816Y-94751070D01*
X138698331Y-94612289D01*
X138606886Y-94493114D01*
X138487712Y-94401669D01*
X138348930Y-94344184D01*
X138342502Y-94343338D01*
X138342499Y-94343337D01*
X138206434Y-94325424D01*
X138200000Y-94324577D01*
X138051070Y-94344184D01*
X137912289Y-94401669D01*
X137793114Y-94493114D01*
X137701669Y-94612289D01*
X137644184Y-94751070D01*
X137624577Y-94900000D01*
X135827900Y-94900000D01*
X135826846Y-94898842D01*
X135823660Y-94896326D01*
X135823657Y-94896323D01*
X135636398Y-94748435D01*
X135636392Y-94748431D01*
X135633210Y-94745918D01*
X135417198Y-94626673D01*
X135413367Y-94625316D01*
X135413364Y-94625315D01*
X135188446Y-94545667D01*
X135188442Y-94545666D01*
X135184610Y-94544309D01*
X135013351Y-94513803D01*
X134945697Y-94501752D01*
X134945696Y-94501752D01*
X134941694Y-94501039D01*
X134937633Y-94500989D01*
X134937629Y-94500989D01*
X134824411Y-94499606D01*
X134694972Y-94498025D01*
X134451070Y-94535347D01*
X134324879Y-94576593D01*
X134220397Y-94610742D01*
X134220393Y-94610744D01*
X134216540Y-94612003D01*
X134212940Y-94613877D01*
X134001284Y-94724058D01*
X134001281Y-94724060D01*
X133997679Y-94725935D01*
X133994436Y-94728370D01*
X133994431Y-94728373D01*
X133840900Y-94843648D01*
X133800364Y-94874083D01*
X133797559Y-94877018D01*
X133797557Y-94877020D01*
X133779111Y-94896323D01*
X133629896Y-95052468D01*
X133627604Y-95055828D01*
X133533954Y-95193114D01*
X133490851Y-95256300D01*
X133489143Y-95259980D01*
X133489140Y-95259985D01*
X133467370Y-95306886D01*
X133386965Y-95480104D01*
X133321026Y-95717871D01*
X133320593Y-95721919D01*
X133320593Y-95721921D01*
X133317707Y-95748930D01*
X133294806Y-95963214D01*
X74000500Y-95963214D01*
X74000500Y-93301417D01*
X142721748Y-93301417D01*
X142734232Y-93561315D01*
X142735124Y-93568578D01*
X142785886Y-93823779D01*
X142787843Y-93830835D01*
X142875765Y-94075717D01*
X142878748Y-94082418D01*
X143001900Y-94311614D01*
X143005839Y-94317797D01*
X143079311Y-94416188D01*
X143090205Y-94423887D01*
X143091654Y-94423868D01*
X143096745Y-94420702D01*
X144161361Y-93356086D01*
X144166603Y-93345797D01*
X144884585Y-93345797D01*
X144885381Y-93350828D01*
X145955686Y-94421133D01*
X145967569Y-94427187D01*
X145970524Y-94426719D01*
X146110316Y-94209387D01*
X146113818Y-94202938D01*
X146220681Y-93965710D01*
X146223185Y-93958831D01*
X146293813Y-93708404D01*
X146295274Y-93701220D01*
X146328259Y-93441936D01*
X146328638Y-93436987D01*
X146330982Y-93347492D01*
X146330863Y-93342517D01*
X146327809Y-93301417D01*
X147801748Y-93301417D01*
X147814232Y-93561315D01*
X147815124Y-93568578D01*
X147865886Y-93823779D01*
X147867843Y-93830835D01*
X147955765Y-94075717D01*
X147958748Y-94082418D01*
X148081900Y-94311614D01*
X148085839Y-94317797D01*
X148159311Y-94416188D01*
X148170205Y-94423887D01*
X148171654Y-94423868D01*
X148176745Y-94420702D01*
X149241361Y-93356086D01*
X149246603Y-93345797D01*
X149964585Y-93345797D01*
X149965381Y-93350828D01*
X151035686Y-94421133D01*
X151047569Y-94427187D01*
X151050524Y-94426719D01*
X151190316Y-94209387D01*
X151193818Y-94202938D01*
X151218473Y-94148205D01*
X166181177Y-94148205D01*
X166181367Y-94149404D01*
X166185505Y-94154271D01*
X166300512Y-94238597D01*
X166306718Y-94242475D01*
X166536985Y-94363625D01*
X166543712Y-94366550D01*
X166789355Y-94452332D01*
X166796421Y-94454226D01*
X167052054Y-94502759D01*
X167059333Y-94503588D01*
X167319325Y-94513803D01*
X167326645Y-94513547D01*
X167585303Y-94485220D01*
X167592486Y-94483888D01*
X167844115Y-94417640D01*
X167851045Y-94415253D01*
X168090098Y-94312548D01*
X168096605Y-94309161D01*
X168317859Y-94172246D01*
X168323782Y-94167942D01*
X168333806Y-94159456D01*
X168340769Y-94148205D01*
X171261177Y-94148205D01*
X171261367Y-94149404D01*
X171265505Y-94154271D01*
X171380512Y-94238597D01*
X171386718Y-94242475D01*
X171616985Y-94363625D01*
X171623712Y-94366550D01*
X171869355Y-94452332D01*
X171876421Y-94454226D01*
X172132054Y-94502759D01*
X172139333Y-94503588D01*
X172399325Y-94513803D01*
X172406645Y-94513547D01*
X172665303Y-94485220D01*
X172672486Y-94483888D01*
X172924115Y-94417640D01*
X172931045Y-94415253D01*
X173170098Y-94312548D01*
X173176605Y-94309161D01*
X173397859Y-94172246D01*
X173403782Y-94167942D01*
X173413806Y-94159456D01*
X173420824Y-94148116D01*
X173420596Y-94145053D01*
X173418802Y-94142355D01*
X172351086Y-93074639D01*
X172339203Y-93068585D01*
X172334172Y-93069381D01*
X171267231Y-94136322D01*
X171261177Y-94148205D01*
X168340769Y-94148205D01*
X168340824Y-94148116D01*
X168340596Y-94145053D01*
X168338802Y-94142355D01*
X167271086Y-93074639D01*
X167259203Y-93068585D01*
X167254172Y-93069381D01*
X166187231Y-94136322D01*
X166181177Y-94148205D01*
X151218473Y-94148205D01*
X151300681Y-93965710D01*
X151303185Y-93958831D01*
X151373813Y-93708404D01*
X151375274Y-93701220D01*
X151408259Y-93441936D01*
X151408638Y-93436987D01*
X151410982Y-93347492D01*
X151410863Y-93342517D01*
X151391492Y-93081851D01*
X151390411Y-93074622D01*
X151332985Y-92820835D01*
X151330845Y-92813834D01*
X151273518Y-92666417D01*
X165455748Y-92666417D01*
X165468232Y-92926315D01*
X165469124Y-92933578D01*
X165519886Y-93188779D01*
X165521843Y-93195835D01*
X165609765Y-93440717D01*
X165612748Y-93447418D01*
X165735900Y-93676614D01*
X165739839Y-93682797D01*
X165813311Y-93781188D01*
X165824205Y-93788887D01*
X165825654Y-93788868D01*
X165830745Y-93785702D01*
X166895361Y-92721086D01*
X166900603Y-92710797D01*
X167618585Y-92710797D01*
X167619381Y-92715828D01*
X168689686Y-93786133D01*
X168701569Y-93792187D01*
X168704524Y-93791719D01*
X168844316Y-93574387D01*
X168847818Y-93567938D01*
X168954681Y-93330710D01*
X168957185Y-93323831D01*
X169027813Y-93073404D01*
X169029274Y-93066220D01*
X169062259Y-92806936D01*
X169062638Y-92801987D01*
X169064982Y-92712492D01*
X169064863Y-92707517D01*
X169061809Y-92666417D01*
X170535748Y-92666417D01*
X170548232Y-92926315D01*
X170549124Y-92933578D01*
X170599886Y-93188779D01*
X170601843Y-93195835D01*
X170689765Y-93440717D01*
X170692748Y-93447418D01*
X170815900Y-93676614D01*
X170819839Y-93682797D01*
X170893311Y-93781188D01*
X170904205Y-93788887D01*
X170905654Y-93788868D01*
X170910745Y-93785702D01*
X171975361Y-92721086D01*
X171980603Y-92710797D01*
X172698585Y-92710797D01*
X172699381Y-92715828D01*
X173769686Y-93786133D01*
X173781569Y-93792187D01*
X173784524Y-93791719D01*
X173924316Y-93574387D01*
X173927818Y-93567938D01*
X174034681Y-93330710D01*
X174037185Y-93323831D01*
X174107813Y-93073404D01*
X174109274Y-93066220D01*
X174142259Y-92806936D01*
X174142638Y-92801987D01*
X174144982Y-92712492D01*
X174144863Y-92707517D01*
X174125492Y-92446851D01*
X174124411Y-92439622D01*
X174066985Y-92185835D01*
X174064845Y-92178834D01*
X173970539Y-91936326D01*
X173967390Y-91929724D01*
X173838274Y-91703819D01*
X173834174Y-91697742D01*
X173787297Y-91638279D01*
X173776206Y-91630868D01*
X173774063Y-91630952D01*
X173770001Y-91633552D01*
X172704639Y-92698914D01*
X172698585Y-92710797D01*
X171980603Y-92710797D01*
X171981415Y-92709203D01*
X171980619Y-92704172D01*
X170912340Y-91635893D01*
X170900457Y-91629839D01*
X170897655Y-91630282D01*
X170894809Y-91632556D01*
X170872837Y-91658974D01*
X170868574Y-91664950D01*
X170733599Y-91887382D01*
X170730269Y-91893918D01*
X170629653Y-92133860D01*
X170627326Y-92140813D01*
X170563280Y-92392996D01*
X170562008Y-92400212D01*
X170535940Y-92659097D01*
X170535748Y-92666417D01*
X169061809Y-92666417D01*
X169045492Y-92446851D01*
X169044411Y-92439622D01*
X168986985Y-92185835D01*
X168984845Y-92178834D01*
X168890539Y-91936326D01*
X168887390Y-91929724D01*
X168758274Y-91703819D01*
X168754174Y-91697742D01*
X168707297Y-91638279D01*
X168696206Y-91630868D01*
X168694063Y-91630952D01*
X168690001Y-91633552D01*
X167624639Y-92698914D01*
X167618585Y-92710797D01*
X166900603Y-92710797D01*
X166901415Y-92709203D01*
X166900619Y-92704172D01*
X165832340Y-91635893D01*
X165820457Y-91629839D01*
X165817655Y-91630282D01*
X165814809Y-91632556D01*
X165792837Y-91658974D01*
X165788574Y-91664950D01*
X165653599Y-91887382D01*
X165650269Y-91893918D01*
X165549653Y-92133860D01*
X165547326Y-92140813D01*
X165483280Y-92392996D01*
X165482008Y-92400212D01*
X165455940Y-92659097D01*
X165455748Y-92666417D01*
X151273518Y-92666417D01*
X151236539Y-92571326D01*
X151233390Y-92564724D01*
X151104274Y-92338819D01*
X151100174Y-92332742D01*
X151053297Y-92273279D01*
X151042206Y-92265868D01*
X151040063Y-92265952D01*
X151036001Y-92268552D01*
X149970639Y-93333914D01*
X149964585Y-93345797D01*
X149246603Y-93345797D01*
X149247415Y-93344203D01*
X149246619Y-93339172D01*
X148178340Y-92270893D01*
X148166457Y-92264839D01*
X148163655Y-92265282D01*
X148160809Y-92267556D01*
X148138837Y-92293974D01*
X148134574Y-92299950D01*
X147999599Y-92522382D01*
X147996269Y-92528918D01*
X147895653Y-92768860D01*
X147893326Y-92775813D01*
X147829280Y-93027996D01*
X147828008Y-93035212D01*
X147801940Y-93294097D01*
X147801748Y-93301417D01*
X146327809Y-93301417D01*
X146311492Y-93081851D01*
X146310411Y-93074622D01*
X146252985Y-92820835D01*
X146250845Y-92813834D01*
X146156539Y-92571326D01*
X146153390Y-92564724D01*
X146024274Y-92338819D01*
X146020174Y-92332742D01*
X145973297Y-92273279D01*
X145962206Y-92265868D01*
X145960063Y-92265952D01*
X145956001Y-92268552D01*
X144890639Y-93333914D01*
X144884585Y-93345797D01*
X144166603Y-93345797D01*
X144167415Y-93344203D01*
X144166619Y-93339172D01*
X143098340Y-92270893D01*
X143086457Y-92264839D01*
X143083655Y-92265282D01*
X143080809Y-92267556D01*
X143058837Y-92293974D01*
X143054574Y-92299950D01*
X142919599Y-92522382D01*
X142916269Y-92528918D01*
X142815653Y-92768860D01*
X142813326Y-92775813D01*
X142749280Y-93027996D01*
X142748008Y-93035212D01*
X142721940Y-93294097D01*
X142721748Y-93301417D01*
X74000500Y-93301417D01*
X74000500Y-92600000D01*
X91124577Y-92600000D01*
X91144184Y-92748930D01*
X91201669Y-92887711D01*
X91293114Y-93006886D01*
X91412288Y-93098331D01*
X91551070Y-93155816D01*
X91557498Y-93156662D01*
X91557501Y-93156663D01*
X91693566Y-93174576D01*
X91700000Y-93175423D01*
X91706434Y-93174576D01*
X91842499Y-93156663D01*
X91842502Y-93156662D01*
X91848930Y-93155816D01*
X91987712Y-93098331D01*
X92106886Y-93006886D01*
X92198331Y-92887711D01*
X92255816Y-92748930D01*
X92275423Y-92600000D01*
X92255816Y-92451070D01*
X92198331Y-92312289D01*
X92106886Y-92193114D01*
X91987712Y-92101669D01*
X91848930Y-92044184D01*
X91842502Y-92043338D01*
X91842499Y-92043337D01*
X91706434Y-92025424D01*
X91700000Y-92024577D01*
X91551070Y-92044184D01*
X91412289Y-92101669D01*
X91293114Y-92193114D01*
X91201669Y-92312289D01*
X91144184Y-92451070D01*
X91124577Y-92600000D01*
X74000500Y-92600000D01*
X74000500Y-91700000D01*
X110224577Y-91700000D01*
X110244184Y-91848930D01*
X110301669Y-91987711D01*
X110393114Y-92106886D01*
X110512288Y-92198331D01*
X110651070Y-92255816D01*
X110657498Y-92256662D01*
X110657501Y-92256663D01*
X110793566Y-92274576D01*
X110800000Y-92275423D01*
X110806434Y-92274576D01*
X110942499Y-92256663D01*
X110942502Y-92256662D01*
X110948930Y-92255816D01*
X111087712Y-92198331D01*
X111206886Y-92106886D01*
X111271458Y-92022733D01*
X111321882Y-91988077D01*
X111383046Y-91989678D01*
X111428542Y-92022733D01*
X111493114Y-92106886D01*
X111612288Y-92198331D01*
X111751070Y-92255816D01*
X111757498Y-92256662D01*
X111757501Y-92256663D01*
X111893566Y-92274576D01*
X111900000Y-92275423D01*
X111906434Y-92274576D01*
X112042499Y-92256663D01*
X112042502Y-92256662D01*
X112048930Y-92255816D01*
X112187712Y-92198331D01*
X112306886Y-92106886D01*
X112398331Y-91987711D01*
X112431920Y-91906619D01*
X143444285Y-91906619D01*
X143448590Y-91914037D01*
X144514914Y-92980361D01*
X144526797Y-92986415D01*
X144531828Y-92985619D01*
X145599666Y-91917781D01*
X145605720Y-91905898D01*
X145605640Y-91905391D01*
X145600675Y-91899705D01*
X145445148Y-91791812D01*
X145438836Y-91788094D01*
X145205482Y-91673017D01*
X145198682Y-91670269D01*
X144950882Y-91590948D01*
X144943755Y-91589237D01*
X144686937Y-91547411D01*
X144679656Y-91546774D01*
X144419469Y-91543368D01*
X144412173Y-91543814D01*
X144154342Y-91578904D01*
X144147190Y-91580424D01*
X143897386Y-91653235D01*
X143890520Y-91655802D01*
X143654231Y-91764733D01*
X143647825Y-91768284D01*
X143452566Y-91896301D01*
X143444285Y-91906619D01*
X112431920Y-91906619D01*
X112455816Y-91848930D01*
X112475423Y-91700000D01*
X112455816Y-91551070D01*
X112452811Y-91543814D01*
X112425924Y-91478904D01*
X112398331Y-91412289D01*
X112306886Y-91293114D01*
X112187712Y-91201669D01*
X112048930Y-91144184D01*
X112042502Y-91143338D01*
X112042499Y-91143337D01*
X111906434Y-91125424D01*
X111900000Y-91124577D01*
X111751070Y-91144184D01*
X111612289Y-91201669D01*
X111493114Y-91293114D01*
X111489160Y-91298267D01*
X111428542Y-91377267D01*
X111378118Y-91411923D01*
X111316954Y-91410322D01*
X111271458Y-91377267D01*
X111210840Y-91298267D01*
X111206886Y-91293114D01*
X111087712Y-91201669D01*
X110948930Y-91144184D01*
X110942502Y-91143338D01*
X110942499Y-91143337D01*
X110806434Y-91125424D01*
X110800000Y-91124577D01*
X110651070Y-91144184D01*
X110512289Y-91201669D01*
X110393114Y-91293114D01*
X110301669Y-91412289D01*
X110274076Y-91478904D01*
X110247190Y-91543814D01*
X110244184Y-91551070D01*
X110224577Y-91700000D01*
X74000500Y-91700000D01*
X74000500Y-90805000D01*
X145710341Y-90805000D01*
X145730937Y-91040408D01*
X145792097Y-91268663D01*
X145891965Y-91482829D01*
X145894446Y-91486372D01*
X145894447Y-91486374D01*
X145921691Y-91525282D01*
X146027505Y-91676401D01*
X146194599Y-91843495D01*
X146388170Y-91979035D01*
X146602337Y-92078903D01*
X146830592Y-92140063D01*
X147066000Y-92160659D01*
X147301408Y-92140063D01*
X147529663Y-92078903D01*
X147743830Y-91979035D01*
X147847251Y-91906619D01*
X148524285Y-91906619D01*
X148528590Y-91914037D01*
X149594914Y-92980361D01*
X149606797Y-92986415D01*
X149611828Y-92985619D01*
X150679666Y-91917781D01*
X150685720Y-91905898D01*
X150685640Y-91905391D01*
X150680675Y-91899705D01*
X150525148Y-91791812D01*
X150518836Y-91788094D01*
X150285482Y-91673017D01*
X150278682Y-91670269D01*
X150030882Y-91590948D01*
X150023755Y-91589237D01*
X149766937Y-91547411D01*
X149759656Y-91546774D01*
X149499469Y-91543368D01*
X149492173Y-91543814D01*
X149234342Y-91578904D01*
X149227190Y-91580424D01*
X148977386Y-91653235D01*
X148970520Y-91655802D01*
X148734231Y-91764733D01*
X148727825Y-91768284D01*
X148532566Y-91896301D01*
X148524285Y-91906619D01*
X147847251Y-91906619D01*
X147937401Y-91843495D01*
X148104495Y-91676401D01*
X148210309Y-91525282D01*
X148237553Y-91486374D01*
X148237554Y-91486372D01*
X148240035Y-91482829D01*
X148339903Y-91268663D01*
X148401063Y-91040408D01*
X148421659Y-90805000D01*
X148421222Y-90800000D01*
X152224577Y-90800000D01*
X152244184Y-90948930D01*
X152301669Y-91087711D01*
X152393114Y-91206886D01*
X152512288Y-91298331D01*
X152651070Y-91355816D01*
X152657498Y-91356662D01*
X152657501Y-91356663D01*
X152793566Y-91374576D01*
X152800000Y-91375423D01*
X152806434Y-91374576D01*
X152930710Y-91358215D01*
X152990871Y-91369365D01*
X153032988Y-91413748D01*
X153041785Y-91469290D01*
X153037026Y-91505439D01*
X153024577Y-91600000D01*
X153044184Y-91748930D01*
X153101669Y-91887711D01*
X153193114Y-92006886D01*
X153312288Y-92098331D01*
X153451070Y-92155816D01*
X153457498Y-92156662D01*
X153457501Y-92156663D01*
X153593566Y-92174576D01*
X153600000Y-92175423D01*
X153606434Y-92174576D01*
X153742499Y-92156663D01*
X153742502Y-92156662D01*
X153748930Y-92155816D01*
X153887712Y-92098331D01*
X154006886Y-92006886D01*
X154098331Y-91887711D01*
X154155816Y-91748930D01*
X154175423Y-91600000D01*
X154155816Y-91451070D01*
X154098331Y-91312289D01*
X154067124Y-91271619D01*
X166178285Y-91271619D01*
X166182590Y-91279037D01*
X167248914Y-92345361D01*
X167260797Y-92351415D01*
X167265828Y-92350619D01*
X168333666Y-91282781D01*
X168339720Y-91270898D01*
X168339640Y-91270391D01*
X168334675Y-91264705D01*
X168179148Y-91156812D01*
X168172836Y-91153094D01*
X167939482Y-91038017D01*
X167932682Y-91035269D01*
X167684882Y-90955948D01*
X167677755Y-90954237D01*
X167420937Y-90912411D01*
X167413656Y-90911774D01*
X167153469Y-90908368D01*
X167146173Y-90908814D01*
X166888342Y-90943904D01*
X166881190Y-90945424D01*
X166631386Y-91018235D01*
X166624520Y-91020802D01*
X166388231Y-91129733D01*
X166381825Y-91133284D01*
X166186566Y-91261301D01*
X166178285Y-91271619D01*
X154067124Y-91271619D01*
X154006886Y-91193114D01*
X153887712Y-91101669D01*
X153748930Y-91044184D01*
X153742502Y-91043338D01*
X153742499Y-91043337D01*
X153606434Y-91025424D01*
X153600000Y-91024577D01*
X153593566Y-91025424D01*
X153469290Y-91041785D01*
X153409129Y-91030635D01*
X153367012Y-90986252D01*
X153358215Y-90930710D01*
X153374576Y-90806434D01*
X153375423Y-90800000D01*
X153355816Y-90651070D01*
X153298331Y-90512289D01*
X153206886Y-90393114D01*
X153087712Y-90301669D01*
X152948930Y-90244184D01*
X152942502Y-90243338D01*
X152942499Y-90243337D01*
X152806434Y-90225424D01*
X152800000Y-90224577D01*
X152651070Y-90244184D01*
X152512289Y-90301669D01*
X152393114Y-90393114D01*
X152301669Y-90512289D01*
X152244184Y-90651070D01*
X152224577Y-90800000D01*
X148421222Y-90800000D01*
X148401063Y-90569592D01*
X148339903Y-90341337D01*
X148240035Y-90127171D01*
X148225832Y-90106886D01*
X148221010Y-90100000D01*
X155024577Y-90100000D01*
X155044184Y-90248930D01*
X155101669Y-90387711D01*
X155193114Y-90506886D01*
X155312288Y-90598331D01*
X155451070Y-90655816D01*
X155457498Y-90656662D01*
X155457501Y-90656663D01*
X155593566Y-90674576D01*
X155600000Y-90675423D01*
X155606434Y-90674576D01*
X155742499Y-90656663D01*
X155742502Y-90656662D01*
X155748930Y-90655816D01*
X155887712Y-90598331D01*
X156006886Y-90506886D01*
X156098331Y-90387711D01*
X156155816Y-90248930D01*
X156175423Y-90100000D01*
X156155816Y-89951070D01*
X156098331Y-89812289D01*
X156006886Y-89693114D01*
X155887712Y-89601669D01*
X155748930Y-89544184D01*
X155742502Y-89543338D01*
X155742499Y-89543337D01*
X155606434Y-89525424D01*
X155600000Y-89524577D01*
X155451070Y-89544184D01*
X155312289Y-89601669D01*
X155193114Y-89693114D01*
X155101669Y-89812289D01*
X155044184Y-89951070D01*
X155024577Y-90100000D01*
X148221010Y-90100000D01*
X148191432Y-90057759D01*
X148104495Y-89933599D01*
X147937401Y-89766505D01*
X147846999Y-89703205D01*
X148527177Y-89703205D01*
X148527367Y-89704404D01*
X148531505Y-89709271D01*
X148646512Y-89793597D01*
X148652718Y-89797475D01*
X148882985Y-89918625D01*
X148889712Y-89921550D01*
X149135355Y-90007332D01*
X149142421Y-90009226D01*
X149398054Y-90057759D01*
X149405333Y-90058588D01*
X149665325Y-90068803D01*
X149672645Y-90068547D01*
X149931303Y-90040220D01*
X149938486Y-90038888D01*
X150190115Y-89972640D01*
X150197045Y-89970253D01*
X150436098Y-89867548D01*
X150442605Y-89864161D01*
X150663859Y-89727246D01*
X150669782Y-89722942D01*
X150679806Y-89714456D01*
X150686824Y-89703116D01*
X150686596Y-89700053D01*
X150684802Y-89697355D01*
X150387447Y-89400000D01*
X156424577Y-89400000D01*
X156444184Y-89548930D01*
X156501669Y-89687711D01*
X156593114Y-89806886D01*
X156712288Y-89898331D01*
X156851070Y-89955816D01*
X156857498Y-89956662D01*
X156857501Y-89956663D01*
X156993566Y-89974576D01*
X157000000Y-89975423D01*
X157006434Y-89974576D01*
X157142499Y-89956663D01*
X157142502Y-89956662D01*
X157148930Y-89955816D01*
X157287712Y-89898331D01*
X157310084Y-89881165D01*
X157319617Y-89873850D01*
X157377293Y-89853427D01*
X157435959Y-89870805D01*
X157471347Y-89914507D01*
X157501669Y-89987711D01*
X157593114Y-90106886D01*
X157712288Y-90198331D01*
X157851070Y-90255816D01*
X157857498Y-90256662D01*
X157857501Y-90256663D01*
X157993566Y-90274576D01*
X158000000Y-90275423D01*
X158006434Y-90274576D01*
X158142499Y-90256663D01*
X158142502Y-90256662D01*
X158148930Y-90255816D01*
X158287712Y-90198331D01*
X158324634Y-90170000D01*
X168444341Y-90170000D01*
X168464937Y-90405408D01*
X168526097Y-90633663D01*
X168625965Y-90847829D01*
X168761505Y-91041401D01*
X168928599Y-91208495D01*
X169020125Y-91272582D01*
X169069479Y-91307140D01*
X169122170Y-91344035D01*
X169336337Y-91443903D01*
X169564592Y-91505063D01*
X169800000Y-91525659D01*
X170035408Y-91505063D01*
X170263663Y-91443903D01*
X170477830Y-91344035D01*
X170530522Y-91307140D01*
X170579875Y-91272582D01*
X170581250Y-91271619D01*
X171258285Y-91271619D01*
X171262590Y-91279037D01*
X172328914Y-92345361D01*
X172340797Y-92351415D01*
X172345828Y-92350619D01*
X173413666Y-91282781D01*
X173419720Y-91270898D01*
X173419640Y-91270391D01*
X173414675Y-91264705D01*
X173259148Y-91156812D01*
X173252836Y-91153094D01*
X173019482Y-91038017D01*
X173012682Y-91035269D01*
X172764882Y-90955948D01*
X172757755Y-90954237D01*
X172500937Y-90912411D01*
X172493656Y-90911774D01*
X172233469Y-90908368D01*
X172226173Y-90908814D01*
X171968342Y-90943904D01*
X171961190Y-90945424D01*
X171711386Y-91018235D01*
X171704520Y-91020802D01*
X171468231Y-91129733D01*
X171461825Y-91133284D01*
X171266566Y-91261301D01*
X171258285Y-91271619D01*
X170581250Y-91271619D01*
X170671401Y-91208495D01*
X170838495Y-91041401D01*
X170974035Y-90847829D01*
X171073903Y-90633663D01*
X171135063Y-90405408D01*
X171155659Y-90170000D01*
X171135063Y-89934592D01*
X171073903Y-89706337D01*
X170974035Y-89492171D01*
X170958204Y-89469561D01*
X170914496Y-89407140D01*
X170838495Y-89298599D01*
X170671401Y-89131505D01*
X170580999Y-89068205D01*
X171261177Y-89068205D01*
X171261367Y-89069404D01*
X171265505Y-89074271D01*
X171380512Y-89158597D01*
X171386718Y-89162475D01*
X171616985Y-89283625D01*
X171623712Y-89286550D01*
X171869355Y-89372332D01*
X171876421Y-89374226D01*
X172132054Y-89422759D01*
X172139333Y-89423588D01*
X172399325Y-89433803D01*
X172406645Y-89433547D01*
X172665303Y-89405220D01*
X172672486Y-89403888D01*
X172924115Y-89337640D01*
X172931045Y-89335253D01*
X173170098Y-89232548D01*
X173176605Y-89229161D01*
X173397859Y-89092246D01*
X173403782Y-89087942D01*
X173413806Y-89079456D01*
X173420824Y-89068116D01*
X173420596Y-89065053D01*
X173418802Y-89062355D01*
X172351086Y-87994639D01*
X172339203Y-87988585D01*
X172334172Y-87989381D01*
X171267231Y-89056322D01*
X171261177Y-89068205D01*
X170580999Y-89068205D01*
X170477830Y-88995965D01*
X170263663Y-88896097D01*
X170035408Y-88834937D01*
X169800000Y-88814341D01*
X169564592Y-88834937D01*
X169336337Y-88896097D01*
X169122171Y-88995965D01*
X168928599Y-89131505D01*
X168761505Y-89298599D01*
X168685504Y-89407140D01*
X168641797Y-89469561D01*
X168625965Y-89492171D01*
X168526097Y-89706337D01*
X168464937Y-89934592D01*
X168444341Y-90170000D01*
X158324634Y-90170000D01*
X158406886Y-90106886D01*
X158498331Y-89987711D01*
X158555816Y-89848930D01*
X158575423Y-89700000D01*
X158555816Y-89551070D01*
X158498331Y-89412289D01*
X158406886Y-89293114D01*
X158287712Y-89201669D01*
X158148930Y-89144184D01*
X158142502Y-89143338D01*
X158142499Y-89143337D01*
X158006434Y-89125424D01*
X158000000Y-89124577D01*
X157851070Y-89144184D01*
X157712289Y-89201669D01*
X157680382Y-89226152D01*
X157622707Y-89246574D01*
X157564042Y-89229196D01*
X157528653Y-89185493D01*
X157500816Y-89118286D01*
X157500813Y-89118280D01*
X157498331Y-89112289D01*
X157464505Y-89068205D01*
X166181177Y-89068205D01*
X166181367Y-89069404D01*
X166185505Y-89074271D01*
X166300512Y-89158597D01*
X166306718Y-89162475D01*
X166536985Y-89283625D01*
X166543712Y-89286550D01*
X166789355Y-89372332D01*
X166796421Y-89374226D01*
X167052054Y-89422759D01*
X167059333Y-89423588D01*
X167319325Y-89433803D01*
X167326645Y-89433547D01*
X167585303Y-89405220D01*
X167592486Y-89403888D01*
X167844115Y-89337640D01*
X167851045Y-89335253D01*
X168090098Y-89232548D01*
X168096605Y-89229161D01*
X168317859Y-89092246D01*
X168323782Y-89087942D01*
X168333806Y-89079456D01*
X168340824Y-89068116D01*
X168340596Y-89065053D01*
X168338802Y-89062355D01*
X167271086Y-87994639D01*
X167259203Y-87988585D01*
X167254172Y-87989381D01*
X166187231Y-89056322D01*
X166181177Y-89068205D01*
X157464505Y-89068205D01*
X157406886Y-88993114D01*
X157287712Y-88901669D01*
X157148930Y-88844184D01*
X157142502Y-88843338D01*
X157142499Y-88843337D01*
X157006434Y-88825424D01*
X157000000Y-88824577D01*
X156851070Y-88844184D01*
X156712289Y-88901669D01*
X156593114Y-88993114D01*
X156501669Y-89112289D01*
X156444184Y-89251070D01*
X156424577Y-89400000D01*
X150387447Y-89400000D01*
X149617086Y-88629639D01*
X149605203Y-88623585D01*
X149600172Y-88624381D01*
X148533231Y-89691322D01*
X148527177Y-89703205D01*
X147846999Y-89703205D01*
X147743830Y-89630965D01*
X147529663Y-89531097D01*
X147301408Y-89469937D01*
X147066000Y-89449341D01*
X146830592Y-89469937D01*
X146602337Y-89531097D01*
X146388171Y-89630965D01*
X146194599Y-89766505D01*
X146027505Y-89933599D01*
X145940568Y-90057759D01*
X145906169Y-90106886D01*
X145891965Y-90127171D01*
X145792097Y-90341337D01*
X145730937Y-90569592D01*
X145710341Y-90805000D01*
X74000500Y-90805000D01*
X74000500Y-89703205D01*
X143447177Y-89703205D01*
X143447367Y-89704404D01*
X143451505Y-89709271D01*
X143566512Y-89793597D01*
X143572718Y-89797475D01*
X143802985Y-89918625D01*
X143809712Y-89921550D01*
X144055355Y-90007332D01*
X144062421Y-90009226D01*
X144318054Y-90057759D01*
X144325333Y-90058588D01*
X144585325Y-90068803D01*
X144592645Y-90068547D01*
X144851303Y-90040220D01*
X144858486Y-90038888D01*
X145110115Y-89972640D01*
X145117045Y-89970253D01*
X145356098Y-89867548D01*
X145362605Y-89864161D01*
X145583859Y-89727246D01*
X145589782Y-89722942D01*
X145599806Y-89714456D01*
X145606824Y-89703116D01*
X145606596Y-89700053D01*
X145604802Y-89697355D01*
X144537086Y-88629639D01*
X144525203Y-88623585D01*
X144520172Y-88624381D01*
X143453231Y-89691322D01*
X143447177Y-89703205D01*
X74000500Y-89703205D01*
X74000500Y-87100000D01*
X120524577Y-87100000D01*
X120544184Y-87248930D01*
X120601669Y-87387711D01*
X120693114Y-87506886D01*
X120812288Y-87598331D01*
X120951070Y-87655816D01*
X120957498Y-87656662D01*
X120957501Y-87656663D01*
X121093566Y-87674576D01*
X121100000Y-87675423D01*
X121115549Y-87673376D01*
X121175710Y-87684526D01*
X121217827Y-87728909D01*
X121226624Y-87784451D01*
X121224577Y-87800000D01*
X121244184Y-87948930D01*
X121301669Y-88087711D01*
X121393114Y-88206886D01*
X121512288Y-88298331D01*
X121651070Y-88355816D01*
X121657498Y-88356662D01*
X121657501Y-88356663D01*
X121793566Y-88374576D01*
X121800000Y-88375423D01*
X121806434Y-88374576D01*
X121942499Y-88356663D01*
X121942502Y-88356662D01*
X121948930Y-88355816D01*
X122087712Y-88298331D01*
X122187949Y-88221417D01*
X142721748Y-88221417D01*
X142734232Y-88481315D01*
X142735124Y-88488578D01*
X142785886Y-88743779D01*
X142787843Y-88750835D01*
X142875765Y-88995717D01*
X142878748Y-89002418D01*
X143001900Y-89231614D01*
X143005839Y-89237797D01*
X143079311Y-89336188D01*
X143090205Y-89343887D01*
X143091654Y-89343868D01*
X143096745Y-89340702D01*
X144161361Y-88276086D01*
X144166603Y-88265797D01*
X144884585Y-88265797D01*
X144885381Y-88270828D01*
X145955686Y-89341133D01*
X145967569Y-89347187D01*
X145970524Y-89346719D01*
X146110316Y-89129387D01*
X146113818Y-89122938D01*
X146220681Y-88885710D01*
X146223185Y-88878831D01*
X146293813Y-88628404D01*
X146295274Y-88621220D01*
X146328259Y-88361936D01*
X146328638Y-88356987D01*
X146330982Y-88267492D01*
X146330863Y-88262517D01*
X146327809Y-88221417D01*
X147801748Y-88221417D01*
X147814232Y-88481315D01*
X147815124Y-88488578D01*
X147865886Y-88743779D01*
X147867843Y-88750835D01*
X147955765Y-88995717D01*
X147958748Y-89002418D01*
X148081900Y-89231614D01*
X148085839Y-89237797D01*
X148159311Y-89336188D01*
X148170205Y-89343887D01*
X148171654Y-89343868D01*
X148176745Y-89340702D01*
X149241361Y-88276086D01*
X149246603Y-88265797D01*
X149964585Y-88265797D01*
X149965381Y-88270828D01*
X151035686Y-89341133D01*
X151047569Y-89347187D01*
X151050524Y-89346719D01*
X151190316Y-89129387D01*
X151193818Y-89122938D01*
X151300681Y-88885710D01*
X151303185Y-88878831D01*
X151373813Y-88628404D01*
X151375274Y-88621220D01*
X151408259Y-88361936D01*
X151408638Y-88356987D01*
X151410982Y-88267492D01*
X151410863Y-88262517D01*
X151391492Y-88001851D01*
X151390411Y-87994622D01*
X151332985Y-87740835D01*
X151330845Y-87733834D01*
X151278800Y-87600000D01*
X154124577Y-87600000D01*
X154144184Y-87748930D01*
X154201669Y-87887711D01*
X154293114Y-88006886D01*
X154412288Y-88098331D01*
X154551070Y-88155816D01*
X154557498Y-88156662D01*
X154557501Y-88156663D01*
X154693566Y-88174576D01*
X154700000Y-88175423D01*
X154706434Y-88174576D01*
X154842499Y-88156663D01*
X154842502Y-88156662D01*
X154848930Y-88155816D01*
X154987712Y-88098331D01*
X155106886Y-88006886D01*
X155198331Y-87887711D01*
X155255816Y-87748930D01*
X155275423Y-87600000D01*
X155273635Y-87586417D01*
X165455748Y-87586417D01*
X165468232Y-87846315D01*
X165469124Y-87853578D01*
X165519886Y-88108779D01*
X165521843Y-88115835D01*
X165609765Y-88360717D01*
X165612748Y-88367418D01*
X165735900Y-88596614D01*
X165739839Y-88602797D01*
X165813311Y-88701188D01*
X165824205Y-88708887D01*
X165825654Y-88708868D01*
X165830745Y-88705702D01*
X166895361Y-87641086D01*
X166900603Y-87630797D01*
X167618585Y-87630797D01*
X167619381Y-87635828D01*
X168689686Y-88706133D01*
X168701569Y-88712187D01*
X168704524Y-88711719D01*
X168844316Y-88494387D01*
X168847818Y-88487938D01*
X168954681Y-88250710D01*
X168957185Y-88243831D01*
X169027813Y-87993404D01*
X169029274Y-87986220D01*
X169062259Y-87726936D01*
X169062638Y-87721987D01*
X169064982Y-87632492D01*
X169064863Y-87627517D01*
X169061809Y-87586417D01*
X170535748Y-87586417D01*
X170548232Y-87846315D01*
X170549124Y-87853578D01*
X170599886Y-88108779D01*
X170601843Y-88115835D01*
X170689765Y-88360717D01*
X170692748Y-88367418D01*
X170815900Y-88596614D01*
X170819839Y-88602797D01*
X170893311Y-88701188D01*
X170904205Y-88708887D01*
X170905654Y-88708868D01*
X170910745Y-88705702D01*
X171975361Y-87641086D01*
X171980603Y-87630797D01*
X172698585Y-87630797D01*
X172699381Y-87635828D01*
X173769686Y-88706133D01*
X173781569Y-88712187D01*
X173784524Y-88711719D01*
X173924316Y-88494387D01*
X173927818Y-88487938D01*
X174034681Y-88250710D01*
X174037185Y-88243831D01*
X174107813Y-87993404D01*
X174109274Y-87986220D01*
X174142259Y-87726936D01*
X174142638Y-87721987D01*
X174144982Y-87632492D01*
X174144863Y-87627517D01*
X174125492Y-87366851D01*
X174124411Y-87359622D01*
X174066985Y-87105835D01*
X174064845Y-87098834D01*
X173970539Y-86856326D01*
X173967390Y-86849724D01*
X173838274Y-86623819D01*
X173834174Y-86617742D01*
X173787297Y-86558279D01*
X173776206Y-86550868D01*
X173774063Y-86550952D01*
X173770001Y-86553552D01*
X172704639Y-87618914D01*
X172698585Y-87630797D01*
X171980603Y-87630797D01*
X171981415Y-87629203D01*
X171980619Y-87624172D01*
X170912340Y-86555893D01*
X170900457Y-86549839D01*
X170897655Y-86550282D01*
X170894809Y-86552556D01*
X170872837Y-86578974D01*
X170868574Y-86584950D01*
X170733599Y-86807382D01*
X170730269Y-86813918D01*
X170629653Y-87053860D01*
X170627326Y-87060813D01*
X170563280Y-87312996D01*
X170562008Y-87320212D01*
X170535940Y-87579097D01*
X170535748Y-87586417D01*
X169061809Y-87586417D01*
X169045492Y-87366851D01*
X169044411Y-87359622D01*
X168986985Y-87105835D01*
X168984845Y-87098834D01*
X168890539Y-86856326D01*
X168887390Y-86849724D01*
X168758274Y-86623819D01*
X168754174Y-86617742D01*
X168707297Y-86558279D01*
X168696206Y-86550868D01*
X168694063Y-86550952D01*
X168690001Y-86553552D01*
X167624639Y-87618914D01*
X167618585Y-87630797D01*
X166900603Y-87630797D01*
X166901415Y-87629203D01*
X166900619Y-87624172D01*
X165832340Y-86555893D01*
X165820457Y-86549839D01*
X165817655Y-86550282D01*
X165814809Y-86552556D01*
X165792837Y-86578974D01*
X165788574Y-86584950D01*
X165653599Y-86807382D01*
X165650269Y-86813918D01*
X165549653Y-87053860D01*
X165547326Y-87060813D01*
X165483280Y-87312996D01*
X165482008Y-87320212D01*
X165455940Y-87579097D01*
X165455748Y-87586417D01*
X155273635Y-87586417D01*
X155255816Y-87451070D01*
X155198331Y-87312289D01*
X155106886Y-87193114D01*
X154987712Y-87101669D01*
X154848930Y-87044184D01*
X154842502Y-87043338D01*
X154842499Y-87043337D01*
X154706434Y-87025424D01*
X154700000Y-87024577D01*
X154551070Y-87044184D01*
X154412289Y-87101669D01*
X154293114Y-87193114D01*
X154201669Y-87312289D01*
X154144184Y-87451070D01*
X154124577Y-87600000D01*
X151278800Y-87600000D01*
X151236539Y-87491326D01*
X151233390Y-87484724D01*
X151104274Y-87258819D01*
X151100174Y-87252742D01*
X151053297Y-87193279D01*
X151042206Y-87185868D01*
X151040063Y-87185952D01*
X151036001Y-87188552D01*
X149970639Y-88253914D01*
X149964585Y-88265797D01*
X149246603Y-88265797D01*
X149247415Y-88264203D01*
X149246619Y-88259172D01*
X148178340Y-87190893D01*
X148166457Y-87184839D01*
X148163655Y-87185282D01*
X148160809Y-87187556D01*
X148138837Y-87213974D01*
X148134574Y-87219950D01*
X147999599Y-87442382D01*
X147996269Y-87448918D01*
X147895653Y-87688860D01*
X147893326Y-87695813D01*
X147829280Y-87947996D01*
X147828008Y-87955212D01*
X147801940Y-88214097D01*
X147801748Y-88221417D01*
X146327809Y-88221417D01*
X146311492Y-88001851D01*
X146310411Y-87994622D01*
X146252985Y-87740835D01*
X146250845Y-87733834D01*
X146156539Y-87491326D01*
X146153390Y-87484724D01*
X146024274Y-87258819D01*
X146020174Y-87252742D01*
X145973297Y-87193279D01*
X145962206Y-87185868D01*
X145960063Y-87185952D01*
X145956001Y-87188552D01*
X144890639Y-88253914D01*
X144884585Y-88265797D01*
X144166603Y-88265797D01*
X144167415Y-88264203D01*
X144166619Y-88259172D01*
X143098340Y-87190893D01*
X143086457Y-87184839D01*
X143083655Y-87185282D01*
X143080809Y-87187556D01*
X143058837Y-87213974D01*
X143054574Y-87219950D01*
X142919599Y-87442382D01*
X142916269Y-87448918D01*
X142815653Y-87688860D01*
X142813326Y-87695813D01*
X142749280Y-87947996D01*
X142748008Y-87955212D01*
X142721940Y-88214097D01*
X142721748Y-88221417D01*
X122187949Y-88221417D01*
X122206886Y-88206886D01*
X122298331Y-88087711D01*
X122355816Y-87948930D01*
X122375423Y-87800000D01*
X122355816Y-87651070D01*
X122351681Y-87641086D01*
X122337327Y-87606434D01*
X122298331Y-87512289D01*
X122241485Y-87438205D01*
X131221177Y-87438205D01*
X131221367Y-87439404D01*
X131225505Y-87444271D01*
X131340512Y-87528597D01*
X131346718Y-87532475D01*
X131576985Y-87653625D01*
X131583712Y-87656550D01*
X131829355Y-87742332D01*
X131836421Y-87744226D01*
X132092054Y-87792759D01*
X132099333Y-87793588D01*
X132359325Y-87803803D01*
X132366645Y-87803547D01*
X132625303Y-87775220D01*
X132632486Y-87773888D01*
X132884115Y-87707640D01*
X132891045Y-87705253D01*
X133130098Y-87602548D01*
X133136605Y-87599161D01*
X133357859Y-87462246D01*
X133363782Y-87457942D01*
X133373806Y-87449456D01*
X133380824Y-87438116D01*
X133380596Y-87435053D01*
X133378802Y-87432355D01*
X132311086Y-86364639D01*
X132299203Y-86358585D01*
X132294172Y-86359381D01*
X131227231Y-87426322D01*
X131221177Y-87438205D01*
X122241485Y-87438205D01*
X122206886Y-87393114D01*
X122087712Y-87301669D01*
X121948930Y-87244184D01*
X121942502Y-87243338D01*
X121942499Y-87243337D01*
X121806434Y-87225424D01*
X121800000Y-87224577D01*
X121784451Y-87226624D01*
X121724290Y-87215474D01*
X121682173Y-87171091D01*
X121673376Y-87115549D01*
X121674576Y-87106434D01*
X121675423Y-87100000D01*
X121655816Y-86951070D01*
X121598331Y-86812289D01*
X121506886Y-86693114D01*
X121387712Y-86601669D01*
X121248930Y-86544184D01*
X121242502Y-86543338D01*
X121242499Y-86543337D01*
X121106434Y-86525424D01*
X121100000Y-86524577D01*
X120951070Y-86544184D01*
X120812289Y-86601669D01*
X120693114Y-86693114D01*
X120601669Y-86812289D01*
X120544184Y-86951070D01*
X120524577Y-87100000D01*
X74000500Y-87100000D01*
X74000500Y-86300000D01*
X93424577Y-86300000D01*
X93444184Y-86448930D01*
X93501669Y-86587711D01*
X93593114Y-86706886D01*
X93712288Y-86798331D01*
X93851070Y-86855816D01*
X93857498Y-86856662D01*
X93857501Y-86856663D01*
X93993566Y-86874576D01*
X94000000Y-86875423D01*
X94006434Y-86874576D01*
X94142499Y-86856663D01*
X94142502Y-86856662D01*
X94148930Y-86855816D01*
X94287712Y-86798331D01*
X94406886Y-86706886D01*
X94498331Y-86587711D01*
X94555816Y-86448930D01*
X94575423Y-86300000D01*
X94555816Y-86151070D01*
X94498331Y-86012289D01*
X94458412Y-85960265D01*
X94457049Y-85956417D01*
X130495748Y-85956417D01*
X130508232Y-86216315D01*
X130509124Y-86223578D01*
X130559886Y-86478779D01*
X130561843Y-86485835D01*
X130649765Y-86730717D01*
X130652748Y-86737418D01*
X130775900Y-86966614D01*
X130779839Y-86972797D01*
X130853311Y-87071188D01*
X130864205Y-87078887D01*
X130865654Y-87078868D01*
X130870745Y-87075702D01*
X131935361Y-86011086D01*
X131940603Y-86000797D01*
X132658585Y-86000797D01*
X132659381Y-86005828D01*
X133729686Y-87076133D01*
X133741569Y-87082187D01*
X133744524Y-87081719D01*
X133884316Y-86864387D01*
X133887818Y-86857938D01*
X133994681Y-86620710D01*
X133997185Y-86613831D01*
X134067813Y-86363404D01*
X134069274Y-86356220D01*
X134102259Y-86096936D01*
X134102638Y-86091987D01*
X134104982Y-86002492D01*
X134104863Y-85997517D01*
X134102314Y-85963214D01*
X135794806Y-85963214D01*
X135809010Y-86209545D01*
X135827786Y-86292860D01*
X135854374Y-86410840D01*
X135863255Y-86450249D01*
X135864784Y-86454013D01*
X135864785Y-86454018D01*
X135933734Y-86623819D01*
X135956084Y-86678861D01*
X136085006Y-86889241D01*
X136087665Y-86892311D01*
X136087666Y-86892312D01*
X136221372Y-87046667D01*
X136246557Y-87075741D01*
X136436399Y-87233351D01*
X136649433Y-87357838D01*
X136653220Y-87359284D01*
X136653224Y-87359286D01*
X136767720Y-87403007D01*
X136879939Y-87445859D01*
X136883920Y-87446669D01*
X136905551Y-87451070D01*
X137121726Y-87495052D01*
X137125781Y-87495201D01*
X137125784Y-87495201D01*
X137208474Y-87498233D01*
X137368300Y-87504093D01*
X137372319Y-87503578D01*
X137372323Y-87503578D01*
X137609009Y-87473258D01*
X137609015Y-87473257D01*
X137613041Y-87472741D01*
X137616934Y-87471573D01*
X137616939Y-87471572D01*
X137788132Y-87420211D01*
X137849374Y-87401838D01*
X137965986Y-87344711D01*
X138067307Y-87295074D01*
X138067310Y-87295072D01*
X138070954Y-87293287D01*
X138271829Y-87150004D01*
X138446605Y-86975837D01*
X138553829Y-86826619D01*
X143444285Y-86826619D01*
X143448590Y-86834037D01*
X144514914Y-87900361D01*
X144526797Y-87906415D01*
X144531828Y-87905619D01*
X145599666Y-86837781D01*
X145605353Y-86826619D01*
X148524285Y-86826619D01*
X148528590Y-86834037D01*
X149594914Y-87900361D01*
X149606797Y-87906415D01*
X149611828Y-87905619D01*
X150679666Y-86837781D01*
X150685720Y-86825898D01*
X150685640Y-86825391D01*
X150680675Y-86819705D01*
X150525148Y-86711812D01*
X150518836Y-86708094D01*
X150285482Y-86593017D01*
X150278682Y-86590269D01*
X150030882Y-86510948D01*
X150023755Y-86509237D01*
X149766937Y-86467411D01*
X149759656Y-86466774D01*
X149499469Y-86463368D01*
X149492173Y-86463814D01*
X149234342Y-86498904D01*
X149227190Y-86500424D01*
X148977386Y-86573235D01*
X148970520Y-86575802D01*
X148734231Y-86684733D01*
X148727825Y-86688284D01*
X148532566Y-86816301D01*
X148524285Y-86826619D01*
X145605353Y-86826619D01*
X145605720Y-86825898D01*
X145605640Y-86825391D01*
X145600675Y-86819705D01*
X145445148Y-86711812D01*
X145438836Y-86708094D01*
X145205482Y-86593017D01*
X145198682Y-86590269D01*
X144950882Y-86510948D01*
X144943755Y-86509237D01*
X144686937Y-86467411D01*
X144679656Y-86466774D01*
X144419469Y-86463368D01*
X144412173Y-86463814D01*
X144154342Y-86498904D01*
X144147190Y-86500424D01*
X143897386Y-86573235D01*
X143890520Y-86575802D01*
X143654231Y-86684733D01*
X143647825Y-86688284D01*
X143452566Y-86816301D01*
X143444285Y-86826619D01*
X138553829Y-86826619D01*
X138590588Y-86775463D01*
X138699911Y-86554264D01*
X138701089Y-86550388D01*
X138701091Y-86550382D01*
X138770459Y-86322064D01*
X138770459Y-86322063D01*
X138771639Y-86318180D01*
X138803845Y-86073550D01*
X138804341Y-86053284D01*
X138805196Y-86018284D01*
X138805643Y-86000000D01*
X138802060Y-85956417D01*
X138785758Y-85758136D01*
X138785757Y-85758133D01*
X138785425Y-85754089D01*
X138781096Y-85736851D01*
X138771840Y-85700000D01*
X153024577Y-85700000D01*
X153044184Y-85848930D01*
X153101669Y-85987711D01*
X153193114Y-86106886D01*
X153312288Y-86198331D01*
X153451070Y-86255816D01*
X153457498Y-86256662D01*
X153457501Y-86256663D01*
X153593566Y-86274576D01*
X153600000Y-86275423D01*
X153606434Y-86274576D01*
X153742499Y-86256663D01*
X153742502Y-86256662D01*
X153748930Y-86255816D01*
X153887712Y-86198331D01*
X154006886Y-86106886D01*
X154088901Y-86000000D01*
X164224577Y-86000000D01*
X164244184Y-86148930D01*
X164301669Y-86287711D01*
X164393114Y-86406886D01*
X164512288Y-86498331D01*
X164651070Y-86555816D01*
X164657498Y-86556662D01*
X164657501Y-86556663D01*
X164793566Y-86574576D01*
X164800000Y-86575423D01*
X164806434Y-86574576D01*
X164942499Y-86556663D01*
X164942502Y-86556662D01*
X164948930Y-86555816D01*
X165087712Y-86498331D01*
X165206886Y-86406886D01*
X165298331Y-86287711D01*
X165338134Y-86191619D01*
X166178285Y-86191619D01*
X166182590Y-86199037D01*
X167248914Y-87265361D01*
X167260797Y-87271415D01*
X167265828Y-87270619D01*
X168333666Y-86202781D01*
X168339353Y-86191619D01*
X171258285Y-86191619D01*
X171262590Y-86199037D01*
X172328914Y-87265361D01*
X172340797Y-87271415D01*
X172345828Y-87270619D01*
X173413666Y-86202781D01*
X173419720Y-86190898D01*
X173419640Y-86190391D01*
X173414675Y-86184705D01*
X173259148Y-86076812D01*
X173252836Y-86073094D01*
X173019482Y-85958017D01*
X173012682Y-85955269D01*
X172764882Y-85875948D01*
X172757755Y-85874237D01*
X172500937Y-85832411D01*
X172493656Y-85831774D01*
X172233469Y-85828368D01*
X172226173Y-85828814D01*
X171968342Y-85863904D01*
X171961190Y-85865424D01*
X171711386Y-85938235D01*
X171704520Y-85940802D01*
X171468231Y-86049733D01*
X171461825Y-86053284D01*
X171266566Y-86181301D01*
X171258285Y-86191619D01*
X168339353Y-86191619D01*
X168339720Y-86190898D01*
X168339640Y-86190391D01*
X168334675Y-86184705D01*
X168179148Y-86076812D01*
X168172836Y-86073094D01*
X167939482Y-85958017D01*
X167932682Y-85955269D01*
X167684882Y-85875948D01*
X167677755Y-85874237D01*
X167420937Y-85832411D01*
X167413656Y-85831774D01*
X167153469Y-85828368D01*
X167146173Y-85828814D01*
X166888342Y-85863904D01*
X166881190Y-85865424D01*
X166631386Y-85938235D01*
X166624520Y-85940802D01*
X166388231Y-86049733D01*
X166381825Y-86053284D01*
X166186566Y-86181301D01*
X166178285Y-86191619D01*
X165338134Y-86191619D01*
X165355816Y-86148930D01*
X165375423Y-86000000D01*
X165355816Y-85851070D01*
X165298331Y-85712289D01*
X165206886Y-85593114D01*
X165087712Y-85501669D01*
X164948930Y-85444184D01*
X164942502Y-85443338D01*
X164942499Y-85443337D01*
X164806434Y-85425424D01*
X164800000Y-85424577D01*
X164651070Y-85444184D01*
X164512289Y-85501669D01*
X164393114Y-85593114D01*
X164301669Y-85712289D01*
X164244184Y-85851070D01*
X164224577Y-86000000D01*
X154088901Y-86000000D01*
X154098331Y-85987711D01*
X154155816Y-85848930D01*
X154175423Y-85700000D01*
X154155816Y-85551070D01*
X154098331Y-85412289D01*
X154006886Y-85293114D01*
X153887712Y-85201669D01*
X153748930Y-85144184D01*
X153742502Y-85143338D01*
X153742499Y-85143337D01*
X153606434Y-85125424D01*
X153600000Y-85124577D01*
X153451070Y-85144184D01*
X153312289Y-85201669D01*
X153193114Y-85293114D01*
X153101669Y-85412289D01*
X153044184Y-85551070D01*
X153024577Y-85700000D01*
X138771840Y-85700000D01*
X138726307Y-85518729D01*
X138725316Y-85514783D01*
X138626928Y-85288507D01*
X138492905Y-85081339D01*
X138326846Y-84898842D01*
X138323660Y-84896326D01*
X138323657Y-84896323D01*
X138136398Y-84748435D01*
X138136392Y-84748431D01*
X138133210Y-84745918D01*
X138050030Y-84700000D01*
X137920756Y-84628637D01*
X137920755Y-84628636D01*
X137917198Y-84626673D01*
X137913367Y-84625316D01*
X137913364Y-84625315D01*
X137688446Y-84545667D01*
X137688442Y-84545666D01*
X137684610Y-84544309D01*
X137441694Y-84501039D01*
X137437633Y-84500989D01*
X137437629Y-84500989D01*
X137324411Y-84499606D01*
X137194972Y-84498025D01*
X136951070Y-84535347D01*
X136847995Y-84569037D01*
X136720397Y-84610742D01*
X136720393Y-84610744D01*
X136716540Y-84612003D01*
X136712940Y-84613877D01*
X136501284Y-84724058D01*
X136501281Y-84724060D01*
X136497679Y-84725935D01*
X136494436Y-84728370D01*
X136494431Y-84728373D01*
X136342437Y-84842494D01*
X136300364Y-84874083D01*
X136297559Y-84877018D01*
X136297557Y-84877020D01*
X136250853Y-84925893D01*
X136129896Y-85052468D01*
X136127604Y-85055828D01*
X136025423Y-85205620D01*
X135990851Y-85256300D01*
X135989143Y-85259980D01*
X135989140Y-85259985D01*
X135949644Y-85345073D01*
X135886965Y-85480104D01*
X135885879Y-85484020D01*
X135828697Y-85690212D01*
X135821026Y-85717871D01*
X135820593Y-85721919D01*
X135820593Y-85721921D01*
X135817576Y-85750150D01*
X135794806Y-85963214D01*
X134102314Y-85963214D01*
X134085492Y-85736851D01*
X134084411Y-85729622D01*
X134026985Y-85475835D01*
X134024845Y-85468834D01*
X133930539Y-85226326D01*
X133927390Y-85219724D01*
X133798274Y-84993819D01*
X133794174Y-84987742D01*
X133747297Y-84928279D01*
X133736206Y-84920868D01*
X133734063Y-84920952D01*
X133730001Y-84923552D01*
X132664639Y-85988914D01*
X132658585Y-86000797D01*
X131940603Y-86000797D01*
X131941415Y-85999203D01*
X131940619Y-85994172D01*
X130872340Y-84925893D01*
X130860457Y-84919839D01*
X130857655Y-84920282D01*
X130854809Y-84922556D01*
X130832837Y-84948974D01*
X130828574Y-84954950D01*
X130693599Y-85177382D01*
X130690269Y-85183918D01*
X130589653Y-85423860D01*
X130587326Y-85430813D01*
X130523280Y-85682996D01*
X130522008Y-85690212D01*
X130495940Y-85949097D01*
X130495748Y-85956417D01*
X94457049Y-85956417D01*
X94437990Y-85902590D01*
X94458412Y-85839735D01*
X94498331Y-85787711D01*
X94555816Y-85648930D01*
X94575423Y-85500000D01*
X94555816Y-85351070D01*
X94498331Y-85212289D01*
X94458412Y-85160265D01*
X94437990Y-85102590D01*
X94458412Y-85039735D01*
X94498331Y-84987711D01*
X94555816Y-84848930D01*
X94575423Y-84700000D01*
X94557205Y-84561619D01*
X131218285Y-84561619D01*
X131222590Y-84569037D01*
X132288914Y-85635361D01*
X132300797Y-85641415D01*
X132305828Y-85640619D01*
X133373666Y-84572781D01*
X133379720Y-84560898D01*
X133379640Y-84560391D01*
X133374675Y-84554705D01*
X133219148Y-84446812D01*
X133212836Y-84443094D01*
X132979482Y-84328017D01*
X132972682Y-84325269D01*
X132724882Y-84245948D01*
X132717755Y-84244237D01*
X132460937Y-84202411D01*
X132453656Y-84201774D01*
X132193469Y-84198368D01*
X132186173Y-84198814D01*
X131928342Y-84233904D01*
X131921190Y-84235424D01*
X131671386Y-84308235D01*
X131664520Y-84310802D01*
X131428231Y-84419733D01*
X131421825Y-84423284D01*
X131226566Y-84551301D01*
X131218285Y-84561619D01*
X94557205Y-84561619D01*
X94555816Y-84551070D01*
X94498331Y-84412289D01*
X94406886Y-84293114D01*
X94287712Y-84201669D01*
X94148930Y-84144184D01*
X94142502Y-84143338D01*
X94142499Y-84143337D01*
X94006434Y-84125424D01*
X94000000Y-84124577D01*
X93851070Y-84144184D01*
X93712289Y-84201669D01*
X93593114Y-84293114D01*
X93501669Y-84412289D01*
X93444184Y-84551070D01*
X93424577Y-84700000D01*
X93444184Y-84848930D01*
X93501669Y-84987711D01*
X93541588Y-85039735D01*
X93562010Y-85097410D01*
X93541588Y-85160265D01*
X93501669Y-85212289D01*
X93444184Y-85351070D01*
X93424577Y-85500000D01*
X93444184Y-85648930D01*
X93501669Y-85787711D01*
X93541588Y-85839735D01*
X93562010Y-85897410D01*
X93541588Y-85960265D01*
X93501669Y-86012289D01*
X93444184Y-86151070D01*
X93424577Y-86300000D01*
X74000500Y-86300000D01*
X74000500Y-83000000D01*
X91424577Y-83000000D01*
X91444184Y-83148930D01*
X91501669Y-83287711D01*
X91593114Y-83406886D01*
X91712288Y-83498331D01*
X91851070Y-83555816D01*
X91857498Y-83556662D01*
X91857501Y-83556663D01*
X91993566Y-83574576D01*
X92000000Y-83575423D01*
X92006434Y-83574576D01*
X92142499Y-83556663D01*
X92142502Y-83556662D01*
X92148930Y-83555816D01*
X92287712Y-83498331D01*
X92406886Y-83406886D01*
X92498331Y-83287711D01*
X92555816Y-83148930D01*
X92575423Y-83000000D01*
X92555816Y-82851070D01*
X92498331Y-82712289D01*
X92406886Y-82593114D01*
X92287712Y-82501669D01*
X92148930Y-82444184D01*
X92142502Y-82443338D01*
X92142499Y-82443337D01*
X92006434Y-82425424D01*
X92000000Y-82424577D01*
X91851070Y-82444184D01*
X91712289Y-82501669D01*
X91593114Y-82593114D01*
X91501669Y-82712289D01*
X91444184Y-82851070D01*
X91424577Y-83000000D01*
X74000500Y-83000000D01*
X74000500Y-82400000D01*
X122324577Y-82400000D01*
X122344184Y-82548930D01*
X122401669Y-82687711D01*
X122493114Y-82806886D01*
X122612288Y-82898331D01*
X122751070Y-82955816D01*
X122757498Y-82956662D01*
X122757501Y-82956663D01*
X122893566Y-82974576D01*
X122900000Y-82975423D01*
X122906434Y-82974576D01*
X123042499Y-82956663D01*
X123042502Y-82956662D01*
X123048930Y-82955816D01*
X123187712Y-82898331D01*
X123306886Y-82806886D01*
X123398331Y-82687711D01*
X123455816Y-82548930D01*
X123475423Y-82400000D01*
X123455816Y-82251070D01*
X123398331Y-82112289D01*
X123306886Y-81993114D01*
X123187712Y-81901669D01*
X123048930Y-81844184D01*
X123042502Y-81843338D01*
X123042499Y-81843337D01*
X122906434Y-81825424D01*
X122900000Y-81824577D01*
X122751070Y-81844184D01*
X122612289Y-81901669D01*
X122493114Y-81993114D01*
X122401669Y-82112289D01*
X122344184Y-82251070D01*
X122324577Y-82400000D01*
X74000500Y-82400000D01*
X74000500Y-80000000D01*
X120224577Y-80000000D01*
X120244184Y-80148930D01*
X120301669Y-80287711D01*
X120393114Y-80406886D01*
X120512288Y-80498331D01*
X120651070Y-80555816D01*
X120657498Y-80556662D01*
X120657501Y-80556663D01*
X120793566Y-80574576D01*
X120800000Y-80575423D01*
X120806434Y-80574576D01*
X120942499Y-80556663D01*
X120942502Y-80556662D01*
X120948930Y-80555816D01*
X121087712Y-80498331D01*
X121206886Y-80406886D01*
X121298331Y-80287711D01*
X121355816Y-80148930D01*
X121375423Y-80000000D01*
X121355816Y-79851070D01*
X121298331Y-79712289D01*
X121206886Y-79593114D01*
X121087712Y-79501669D01*
X120948930Y-79444184D01*
X120942502Y-79443338D01*
X120942499Y-79443337D01*
X120806434Y-79425424D01*
X120800000Y-79424577D01*
X120651070Y-79444184D01*
X120512289Y-79501669D01*
X120393114Y-79593114D01*
X120301669Y-79712289D01*
X120244184Y-79851070D01*
X120224577Y-80000000D01*
X74000500Y-80000000D01*
X74000500Y-76926445D01*
X102522937Y-76926445D01*
X102523377Y-76929224D01*
X102525178Y-76931476D01*
X102530195Y-76934989D01*
X102736146Y-77055337D01*
X102743441Y-77058833D01*
X102966279Y-77143926D01*
X102974060Y-77146187D01*
X103207805Y-77193743D01*
X103215844Y-77194702D01*
X103454225Y-77203443D01*
X103462301Y-77203077D01*
X103698915Y-77172765D01*
X103706824Y-77171083D01*
X103935294Y-77102539D01*
X103942842Y-77099581D01*
X104157050Y-76994643D01*
X104164005Y-76990496D01*
X104246342Y-76931765D01*
X104254276Y-76921043D01*
X104254283Y-76920180D01*
X104250667Y-76914220D01*
X104056195Y-76719748D01*
X109809500Y-76719748D01*
X109821133Y-76778231D01*
X109865448Y-76844552D01*
X109931769Y-76888867D01*
X109941332Y-76890769D01*
X109941334Y-76890770D01*
X109964005Y-76895279D01*
X109990252Y-76900500D01*
X112029748Y-76900500D01*
X112055995Y-76895279D01*
X112078666Y-76890770D01*
X112078668Y-76890769D01*
X112088231Y-76888867D01*
X112154552Y-76844552D01*
X112198867Y-76778231D01*
X112210500Y-76719748D01*
X112210500Y-74680252D01*
X112198867Y-74621769D01*
X112154552Y-74555448D01*
X112088231Y-74511133D01*
X112078668Y-74509231D01*
X112078666Y-74509230D01*
X112055995Y-74504721D01*
X112029748Y-74499500D01*
X109990252Y-74499500D01*
X109964005Y-74504721D01*
X109941334Y-74509230D01*
X109941332Y-74509231D01*
X109931769Y-74511133D01*
X109865448Y-74555448D01*
X109821133Y-74621769D01*
X109809500Y-74680252D01*
X109809500Y-76719748D01*
X104056195Y-76719748D01*
X103401086Y-76064639D01*
X103389203Y-76058585D01*
X103384172Y-76059381D01*
X102528991Y-76914562D01*
X102522937Y-76926445D01*
X74000500Y-76926445D01*
X74000500Y-75667278D01*
X101885542Y-75667278D01*
X101899274Y-75905426D01*
X101900399Y-75913432D01*
X101952840Y-76146134D01*
X101955264Y-76153868D01*
X102045002Y-76374866D01*
X102048656Y-76382100D01*
X102156615Y-76558271D01*
X102166301Y-76566544D01*
X102174487Y-76561960D01*
X103025361Y-75711086D01*
X103030603Y-75700797D01*
X103748585Y-75700797D01*
X103749381Y-75705828D01*
X104601587Y-76558034D01*
X104613470Y-76564088D01*
X104614417Y-76563938D01*
X104619585Y-76559500D01*
X104677787Y-76478505D01*
X104681959Y-76471562D01*
X104787645Y-76257721D01*
X104790625Y-76250197D01*
X104859969Y-76021958D01*
X104861679Y-76014045D01*
X104892999Y-75776145D01*
X104893409Y-75770881D01*
X104895076Y-75702641D01*
X104894925Y-75697371D01*
X104875263Y-75458218D01*
X104873941Y-75450232D01*
X104815832Y-75218891D01*
X104813219Y-75211215D01*
X104718108Y-74992474D01*
X104714275Y-74985327D01*
X104622214Y-74843021D01*
X104612024Y-74834740D01*
X104604449Y-74839104D01*
X103754639Y-75688914D01*
X103748585Y-75700797D01*
X103030603Y-75700797D01*
X103031415Y-75699203D01*
X103030619Y-75694172D01*
X102178226Y-74841779D01*
X102166343Y-74835725D01*
X102166044Y-74835772D01*
X102160118Y-74840988D01*
X102083578Y-74953190D01*
X102079576Y-74960236D01*
X101979148Y-75176591D01*
X101976349Y-75184196D01*
X101912607Y-75414041D01*
X101911086Y-75422015D01*
X101885740Y-75659187D01*
X101885542Y-75667278D01*
X74000500Y-75667278D01*
X74000500Y-74478475D01*
X102525400Y-74478475D01*
X102525423Y-74479992D01*
X102528537Y-74484984D01*
X103378914Y-75335361D01*
X103390797Y-75341415D01*
X103395828Y-75340619D01*
X104249381Y-74487066D01*
X104255435Y-74475183D01*
X104255096Y-74473043D01*
X104252062Y-74469342D01*
X104226118Y-74448853D01*
X104219378Y-74444374D01*
X104010550Y-74329095D01*
X104003158Y-74325773D01*
X103778318Y-74246152D01*
X103770479Y-74244081D01*
X103535637Y-74202250D01*
X103527594Y-74201489D01*
X103289069Y-74198575D01*
X103280990Y-74199140D01*
X103045207Y-74235220D01*
X103037321Y-74237099D01*
X102810591Y-74311205D01*
X102803134Y-74314340D01*
X102591551Y-74424483D01*
X102584695Y-74428801D01*
X102533070Y-74467562D01*
X102525400Y-74478475D01*
X74000500Y-74478475D01*
X74000500Y-72900000D01*
X144824577Y-72900000D01*
X144844184Y-73048930D01*
X144901669Y-73187711D01*
X144993114Y-73306886D01*
X145112288Y-73398331D01*
X145251070Y-73455816D01*
X145257498Y-73456662D01*
X145257501Y-73456663D01*
X145393566Y-73474576D01*
X145400000Y-73475423D01*
X145406434Y-73474576D01*
X145542499Y-73456663D01*
X145542502Y-73456662D01*
X145548930Y-73455816D01*
X145687712Y-73398331D01*
X145806886Y-73306886D01*
X145898331Y-73187711D01*
X145955816Y-73048930D01*
X145975423Y-72900000D01*
X145955816Y-72751070D01*
X145898331Y-72612289D01*
X145888901Y-72600000D01*
X152424577Y-72600000D01*
X152444184Y-72748930D01*
X152501669Y-72887711D01*
X152593114Y-73006886D01*
X152712288Y-73098331D01*
X152851070Y-73155816D01*
X152857498Y-73156662D01*
X152857501Y-73156663D01*
X152993566Y-73174576D01*
X153000000Y-73175423D01*
X153006434Y-73174576D01*
X153142499Y-73156663D01*
X153142502Y-73156662D01*
X153148930Y-73155816D01*
X153287712Y-73098331D01*
X153406886Y-73006886D01*
X153498331Y-72887711D01*
X153555816Y-72748930D01*
X153575423Y-72600000D01*
X153555816Y-72451070D01*
X153498331Y-72312289D01*
X153406886Y-72193114D01*
X153287712Y-72101669D01*
X153148930Y-72044184D01*
X153142502Y-72043338D01*
X153142499Y-72043337D01*
X153006434Y-72025424D01*
X153000000Y-72024577D01*
X152851070Y-72044184D01*
X152712289Y-72101669D01*
X152593114Y-72193114D01*
X152501669Y-72312289D01*
X152444184Y-72451070D01*
X152424577Y-72600000D01*
X145888901Y-72600000D01*
X145806886Y-72493114D01*
X145687712Y-72401669D01*
X145548930Y-72344184D01*
X145542502Y-72343338D01*
X145542499Y-72343337D01*
X145406434Y-72325424D01*
X145400000Y-72324577D01*
X145251070Y-72344184D01*
X145112289Y-72401669D01*
X144993114Y-72493114D01*
X144901669Y-72612289D01*
X144844184Y-72751070D01*
X144824577Y-72900000D01*
X74000500Y-72900000D01*
X74000500Y-71926445D01*
X102522937Y-71926445D01*
X102523377Y-71929224D01*
X102525178Y-71931476D01*
X102530195Y-71934989D01*
X102736146Y-72055337D01*
X102743441Y-72058833D01*
X102966279Y-72143926D01*
X102974060Y-72146187D01*
X103207805Y-72193743D01*
X103215844Y-72194702D01*
X103454225Y-72203443D01*
X103462301Y-72203077D01*
X103698915Y-72172765D01*
X103706824Y-72171083D01*
X103935294Y-72102539D01*
X103942842Y-72099581D01*
X104157050Y-71994643D01*
X104164005Y-71990496D01*
X104246342Y-71931765D01*
X104254276Y-71921043D01*
X104254283Y-71920180D01*
X104250667Y-71914220D01*
X103401086Y-71064639D01*
X103389203Y-71058585D01*
X103384172Y-71059381D01*
X102528991Y-71914562D01*
X102522937Y-71926445D01*
X74000500Y-71926445D01*
X74000500Y-69550319D01*
X74001872Y-69533894D01*
X74004862Y-69516124D01*
X74004862Y-69516120D01*
X74005496Y-69512354D01*
X74005647Y-69500000D01*
X75164099Y-69500000D01*
X75164311Y-69503234D01*
X75183649Y-69798267D01*
X75184083Y-69804896D01*
X75243693Y-70104576D01*
X75341909Y-70393911D01*
X75477050Y-70667950D01*
X75500230Y-70702641D01*
X75635727Y-70905426D01*
X75646805Y-70922006D01*
X75848269Y-71151731D01*
X76077994Y-71353195D01*
X76080696Y-71355000D01*
X76080698Y-71355002D01*
X76127648Y-71386373D01*
X76332050Y-71522950D01*
X76606089Y-71658091D01*
X76895424Y-71756307D01*
X77195104Y-71815917D01*
X77198326Y-71816128D01*
X77198332Y-71816129D01*
X77422082Y-71830794D01*
X77422084Y-71830794D01*
X77423700Y-71830900D01*
X77576300Y-71830900D01*
X77577916Y-71830794D01*
X77577918Y-71830794D01*
X77801668Y-71816129D01*
X77801674Y-71816128D01*
X77804896Y-71815917D01*
X78104576Y-71756307D01*
X78393911Y-71658091D01*
X78667950Y-71522950D01*
X78872352Y-71386373D01*
X78919302Y-71355002D01*
X78919304Y-71355000D01*
X78922006Y-71353195D01*
X79151731Y-71151731D01*
X79353195Y-70922006D01*
X79522950Y-70667951D01*
X79523282Y-70667278D01*
X101885542Y-70667278D01*
X101899274Y-70905426D01*
X101900399Y-70913432D01*
X101952840Y-71146134D01*
X101955264Y-71153868D01*
X102045002Y-71374866D01*
X102048656Y-71382100D01*
X102156615Y-71558271D01*
X102166301Y-71566544D01*
X102174487Y-71561960D01*
X103025361Y-70711086D01*
X103030603Y-70700797D01*
X103748585Y-70700797D01*
X103749381Y-70705828D01*
X104601587Y-71558034D01*
X104613470Y-71564088D01*
X104614417Y-71563938D01*
X104619585Y-71559500D01*
X104677787Y-71478505D01*
X104681959Y-71471562D01*
X104787645Y-71257721D01*
X104790625Y-71250197D01*
X104859969Y-71021958D01*
X104861679Y-71014045D01*
X104892999Y-70776145D01*
X104893409Y-70770881D01*
X104895076Y-70702641D01*
X104894925Y-70697371D01*
X104892546Y-70668440D01*
X109804770Y-70668440D01*
X109819200Y-70888604D01*
X109820316Y-70892997D01*
X109820316Y-70892999D01*
X109862096Y-71057506D01*
X109873511Y-71102452D01*
X109965883Y-71302821D01*
X110093222Y-71483002D01*
X110251264Y-71636961D01*
X110434717Y-71759540D01*
X110637436Y-71846635D01*
X110715165Y-71864223D01*
X110848206Y-71894328D01*
X110848211Y-71894329D01*
X110852632Y-71895329D01*
X110962865Y-71899660D01*
X111068565Y-71903813D01*
X111068566Y-71903813D01*
X111073098Y-71903991D01*
X111291452Y-71872331D01*
X111295751Y-71870872D01*
X111295754Y-71870871D01*
X111496078Y-71802870D01*
X111500379Y-71801410D01*
X111571944Y-71761332D01*
X111688925Y-71695819D01*
X111692884Y-71693602D01*
X111862518Y-71552518D01*
X112003602Y-71382884D01*
X112050019Y-71300000D01*
X142424577Y-71300000D01*
X142444184Y-71448930D01*
X142501669Y-71587711D01*
X142593114Y-71706886D01*
X142712288Y-71798331D01*
X142851070Y-71855816D01*
X142857498Y-71856662D01*
X142857501Y-71856663D01*
X142993566Y-71874576D01*
X143000000Y-71875423D01*
X143006434Y-71874576D01*
X143142499Y-71856663D01*
X143142502Y-71856662D01*
X143148930Y-71855816D01*
X143287712Y-71798331D01*
X143406886Y-71706886D01*
X143498331Y-71587711D01*
X143555816Y-71448930D01*
X143575423Y-71300000D01*
X143562258Y-71200000D01*
X152424577Y-71200000D01*
X152444184Y-71348930D01*
X152501669Y-71487711D01*
X152593114Y-71606886D01*
X152712288Y-71698331D01*
X152851070Y-71755816D01*
X152857498Y-71756662D01*
X152857501Y-71756663D01*
X152993566Y-71774576D01*
X153000000Y-71775423D01*
X153006434Y-71774576D01*
X153142499Y-71756663D01*
X153142502Y-71756662D01*
X153148930Y-71755816D01*
X153287712Y-71698331D01*
X153406886Y-71606886D01*
X153498331Y-71487711D01*
X153555816Y-71348930D01*
X153575423Y-71200000D01*
X157624577Y-71200000D01*
X157644184Y-71348930D01*
X157701669Y-71487711D01*
X157793114Y-71606886D01*
X157912288Y-71698331D01*
X158051070Y-71755816D01*
X158057498Y-71756662D01*
X158057501Y-71756663D01*
X158193566Y-71774576D01*
X158200000Y-71775423D01*
X158206434Y-71774576D01*
X158342499Y-71756663D01*
X158342502Y-71756662D01*
X158348930Y-71755816D01*
X158487712Y-71698331D01*
X158606886Y-71606886D01*
X158698331Y-71487711D01*
X158755816Y-71348930D01*
X158775423Y-71200000D01*
X158755816Y-71051070D01*
X158698331Y-70912289D01*
X158606886Y-70793114D01*
X158487712Y-70701669D01*
X158348930Y-70644184D01*
X158342502Y-70643338D01*
X158342499Y-70643337D01*
X158206434Y-70625424D01*
X158200000Y-70624577D01*
X158051070Y-70644184D01*
X157912289Y-70701669D01*
X157793114Y-70793114D01*
X157701669Y-70912289D01*
X157644184Y-71051070D01*
X157624577Y-71200000D01*
X153575423Y-71200000D01*
X153555816Y-71051070D01*
X153498331Y-70912289D01*
X153406886Y-70793114D01*
X153287712Y-70701669D01*
X153148930Y-70644184D01*
X153142502Y-70643338D01*
X153142499Y-70643337D01*
X153006434Y-70625424D01*
X153000000Y-70624577D01*
X152851070Y-70644184D01*
X152712289Y-70701669D01*
X152593114Y-70793114D01*
X152501669Y-70912289D01*
X152444184Y-71051070D01*
X152424577Y-71200000D01*
X143562258Y-71200000D01*
X143555816Y-71151070D01*
X143498331Y-71012289D01*
X143406886Y-70893114D01*
X143287712Y-70801669D01*
X143148930Y-70744184D01*
X143142502Y-70743338D01*
X143142499Y-70743337D01*
X143006434Y-70725424D01*
X143000000Y-70724577D01*
X142851070Y-70744184D01*
X142712289Y-70801669D01*
X142593114Y-70893114D01*
X142501669Y-71012289D01*
X142444184Y-71151070D01*
X142424577Y-71300000D01*
X112050019Y-71300000D01*
X112050749Y-71298697D01*
X112109192Y-71194340D01*
X112109193Y-71194338D01*
X112111410Y-71190379D01*
X112168581Y-71021958D01*
X112180871Y-70985754D01*
X112180872Y-70985751D01*
X112182331Y-70981452D01*
X112191490Y-70918284D01*
X112213571Y-70765997D01*
X112213571Y-70765991D01*
X112213991Y-70763098D01*
X112214160Y-70756663D01*
X112215567Y-70702914D01*
X112215567Y-70702909D01*
X112215643Y-70700000D01*
X112215108Y-70694172D01*
X112195869Y-70484809D01*
X112195454Y-70480289D01*
X112174625Y-70406434D01*
X112136799Y-70272311D01*
X112136798Y-70272310D01*
X112135565Y-70267936D01*
X112133557Y-70263864D01*
X112133555Y-70263859D01*
X112052748Y-70100000D01*
X133424577Y-70100000D01*
X133444184Y-70248930D01*
X133501669Y-70387711D01*
X133593114Y-70506886D01*
X133712288Y-70598331D01*
X133851070Y-70655816D01*
X133857498Y-70656662D01*
X133857501Y-70656663D01*
X133993566Y-70674576D01*
X134000000Y-70675423D01*
X134006434Y-70674576D01*
X134142499Y-70656663D01*
X134142502Y-70656662D01*
X134148930Y-70655816D01*
X134287712Y-70598331D01*
X134406886Y-70506886D01*
X134488901Y-70400000D01*
X137424577Y-70400000D01*
X137444184Y-70548930D01*
X137501669Y-70687711D01*
X137593114Y-70806886D01*
X137712288Y-70898331D01*
X137851070Y-70955816D01*
X137857498Y-70956662D01*
X137857501Y-70956663D01*
X137993566Y-70974576D01*
X138000000Y-70975423D01*
X138006434Y-70974576D01*
X138142499Y-70956663D01*
X138142502Y-70956662D01*
X138148930Y-70955816D01*
X138287712Y-70898331D01*
X138406886Y-70806886D01*
X138498331Y-70687711D01*
X138555816Y-70548930D01*
X138575423Y-70400000D01*
X138555816Y-70251070D01*
X138534662Y-70200000D01*
X144824577Y-70200000D01*
X144844184Y-70348930D01*
X144901669Y-70487711D01*
X144993114Y-70606886D01*
X145112288Y-70698331D01*
X145251070Y-70755816D01*
X145257498Y-70756662D01*
X145257501Y-70756663D01*
X145393566Y-70774576D01*
X145400000Y-70775423D01*
X145406434Y-70774576D01*
X145542499Y-70756663D01*
X145542502Y-70756662D01*
X145548930Y-70755816D01*
X145687712Y-70698331D01*
X145806886Y-70606886D01*
X145898331Y-70487711D01*
X145955816Y-70348930D01*
X145975423Y-70200000D01*
X150224577Y-70200000D01*
X150244184Y-70348930D01*
X150301669Y-70487711D01*
X150393114Y-70606886D01*
X150512288Y-70698331D01*
X150651070Y-70755816D01*
X150657498Y-70756662D01*
X150657501Y-70756663D01*
X150793566Y-70774576D01*
X150800000Y-70775423D01*
X150806434Y-70774576D01*
X150942499Y-70756663D01*
X150942502Y-70756662D01*
X150948930Y-70755816D01*
X151087712Y-70698331D01*
X151206886Y-70606886D01*
X151298331Y-70487711D01*
X151355816Y-70348930D01*
X151375423Y-70200000D01*
X151355816Y-70051070D01*
X151298331Y-69912289D01*
X151206886Y-69793114D01*
X151087712Y-69701669D01*
X150948930Y-69644184D01*
X150942502Y-69643338D01*
X150942499Y-69643337D01*
X150806434Y-69625424D01*
X150800000Y-69624577D01*
X150793566Y-69625424D01*
X150774333Y-69627956D01*
X150651070Y-69644184D01*
X150512289Y-69701669D01*
X150393114Y-69793114D01*
X150301669Y-69912289D01*
X150244184Y-70051070D01*
X150224577Y-70200000D01*
X145975423Y-70200000D01*
X145955816Y-70051070D01*
X145898331Y-69912289D01*
X145806886Y-69793114D01*
X145687712Y-69701669D01*
X145548930Y-69644184D01*
X145542502Y-69643338D01*
X145542499Y-69643337D01*
X145406434Y-69625424D01*
X145400000Y-69624577D01*
X145393566Y-69625424D01*
X145374333Y-69627956D01*
X145251070Y-69644184D01*
X145112289Y-69701669D01*
X144993114Y-69793114D01*
X144901669Y-69912289D01*
X144844184Y-70051070D01*
X144824577Y-70200000D01*
X138534662Y-70200000D01*
X138498331Y-70112289D01*
X138406886Y-69993114D01*
X138287712Y-69901669D01*
X138148930Y-69844184D01*
X138142502Y-69843338D01*
X138142499Y-69843337D01*
X138006434Y-69825424D01*
X138000000Y-69824577D01*
X137851070Y-69844184D01*
X137712289Y-69901669D01*
X137593114Y-69993114D01*
X137501669Y-70112289D01*
X137444184Y-70251070D01*
X137424577Y-70400000D01*
X134488901Y-70400000D01*
X134498331Y-70387711D01*
X134555816Y-70248930D01*
X134575423Y-70100000D01*
X134555816Y-69951070D01*
X134498331Y-69812289D01*
X134406886Y-69693114D01*
X134287712Y-69601669D01*
X134148930Y-69544184D01*
X134142502Y-69543338D01*
X134142499Y-69543337D01*
X134006434Y-69525424D01*
X134000000Y-69524577D01*
X133851070Y-69544184D01*
X133712289Y-69601669D01*
X133593114Y-69693114D01*
X133501669Y-69812289D01*
X133444184Y-69951070D01*
X133424577Y-70100000D01*
X112052748Y-70100000D01*
X112039988Y-70074125D01*
X112037980Y-70070053D01*
X111924648Y-69918284D01*
X111908683Y-69896904D01*
X111908682Y-69896903D01*
X111905967Y-69893267D01*
X111855557Y-69846668D01*
X111747279Y-69746577D01*
X111747278Y-69746576D01*
X111743949Y-69743499D01*
X111683915Y-69705620D01*
X111561187Y-69628185D01*
X111557350Y-69625764D01*
X111352421Y-69544006D01*
X111136024Y-69500962D01*
X111062554Y-69500000D01*
X169164099Y-69500000D01*
X169164311Y-69503234D01*
X169183649Y-69798267D01*
X169184083Y-69804896D01*
X169243693Y-70104576D01*
X169341909Y-70393911D01*
X169477050Y-70667950D01*
X169500230Y-70702641D01*
X169635727Y-70905426D01*
X169646805Y-70922006D01*
X169848269Y-71151731D01*
X170077994Y-71353195D01*
X170080696Y-71355000D01*
X170080698Y-71355002D01*
X170127648Y-71386373D01*
X170332050Y-71522950D01*
X170606089Y-71658091D01*
X170895424Y-71756307D01*
X171195104Y-71815917D01*
X171198326Y-71816128D01*
X171198332Y-71816129D01*
X171422082Y-71830794D01*
X171422084Y-71830794D01*
X171423700Y-71830900D01*
X171576300Y-71830900D01*
X171577916Y-71830794D01*
X171577918Y-71830794D01*
X171801668Y-71816129D01*
X171801674Y-71816128D01*
X171804896Y-71815917D01*
X172104576Y-71756307D01*
X172393911Y-71658091D01*
X172667950Y-71522950D01*
X172872352Y-71386373D01*
X172919302Y-71355002D01*
X172919304Y-71355000D01*
X172922006Y-71353195D01*
X173151731Y-71151731D01*
X173353195Y-70922006D01*
X173522950Y-70667951D01*
X173658091Y-70393911D01*
X173756307Y-70104576D01*
X173815917Y-69804896D01*
X173816352Y-69798267D01*
X173835689Y-69503234D01*
X173835901Y-69500000D01*
X173830951Y-69424483D01*
X173816129Y-69198332D01*
X173816128Y-69198326D01*
X173815917Y-69195104D01*
X173756307Y-68895424D01*
X173658091Y-68606089D01*
X173522950Y-68332050D01*
X173353195Y-68077994D01*
X173151731Y-67848269D01*
X172922006Y-67646805D01*
X172855520Y-67602380D01*
X172670654Y-67478857D01*
X172667950Y-67477050D01*
X172393911Y-67341909D01*
X172104576Y-67243693D01*
X171804896Y-67184083D01*
X171801674Y-67183872D01*
X171801668Y-67183871D01*
X171577918Y-67169206D01*
X171577916Y-67169206D01*
X171576300Y-67169100D01*
X171423700Y-67169100D01*
X171422084Y-67169206D01*
X171422082Y-67169206D01*
X171198332Y-67183871D01*
X171198326Y-67183872D01*
X171195104Y-67184083D01*
X170895424Y-67243693D01*
X170606089Y-67341909D01*
X170332050Y-67477050D01*
X170329346Y-67478857D01*
X170144481Y-67602380D01*
X170077994Y-67646805D01*
X169848269Y-67848269D01*
X169646805Y-68077994D01*
X169477050Y-68332049D01*
X169341909Y-68606089D01*
X169340868Y-68609156D01*
X169340866Y-68609161D01*
X169316308Y-68681508D01*
X169243693Y-68895424D01*
X169184083Y-69195104D01*
X169183872Y-69198326D01*
X169183871Y-69198332D01*
X169169049Y-69424483D01*
X169164099Y-69500000D01*
X111062554Y-69500000D01*
X111027347Y-69499539D01*
X110919946Y-69498133D01*
X110919941Y-69498133D01*
X110915406Y-69498074D01*
X110910933Y-69498843D01*
X110910928Y-69498843D01*
X110702435Y-69534668D01*
X110702429Y-69534670D01*
X110697957Y-69535438D01*
X110594457Y-69573621D01*
X110495220Y-69610231D01*
X110495217Y-69610232D01*
X110490957Y-69611804D01*
X110487054Y-69614126D01*
X110487052Y-69614127D01*
X110468064Y-69625424D01*
X110301341Y-69724614D01*
X110297926Y-69727609D01*
X110297923Y-69727611D01*
X110209797Y-69804896D01*
X110135457Y-69870090D01*
X110132649Y-69873652D01*
X110041591Y-69989160D01*
X109998863Y-70043360D01*
X109996749Y-70047378D01*
X109910550Y-70211215D01*
X109896131Y-70238620D01*
X109894787Y-70242949D01*
X109851699Y-70381716D01*
X109830703Y-70449333D01*
X109830169Y-70453843D01*
X109830169Y-70453844D01*
X109809861Y-70625424D01*
X109804770Y-70668440D01*
X104892546Y-70668440D01*
X104875263Y-70458218D01*
X104873941Y-70450232D01*
X104815832Y-70218891D01*
X104813219Y-70211215D01*
X104718108Y-69992474D01*
X104714275Y-69985327D01*
X104622214Y-69843021D01*
X104612024Y-69834740D01*
X104604449Y-69839104D01*
X103754639Y-70688914D01*
X103748585Y-70700797D01*
X103030603Y-70700797D01*
X103031415Y-70699203D01*
X103030619Y-70694172D01*
X102178226Y-69841779D01*
X102166343Y-69835725D01*
X102166044Y-69835772D01*
X102160118Y-69840988D01*
X102083578Y-69953190D01*
X102079576Y-69960236D01*
X101979148Y-70176591D01*
X101976349Y-70184196D01*
X101912607Y-70414041D01*
X101911086Y-70422015D01*
X101885740Y-70659187D01*
X101885542Y-70667278D01*
X79523282Y-70667278D01*
X79658091Y-70393911D01*
X79756307Y-70104576D01*
X79815917Y-69804896D01*
X79816352Y-69798267D01*
X79835689Y-69503234D01*
X79835901Y-69500000D01*
X79834490Y-69478475D01*
X102525400Y-69478475D01*
X102525423Y-69479992D01*
X102528537Y-69484984D01*
X103378914Y-70335361D01*
X103390797Y-70341415D01*
X103395828Y-70340619D01*
X104249381Y-69487066D01*
X104255435Y-69475183D01*
X104255096Y-69473043D01*
X104252062Y-69469342D01*
X104226118Y-69448853D01*
X104219378Y-69444374D01*
X104010550Y-69329095D01*
X104003158Y-69325773D01*
X103778318Y-69246152D01*
X103770479Y-69244081D01*
X103535637Y-69202250D01*
X103527594Y-69201489D01*
X103289069Y-69198575D01*
X103280990Y-69199140D01*
X103045207Y-69235220D01*
X103037321Y-69237099D01*
X102810591Y-69311205D01*
X102803134Y-69314340D01*
X102591551Y-69424483D01*
X102584695Y-69428801D01*
X102533070Y-69467562D01*
X102525400Y-69478475D01*
X79834490Y-69478475D01*
X79830951Y-69424483D01*
X79816129Y-69198332D01*
X79816128Y-69198326D01*
X79815917Y-69195104D01*
X79756307Y-68895424D01*
X79658091Y-68606089D01*
X79522950Y-68332050D01*
X79353195Y-68077994D01*
X79271871Y-67985262D01*
X135596520Y-67985262D01*
X135613759Y-68190553D01*
X135615092Y-68195201D01*
X135615092Y-68195202D01*
X135654333Y-68332050D01*
X135670544Y-68388586D01*
X135764712Y-68571818D01*
X135892677Y-68733270D01*
X135896357Y-68736402D01*
X135896359Y-68736404D01*
X135985851Y-68812567D01*
X136049564Y-68866791D01*
X136053787Y-68869151D01*
X136053791Y-68869154D01*
X136108968Y-68899991D01*
X136229398Y-68967297D01*
X136233996Y-68968791D01*
X136420724Y-69029463D01*
X136420726Y-69029464D01*
X136425329Y-69030959D01*
X136629894Y-69055351D01*
X136634716Y-69054980D01*
X136634719Y-69054980D01*
X136702541Y-69049761D01*
X136835300Y-69039546D01*
X137033725Y-68984145D01*
X137038038Y-68981966D01*
X137038044Y-68981964D01*
X137213289Y-68893441D01*
X137213291Y-68893440D01*
X137217610Y-68891258D01*
X137312297Y-68817281D01*
X137376135Y-68767406D01*
X137376139Y-68767402D01*
X137379951Y-68764424D01*
X137514564Y-68608472D01*
X137533231Y-68575613D01*
X137613934Y-68433550D01*
X137613935Y-68433547D01*
X137616323Y-68429344D01*
X137629882Y-68388586D01*
X137679824Y-68238454D01*
X137679824Y-68238452D01*
X137681351Y-68233863D01*
X137691137Y-68156402D01*
X137706823Y-68032228D01*
X137707171Y-68029474D01*
X137707583Y-68000000D01*
X137706138Y-67985262D01*
X138136520Y-67985262D01*
X138153759Y-68190553D01*
X138155092Y-68195201D01*
X138155092Y-68195202D01*
X138194333Y-68332050D01*
X138210544Y-68388586D01*
X138304712Y-68571818D01*
X138432677Y-68733270D01*
X138436357Y-68736402D01*
X138436359Y-68736404D01*
X138525851Y-68812567D01*
X138589564Y-68866791D01*
X138593787Y-68869151D01*
X138593791Y-68869154D01*
X138648968Y-68899991D01*
X138769398Y-68967297D01*
X138773996Y-68968791D01*
X138960724Y-69029463D01*
X138960726Y-69029464D01*
X138965329Y-69030959D01*
X139169894Y-69055351D01*
X139174716Y-69054980D01*
X139174719Y-69054980D01*
X139242541Y-69049761D01*
X139375300Y-69039546D01*
X139573725Y-68984145D01*
X139578038Y-68981966D01*
X139578044Y-68981964D01*
X139753289Y-68893441D01*
X139753291Y-68893440D01*
X139757610Y-68891258D01*
X139852297Y-68817281D01*
X139916135Y-68767406D01*
X139916139Y-68767402D01*
X139919951Y-68764424D01*
X140054564Y-68608472D01*
X140073231Y-68575613D01*
X140153934Y-68433550D01*
X140153935Y-68433547D01*
X140156323Y-68429344D01*
X140169882Y-68388586D01*
X140219824Y-68238454D01*
X140219824Y-68238452D01*
X140221351Y-68233863D01*
X140231137Y-68156402D01*
X140246823Y-68032228D01*
X140247171Y-68029474D01*
X140247583Y-68000000D01*
X140246138Y-67985262D01*
X140676520Y-67985262D01*
X140693759Y-68190553D01*
X140695092Y-68195201D01*
X140695092Y-68195202D01*
X140734333Y-68332050D01*
X140750544Y-68388586D01*
X140844712Y-68571818D01*
X140972677Y-68733270D01*
X140976357Y-68736402D01*
X140976359Y-68736404D01*
X141065851Y-68812567D01*
X141129564Y-68866791D01*
X141133787Y-68869151D01*
X141133791Y-68869154D01*
X141188968Y-68899991D01*
X141309398Y-68967297D01*
X141313996Y-68968791D01*
X141500724Y-69029463D01*
X141500726Y-69029464D01*
X141505329Y-69030959D01*
X141709894Y-69055351D01*
X141714716Y-69054980D01*
X141714719Y-69054980D01*
X141782541Y-69049761D01*
X141915300Y-69039546D01*
X142113725Y-68984145D01*
X142118038Y-68981966D01*
X142118044Y-68981964D01*
X142293289Y-68893441D01*
X142293291Y-68893440D01*
X142297610Y-68891258D01*
X142392297Y-68817281D01*
X142456135Y-68767406D01*
X142456139Y-68767402D01*
X142459951Y-68764424D01*
X142594564Y-68608472D01*
X142613231Y-68575613D01*
X142693934Y-68433550D01*
X142693935Y-68433547D01*
X142696323Y-68429344D01*
X142709882Y-68388586D01*
X142759824Y-68238454D01*
X142759824Y-68238452D01*
X142761351Y-68233863D01*
X142771137Y-68156402D01*
X142786823Y-68032228D01*
X142787171Y-68029474D01*
X142787583Y-68000000D01*
X142786138Y-67985262D01*
X143216520Y-67985262D01*
X143233759Y-68190553D01*
X143235092Y-68195201D01*
X143235092Y-68195202D01*
X143274333Y-68332050D01*
X143290544Y-68388586D01*
X143384712Y-68571818D01*
X143512677Y-68733270D01*
X143516357Y-68736402D01*
X143516359Y-68736404D01*
X143605851Y-68812567D01*
X143669564Y-68866791D01*
X143673787Y-68869151D01*
X143673791Y-68869154D01*
X143728968Y-68899991D01*
X143849398Y-68967297D01*
X143853996Y-68968791D01*
X144040724Y-69029463D01*
X144040726Y-69029464D01*
X144045329Y-69030959D01*
X144249894Y-69055351D01*
X144254716Y-69054980D01*
X144254719Y-69054980D01*
X144322541Y-69049761D01*
X144455300Y-69039546D01*
X144653725Y-68984145D01*
X144658038Y-68981966D01*
X144658044Y-68981964D01*
X144833289Y-68893441D01*
X144833291Y-68893440D01*
X144837610Y-68891258D01*
X144932297Y-68817281D01*
X144996135Y-68767406D01*
X144996139Y-68767402D01*
X144999951Y-68764424D01*
X145134564Y-68608472D01*
X145153231Y-68575613D01*
X145233934Y-68433550D01*
X145233935Y-68433547D01*
X145236323Y-68429344D01*
X145249882Y-68388586D01*
X145299824Y-68238454D01*
X145299824Y-68238452D01*
X145301351Y-68233863D01*
X145311137Y-68156402D01*
X145326823Y-68032228D01*
X145327171Y-68029474D01*
X145327583Y-68000000D01*
X145326138Y-67985262D01*
X145756520Y-67985262D01*
X145773759Y-68190553D01*
X145775092Y-68195201D01*
X145775092Y-68195202D01*
X145814333Y-68332050D01*
X145830544Y-68388586D01*
X145924712Y-68571818D01*
X146052677Y-68733270D01*
X146056357Y-68736402D01*
X146056359Y-68736404D01*
X146145851Y-68812567D01*
X146209564Y-68866791D01*
X146213787Y-68869151D01*
X146213791Y-68869154D01*
X146268968Y-68899991D01*
X146389398Y-68967297D01*
X146393996Y-68968791D01*
X146580724Y-69029463D01*
X146580726Y-69029464D01*
X146585329Y-69030959D01*
X146789894Y-69055351D01*
X146794716Y-69054980D01*
X146794719Y-69054980D01*
X146862541Y-69049761D01*
X146995300Y-69039546D01*
X147193725Y-68984145D01*
X147198038Y-68981966D01*
X147198044Y-68981964D01*
X147373289Y-68893441D01*
X147373291Y-68893440D01*
X147377610Y-68891258D01*
X147472297Y-68817281D01*
X147536135Y-68767406D01*
X147536139Y-68767402D01*
X147539951Y-68764424D01*
X147674564Y-68608472D01*
X147693231Y-68575613D01*
X147773934Y-68433550D01*
X147773935Y-68433547D01*
X147776323Y-68429344D01*
X147789882Y-68388586D01*
X147839824Y-68238454D01*
X147839824Y-68238452D01*
X147841351Y-68233863D01*
X147851137Y-68156402D01*
X147866823Y-68032228D01*
X147867171Y-68029474D01*
X147867583Y-68000000D01*
X147866138Y-67985262D01*
X148296520Y-67985262D01*
X148313759Y-68190553D01*
X148315092Y-68195201D01*
X148315092Y-68195202D01*
X148354333Y-68332050D01*
X148370544Y-68388586D01*
X148464712Y-68571818D01*
X148592677Y-68733270D01*
X148596357Y-68736402D01*
X148596359Y-68736404D01*
X148685851Y-68812567D01*
X148749564Y-68866791D01*
X148753787Y-68869151D01*
X148753791Y-68869154D01*
X148808968Y-68899991D01*
X148929398Y-68967297D01*
X148933996Y-68968791D01*
X149120724Y-69029463D01*
X149120726Y-69029464D01*
X149125329Y-69030959D01*
X149329894Y-69055351D01*
X149334716Y-69054980D01*
X149334719Y-69054980D01*
X149402541Y-69049761D01*
X149535300Y-69039546D01*
X149733725Y-68984145D01*
X149738038Y-68981966D01*
X149738044Y-68981964D01*
X149913289Y-68893441D01*
X149913291Y-68893440D01*
X149917610Y-68891258D01*
X150012297Y-68817281D01*
X150076135Y-68767406D01*
X150076139Y-68767402D01*
X150079951Y-68764424D01*
X150214564Y-68608472D01*
X150233231Y-68575613D01*
X150313934Y-68433550D01*
X150313935Y-68433547D01*
X150316323Y-68429344D01*
X150329882Y-68388586D01*
X150379824Y-68238454D01*
X150379824Y-68238452D01*
X150381351Y-68233863D01*
X150391137Y-68156402D01*
X150406823Y-68032228D01*
X150407171Y-68029474D01*
X150407583Y-68000000D01*
X150406138Y-67985262D01*
X150836520Y-67985262D01*
X150853759Y-68190553D01*
X150855092Y-68195201D01*
X150855092Y-68195202D01*
X150894333Y-68332050D01*
X150910544Y-68388586D01*
X151004712Y-68571818D01*
X151132677Y-68733270D01*
X151136357Y-68736402D01*
X151136359Y-68736404D01*
X151225851Y-68812567D01*
X151289564Y-68866791D01*
X151293787Y-68869151D01*
X151293791Y-68869154D01*
X151348968Y-68899991D01*
X151469398Y-68967297D01*
X151473996Y-68968791D01*
X151660724Y-69029463D01*
X151660726Y-69029464D01*
X151665329Y-69030959D01*
X151869894Y-69055351D01*
X151874716Y-69054980D01*
X151874719Y-69054980D01*
X151942541Y-69049761D01*
X152075300Y-69039546D01*
X152273725Y-68984145D01*
X152278038Y-68981966D01*
X152278044Y-68981964D01*
X152453289Y-68893441D01*
X152453291Y-68893440D01*
X152457610Y-68891258D01*
X152552297Y-68817281D01*
X152616135Y-68767406D01*
X152616139Y-68767402D01*
X152619951Y-68764424D01*
X152754564Y-68608472D01*
X152773231Y-68575613D01*
X152853934Y-68433550D01*
X152853935Y-68433547D01*
X152856323Y-68429344D01*
X152869882Y-68388586D01*
X152919824Y-68238454D01*
X152919824Y-68238452D01*
X152921351Y-68233863D01*
X152931137Y-68156402D01*
X152946823Y-68032228D01*
X152947171Y-68029474D01*
X152947583Y-68000000D01*
X152946138Y-67985262D01*
X153376520Y-67985262D01*
X153393759Y-68190553D01*
X153395092Y-68195201D01*
X153395092Y-68195202D01*
X153434333Y-68332050D01*
X153450544Y-68388586D01*
X153544712Y-68571818D01*
X153672677Y-68733270D01*
X153676357Y-68736402D01*
X153676359Y-68736404D01*
X153765851Y-68812567D01*
X153829564Y-68866791D01*
X153833787Y-68869151D01*
X153833791Y-68869154D01*
X153888968Y-68899991D01*
X154009398Y-68967297D01*
X154013996Y-68968791D01*
X154200724Y-69029463D01*
X154200726Y-69029464D01*
X154205329Y-69030959D01*
X154409894Y-69055351D01*
X154414716Y-69054980D01*
X154414719Y-69054980D01*
X154482541Y-69049761D01*
X154615300Y-69039546D01*
X154813725Y-68984145D01*
X154818038Y-68981966D01*
X154818044Y-68981964D01*
X154993289Y-68893441D01*
X154993291Y-68893440D01*
X154997610Y-68891258D01*
X155092297Y-68817281D01*
X155156135Y-68767406D01*
X155156139Y-68767402D01*
X155159951Y-68764424D01*
X155294564Y-68608472D01*
X155313231Y-68575613D01*
X155393934Y-68433550D01*
X155393935Y-68433547D01*
X155396323Y-68429344D01*
X155409882Y-68388586D01*
X155459824Y-68238454D01*
X155459824Y-68238452D01*
X155461351Y-68233863D01*
X155471137Y-68156402D01*
X155486823Y-68032228D01*
X155487171Y-68029474D01*
X155487583Y-68000000D01*
X155486138Y-67985262D01*
X155916520Y-67985262D01*
X155933759Y-68190553D01*
X155935092Y-68195201D01*
X155935092Y-68195202D01*
X155974333Y-68332050D01*
X155990544Y-68388586D01*
X156084712Y-68571818D01*
X156212677Y-68733270D01*
X156216357Y-68736402D01*
X156216359Y-68736404D01*
X156305851Y-68812567D01*
X156369564Y-68866791D01*
X156373787Y-68869151D01*
X156373791Y-68869154D01*
X156428968Y-68899991D01*
X156549398Y-68967297D01*
X156553996Y-68968791D01*
X156740724Y-69029463D01*
X156740726Y-69029464D01*
X156745329Y-69030959D01*
X156949894Y-69055351D01*
X156954716Y-69054980D01*
X156954719Y-69054980D01*
X157022541Y-69049761D01*
X157155300Y-69039546D01*
X157353725Y-68984145D01*
X157358038Y-68981966D01*
X157358044Y-68981964D01*
X157533289Y-68893441D01*
X157533291Y-68893440D01*
X157537610Y-68891258D01*
X157632297Y-68817281D01*
X157696135Y-68767406D01*
X157696139Y-68767402D01*
X157699951Y-68764424D01*
X157834564Y-68608472D01*
X157853231Y-68575613D01*
X157933934Y-68433550D01*
X157933935Y-68433547D01*
X157936323Y-68429344D01*
X157949882Y-68388586D01*
X157969061Y-68330930D01*
X158005370Y-68281682D01*
X158063691Y-68263181D01*
X158121748Y-68282495D01*
X158157366Y-68332244D01*
X158162000Y-68362179D01*
X158162000Y-68894657D01*
X158162289Y-68899991D01*
X158167971Y-68952298D01*
X158170822Y-68964287D01*
X158216443Y-69085982D01*
X158223143Y-69098219D01*
X158300581Y-69201545D01*
X158310455Y-69211419D01*
X158413781Y-69288857D01*
X158426018Y-69295557D01*
X158547713Y-69341178D01*
X158559702Y-69344029D01*
X158612009Y-69349711D01*
X158617343Y-69350000D01*
X159246320Y-69350000D01*
X159259005Y-69345878D01*
X159262000Y-69341757D01*
X159262000Y-69334320D01*
X159762000Y-69334320D01*
X159766122Y-69347005D01*
X159770243Y-69350000D01*
X160406657Y-69350000D01*
X160411991Y-69349711D01*
X160464298Y-69344029D01*
X160476287Y-69341178D01*
X160597982Y-69295557D01*
X160610219Y-69288857D01*
X160713545Y-69211419D01*
X160723419Y-69201545D01*
X160800857Y-69098219D01*
X160807557Y-69085982D01*
X160853178Y-68964287D01*
X160856029Y-68952298D01*
X160861711Y-68899991D01*
X160862000Y-68894657D01*
X160862000Y-68265680D01*
X160857878Y-68252995D01*
X160853757Y-68250000D01*
X159777680Y-68250000D01*
X159764995Y-68254122D01*
X159762000Y-68258243D01*
X159762000Y-69334320D01*
X159262000Y-69334320D01*
X159262000Y-67734320D01*
X159762000Y-67734320D01*
X159766122Y-67747005D01*
X159770243Y-67750000D01*
X160846320Y-67750000D01*
X160859005Y-67745878D01*
X160862000Y-67741757D01*
X160862000Y-67105343D01*
X160861711Y-67100009D01*
X160856029Y-67047702D01*
X160853178Y-67035713D01*
X160807557Y-66914018D01*
X160800857Y-66901781D01*
X160723419Y-66798455D01*
X160713545Y-66788581D01*
X160610219Y-66711143D01*
X160597982Y-66704443D01*
X160476287Y-66658822D01*
X160464298Y-66655971D01*
X160411991Y-66650289D01*
X160406657Y-66650000D01*
X159777680Y-66650000D01*
X159764995Y-66654122D01*
X159762000Y-66658243D01*
X159762000Y-67734320D01*
X159262000Y-67734320D01*
X159262000Y-66665680D01*
X159257878Y-66652995D01*
X159253757Y-66650000D01*
X158617343Y-66650000D01*
X158612009Y-66650289D01*
X158559702Y-66655971D01*
X158547713Y-66658822D01*
X158426018Y-66704443D01*
X158413781Y-66711143D01*
X158310455Y-66788581D01*
X158300581Y-66798455D01*
X158223143Y-66901781D01*
X158216443Y-66914018D01*
X158170822Y-67035713D01*
X158167971Y-67047702D01*
X158162289Y-67100009D01*
X158162000Y-67105343D01*
X158162000Y-67636338D01*
X158143093Y-67694529D01*
X158093593Y-67730493D01*
X158032407Y-67730493D01*
X157982907Y-67694529D01*
X157968225Y-67664952D01*
X157949333Y-67602381D01*
X157949333Y-67602380D01*
X157947935Y-67597749D01*
X157851218Y-67415849D01*
X157721011Y-67256200D01*
X157704790Y-67242781D01*
X157566002Y-67127965D01*
X157566000Y-67127964D01*
X157562275Y-67124882D01*
X157381055Y-67026897D01*
X157317855Y-67007333D01*
X157188875Y-66967407D01*
X157188871Y-66967406D01*
X157184254Y-66965977D01*
X157179446Y-66965472D01*
X157179443Y-66965471D01*
X156984185Y-66944949D01*
X156984183Y-66944949D01*
X156979369Y-66944443D01*
X156919354Y-66949905D01*
X156779022Y-66962675D01*
X156779017Y-66962676D01*
X156774203Y-66963114D01*
X156576572Y-67021280D01*
X156572288Y-67023519D01*
X156572287Y-67023520D01*
X156561646Y-67029083D01*
X156394002Y-67116726D01*
X156390231Y-67119758D01*
X156237220Y-67242781D01*
X156237217Y-67242783D01*
X156233447Y-67245815D01*
X156230333Y-67249526D01*
X156230332Y-67249527D01*
X156201533Y-67283849D01*
X156101024Y-67403630D01*
X156098689Y-67407878D01*
X156098688Y-67407879D01*
X156091955Y-67420126D01*
X156001776Y-67584162D01*
X156000313Y-67588775D01*
X156000311Y-67588779D01*
X155981225Y-67648947D01*
X155939484Y-67780532D01*
X155938944Y-67785344D01*
X155938944Y-67785345D01*
X155931612Y-67850716D01*
X155916520Y-67985262D01*
X155486138Y-67985262D01*
X155483590Y-67959272D01*
X155467952Y-67799780D01*
X155467951Y-67799776D01*
X155467480Y-67794970D01*
X155452999Y-67747005D01*
X155409333Y-67602380D01*
X155407935Y-67597749D01*
X155311218Y-67415849D01*
X155181011Y-67256200D01*
X155164790Y-67242781D01*
X155026002Y-67127965D01*
X155026000Y-67127964D01*
X155022275Y-67124882D01*
X154841055Y-67026897D01*
X154777855Y-67007333D01*
X154648875Y-66967407D01*
X154648871Y-66967406D01*
X154644254Y-66965977D01*
X154639446Y-66965472D01*
X154639443Y-66965471D01*
X154444185Y-66944949D01*
X154444183Y-66944949D01*
X154439369Y-66944443D01*
X154379354Y-66949905D01*
X154239022Y-66962675D01*
X154239017Y-66962676D01*
X154234203Y-66963114D01*
X154036572Y-67021280D01*
X154032288Y-67023519D01*
X154032287Y-67023520D01*
X154021646Y-67029083D01*
X153854002Y-67116726D01*
X153850231Y-67119758D01*
X153697220Y-67242781D01*
X153697217Y-67242783D01*
X153693447Y-67245815D01*
X153690333Y-67249526D01*
X153690332Y-67249527D01*
X153661533Y-67283849D01*
X153561024Y-67403630D01*
X153558689Y-67407878D01*
X153558688Y-67407879D01*
X153551955Y-67420126D01*
X153461776Y-67584162D01*
X153460313Y-67588775D01*
X153460311Y-67588779D01*
X153441225Y-67648947D01*
X153399484Y-67780532D01*
X153398944Y-67785344D01*
X153398944Y-67785345D01*
X153391612Y-67850716D01*
X153376520Y-67985262D01*
X152946138Y-67985262D01*
X152943590Y-67959272D01*
X152927952Y-67799780D01*
X152927951Y-67799776D01*
X152927480Y-67794970D01*
X152912999Y-67747005D01*
X152869333Y-67602380D01*
X152867935Y-67597749D01*
X152771218Y-67415849D01*
X152641011Y-67256200D01*
X152624790Y-67242781D01*
X152486002Y-67127965D01*
X152486000Y-67127964D01*
X152482275Y-67124882D01*
X152301055Y-67026897D01*
X152237855Y-67007333D01*
X152108875Y-66967407D01*
X152108871Y-66967406D01*
X152104254Y-66965977D01*
X152099446Y-66965472D01*
X152099443Y-66965471D01*
X151904185Y-66944949D01*
X151904183Y-66944949D01*
X151899369Y-66944443D01*
X151839354Y-66949905D01*
X151699022Y-66962675D01*
X151699017Y-66962676D01*
X151694203Y-66963114D01*
X151496572Y-67021280D01*
X151492288Y-67023519D01*
X151492287Y-67023520D01*
X151481646Y-67029083D01*
X151314002Y-67116726D01*
X151310231Y-67119758D01*
X151157220Y-67242781D01*
X151157217Y-67242783D01*
X151153447Y-67245815D01*
X151150333Y-67249526D01*
X151150332Y-67249527D01*
X151121533Y-67283849D01*
X151021024Y-67403630D01*
X151018689Y-67407878D01*
X151018688Y-67407879D01*
X151011955Y-67420126D01*
X150921776Y-67584162D01*
X150920313Y-67588775D01*
X150920311Y-67588779D01*
X150901225Y-67648947D01*
X150859484Y-67780532D01*
X150858944Y-67785344D01*
X150858944Y-67785345D01*
X150851612Y-67850716D01*
X150836520Y-67985262D01*
X150406138Y-67985262D01*
X150403590Y-67959272D01*
X150387952Y-67799780D01*
X150387951Y-67799776D01*
X150387480Y-67794970D01*
X150372999Y-67747005D01*
X150329333Y-67602380D01*
X150327935Y-67597749D01*
X150231218Y-67415849D01*
X150101011Y-67256200D01*
X150084790Y-67242781D01*
X149946002Y-67127965D01*
X149946000Y-67127964D01*
X149942275Y-67124882D01*
X149761055Y-67026897D01*
X149697855Y-67007333D01*
X149568875Y-66967407D01*
X149568871Y-66967406D01*
X149564254Y-66965977D01*
X149559446Y-66965472D01*
X149559443Y-66965471D01*
X149364185Y-66944949D01*
X149364183Y-66944949D01*
X149359369Y-66944443D01*
X149299354Y-66949905D01*
X149159022Y-66962675D01*
X149159017Y-66962676D01*
X149154203Y-66963114D01*
X148956572Y-67021280D01*
X148952288Y-67023519D01*
X148952287Y-67023520D01*
X148941646Y-67029083D01*
X148774002Y-67116726D01*
X148770231Y-67119758D01*
X148617220Y-67242781D01*
X148617217Y-67242783D01*
X148613447Y-67245815D01*
X148610333Y-67249526D01*
X148610332Y-67249527D01*
X148581533Y-67283849D01*
X148481024Y-67403630D01*
X148478689Y-67407878D01*
X148478688Y-67407879D01*
X148471955Y-67420126D01*
X148381776Y-67584162D01*
X148380313Y-67588775D01*
X148380311Y-67588779D01*
X148361225Y-67648947D01*
X148319484Y-67780532D01*
X148318944Y-67785344D01*
X148318944Y-67785345D01*
X148311612Y-67850716D01*
X148296520Y-67985262D01*
X147866138Y-67985262D01*
X147863590Y-67959272D01*
X147847952Y-67799780D01*
X147847951Y-67799776D01*
X147847480Y-67794970D01*
X147832999Y-67747005D01*
X147789333Y-67602380D01*
X147787935Y-67597749D01*
X147691218Y-67415849D01*
X147561011Y-67256200D01*
X147544790Y-67242781D01*
X147406002Y-67127965D01*
X147406000Y-67127964D01*
X147402275Y-67124882D01*
X147221055Y-67026897D01*
X147157855Y-67007333D01*
X147028875Y-66967407D01*
X147028871Y-66967406D01*
X147024254Y-66965977D01*
X147019446Y-66965472D01*
X147019443Y-66965471D01*
X146824185Y-66944949D01*
X146824183Y-66944949D01*
X146819369Y-66944443D01*
X146759354Y-66949905D01*
X146619022Y-66962675D01*
X146619017Y-66962676D01*
X146614203Y-66963114D01*
X146416572Y-67021280D01*
X146412288Y-67023519D01*
X146412287Y-67023520D01*
X146401646Y-67029083D01*
X146234002Y-67116726D01*
X146230231Y-67119758D01*
X146077220Y-67242781D01*
X146077217Y-67242783D01*
X146073447Y-67245815D01*
X146070333Y-67249526D01*
X146070332Y-67249527D01*
X146041533Y-67283849D01*
X145941024Y-67403630D01*
X145938689Y-67407878D01*
X145938688Y-67407879D01*
X145931955Y-67420126D01*
X145841776Y-67584162D01*
X145840313Y-67588775D01*
X145840311Y-67588779D01*
X145821225Y-67648947D01*
X145779484Y-67780532D01*
X145778944Y-67785344D01*
X145778944Y-67785345D01*
X145771612Y-67850716D01*
X145756520Y-67985262D01*
X145326138Y-67985262D01*
X145323590Y-67959272D01*
X145307952Y-67799780D01*
X145307951Y-67799776D01*
X145307480Y-67794970D01*
X145292999Y-67747005D01*
X145249333Y-67602380D01*
X145247935Y-67597749D01*
X145151218Y-67415849D01*
X145021011Y-67256200D01*
X145004790Y-67242781D01*
X144866002Y-67127965D01*
X144866000Y-67127964D01*
X144862275Y-67124882D01*
X144681055Y-67026897D01*
X144617855Y-67007333D01*
X144488875Y-66967407D01*
X144488871Y-66967406D01*
X144484254Y-66965977D01*
X144479446Y-66965472D01*
X144479443Y-66965471D01*
X144284185Y-66944949D01*
X144284183Y-66944949D01*
X144279369Y-66944443D01*
X144219354Y-66949905D01*
X144079022Y-66962675D01*
X144079017Y-66962676D01*
X144074203Y-66963114D01*
X143876572Y-67021280D01*
X143872288Y-67023519D01*
X143872287Y-67023520D01*
X143861646Y-67029083D01*
X143694002Y-67116726D01*
X143690231Y-67119758D01*
X143537220Y-67242781D01*
X143537217Y-67242783D01*
X143533447Y-67245815D01*
X143530333Y-67249526D01*
X143530332Y-67249527D01*
X143501533Y-67283849D01*
X143401024Y-67403630D01*
X143398689Y-67407878D01*
X143398688Y-67407879D01*
X143391955Y-67420126D01*
X143301776Y-67584162D01*
X143300313Y-67588775D01*
X143300311Y-67588779D01*
X143281225Y-67648947D01*
X143239484Y-67780532D01*
X143238944Y-67785344D01*
X143238944Y-67785345D01*
X143231612Y-67850716D01*
X143216520Y-67985262D01*
X142786138Y-67985262D01*
X142783590Y-67959272D01*
X142767952Y-67799780D01*
X142767951Y-67799776D01*
X142767480Y-67794970D01*
X142752999Y-67747005D01*
X142709333Y-67602380D01*
X142707935Y-67597749D01*
X142611218Y-67415849D01*
X142481011Y-67256200D01*
X142464790Y-67242781D01*
X142326002Y-67127965D01*
X142326000Y-67127964D01*
X142322275Y-67124882D01*
X142141055Y-67026897D01*
X142077855Y-67007333D01*
X141948875Y-66967407D01*
X141948871Y-66967406D01*
X141944254Y-66965977D01*
X141939446Y-66965472D01*
X141939443Y-66965471D01*
X141744185Y-66944949D01*
X141744183Y-66944949D01*
X141739369Y-66944443D01*
X141679354Y-66949905D01*
X141539022Y-66962675D01*
X141539017Y-66962676D01*
X141534203Y-66963114D01*
X141336572Y-67021280D01*
X141332288Y-67023519D01*
X141332287Y-67023520D01*
X141321646Y-67029083D01*
X141154002Y-67116726D01*
X141150231Y-67119758D01*
X140997220Y-67242781D01*
X140997217Y-67242783D01*
X140993447Y-67245815D01*
X140990333Y-67249526D01*
X140990332Y-67249527D01*
X140961533Y-67283849D01*
X140861024Y-67403630D01*
X140858689Y-67407878D01*
X140858688Y-67407879D01*
X140851955Y-67420126D01*
X140761776Y-67584162D01*
X140760313Y-67588775D01*
X140760311Y-67588779D01*
X140741225Y-67648947D01*
X140699484Y-67780532D01*
X140698944Y-67785344D01*
X140698944Y-67785345D01*
X140691612Y-67850716D01*
X140676520Y-67985262D01*
X140246138Y-67985262D01*
X140243590Y-67959272D01*
X140227952Y-67799780D01*
X140227951Y-67799776D01*
X140227480Y-67794970D01*
X140212999Y-67747005D01*
X140169333Y-67602380D01*
X140167935Y-67597749D01*
X140071218Y-67415849D01*
X139941011Y-67256200D01*
X139924790Y-67242781D01*
X139786002Y-67127965D01*
X139786000Y-67127964D01*
X139782275Y-67124882D01*
X139601055Y-67026897D01*
X139537855Y-67007333D01*
X139408875Y-66967407D01*
X139408871Y-66967406D01*
X139404254Y-66965977D01*
X139399446Y-66965472D01*
X139399443Y-66965471D01*
X139204185Y-66944949D01*
X139204183Y-66944949D01*
X139199369Y-66944443D01*
X139139354Y-66949905D01*
X138999022Y-66962675D01*
X138999017Y-66962676D01*
X138994203Y-66963114D01*
X138796572Y-67021280D01*
X138792288Y-67023519D01*
X138792287Y-67023520D01*
X138781646Y-67029083D01*
X138614002Y-67116726D01*
X138610231Y-67119758D01*
X138457220Y-67242781D01*
X138457217Y-67242783D01*
X138453447Y-67245815D01*
X138450333Y-67249526D01*
X138450332Y-67249527D01*
X138421533Y-67283849D01*
X138321024Y-67403630D01*
X138318689Y-67407878D01*
X138318688Y-67407879D01*
X138311955Y-67420126D01*
X138221776Y-67584162D01*
X138220313Y-67588775D01*
X138220311Y-67588779D01*
X138201225Y-67648947D01*
X138159484Y-67780532D01*
X138158944Y-67785344D01*
X138158944Y-67785345D01*
X138151612Y-67850716D01*
X138136520Y-67985262D01*
X137706138Y-67985262D01*
X137703590Y-67959272D01*
X137687952Y-67799780D01*
X137687951Y-67799776D01*
X137687480Y-67794970D01*
X137672999Y-67747005D01*
X137629333Y-67602380D01*
X137627935Y-67597749D01*
X137531218Y-67415849D01*
X137401011Y-67256200D01*
X137384790Y-67242781D01*
X137246002Y-67127965D01*
X137246000Y-67127964D01*
X137242275Y-67124882D01*
X137061055Y-67026897D01*
X136997855Y-67007333D01*
X136868875Y-66967407D01*
X136868871Y-66967406D01*
X136864254Y-66965977D01*
X136859446Y-66965472D01*
X136859443Y-66965471D01*
X136664185Y-66944949D01*
X136664183Y-66944949D01*
X136659369Y-66944443D01*
X136599354Y-66949905D01*
X136459022Y-66962675D01*
X136459017Y-66962676D01*
X136454203Y-66963114D01*
X136256572Y-67021280D01*
X136252288Y-67023519D01*
X136252287Y-67023520D01*
X136241646Y-67029083D01*
X136074002Y-67116726D01*
X136070231Y-67119758D01*
X135917220Y-67242781D01*
X135917217Y-67242783D01*
X135913447Y-67245815D01*
X135910333Y-67249526D01*
X135910332Y-67249527D01*
X135881533Y-67283849D01*
X135781024Y-67403630D01*
X135778689Y-67407878D01*
X135778688Y-67407879D01*
X135771955Y-67420126D01*
X135681776Y-67584162D01*
X135680313Y-67588775D01*
X135680311Y-67588779D01*
X135661225Y-67648947D01*
X135619484Y-67780532D01*
X135618944Y-67785344D01*
X135618944Y-67785345D01*
X135611612Y-67850716D01*
X135596520Y-67985262D01*
X79271871Y-67985262D01*
X79151731Y-67848269D01*
X78922006Y-67646805D01*
X78855520Y-67602380D01*
X78670654Y-67478857D01*
X78667950Y-67477050D01*
X78393911Y-67341909D01*
X78104576Y-67243693D01*
X77804896Y-67184083D01*
X77801674Y-67183872D01*
X77801668Y-67183871D01*
X77577918Y-67169206D01*
X77577916Y-67169206D01*
X77576300Y-67169100D01*
X77423700Y-67169100D01*
X77422084Y-67169206D01*
X77422082Y-67169206D01*
X77198332Y-67183871D01*
X77198326Y-67183872D01*
X77195104Y-67184083D01*
X76895424Y-67243693D01*
X76606089Y-67341909D01*
X76332050Y-67477050D01*
X76329346Y-67478857D01*
X76144481Y-67602380D01*
X76077994Y-67646805D01*
X75848269Y-67848269D01*
X75646805Y-68077994D01*
X75477050Y-68332049D01*
X75341909Y-68606089D01*
X75340868Y-68609156D01*
X75340866Y-68609161D01*
X75316308Y-68681508D01*
X75243693Y-68895424D01*
X75184083Y-69195104D01*
X75183872Y-69198326D01*
X75183871Y-69198332D01*
X75169049Y-69424483D01*
X75164099Y-69500000D01*
X74005647Y-69500000D01*
X74004763Y-69493823D01*
X74003162Y-69482645D01*
X74002281Y-69463754D01*
X74017113Y-69161838D01*
X74018066Y-69152170D01*
X74067028Y-68822096D01*
X74068923Y-68812567D01*
X74150005Y-68488869D01*
X74152825Y-68479572D01*
X74265246Y-68165378D01*
X74268964Y-68156402D01*
X74411639Y-67854741D01*
X74416219Y-67846173D01*
X74587774Y-67559950D01*
X74593163Y-67551884D01*
X74791967Y-67283828D01*
X74798099Y-67276356D01*
X75022219Y-67029078D01*
X75029083Y-67022214D01*
X75031620Y-67019915D01*
X75276356Y-66798099D01*
X75283828Y-66791967D01*
X75551884Y-66593163D01*
X75559950Y-66587774D01*
X75846173Y-66416219D01*
X75854741Y-66411639D01*
X76156402Y-66268964D01*
X76165378Y-66265246D01*
X76479572Y-66152825D01*
X76488869Y-66150005D01*
X76812567Y-66068923D01*
X76822096Y-66067028D01*
X77152170Y-66018066D01*
X77161838Y-66017113D01*
X77460265Y-66002452D01*
X77480346Y-66003511D01*
X77493823Y-66005609D01*
X77500820Y-66004694D01*
X77500821Y-66004694D01*
X77526500Y-66001336D01*
X77539336Y-66000500D01*
X171453351Y-66000500D01*
X171468581Y-66001679D01*
G37*
%TD.AperFunction*%
%TD*%
M02*
