%TF.GenerationSoftware,KiCad,Pcbnew,(6.0.6)*%
%TF.CreationDate,2023-01-28T17:13:44-04:00*%
%TF.ProjectId,DDS_FunctionGenerator,4444535f-4675-46e6-9374-696f6e47656e,rev?*%
%TF.SameCoordinates,Original*%
%TF.FileFunction,Paste,Top*%
%TF.FilePolarity,Positive*%
%FSLAX46Y46*%
G04 Gerber Fmt 4.6, Leading zero omitted, Abs format (unit mm)*
G04 Created by KiCad (PCBNEW (6.0.6)) date 2023-01-28 17:13:44*
%MOMM*%
%LPD*%
G01*
G04 APERTURE LIST*
G04 Aperture macros list*
%AMRoundRect*
0 Rectangle with rounded corners*
0 $1 Rounding radius*
0 $2 $3 $4 $5 $6 $7 $8 $9 X,Y pos of 4 corners*
0 Add a 4 corners polygon primitive as box body*
4,1,4,$2,$3,$4,$5,$6,$7,$8,$9,$2,$3,0*
0 Add four circle primitives for the rounded corners*
1,1,$1+$1,$2,$3*
1,1,$1+$1,$4,$5*
1,1,$1+$1,$6,$7*
1,1,$1+$1,$8,$9*
0 Add four rect primitives between the rounded corners*
20,1,$1+$1,$2,$3,$4,$5,0*
20,1,$1+$1,$4,$5,$6,$7,0*
20,1,$1+$1,$6,$7,$8,$9,0*
20,1,$1+$1,$8,$9,$2,$3,0*%
G04 Aperture macros list end*
%ADD10RoundRect,0.120000X-0.330000X0.280000X-0.330000X-0.280000X0.330000X-0.280000X0.330000X0.280000X0*%
%ADD11RoundRect,0.120000X0.330000X-0.280000X0.330000X0.280000X-0.330000X0.280000X-0.330000X-0.280000X0*%
%ADD12RoundRect,0.120000X0.280000X0.330000X-0.280000X0.330000X-0.280000X-0.330000X0.280000X-0.330000X0*%
%ADD13RoundRect,0.085000X-0.340000X0.340000X-0.340000X-0.340000X0.340000X-0.340000X0.340000X0.340000X0*%
%ADD14RoundRect,0.200000X-0.200000X-0.250000X0.200000X-0.250000X0.200000X0.250000X-0.200000X0.250000X0*%
%ADD15RoundRect,0.114300X-0.266700X0.457200X-0.266700X-0.457200X0.266700X-0.457200X0.266700X0.457200X0*%
%ADD16RoundRect,0.120000X-0.280000X-0.330000X0.280000X-0.330000X0.280000X0.330000X-0.280000X0.330000X0*%
%ADD17RoundRect,0.030000X0.295000X0.120000X-0.295000X0.120000X-0.295000X-0.120000X0.295000X-0.120000X0*%
%ADD18RoundRect,0.030000X-0.295000X-0.120000X0.295000X-0.120000X0.295000X0.120000X-0.295000X0.120000X0*%
%ADD19RoundRect,0.085000X0.765000X1.165000X-0.765000X1.165000X-0.765000X-1.165000X0.765000X-1.165000X0*%
%ADD20RoundRect,0.165000X0.385000X1.085000X-0.385000X1.085000X-0.385000X-1.085000X0.385000X-1.085000X0*%
%ADD21RoundRect,0.100000X0.200000X-0.510000X0.200000X0.510000X-0.200000X0.510000X-0.200000X-0.510000X0*%
%ADD22RoundRect,0.120000X-0.426612X-0.072814X0.002373X-0.432775X0.426612X0.072814X-0.002373X0.432775X0*%
%ADD23RoundRect,0.040000X-0.210000X0.235000X-0.210000X-0.235000X0.210000X-0.235000X0.210000X0.235000X0*%
%ADD24RoundRect,0.160000X-1.590000X-0.640000X1.590000X-0.640000X1.590000X0.640000X-1.590000X0.640000X0*%
%ADD25RoundRect,0.135000X-0.515000X0.315000X-0.515000X-0.315000X0.515000X-0.315000X0.515000X0.315000X0*%
%ADD26RoundRect,0.232000X2.468000X1.218000X-2.468000X1.218000X-2.468000X-1.218000X2.468000X-1.218000X0*%
%ADD27RoundRect,0.120000X0.180000X-0.280000X0.180000X0.280000X-0.180000X0.280000X-0.180000X-0.280000X0*%
%ADD28RoundRect,0.100000X-0.100000X0.637500X-0.100000X-0.637500X0.100000X-0.637500X0.100000X0.637500X0*%
%ADD29RoundRect,0.085000X0.340000X-0.340000X0.340000X0.340000X-0.340000X0.340000X-0.340000X-0.340000X0*%
%ADD30RoundRect,0.120000X0.280000X0.180000X-0.280000X0.180000X-0.280000X-0.180000X0.280000X-0.180000X0*%
%ADD31RoundRect,0.040000X-0.235000X-0.210000X0.235000X-0.210000X0.235000X0.210000X-0.235000X0.210000X0*%
%ADD32RoundRect,0.135000X-0.315000X-0.515000X0.315000X-0.515000X0.315000X0.515000X-0.315000X0.515000X0*%
%ADD33RoundRect,0.135000X0.315000X0.515000X-0.315000X0.515000X-0.315000X-0.515000X0.315000X-0.515000X0*%
%ADD34RoundRect,0.060000X0.490000X0.240000X-0.490000X0.240000X-0.490000X-0.240000X0.490000X-0.240000X0*%
%ADD35RoundRect,0.135000X0.515000X-0.315000X0.515000X0.315000X-0.515000X0.315000X-0.515000X-0.315000X0*%
%ADD36RoundRect,0.160000X1.590000X0.640000X-1.590000X0.640000X-1.590000X-0.640000X1.590000X-0.640000X0*%
%ADD37RoundRect,0.060000X-0.240000X0.640000X-0.240000X-0.640000X0.240000X-0.640000X0.240000X0.640000X0*%
%ADD38RoundRect,0.082500X-0.742500X-1.117500X0.742500X-1.117500X0.742500X1.117500X-0.742500X1.117500X0*%
G04 APERTURE END LIST*
D10*
%TO.C,C26*%
X124400000Y-109250000D03*
X124400000Y-107750000D03*
%TD*%
%TO.C,R2*%
X117000000Y-81150000D03*
X117000000Y-79650000D03*
%TD*%
D11*
%TO.C,C7*%
X97400000Y-87250000D03*
X97400000Y-88750000D03*
%TD*%
D12*
%TO.C,R19*%
X161950000Y-102000000D03*
X163450000Y-102000000D03*
%TD*%
D11*
%TO.C,C32*%
X121600000Y-118650000D03*
X121600000Y-120150000D03*
%TD*%
%TO.C,C5*%
X140200000Y-79850000D03*
X140200000Y-81350000D03*
%TD*%
D13*
%TO.C,D1*%
X125000000Y-97025000D03*
X125000000Y-100375000D03*
%TD*%
D14*
%TO.C,X1*%
X148675000Y-82375000D03*
X148675000Y-84225000D03*
X150125000Y-84225000D03*
X150125000Y-82375000D03*
%TD*%
D15*
%TO.C,U8*%
X159300000Y-109800000D03*
X158030000Y-109800000D03*
X156760000Y-109800000D03*
X155490000Y-109800000D03*
X155490000Y-115007000D03*
X156760000Y-115007000D03*
X158030000Y-115007000D03*
X159300000Y-115007000D03*
%TD*%
D16*
%TO.C,C21*%
X128550000Y-110500000D03*
X127050000Y-110500000D03*
%TD*%
%TO.C,R17*%
X165350000Y-84600000D03*
X163850000Y-84600000D03*
%TD*%
D17*
%TO.C,U4*%
X95425000Y-86750000D03*
X95425000Y-86250000D03*
X95425000Y-85750000D03*
X95425000Y-85250000D03*
X95425000Y-84750000D03*
X95425000Y-84250000D03*
D18*
X92465000Y-84250000D03*
X92465000Y-84750000D03*
X92465000Y-85250000D03*
X92465000Y-85750000D03*
X92465000Y-86250000D03*
X92465000Y-86750000D03*
D19*
X93945000Y-85500000D03*
%TD*%
D20*
%TO.C,L8*%
X118150000Y-118600000D03*
X115850000Y-118600000D03*
%TD*%
D11*
%TO.C,C31*%
X129000000Y-118650000D03*
X129000000Y-120150000D03*
%TD*%
%TO.C,C30*%
X137200000Y-118650000D03*
X137200000Y-120150000D03*
%TD*%
D10*
%TO.C,R3*%
X122600000Y-77150000D03*
X122600000Y-75650000D03*
%TD*%
D12*
%TO.C,C41*%
X162050000Y-88200000D03*
X163550000Y-88200000D03*
%TD*%
D21*
%TO.C,U6*%
X91550000Y-117225000D03*
X92500000Y-117225000D03*
X93450000Y-117225000D03*
X93450000Y-114605000D03*
X91550000Y-114605000D03*
%TD*%
D22*
%TO.C,R13*%
X87974533Y-114582091D03*
X86825467Y-113617909D03*
%TD*%
D23*
%TO.C,C38*%
X162600000Y-111925000D03*
X162600000Y-112875000D03*
%TD*%
D22*
%TO.C,R14*%
X86874533Y-116282091D03*
X85725467Y-115317909D03*
%TD*%
D12*
%TO.C,C44*%
X161850000Y-94488000D03*
X163350000Y-94488000D03*
%TD*%
D10*
%TO.C,C11*%
X98600000Y-92550000D03*
X98600000Y-91050000D03*
%TD*%
D16*
%TO.C,C19*%
X91150000Y-112100000D03*
X89650000Y-112100000D03*
%TD*%
D10*
%TO.C,R12*%
X108400000Y-109550000D03*
X108400000Y-108050000D03*
%TD*%
D20*
%TO.C,L5*%
X115250000Y-107800000D03*
X112950000Y-107800000D03*
%TD*%
D24*
%TO.C,C17*%
X141800000Y-100400000D03*
X147400000Y-100400000D03*
%TD*%
D16*
%TO.C,C36*%
X160516000Y-83185000D03*
X159016000Y-83185000D03*
%TD*%
D10*
%TO.C,C45*%
X153900000Y-112250000D03*
X153900000Y-110750000D03*
%TD*%
D16*
%TO.C,R21*%
X158550000Y-96300000D03*
X157050000Y-96300000D03*
%TD*%
D25*
%TO.C,C8*%
X105600000Y-91800000D03*
X105600000Y-93800000D03*
%TD*%
D12*
%TO.C,C35*%
X155650000Y-83000000D03*
X157150000Y-83000000D03*
%TD*%
D11*
%TO.C,FB1*%
X149800000Y-77850000D03*
X149800000Y-79350000D03*
%TD*%
D12*
%TO.C,R6*%
X90250000Y-94000000D03*
X91750000Y-94000000D03*
%TD*%
D16*
%TO.C,L7*%
X126150000Y-118700000D03*
X124650000Y-118700000D03*
%TD*%
D11*
%TO.C,R5*%
X102200000Y-82650000D03*
X102200000Y-84150000D03*
%TD*%
D26*
%TO.C,L1*%
X83200000Y-89350000D03*
X83200000Y-79450000D03*
%TD*%
D10*
%TO.C,R24*%
X155200000Y-103350000D03*
X155200000Y-101850000D03*
%TD*%
D27*
%TO.C,Q2*%
X158050000Y-99200000D03*
X156750000Y-99200000D03*
X157400000Y-100800000D03*
%TD*%
D16*
%TO.C,R7*%
X105350000Y-81000000D03*
X103850000Y-81000000D03*
%TD*%
%TO.C,C50*%
X167850000Y-102000000D03*
X166350000Y-102000000D03*
%TD*%
D11*
%TO.C,C4*%
X133100000Y-79650000D03*
X133100000Y-81150000D03*
%TD*%
D28*
%TO.C,U7*%
X160405000Y-86037500D03*
X159755000Y-86037500D03*
X159105000Y-86037500D03*
X158455000Y-86037500D03*
X157805000Y-86037500D03*
X157155000Y-86037500D03*
X156505000Y-86037500D03*
X155855000Y-86037500D03*
X155205000Y-86037500D03*
X154555000Y-86037500D03*
X154555000Y-91762500D03*
X155205000Y-91762500D03*
X155855000Y-91762500D03*
X156505000Y-91762500D03*
X157155000Y-91762500D03*
X157805000Y-91762500D03*
X158455000Y-91762500D03*
X159105000Y-91762500D03*
X159755000Y-91762500D03*
X160405000Y-91762500D03*
%TD*%
D29*
%TO.C,D2*%
X117300000Y-100375000D03*
X117300000Y-97025000D03*
%TD*%
D16*
%TO.C,C20*%
X135350000Y-110500000D03*
X133850000Y-110500000D03*
%TD*%
D11*
%TO.C,R15*%
X109000000Y-118650000D03*
X109000000Y-120150000D03*
%TD*%
D12*
%TO.C,R10*%
X92850000Y-110800000D03*
X94350000Y-110800000D03*
%TD*%
D20*
%TO.C,L3*%
X128950000Y-107800000D03*
X126650000Y-107800000D03*
%TD*%
D16*
%TO.C,C16*%
X126141000Y-91365000D03*
X124641000Y-91365000D03*
%TD*%
%TO.C,C29*%
X91850000Y-119400000D03*
X90350000Y-119400000D03*
%TD*%
D12*
%TO.C,C9*%
X93050000Y-88399000D03*
X94550000Y-88399000D03*
%TD*%
D10*
%TO.C,C25*%
X131200000Y-109250000D03*
X131200000Y-107750000D03*
%TD*%
D16*
%TO.C,R8*%
X95250000Y-82500000D03*
X93750000Y-82500000D03*
%TD*%
D30*
%TO.C,Q1*%
X162000000Y-99050000D03*
X162000000Y-100350000D03*
X163600000Y-99700000D03*
%TD*%
D31*
%TO.C,C46*%
X154525000Y-106800000D03*
X155475000Y-106800000D03*
%TD*%
D16*
%TO.C,R25*%
X155350000Y-105200000D03*
X153850000Y-105200000D03*
%TD*%
D10*
%TO.C,C24*%
X138000000Y-109250000D03*
X138000000Y-107750000D03*
%TD*%
%TO.C,C28*%
X110600000Y-109550000D03*
X110600000Y-108050000D03*
%TD*%
D25*
%TO.C,C1*%
X119000000Y-81210000D03*
X119000000Y-83210000D03*
%TD*%
D16*
%TO.C,C42*%
X161350000Y-116800000D03*
X159850000Y-116800000D03*
%TD*%
D32*
%TO.C,C10*%
X93200000Y-90400000D03*
X95200000Y-90400000D03*
%TD*%
D10*
%TO.C,C48*%
X165200000Y-99350000D03*
X165200000Y-97850000D03*
%TD*%
D16*
%TO.C,C43*%
X158550000Y-94500000D03*
X157050000Y-94500000D03*
%TD*%
D12*
%TO.C,C15*%
X124641000Y-89460000D03*
X126141000Y-89460000D03*
%TD*%
D33*
%TO.C,C34*%
X156800000Y-80700000D03*
X154800000Y-80700000D03*
%TD*%
D34*
%TO.C,U1*%
X135600000Y-79850000D03*
X135600000Y-80800000D03*
X135600000Y-81750000D03*
X138400000Y-81750000D03*
X138400000Y-79850000D03*
%TD*%
D12*
%TO.C,R22*%
X161850000Y-96300000D03*
X163350000Y-96300000D03*
%TD*%
%TO.C,R20*%
X153850000Y-117400000D03*
X155350000Y-117400000D03*
%TD*%
D10*
%TO.C,C12*%
X90600000Y-87550000D03*
X90600000Y-86050000D03*
%TD*%
D35*
%TO.C,C3*%
X128400000Y-80500000D03*
X128400000Y-78500000D03*
%TD*%
D36*
%TO.C,C18*%
X110400000Y-100400000D03*
X104800000Y-100400000D03*
%TD*%
D10*
%TO.C,C13*%
X98800000Y-82750000D03*
X98800000Y-81250000D03*
%TD*%
%TO.C,C49*%
X150800000Y-102150000D03*
X150800000Y-100650000D03*
%TD*%
D16*
%TO.C,C23*%
X114850000Y-110500000D03*
X113350000Y-110500000D03*
%TD*%
%TO.C,R11*%
X94350000Y-112600000D03*
X92850000Y-112600000D03*
%TD*%
%TO.C,R26*%
X155150000Y-99800000D03*
X153650000Y-99800000D03*
%TD*%
D10*
%TO.C,C27*%
X117600000Y-109250000D03*
X117600000Y-107750000D03*
%TD*%
D12*
%TO.C,C47*%
X157450000Y-102400000D03*
X158950000Y-102400000D03*
%TD*%
D16*
%TO.C,C39*%
X160950000Y-81400000D03*
X159450000Y-81400000D03*
%TD*%
%TO.C,R1*%
X125750000Y-82800000D03*
X124250000Y-82800000D03*
%TD*%
D25*
%TO.C,C6*%
X99400000Y-87400000D03*
X99400000Y-89400000D03*
%TD*%
D32*
%TO.C,C37*%
X159600000Y-79400000D03*
X161600000Y-79400000D03*
%TD*%
D20*
%TO.C,L2*%
X135750000Y-107800000D03*
X133450000Y-107800000D03*
%TD*%
%TO.C,L6*%
X134550000Y-118600000D03*
X132250000Y-118600000D03*
%TD*%
%TO.C,L4*%
X122150000Y-107800000D03*
X119850000Y-107800000D03*
%TD*%
D10*
%TO.C,R16*%
X161000000Y-113150000D03*
X161000000Y-111650000D03*
%TD*%
D16*
%TO.C,R23*%
X153350000Y-84200000D03*
X151850000Y-84200000D03*
%TD*%
%TO.C,C22*%
X121750000Y-110500000D03*
X120250000Y-110500000D03*
%TD*%
D37*
%TO.C,U5*%
X123110000Y-89300000D03*
X121840000Y-89300000D03*
X120570000Y-89300000D03*
X119300000Y-89300000D03*
X119300000Y-94700000D03*
X120570000Y-94700000D03*
X121840000Y-94700000D03*
X123110000Y-94700000D03*
%TD*%
D11*
%TO.C,C2*%
X121000000Y-81250000D03*
X121000000Y-82750000D03*
%TD*%
%TO.C,C33*%
X112500000Y-118650000D03*
X112500000Y-120150000D03*
%TD*%
%TO.C,C40*%
X152900000Y-87850000D03*
X152900000Y-89350000D03*
%TD*%
D12*
%TO.C,R4*%
X103850000Y-84200000D03*
X105350000Y-84200000D03*
%TD*%
D34*
%TO.C,U3*%
X100600000Y-91450000D03*
X100600000Y-92400000D03*
X100600000Y-93350000D03*
X103400000Y-93350000D03*
X103400000Y-91450000D03*
%TD*%
D38*
%TO.C,U2*%
X124154000Y-79924000D03*
D18*
X125504000Y-80674000D03*
X125504000Y-80174000D03*
X125504000Y-79674000D03*
X125504000Y-79174000D03*
X122804000Y-79174000D03*
X122804000Y-79674000D03*
X122804000Y-80174000D03*
X122804000Y-80674000D03*
%TD*%
D10*
%TO.C,C14*%
X97000000Y-82750000D03*
X97000000Y-81250000D03*
%TD*%
%TO.C,R9*%
X93600000Y-93950000D03*
X93600000Y-92450000D03*
%TD*%
%TO.C,R18*%
X161800000Y-105950000D03*
X161800000Y-104450000D03*
%TD*%
M02*
