%TF.GenerationSoftware,KiCad,Pcbnew,(6.0.6)*%
%TF.CreationDate,2023-01-28T17:13:42-04:00*%
%TF.ProjectId,DDS_FunctionGenerator,4444535f-4675-46e6-9374-696f6e47656e,rev?*%
%TF.SameCoordinates,Original*%
%TF.FileFunction,Copper,L1,Top*%
%TF.FilePolarity,Positive*%
%FSLAX46Y46*%
G04 Gerber Fmt 4.6, Leading zero omitted, Abs format (unit mm)*
G04 Created by KiCad (PCBNEW (6.0.6)) date 2023-01-28 17:13:42*
%MOMM*%
%LPD*%
G01*
G04 APERTURE LIST*
G04 Aperture macros list*
%AMRoundRect*
0 Rectangle with rounded corners*
0 $1 Rounding radius*
0 $2 $3 $4 $5 $6 $7 $8 $9 X,Y pos of 4 corners*
0 Add a 4 corners polygon primitive as box body*
4,1,4,$2,$3,$4,$5,$6,$7,$8,$9,$2,$3,0*
0 Add four circle primitives for the rounded corners*
1,1,$1+$1,$2,$3*
1,1,$1+$1,$4,$5*
1,1,$1+$1,$6,$7*
1,1,$1+$1,$8,$9*
0 Add four rect primitives between the rounded corners*
20,1,$1+$1,$2,$3,$4,$5,0*
20,1,$1+$1,$4,$5,$6,$7,0*
20,1,$1+$1,$6,$7,$8,$9,0*
20,1,$1+$1,$8,$9,$2,$3,0*%
G04 Aperture macros list end*
%TA.AperFunction,SMDPad,CuDef*%
%ADD10RoundRect,0.120000X-0.330000X0.280000X-0.330000X-0.280000X0.330000X-0.280000X0.330000X0.280000X0*%
%TD*%
%TA.AperFunction,SMDPad,CuDef*%
%ADD11RoundRect,0.120000X0.330000X-0.280000X0.330000X0.280000X-0.330000X0.280000X-0.330000X-0.280000X0*%
%TD*%
%TA.AperFunction,SMDPad,CuDef*%
%ADD12RoundRect,0.120000X0.280000X0.330000X-0.280000X0.330000X-0.280000X-0.330000X0.280000X-0.330000X0*%
%TD*%
%TA.AperFunction,ComponentPad*%
%ADD13C,1.500000*%
%TD*%
%TA.AperFunction,SMDPad,CuDef*%
%ADD14C,0.800000*%
%TD*%
%TA.AperFunction,SMDPad,CuDef*%
%ADD15C,1.500000*%
%TD*%
%TA.AperFunction,SMDPad,CuDef*%
%ADD16RoundRect,0.085000X-0.340000X0.340000X-0.340000X-0.340000X0.340000X-0.340000X0.340000X0.340000X0*%
%TD*%
%TA.AperFunction,SMDPad,CuDef*%
%ADD17RoundRect,0.200000X-0.200000X-0.250000X0.200000X-0.250000X0.200000X0.250000X-0.200000X0.250000X0*%
%TD*%
%TA.AperFunction,SMDPad,CuDef*%
%ADD18RoundRect,0.114300X-0.266700X0.457200X-0.266700X-0.457200X0.266700X-0.457200X0.266700X0.457200X0*%
%TD*%
%TA.AperFunction,SMDPad,CuDef*%
%ADD19RoundRect,0.120000X-0.280000X-0.330000X0.280000X-0.330000X0.280000X0.330000X-0.280000X0.330000X0*%
%TD*%
%TA.AperFunction,ComponentPad*%
%ADD20C,2.300000*%
%TD*%
%TA.AperFunction,ComponentPad*%
%ADD21C,2.600000*%
%TD*%
%TA.AperFunction,SMDPad,CuDef*%
%ADD22RoundRect,0.030000X0.295000X0.120000X-0.295000X0.120000X-0.295000X-0.120000X0.295000X-0.120000X0*%
%TD*%
%TA.AperFunction,SMDPad,CuDef*%
%ADD23RoundRect,0.030000X-0.295000X-0.120000X0.295000X-0.120000X0.295000X0.120000X-0.295000X0.120000X0*%
%TD*%
%TA.AperFunction,SMDPad,CuDef*%
%ADD24RoundRect,0.085000X0.765000X1.165000X-0.765000X1.165000X-0.765000X-1.165000X0.765000X-1.165000X0*%
%TD*%
%TA.AperFunction,SMDPad,CuDef*%
%ADD25RoundRect,0.165000X0.385000X1.085000X-0.385000X1.085000X-0.385000X-1.085000X0.385000X-1.085000X0*%
%TD*%
%TA.AperFunction,SMDPad,CuDef*%
%ADD26RoundRect,0.100000X0.200000X-0.510000X0.200000X0.510000X-0.200000X0.510000X-0.200000X-0.510000X0*%
%TD*%
%TA.AperFunction,SMDPad,CuDef*%
%ADD27RoundRect,0.120000X-0.426612X-0.072814X0.002373X-0.432775X0.426612X0.072814X-0.002373X0.432775X0*%
%TD*%
%TA.AperFunction,SMDPad,CuDef*%
%ADD28RoundRect,0.040000X-0.210000X0.235000X-0.210000X-0.235000X0.210000X-0.235000X0.210000X0.235000X0*%
%TD*%
%TA.AperFunction,SMDPad,CuDef*%
%ADD29RoundRect,0.160000X-1.590000X-0.640000X1.590000X-0.640000X1.590000X0.640000X-1.590000X0.640000X0*%
%TD*%
%TA.AperFunction,SMDPad,CuDef*%
%ADD30RoundRect,0.135000X-0.515000X0.315000X-0.515000X-0.315000X0.515000X-0.315000X0.515000X0.315000X0*%
%TD*%
%TA.AperFunction,SMDPad,CuDef*%
%ADD31RoundRect,0.232000X2.468000X1.218000X-2.468000X1.218000X-2.468000X-1.218000X2.468000X-1.218000X0*%
%TD*%
%TA.AperFunction,SMDPad,CuDef*%
%ADD32RoundRect,0.120000X0.180000X-0.280000X0.180000X0.280000X-0.180000X0.280000X-0.180000X-0.280000X0*%
%TD*%
%TA.AperFunction,SMDPad,CuDef*%
%ADD33RoundRect,0.100000X-0.100000X0.637500X-0.100000X-0.637500X0.100000X-0.637500X0.100000X0.637500X0*%
%TD*%
%TA.AperFunction,SMDPad,CuDef*%
%ADD34RoundRect,0.085000X0.340000X-0.340000X0.340000X0.340000X-0.340000X0.340000X-0.340000X-0.340000X0*%
%TD*%
%TA.AperFunction,ComponentPad*%
%ADD35C,2.000000*%
%TD*%
%TA.AperFunction,ComponentPad*%
%ADD36R,2.000000X2.000000*%
%TD*%
%TA.AperFunction,SMDPad,CuDef*%
%ADD37RoundRect,0.120000X0.280000X0.180000X-0.280000X0.180000X-0.280000X-0.180000X0.280000X-0.180000X0*%
%TD*%
%TA.AperFunction,SMDPad,CuDef*%
%ADD38RoundRect,0.040000X-0.235000X-0.210000X0.235000X-0.210000X0.235000X0.210000X-0.235000X0.210000X0*%
%TD*%
%TA.AperFunction,SMDPad,CuDef*%
%ADD39RoundRect,0.135000X-0.315000X-0.515000X0.315000X-0.515000X0.315000X0.515000X-0.315000X0.515000X0*%
%TD*%
%TA.AperFunction,SMDPad,CuDef*%
%ADD40RoundRect,0.135000X0.315000X0.515000X-0.315000X0.515000X-0.315000X-0.515000X0.315000X-0.515000X0*%
%TD*%
%TA.AperFunction,SMDPad,CuDef*%
%ADD41RoundRect,0.060000X0.490000X0.240000X-0.490000X0.240000X-0.490000X-0.240000X0.490000X-0.240000X0*%
%TD*%
%TA.AperFunction,SMDPad,CuDef*%
%ADD42RoundRect,0.135000X0.515000X-0.315000X0.515000X0.315000X-0.515000X0.315000X-0.515000X-0.315000X0*%
%TD*%
%TA.AperFunction,SMDPad,CuDef*%
%ADD43RoundRect,0.160000X1.590000X0.640000X-1.590000X0.640000X-1.590000X-0.640000X1.590000X-0.640000X0*%
%TD*%
%TA.AperFunction,SMDPad,CuDef*%
%ADD44RoundRect,0.060000X-0.240000X0.640000X-0.240000X-0.640000X0.240000X-0.640000X0.240000X0.640000X0*%
%TD*%
%TA.AperFunction,SMDPad,CuDef*%
%ADD45RoundRect,0.082500X-0.742500X-1.117500X0.742500X-1.117500X0.742500X1.117500X-0.742500X1.117500X0*%
%TD*%
%TA.AperFunction,ComponentPad*%
%ADD46R,1.700000X1.700000*%
%TD*%
%TA.AperFunction,ComponentPad*%
%ADD47O,1.700000X1.700000*%
%TD*%
%TA.AperFunction,ViaPad*%
%ADD48C,0.600000*%
%TD*%
%TA.AperFunction,Conductor*%
%ADD49C,0.800000*%
%TD*%
%TA.AperFunction,Conductor*%
%ADD50C,0.600000*%
%TD*%
%TA.AperFunction,Conductor*%
%ADD51C,0.300000*%
%TD*%
%TA.AperFunction,Conductor*%
%ADD52C,0.250000*%
%TD*%
%TA.AperFunction,Conductor*%
%ADD53C,0.700000*%
%TD*%
%TA.AperFunction,Conductor*%
%ADD54C,0.400000*%
%TD*%
%TA.AperFunction,Conductor*%
%ADD55C,0.200000*%
%TD*%
G04 APERTURE END LIST*
D10*
%TO.P,C26,1*%
%TO.N,Net-(C21-Pad2)*%
X124400000Y-109250000D03*
%TO.P,C26,2*%
%TO.N,GND*%
X124400000Y-107750000D03*
%TD*%
%TO.P,R2,1*%
%TO.N,/VIN*%
X117000000Y-81150000D03*
%TO.P,R2,2*%
%TO.N,/5V-EN*%
X117000000Y-79650000D03*
%TD*%
D11*
%TO.P,C7,1*%
%TO.N,/VIN*%
X97400000Y-87250000D03*
%TO.P,C7,2*%
%TO.N,GND*%
X97400000Y-88750000D03*
%TD*%
D12*
%TO.P,R19,1*%
%TO.N,Net-(Q1-Pad2)*%
X161950000Y-102000000D03*
%TO.P,R19,2*%
%TO.N,-5V*%
X163450000Y-102000000D03*
%TD*%
D13*
%TO.P,K2,1*%
%TO.N,/Output_Stage/FILTER-SW-OUT*%
X104810000Y-107450000D03*
%TO.P,K2,6*%
%TO.N,GND*%
X104810000Y-120150000D03*
%TO.P,K2,7*%
%TO.N,/Output_Stage/FILT-OUT*%
X97190000Y-120150000D03*
%TO.P,K2,10*%
%TO.N,/Output_Stage/LIN-PHASE-OUT*%
X97190000Y-112530000D03*
%TO.P,K2,12*%
%TO.N,/Output_Stage/ELLIP-OUT*%
X97190000Y-107450000D03*
%TD*%
D14*
%TO.P,TP17,1,1*%
%TO.N,/DDS/IOUTB*%
X161800000Y-97900000D03*
%TD*%
D15*
%TO.P,TP2,1,1*%
%TO.N,+3V3*%
X142400000Y-79400000D03*
%TD*%
D14*
%TO.P,TP7,1,1*%
%TO.N,/Output_Stage/FILTER-SW-IN*%
X148400000Y-105000000D03*
%TD*%
D11*
%TO.P,C32,1*%
%TO.N,Net-(C32-Pad1)*%
X121600000Y-118650000D03*
%TO.P,C32,2*%
%TO.N,GND*%
X121600000Y-120150000D03*
%TD*%
%TO.P,C5,1*%
%TO.N,+3V3*%
X140200000Y-79850000D03*
%TO.P,C5,2*%
%TO.N,GND*%
X140200000Y-81350000D03*
%TD*%
D16*
%TO.P,D1,1,K*%
%TO.N,+5V*%
X125000000Y-97025000D03*
%TO.P,D1,2,A*%
%TO.N,Net-(C17-Pad1)*%
X125000000Y-100375000D03*
%TD*%
D17*
%TO.P,X1,1,Tri-State*%
%TO.N,unconnected-(X1-Pad1)*%
X148675000Y-82375000D03*
%TO.P,X1,2,GND*%
%TO.N,GND*%
X148675000Y-84225000D03*
%TO.P,X1,3,OUT*%
%TO.N,Net-(R23-Pad2)*%
X150125000Y-84225000D03*
%TO.P,X1,4,VDD*%
%TO.N,VDD-MCLK*%
X150125000Y-82375000D03*
%TD*%
D18*
%TO.P,U8,1,NC*%
%TO.N,unconnected-(U8-Pad1)*%
X159300000Y-109800000D03*
%TO.P,U8,2,-IN*%
%TO.N,Net-(C38-Pad1)*%
X158030000Y-109800000D03*
%TO.P,U8,3,+IN*%
%TO.N,Net-(C46-Pad2)*%
X156760000Y-109800000D03*
%TO.P,U8,4,V-*%
%TO.N,-5V*%
X155490000Y-109800000D03*
%TO.P,U8,5,NC*%
%TO.N,unconnected-(U8-Pad5)*%
X155490000Y-115007000D03*
%TO.P,U8,6*%
%TO.N,Net-(C38-Pad2)*%
X156760000Y-115007000D03*
%TO.P,U8,7,V+*%
%TO.N,+5V*%
X158030000Y-115007000D03*
%TO.P,U8,8,NC*%
%TO.N,unconnected-(U8-Pad8)*%
X159300000Y-115007000D03*
%TD*%
D14*
%TO.P,TP28,1,1*%
%TO.N,GND*%
X144200000Y-83400000D03*
%TD*%
D19*
%TO.P,C21,1*%
%TO.N,Net-(C20-Pad2)*%
X128550000Y-110500000D03*
%TO.P,C21,2*%
%TO.N,Net-(C21-Pad2)*%
X127050000Y-110500000D03*
%TD*%
%TO.P,R17,1*%
%TO.N,Net-(POT1-Pad1)*%
X165350000Y-84600000D03*
%TO.P,R17,2*%
%TO.N,/DDS/FS-ADJUST*%
X163850000Y-84600000D03*
%TD*%
D20*
%TO.P,J3,1,In*%
%TO.N,/DDS/DDS-VIN*%
X169800000Y-90170000D03*
D21*
%TO.P,J3,2,GND*%
%TO.N,GND*%
X172340000Y-92710000D03*
X167260000Y-87630000D03*
X172340000Y-87630000D03*
X167260000Y-92710000D03*
%TD*%
D15*
%TO.P,TP1,1,1*%
%TO.N,+5V*%
X130800000Y-80200000D03*
%TD*%
D22*
%TO.P,U4,1,IN*%
%TO.N,/VIN*%
X95425000Y-86750000D03*
%TO.P,U4,2,EN/UVLO*%
%TO.N,/-5V8-EN*%
X95425000Y-86250000D03*
%TO.P,U4,3,RESET*%
%TO.N,/RESET*%
X95425000Y-85750000D03*
%TO.P,U4,4,SS*%
%TO.N,/SS*%
X95425000Y-85250000D03*
%TO.P,U4,5,VCC*%
%TO.N,/VCC*%
X95425000Y-84750000D03*
%TO.P,U4,6,RT/SYNC*%
%TO.N,/RT{slash}SYNC*%
X95425000Y-84250000D03*
D23*
%TO.P,U4,7,FB*%
%TO.N,/FB*%
X92465000Y-84250000D03*
%TO.P,U4,8,SOUT*%
%TO.N,-5V8*%
X92465000Y-84750000D03*
%TO.P,U4,9,GND*%
%TO.N,GND*%
X92465000Y-85250000D03*
%TO.P,U4,10,BST*%
%TO.N,/BST*%
X92465000Y-85750000D03*
%TO.P,U4,11,LX*%
%TO.N,/LX*%
X92465000Y-86250000D03*
%TO.P,U4,12,OUT*%
%TO.N,-5V8*%
X92465000Y-86750000D03*
D24*
%TO.P,U4,13,EP*%
X93945000Y-85500000D03*
%TD*%
D25*
%TO.P,L8,1,1*%
%TO.N,Net-(C32-Pad1)*%
X118150000Y-118600000D03*
%TO.P,L8,2,2*%
%TO.N,/Output_Stage/LIN-PHASE-OUT*%
X115850000Y-118600000D03*
%TD*%
D11*
%TO.P,C31,1*%
%TO.N,Net-(C31-Pad1)*%
X129000000Y-118650000D03*
%TO.P,C31,2*%
%TO.N,GND*%
X129000000Y-120150000D03*
%TD*%
%TO.P,C30,1*%
%TO.N,/Output_Stage/LIN-PHASE-IN*%
X137200000Y-118650000D03*
%TO.P,C30,2*%
%TO.N,GND*%
X137200000Y-120150000D03*
%TD*%
D10*
%TO.P,R3,1*%
%TO.N,/5V-EN*%
X122600000Y-77150000D03*
%TO.P,R3,2*%
%TO.N,GND*%
X122600000Y-75650000D03*
%TD*%
D12*
%TO.P,C41,1*%
%TO.N,/DDS/REFOUT*%
X162050000Y-88200000D03*
%TO.P,C41,2*%
%TO.N,GND*%
X163550000Y-88200000D03*
%TD*%
D26*
%TO.P,U6,1*%
%TO.N,Net-(R11-Pad2)*%
X91550000Y-117225000D03*
%TO.P,U6,2,V-*%
%TO.N,-5V*%
X92500000Y-117225000D03*
%TO.P,U6,3,+IN*%
%TO.N,/Output_Stage/FILT-OUT*%
X93450000Y-117225000D03*
%TO.P,U6,4,-IN*%
%TO.N,Net-(R10-Pad2)*%
X93450000Y-114605000D03*
%TO.P,U6,5,V+*%
%TO.N,+5V*%
X91550000Y-114605000D03*
%TD*%
D20*
%TO.P,J5,1,In*%
%TO.N,/Output_Stage/OUT*%
X83400000Y-107600000D03*
D21*
%TO.P,J5,2,GND*%
%TO.N,GND*%
X80860000Y-105060000D03*
X85940000Y-110140000D03*
X85940000Y-105060000D03*
X80860000Y-110140000D03*
%TD*%
D27*
%TO.P,R13,1*%
%TO.N,Net-(R11-Pad2)*%
X87974533Y-114582091D03*
%TO.P,R13,2*%
%TO.N,/Output_Stage/OUT*%
X86825467Y-113617909D03*
%TD*%
D28*
%TO.P,C38,1*%
%TO.N,Net-(C38-Pad1)*%
X162600000Y-111925000D03*
%TO.P,C38,2*%
%TO.N,Net-(C38-Pad2)*%
X162600000Y-112875000D03*
%TD*%
D27*
%TO.P,R14,1*%
%TO.N,Net-(R11-Pad2)*%
X86874533Y-116282091D03*
%TO.P,R14,2*%
%TO.N,/Output_Stage/OUT*%
X85725467Y-115317909D03*
%TD*%
D12*
%TO.P,C44,1*%
%TO.N,/DDS/IOUTB*%
X161850000Y-94488000D03*
%TO.P,C44,2*%
%TO.N,GND*%
X163350000Y-94488000D03*
%TD*%
D10*
%TO.P,C11,1*%
%TO.N,-5V8*%
X98600000Y-92550000D03*
%TO.P,C11,2*%
%TO.N,GND*%
X98600000Y-91050000D03*
%TD*%
D19*
%TO.P,C19,1*%
%TO.N,+5V*%
X91150000Y-112100000D03*
%TO.P,C19,2*%
%TO.N,GND*%
X89650000Y-112100000D03*
%TD*%
D10*
%TO.P,R12,1*%
%TO.N,/Output_Stage/ELLIP-OUT*%
X108400000Y-109550000D03*
%TO.P,R12,2*%
%TO.N,GND*%
X108400000Y-108050000D03*
%TD*%
D25*
%TO.P,L5,1,1*%
%TO.N,Net-(C22-Pad2)*%
X115250000Y-107800000D03*
%TO.P,L5,2,2*%
%TO.N,/Output_Stage/ELLIP-OUT*%
X112950000Y-107800000D03*
%TD*%
D29*
%TO.P,C17,1*%
%TO.N,Net-(C17-Pad1)*%
X141800000Y-100400000D03*
%TO.P,C17,2*%
%TO.N,/Output_Stage/FILTER-SW-IN*%
X147400000Y-100400000D03*
%TD*%
D19*
%TO.P,C36,1*%
%TO.N,GND*%
X160516000Y-83185000D03*
%TO.P,C36,2*%
%TO.N,+5V*%
X159016000Y-83185000D03*
%TD*%
D14*
%TO.P,TP13,1,1*%
%TO.N,GND*%
X142000000Y-105000000D03*
%TD*%
D10*
%TO.P,C45,1*%
%TO.N,GND*%
X153900000Y-112250000D03*
%TO.P,C45,2*%
%TO.N,-5V*%
X153900000Y-110750000D03*
%TD*%
D19*
%TO.P,R21,1*%
%TO.N,/DDS/IOUT*%
X158550000Y-96300000D03*
%TO.P,R21,2*%
%TO.N,GND*%
X157050000Y-96300000D03*
%TD*%
D14*
%TO.P,TP27,1,1*%
%TO.N,GND*%
X168200000Y-97800000D03*
%TD*%
D15*
%TO.P,TP6,1,1*%
%TO.N,GND*%
X136600000Y-77200000D03*
%TD*%
D30*
%TO.P,C8,1*%
%TO.N,-5V*%
X105600000Y-91800000D03*
%TO.P,C8,2*%
%TO.N,GND*%
X105600000Y-93800000D03*
%TD*%
D12*
%TO.P,C35,1*%
%TO.N,GND*%
X155650000Y-83000000D03*
%TO.P,C35,2*%
%TO.N,+3V3*%
X157150000Y-83000000D03*
%TD*%
D11*
%TO.P,FB1,1*%
%TO.N,+3V3*%
X149800000Y-77850000D03*
%TO.P,FB1,2*%
%TO.N,VDD-MCLK*%
X149800000Y-79350000D03*
%TD*%
D12*
%TO.P,R6,1*%
%TO.N,GND*%
X90250000Y-94000000D03*
%TO.P,R6,2*%
%TO.N,/FB*%
X91750000Y-94000000D03*
%TD*%
D14*
%TO.P,TP9,1,1*%
%TO.N,/Output_Stage/FILTER-SW-OUT*%
X104800000Y-105000000D03*
%TD*%
%TO.P,TP25,1,1*%
%TO.N,GND*%
X166200000Y-107600000D03*
%TD*%
D19*
%TO.P,L7,1,1*%
%TO.N,Net-(C31-Pad1)*%
X126150000Y-118700000D03*
%TO.P,L7,2,2*%
%TO.N,Net-(C32-Pad1)*%
X124650000Y-118700000D03*
%TD*%
D11*
%TO.P,R5,1*%
%TO.N,GND*%
X102200000Y-82650000D03*
%TO.P,R5,2*%
%TO.N,/-5V8-EN*%
X102200000Y-84150000D03*
%TD*%
D31*
%TO.P,L1,1,1*%
%TO.N,/LX*%
X83200000Y-89350000D03*
%TO.P,L1,2,2*%
%TO.N,GND*%
X83200000Y-79450000D03*
%TD*%
D10*
%TO.P,R24,1*%
%TO.N,Net-(C46-Pad2)*%
X155200000Y-103350000D03*
%TO.P,R24,2*%
%TO.N,Net-(Q2-Pad2)*%
X155200000Y-101850000D03*
%TD*%
D32*
%TO.P,Q2,1,B*%
%TO.N,/DDS/IOUT*%
X158050000Y-99200000D03*
%TO.P,Q2,2,E*%
%TO.N,Net-(Q2-Pad2)*%
X156750000Y-99200000D03*
%TO.P,Q2,3,C*%
%TO.N,+5V*%
X157400000Y-100800000D03*
%TD*%
D19*
%TO.P,R7,1*%
%TO.N,/VIN*%
X105350000Y-81000000D03*
%TO.P,R7,2*%
%TO.N,/RESET*%
X103850000Y-81000000D03*
%TD*%
%TO.P,C50,1*%
%TO.N,GND*%
X167850000Y-102000000D03*
%TO.P,C50,2*%
%TO.N,-5V*%
X166350000Y-102000000D03*
%TD*%
D11*
%TO.P,C4,1*%
%TO.N,+5V*%
X133100000Y-79650000D03*
%TO.P,C4,2*%
%TO.N,GND*%
X133100000Y-81150000D03*
%TD*%
D14*
%TO.P,TP24,1,1*%
%TO.N,GND*%
X157200000Y-120800000D03*
%TD*%
D33*
%TO.P,U7,1,FS_ADJUST*%
%TO.N,/DDS/FS-ADJUST*%
X160405000Y-86037500D03*
%TO.P,U7,2,REFOUT*%
%TO.N,/DDS/REFOUT*%
X159755000Y-86037500D03*
%TO.P,U7,3,COMP*%
%TO.N,/DDS/COMP*%
X159105000Y-86037500D03*
%TO.P,U7,4,AVDD*%
%TO.N,+5V*%
X158455000Y-86037500D03*
%TO.P,U7,5,DVDD*%
%TO.N,+3V3*%
X157805000Y-86037500D03*
%TO.P,U7,6,CAP/2.5V*%
%TO.N,/DDS/CAP2V5*%
X157155000Y-86037500D03*
%TO.P,U7,7,DGND*%
%TO.N,GND*%
X156505000Y-86037500D03*
%TO.P,U7,8,MCLK*%
%TO.N,/DDS/MCLK*%
X155855000Y-86037500D03*
%TO.P,U7,9,FSELECT*%
%TO.N,/DDS/FSELECT*%
X155205000Y-86037500D03*
%TO.P,U7,10,PSELECT*%
%TO.N,/DDS/PSELECT*%
X154555000Y-86037500D03*
%TO.P,U7,11,RESET*%
%TO.N,/DDS/RESET*%
X154555000Y-91762500D03*
%TO.P,U7,12,SLEEP*%
%TO.N,/DDS/SLEEP*%
X155205000Y-91762500D03*
%TO.P,U7,13,SDATA*%
%TO.N,/DDS/SDATA*%
X155855000Y-91762500D03*
%TO.P,U7,14,SCLK*%
%TO.N,/DDS/SCLK*%
X156505000Y-91762500D03*
%TO.P,U7,15,~{FSYNC}*%
%TO.N,/DDS/FSYNC*%
X157155000Y-91762500D03*
%TO.P,U7,16,SIGNBITOUT*%
%TO.N,/DDS/SIGNBITOUT*%
X157805000Y-91762500D03*
%TO.P,U7,17,VIN*%
%TO.N,/DDS/DDS-VIN*%
X158455000Y-91762500D03*
%TO.P,U7,18,AGND*%
%TO.N,GND*%
X159105000Y-91762500D03*
%TO.P,U7,19,IOUT*%
%TO.N,/DDS/IOUT*%
X159755000Y-91762500D03*
%TO.P,U7,20,IOUTB*%
%TO.N,/DDS/IOUTB*%
X160405000Y-91762500D03*
%TD*%
D15*
%TO.P,TP4,1,1*%
%TO.N,-5V8*%
X96200000Y-92800000D03*
%TD*%
D14*
%TO.P,TP14,1,1*%
%TO.N,GND*%
X98400000Y-105000000D03*
%TD*%
D34*
%TO.P,D2,1,K*%
%TO.N,Net-(C17-Pad1)*%
X117300000Y-100375000D03*
%TO.P,D2,2,A*%
%TO.N,GND*%
X117300000Y-97025000D03*
%TD*%
D19*
%TO.P,C20,1*%
%TO.N,/Output_Stage/ELLIP-IN*%
X135350000Y-110500000D03*
%TO.P,C20,2*%
%TO.N,Net-(C20-Pad2)*%
X133850000Y-110500000D03*
%TD*%
D11*
%TO.P,R15,1*%
%TO.N,/Output_Stage/LIN-PHASE-OUT*%
X109000000Y-118650000D03*
%TO.P,R15,2*%
%TO.N,GND*%
X109000000Y-120150000D03*
%TD*%
D12*
%TO.P,R10,1*%
%TO.N,GND*%
X92850000Y-110800000D03*
%TO.P,R10,2*%
%TO.N,Net-(R10-Pad2)*%
X94350000Y-110800000D03*
%TD*%
D21*
%TO.P,POT1,1*%
%TO.N,Net-(POT1-Pad1)*%
X137300000Y-86000000D03*
%TO.P,POT1,2*%
%TO.N,GND*%
X132300000Y-86000000D03*
%TO.P,POT1,3*%
%TO.N,Net-(POT1-Pad1)*%
X134800000Y-96000000D03*
%TD*%
D25*
%TO.P,L3,1,1*%
%TO.N,Net-(C20-Pad2)*%
X128950000Y-107800000D03*
%TO.P,L3,2,2*%
%TO.N,Net-(C21-Pad2)*%
X126650000Y-107800000D03*
%TD*%
D19*
%TO.P,C16,1*%
%TO.N,GND*%
X126141000Y-91365000D03*
%TO.P,C16,2*%
%TO.N,+5V*%
X124641000Y-91365000D03*
%TD*%
D35*
%TO.P,J1,1,Pin_1*%
%TO.N,/VIN*%
X111010000Y-70700000D03*
D36*
X111010000Y-75700000D03*
D35*
%TO.P,J1,2,Pin_2*%
%TO.N,GND*%
X103390000Y-70700000D03*
X103390000Y-75700000D03*
%TD*%
D19*
%TO.P,C29,1*%
%TO.N,-5V*%
X91850000Y-119400000D03*
%TO.P,C29,2*%
%TO.N,GND*%
X90350000Y-119400000D03*
%TD*%
D12*
%TO.P,C9,1*%
%TO.N,-5V8*%
X93050000Y-88399000D03*
%TO.P,C9,2*%
%TO.N,GND*%
X94550000Y-88399000D03*
%TD*%
D14*
%TO.P,TP21,1,1*%
%TO.N,VDD-MCLK*%
X150000000Y-80800000D03*
%TD*%
%TO.P,TP22,1,1*%
%TO.N,/DDS/IOUT*%
X158500000Y-97900000D03*
%TD*%
D10*
%TO.P,C25,1*%
%TO.N,Net-(C20-Pad2)*%
X131200000Y-109250000D03*
%TO.P,C25,2*%
%TO.N,GND*%
X131200000Y-107750000D03*
%TD*%
D19*
%TO.P,R8,1*%
%TO.N,/RT{slash}SYNC*%
X95250000Y-82500000D03*
%TO.P,R8,2*%
%TO.N,-5V8*%
X93750000Y-82500000D03*
%TD*%
D37*
%TO.P,Q1,1,B*%
%TO.N,/DDS/IOUTB*%
X162000000Y-99050000D03*
%TO.P,Q1,2,E*%
%TO.N,Net-(Q1-Pad2)*%
X162000000Y-100350000D03*
%TO.P,Q1,3,C*%
%TO.N,+5V*%
X163600000Y-99700000D03*
%TD*%
D38*
%TO.P,C46,1*%
%TO.N,GND*%
X154525000Y-106800000D03*
%TO.P,C46,2*%
%TO.N,Net-(C46-Pad2)*%
X155475000Y-106800000D03*
%TD*%
D19*
%TO.P,R25,1*%
%TO.N,Net-(C46-Pad2)*%
X155350000Y-105200000D03*
%TO.P,R25,2*%
%TO.N,GND*%
X153850000Y-105200000D03*
%TD*%
D10*
%TO.P,C24,1*%
%TO.N,/Output_Stage/ELLIP-IN*%
X138000000Y-109250000D03*
%TO.P,C24,2*%
%TO.N,GND*%
X138000000Y-107750000D03*
%TD*%
%TO.P,C28,1*%
%TO.N,/Output_Stage/ELLIP-OUT*%
X110600000Y-109550000D03*
%TO.P,C28,2*%
%TO.N,GND*%
X110600000Y-108050000D03*
%TD*%
D30*
%TO.P,C1,1*%
%TO.N,/VIN*%
X119000000Y-81210000D03*
%TO.P,C1,2*%
%TO.N,GND*%
X119000000Y-83210000D03*
%TD*%
D14*
%TO.P,TP11,1,1*%
%TO.N,/Output_Stage/FILT-OUT*%
X94900000Y-117900000D03*
%TD*%
D19*
%TO.P,C42,1*%
%TO.N,GND*%
X161350000Y-116800000D03*
%TO.P,C42,2*%
%TO.N,+5V*%
X159850000Y-116800000D03*
%TD*%
D39*
%TO.P,C10,1*%
%TO.N,-5V8*%
X93200000Y-90400000D03*
%TO.P,C10,2*%
%TO.N,GND*%
X95200000Y-90400000D03*
%TD*%
D14*
%TO.P,TP18,1,1*%
%TO.N,Net-(C38-Pad1)*%
X159800000Y-107600000D03*
%TD*%
D10*
%TO.P,C48,1*%
%TO.N,+5V*%
X165200000Y-99350000D03*
%TO.P,C48,2*%
%TO.N,GND*%
X165200000Y-97850000D03*
%TD*%
D14*
%TO.P,TP23,1,1*%
%TO.N,Net-(C46-Pad2)*%
X156100000Y-108200000D03*
%TD*%
D19*
%TO.P,C43,1*%
%TO.N,/DDS/IOUT*%
X158550000Y-94500000D03*
%TO.P,C43,2*%
%TO.N,GND*%
X157050000Y-94500000D03*
%TD*%
D12*
%TO.P,C15,1*%
%TO.N,+5V*%
X124641000Y-89460000D03*
%TO.P,C15,2*%
%TO.N,GND*%
X126141000Y-89460000D03*
%TD*%
D40*
%TO.P,C34,1*%
%TO.N,+3V3*%
X156800000Y-80700000D03*
%TO.P,C34,2*%
%TO.N,GND*%
X154800000Y-80700000D03*
%TD*%
D41*
%TO.P,U1,1,VIN*%
%TO.N,+5V*%
X135600000Y-79850000D03*
%TO.P,U1,2,GND*%
%TO.N,GND*%
X135600000Y-80800000D03*
%TO.P,U1,3,EN*%
%TO.N,+5V*%
X135600000Y-81750000D03*
%TO.P,U1,4,NC*%
%TO.N,unconnected-(U1-Pad4)*%
X138400000Y-81750000D03*
%TO.P,U1,5,VOUT*%
%TO.N,+3V3*%
X138400000Y-79850000D03*
%TD*%
D12*
%TO.P,R22,1*%
%TO.N,/DDS/IOUTB*%
X161850000Y-96300000D03*
%TO.P,R22,2*%
%TO.N,GND*%
X163350000Y-96300000D03*
%TD*%
%TO.P,R20,1*%
%TO.N,/DDS/FILT-IN*%
X153850000Y-117400000D03*
%TO.P,R20,2*%
%TO.N,Net-(C38-Pad2)*%
X155350000Y-117400000D03*
%TD*%
D10*
%TO.P,C12,1*%
%TO.N,/LX*%
X90600000Y-87550000D03*
%TO.P,C12,2*%
%TO.N,/BST*%
X90600000Y-86050000D03*
%TD*%
D14*
%TO.P,TP8,1,1*%
%TO.N,Net-(C17-Pad1)*%
X121200000Y-98600000D03*
%TD*%
D15*
%TO.P,TP3,1,1*%
%TO.N,GND*%
X102400000Y-95400000D03*
%TD*%
D20*
%TO.P,J2,1,In*%
%TO.N,/DDS/SIGNBITOUT*%
X147066000Y-90805000D03*
D21*
%TO.P,J2,2,GND*%
%TO.N,GND*%
X144526000Y-93345000D03*
X149606000Y-93345000D03*
X149606000Y-88265000D03*
X144526000Y-88265000D03*
%TD*%
D42*
%TO.P,C3,1*%
%TO.N,+5V*%
X128400000Y-80500000D03*
%TO.P,C3,2*%
%TO.N,GND*%
X128400000Y-78500000D03*
%TD*%
D14*
%TO.P,TP16,1,1*%
%TO.N,GND*%
X115200000Y-96400000D03*
%TD*%
D43*
%TO.P,C18,1*%
%TO.N,Net-(C17-Pad1)*%
X110400000Y-100400000D03*
%TO.P,C18,2*%
%TO.N,/Output_Stage/FILTER-SW-OUT*%
X104800000Y-100400000D03*
%TD*%
D10*
%TO.P,C13,1*%
%TO.N,/SS*%
X98800000Y-82750000D03*
%TO.P,C13,2*%
%TO.N,-5V8*%
X98800000Y-81250000D03*
%TD*%
%TO.P,C49,1*%
%TO.N,GND*%
X150800000Y-102150000D03*
%TO.P,C49,2*%
%TO.N,-5V*%
X150800000Y-100650000D03*
%TD*%
D15*
%TO.P,TP5,1,1*%
%TO.N,-5V*%
X108000000Y-91700000D03*
%TD*%
D14*
%TO.P,TP29,1,1*%
%TO.N,GND*%
X151900000Y-113000000D03*
%TD*%
D19*
%TO.P,C23,1*%
%TO.N,Net-(C22-Pad2)*%
X114850000Y-110500000D03*
%TO.P,C23,2*%
%TO.N,/Output_Stage/ELLIP-OUT*%
X113350000Y-110500000D03*
%TD*%
%TO.P,R11,1*%
%TO.N,Net-(R10-Pad2)*%
X94350000Y-112600000D03*
%TO.P,R11,2*%
%TO.N,Net-(R11-Pad2)*%
X92850000Y-112600000D03*
%TD*%
%TO.P,R26,1*%
%TO.N,Net-(Q2-Pad2)*%
X155150000Y-99800000D03*
%TO.P,R26,2*%
%TO.N,-5V*%
X153650000Y-99800000D03*
%TD*%
D10*
%TO.P,C27,1*%
%TO.N,Net-(C22-Pad2)*%
X117600000Y-109250000D03*
%TO.P,C27,2*%
%TO.N,GND*%
X117600000Y-107750000D03*
%TD*%
D12*
%TO.P,C47,1*%
%TO.N,+5V*%
X157450000Y-102400000D03*
%TO.P,C47,2*%
%TO.N,GND*%
X158950000Y-102400000D03*
%TD*%
D19*
%TO.P,C39,1*%
%TO.N,/DDS/COMP*%
X160950000Y-81400000D03*
%TO.P,C39,2*%
%TO.N,+5V*%
X159450000Y-81400000D03*
%TD*%
%TO.P,R1,1*%
%TO.N,+5V*%
X125750000Y-82800000D03*
%TO.P,R1,2*%
%TO.N,/PG*%
X124250000Y-82800000D03*
%TD*%
D30*
%TO.P,C6,1*%
%TO.N,/VIN*%
X99400000Y-87400000D03*
%TO.P,C6,2*%
%TO.N,GND*%
X99400000Y-89400000D03*
%TD*%
D39*
%TO.P,C37,1*%
%TO.N,+5V*%
X159600000Y-79400000D03*
%TO.P,C37,2*%
%TO.N,GND*%
X161600000Y-79400000D03*
%TD*%
D25*
%TO.P,L2,1,1*%
%TO.N,/Output_Stage/ELLIP-IN*%
X135750000Y-107800000D03*
%TO.P,L2,2,2*%
%TO.N,Net-(C20-Pad2)*%
X133450000Y-107800000D03*
%TD*%
%TO.P,L6,1,1*%
%TO.N,/Output_Stage/LIN-PHASE-IN*%
X134550000Y-118600000D03*
%TO.P,L6,2,2*%
%TO.N,Net-(C31-Pad1)*%
X132250000Y-118600000D03*
%TD*%
%TO.P,L4,1,1*%
%TO.N,Net-(C21-Pad2)*%
X122150000Y-107800000D03*
%TO.P,L4,2,2*%
%TO.N,Net-(C22-Pad2)*%
X119850000Y-107800000D03*
%TD*%
D10*
%TO.P,R16,1*%
%TO.N,Net-(C38-Pad2)*%
X161000000Y-113150000D03*
%TO.P,R16,2*%
%TO.N,Net-(C38-Pad1)*%
X161000000Y-111650000D03*
%TD*%
D14*
%TO.P,TP15,1,1*%
%TO.N,GND*%
X85800000Y-120300000D03*
%TD*%
%TO.P,TP20,1,1*%
%TO.N,/DDS/FILT-IN*%
X151800000Y-117400000D03*
%TD*%
%TO.P,TP12,1,1*%
%TO.N,GND*%
X89700000Y-121700000D03*
%TD*%
D19*
%TO.P,R23,1*%
%TO.N,/DDS/MCLK*%
X153350000Y-84200000D03*
%TO.P,R23,2*%
%TO.N,Net-(R23-Pad2)*%
X151850000Y-84200000D03*
%TD*%
%TO.P,C22,1*%
%TO.N,Net-(C21-Pad2)*%
X121750000Y-110500000D03*
%TO.P,C22,2*%
%TO.N,Net-(C22-Pad2)*%
X120250000Y-110500000D03*
%TD*%
D44*
%TO.P,U5,1,VDD*%
%TO.N,+5V*%
X123110000Y-89300000D03*
%TO.P,U5,2,VIN*%
%TO.N,/Output_Stage/FILT-SWITCH*%
X121840000Y-89300000D03*
%TO.P,U5,3,EN*%
%TO.N,/Output_Stage/FILT-EN*%
X120570000Y-89300000D03*
%TO.P,U5,4,GND*%
%TO.N,GND*%
X119300000Y-89300000D03*
%TO.P,U5,5,GND*%
X119300000Y-94700000D03*
%TO.P,U5,6,OUT*%
%TO.N,Net-(C17-Pad1)*%
X120570000Y-94700000D03*
%TO.P,U5,7,OUT*%
X121840000Y-94700000D03*
%TO.P,U5,8,VDD*%
%TO.N,+5V*%
X123110000Y-94700000D03*
%TD*%
D11*
%TO.P,C2,1*%
%TO.N,/VIN*%
X121000000Y-81250000D03*
%TO.P,C2,2*%
%TO.N,GND*%
X121000000Y-82750000D03*
%TD*%
%TO.P,C33,1*%
%TO.N,/Output_Stage/LIN-PHASE-OUT*%
X112500000Y-118650000D03*
%TO.P,C33,2*%
%TO.N,GND*%
X112500000Y-120150000D03*
%TD*%
%TO.P,C40,1*%
%TO.N,GND*%
X152900000Y-87850000D03*
%TO.P,C40,2*%
%TO.N,/DDS/CAP2V5*%
X152900000Y-89350000D03*
%TD*%
D13*
%TO.P,K1,1*%
%TO.N,/Output_Stage/FILTER-SW-IN*%
X149010000Y-107450000D03*
%TO.P,K1,6*%
%TO.N,GND*%
X149010000Y-120150000D03*
%TO.P,K1,7*%
%TO.N,/DDS/FILT-IN*%
X141390000Y-120150000D03*
%TO.P,K1,10*%
%TO.N,/Output_Stage/LIN-PHASE-IN*%
X141390000Y-112530000D03*
%TO.P,K1,12*%
%TO.N,/Output_Stage/ELLIP-IN*%
X141390000Y-107450000D03*
%TD*%
D12*
%TO.P,R4,1*%
%TO.N,/-5V8-EN*%
X103850000Y-84200000D03*
%TO.P,R4,2*%
%TO.N,/VIN*%
X105350000Y-84200000D03*
%TD*%
D41*
%TO.P,U3,1,GND*%
%TO.N,GND*%
X100600000Y-91450000D03*
%TO.P,U3,2,VIN*%
%TO.N,-5V8*%
X100600000Y-92400000D03*
%TO.P,U3,3,EN*%
X100600000Y-93350000D03*
%TO.P,U3,4,NC*%
%TO.N,unconnected-(U3-Pad4)*%
X103400000Y-93350000D03*
%TO.P,U3,5,VOUT*%
%TO.N,-5V*%
X103400000Y-91450000D03*
%TD*%
D45*
%TO.P,U2,*%
%TO.N,GND*%
X124154000Y-79924000D03*
D23*
%TO.P,U2,1,VOUT*%
%TO.N,+5V*%
X125504000Y-80674000D03*
%TO.P,U2,2,SENSE/ADJ*%
X125504000Y-80174000D03*
%TO.P,U2,3,GND*%
%TO.N,GND*%
X125504000Y-79674000D03*
%TO.P,U2,4,NC*%
%TO.N,unconnected-(U2-Pad4)*%
X125504000Y-79174000D03*
%TO.P,U2,5,EN/UVLO*%
%TO.N,/5V-EN*%
X122804000Y-79174000D03*
%TO.P,U2,6,GND*%
%TO.N,GND*%
X122804000Y-79674000D03*
%TO.P,U2,7,PG*%
%TO.N,/PG*%
X122804000Y-80174000D03*
%TO.P,U2,8,VIN*%
%TO.N,/VIN*%
X122804000Y-80674000D03*
%TD*%
D14*
%TO.P,TP26,1,1*%
%TO.N,GND*%
X152100000Y-97800000D03*
%TD*%
D10*
%TO.P,C14,1*%
%TO.N,/VCC*%
X97000000Y-82750000D03*
%TO.P,C14,2*%
%TO.N,-5V8*%
X97000000Y-81250000D03*
%TD*%
%TO.P,R9,1*%
%TO.N,/FB*%
X93600000Y-93950000D03*
%TO.P,R9,2*%
%TO.N,-5V8*%
X93600000Y-92450000D03*
%TD*%
D46*
%TO.P,J4,1,PIN_1*%
%TO.N,GND*%
X159512000Y-68000000D03*
D47*
%TO.P,J4,2,PIN_2*%
%TO.N,/DDS/SCLK*%
X156972000Y-68000000D03*
%TO.P,J4,3,PIN_3*%
%TO.N,/DDS/RESET*%
X154432000Y-68000000D03*
%TO.P,J4,4,PIN_4*%
%TO.N,/DDS/SDATA*%
X151892000Y-68000000D03*
%TO.P,J4,5,PIN_5*%
%TO.N,/DDS/FSYNC*%
X149352000Y-68000000D03*
%TO.P,J4,6,PIN_6*%
%TO.N,/DDS/SLEEP*%
X146812000Y-68000000D03*
%TO.P,J4,7,PIN_7*%
%TO.N,/DDS/PSELECT*%
X144272000Y-68000000D03*
%TO.P,J4,8,PIN_8*%
%TO.N,/DDS/FSELECT*%
X141732000Y-68000000D03*
%TO.P,J4,9,PIN_9*%
%TO.N,/Output_Stage/FILT-SWITCH*%
X139192000Y-68000000D03*
%TO.P,J4,10,PIN_10*%
%TO.N,/Output_Stage/FILT-EN*%
X136652000Y-68000000D03*
%TD*%
D10*
%TO.P,R18,1*%
%TO.N,Net-(C38-Pad1)*%
X161800000Y-105950000D03*
%TO.P,R18,2*%
%TO.N,Net-(Q1-Pad2)*%
X161800000Y-104450000D03*
%TD*%
D48*
%TO.N,GND*%
X119400000Y-87600000D03*
X158400000Y-93100000D03*
X98400000Y-105000000D03*
X124100000Y-79100000D03*
X90800000Y-120800000D03*
X105600000Y-95000000D03*
X124400000Y-106400000D03*
X143300000Y-120400000D03*
X91100000Y-83650000D03*
X121600000Y-121400000D03*
X160400000Y-101800000D03*
X166300000Y-100550000D03*
X166200000Y-107600000D03*
X117600000Y-106400000D03*
X137200000Y-121400000D03*
X127200000Y-88200000D03*
X124100000Y-80700000D03*
X85800000Y-120300000D03*
X109000000Y-121400000D03*
X138000000Y-106400000D03*
X110600000Y-106700000D03*
X96150000Y-89100000D03*
X131200000Y-106400000D03*
X91100000Y-84700000D03*
X95900000Y-88100000D03*
X124000000Y-75700000D03*
X155700000Y-96300000D03*
X88500000Y-110700000D03*
X128400000Y-77100000D03*
X112500000Y-121400000D03*
X153300000Y-106600000D03*
X108400000Y-106700000D03*
X152500000Y-105800000D03*
X97600000Y-118500000D03*
X90300000Y-92600000D03*
X142000000Y-105000000D03*
X97000000Y-109400000D03*
X127300000Y-92500000D03*
X129000000Y-121400000D03*
X155700000Y-71400000D03*
X161600000Y-77800000D03*
X155700000Y-94500000D03*
X156500000Y-84600000D03*
X165700000Y-96600000D03*
X136600000Y-77200000D03*
X101200000Y-90500000D03*
X122400000Y-83400000D03*
X102400000Y-95400000D03*
X152000000Y-86600000D03*
X119300000Y-96100000D03*
X117300000Y-95700000D03*
X164900000Y-87400000D03*
X162700000Y-116800000D03*
X161800000Y-83200000D03*
X152100000Y-103300000D03*
X167100000Y-103400000D03*
X101000000Y-89400000D03*
X168200000Y-97800000D03*
X157200000Y-120800000D03*
X97300000Y-90100000D03*
X140200000Y-82700000D03*
X152100000Y-97800000D03*
X135300000Y-70200000D03*
X153100000Y-113600000D03*
X124100000Y-79900000D03*
X143000000Y-70100000D03*
X147600000Y-84200000D03*
X158800000Y-88800000D03*
X141500000Y-109400000D03*
X133100000Y-82500000D03*
X144200000Y-83400000D03*
X115200000Y-96400000D03*
X103700000Y-82600000D03*
X164700000Y-96100000D03*
X134500000Y-80800000D03*
X153400000Y-80700000D03*
X137600000Y-96000000D03*
X117400000Y-83200000D03*
X91500000Y-110600000D03*
X164700000Y-94488000D03*
X154300000Y-82800000D03*
X151900000Y-113000000D03*
X111300000Y-92900000D03*
X96600000Y-90900000D03*
X89700000Y-121700000D03*
%TO.N,+5V*%
X138200000Y-94900000D03*
X164700000Y-100700000D03*
X90000000Y-113700000D03*
X159000000Y-100800000D03*
X128700000Y-98000000D03*
X158500000Y-116400000D03*
X138900000Y-95600000D03*
%TO.N,-5V*%
X111900000Y-91700000D03*
X164900000Y-102450000D03*
X154200000Y-109300000D03*
X101100000Y-104900000D03*
X152300000Y-100500000D03*
X110800000Y-91700000D03*
X93400000Y-119200000D03*
%TO.N,-5V8*%
X94000000Y-85500000D03*
X94000000Y-84700000D03*
X94000000Y-86300000D03*
%TO.N,/DDS/SCLK*%
X158200000Y-71200000D03*
X157000000Y-89400000D03*
%TO.N,/DDS/RESET*%
X153000000Y-72600000D03*
X153600000Y-91600000D03*
%TO.N,/DDS/SDATA*%
X153000000Y-71200000D03*
X155600000Y-90100000D03*
%TO.N,/DDS/FSYNC*%
X158000000Y-89700000D03*
X150800000Y-70200000D03*
%TO.N,/DDS/SLEEP*%
X152800000Y-90800000D03*
X145400000Y-72900000D03*
%TO.N,/DDS/PSELECT*%
X153600000Y-85700000D03*
X145400000Y-70200000D03*
%TO.N,/DDS/FSELECT*%
X143000000Y-71300000D03*
X154700000Y-87600000D03*
%TO.N,/Output_Stage/FILT-EN*%
X121100000Y-87100000D03*
X134000000Y-70100000D03*
%TO.N,/Output_Stage/FILT-SWITCH*%
X138000000Y-70400000D03*
X121800000Y-87800000D03*
%TO.N,Net-(POT1-Pad1)*%
X164800000Y-86000000D03*
%TO.N,/PG*%
X120800000Y-80000000D03*
X122900000Y-82400000D03*
%TO.N,/FB*%
X91700000Y-92600000D03*
X92000000Y-83000000D03*
%TD*%
D49*
%TO.N,/VIN*%
X111010000Y-70700000D02*
X111010000Y-75700000D01*
X105350000Y-84200000D02*
X105350000Y-85650000D01*
X105350000Y-85650000D02*
X103600000Y-87400000D01*
X105350000Y-81000000D02*
X105350000Y-84200000D01*
X103600000Y-87400000D02*
X99400000Y-87400000D01*
X105350000Y-81000000D02*
X110650000Y-75700000D01*
X99250000Y-87250000D02*
X97400000Y-87250000D01*
X111010000Y-75700000D02*
X111010000Y-77110000D01*
X99400000Y-87400000D02*
X99250000Y-87250000D01*
X110650000Y-75700000D02*
X111010000Y-75700000D01*
X115150000Y-81250000D02*
X121000000Y-81250000D01*
X111010000Y-77110000D02*
X115150000Y-81250000D01*
D50*
%TO.N,GND*%
X117400000Y-83200000D02*
X117410000Y-83210000D01*
X140200000Y-81350000D02*
X140200000Y-82700000D01*
X96600000Y-90900000D02*
X96100000Y-90400000D01*
D51*
X124000000Y-75700000D02*
X123950000Y-75650000D01*
D50*
X131200000Y-107750000D02*
X131200000Y-106400000D01*
X96100000Y-90400000D02*
X95200000Y-90400000D01*
X153100000Y-105200000D02*
X153850000Y-105200000D01*
X157050000Y-94500000D02*
X155700000Y-94500000D01*
D51*
X90300000Y-92600000D02*
X90300000Y-93950000D01*
X91100000Y-84700000D02*
X91650000Y-85250000D01*
D50*
X121000000Y-82800000D02*
X121000000Y-82750000D01*
X160400000Y-101800000D02*
X159800000Y-102400000D01*
X161785000Y-83185000D02*
X160516000Y-83185000D01*
X97050000Y-89100000D02*
X97400000Y-88750000D01*
X154300000Y-82800000D02*
X154500000Y-83000000D01*
D51*
X159105000Y-92486396D02*
X159105000Y-91762500D01*
D50*
X90800000Y-120800000D02*
X90350000Y-120350000D01*
X122400000Y-83400000D02*
X121600000Y-83400000D01*
D51*
X125504000Y-79674000D02*
X124404000Y-79674000D01*
D50*
X154500000Y-83000000D02*
X155650000Y-83000000D01*
X129000000Y-120150000D02*
X129000000Y-121400000D01*
X163650000Y-88200000D02*
X164100000Y-88200000D01*
X88500000Y-110700000D02*
X89650000Y-111850000D01*
X117300000Y-97025000D02*
X117300000Y-95700000D01*
X137200000Y-120150000D02*
X137200000Y-121400000D01*
X150800000Y-102150000D02*
X150950000Y-102150000D01*
X159800000Y-102400000D02*
X159150000Y-102400000D01*
X128400000Y-78500000D02*
X128400000Y-77100000D01*
X101000000Y-89400000D02*
X99400000Y-89400000D01*
X153900000Y-112800000D02*
X153900000Y-112250000D01*
D51*
X123950000Y-75650000D02*
X122600000Y-75650000D01*
D50*
X90350000Y-120350000D02*
X90350000Y-119400000D01*
X98250000Y-91050000D02*
X98600000Y-91050000D01*
X164500000Y-96300000D02*
X163350000Y-96300000D01*
D51*
X158491396Y-93100000D02*
X159105000Y-92486396D01*
D50*
X148675000Y-84225000D02*
X147625000Y-84225000D01*
X161800000Y-83200000D02*
X161785000Y-83185000D01*
X119300000Y-87700000D02*
X119400000Y-87600000D01*
X108400000Y-108050000D02*
X108400000Y-106700000D01*
X110600000Y-108050000D02*
X110600000Y-106700000D01*
D51*
X90300000Y-93950000D02*
X90250000Y-94000000D01*
D50*
X86950000Y-79450000D02*
X91100000Y-83600000D01*
D51*
X158400000Y-93100000D02*
X158491396Y-93100000D01*
D50*
X95900000Y-88100000D02*
X94849000Y-88100000D01*
X103650000Y-82650000D02*
X103700000Y-82600000D01*
X102200000Y-82650000D02*
X103650000Y-82650000D01*
X89650000Y-111850000D02*
X89650000Y-112100000D01*
D52*
X123904000Y-79674000D02*
X124154000Y-79924000D01*
D50*
X133100000Y-81150000D02*
X133100000Y-82500000D01*
X119300000Y-94700000D02*
X119300000Y-96100000D01*
X153500000Y-106800000D02*
X154525000Y-106800000D01*
X96150000Y-89100000D02*
X97050000Y-89100000D01*
X119300000Y-89300000D02*
X119300000Y-87700000D01*
X109000000Y-120150000D02*
X109000000Y-121400000D01*
X101200000Y-90850000D02*
X100600000Y-91450000D01*
X147625000Y-84225000D02*
X147600000Y-84200000D01*
X165700000Y-96600000D02*
X165200000Y-97100000D01*
X121600000Y-120150000D02*
X121600000Y-121400000D01*
X105600000Y-93800000D02*
X105600000Y-95000000D01*
X157050000Y-96300000D02*
X155700000Y-96300000D01*
X152500000Y-105800000D02*
X153100000Y-105200000D01*
X153100000Y-113600000D02*
X153900000Y-112800000D01*
X117410000Y-83210000D02*
X119000000Y-83210000D01*
X164100000Y-88200000D02*
X164900000Y-87400000D01*
X164700000Y-96100000D02*
X164500000Y-96300000D01*
D51*
X156505000Y-84605000D02*
X156500000Y-84600000D01*
D50*
X97300000Y-90100000D02*
X98250000Y-91050000D01*
X91500000Y-110600000D02*
X91700000Y-110800000D01*
D51*
X91650000Y-85250000D02*
X92465000Y-85250000D01*
D50*
X91700000Y-110800000D02*
X92850000Y-110800000D01*
X127300000Y-92500000D02*
X126165000Y-91365000D01*
X112500000Y-120150000D02*
X112500000Y-121400000D01*
X153300000Y-106600000D02*
X153500000Y-106800000D01*
D51*
X152000000Y-86600000D02*
X152900000Y-87500000D01*
D50*
X163350000Y-94488000D02*
X164700000Y-94488000D01*
X138000000Y-107750000D02*
X138000000Y-106400000D01*
X83200000Y-79450000D02*
X86950000Y-79450000D01*
X161350000Y-116800000D02*
X162700000Y-116800000D01*
D51*
X124404000Y-79674000D02*
X124154000Y-79924000D01*
D50*
X91100000Y-83650000D02*
X91100000Y-84700000D01*
X154800000Y-80700000D02*
X153400000Y-80700000D01*
X167850000Y-102650000D02*
X167100000Y-103400000D01*
X126141000Y-89259000D02*
X126141000Y-89460000D01*
D52*
X122804000Y-79674000D02*
X123904000Y-79674000D01*
D51*
X156505000Y-86037500D02*
X156505000Y-84605000D01*
D50*
X127200000Y-88200000D02*
X126141000Y-89259000D01*
X94849000Y-88100000D02*
X94550000Y-88399000D01*
X121600000Y-83400000D02*
X121000000Y-82800000D01*
X91100000Y-83600000D02*
X91100000Y-83650000D01*
X167850000Y-102000000D02*
X167850000Y-102650000D01*
D51*
X152900000Y-87500000D02*
X152900000Y-87850000D01*
D50*
X117600000Y-107750000D02*
X117600000Y-106400000D01*
X165200000Y-97100000D02*
X165200000Y-97850000D01*
X135600000Y-80800000D02*
X134500000Y-80800000D01*
X101200000Y-90500000D02*
X101200000Y-90850000D01*
X161600000Y-79400000D02*
X161600000Y-77800000D01*
X150950000Y-102150000D02*
X152100000Y-103300000D01*
X126165000Y-91365000D02*
X126141000Y-91365000D01*
X124400000Y-107750000D02*
X124400000Y-106400000D01*
D49*
%TO.N,+5V*%
X130050000Y-86750000D02*
X130000000Y-86700000D01*
D50*
X158030000Y-115930000D02*
X158500000Y-116400000D01*
X159000000Y-100800000D02*
X157400000Y-100800000D01*
X163600000Y-99700000D02*
X164850000Y-99700000D01*
D51*
X136800000Y-81400000D02*
X136800000Y-80200000D01*
D49*
X138900000Y-95600000D02*
X137500000Y-94200000D01*
X123200000Y-92806000D02*
X124641000Y-91365000D01*
X159600000Y-79400000D02*
X159450000Y-79550000D01*
D50*
X125504000Y-80504000D02*
X125504000Y-80324000D01*
X164850000Y-99700000D02*
X165200000Y-99350000D01*
D49*
X159450000Y-81400000D02*
X159016000Y-81834000D01*
X159016000Y-81834000D02*
X159016000Y-83185000D01*
D50*
X133200000Y-79650000D02*
X135400000Y-79650000D01*
X128000000Y-80568000D02*
X125568000Y-80568000D01*
X163600000Y-99700000D02*
X163700000Y-99700000D01*
D51*
X125504000Y-82754000D02*
X125550000Y-82800000D01*
D50*
X130632000Y-80568000D02*
X128000000Y-80568000D01*
X163700000Y-99700000D02*
X164700000Y-100700000D01*
D49*
X123200000Y-94700000D02*
X123200000Y-92806000D01*
D50*
X158900000Y-116800000D02*
X159850000Y-116800000D01*
X157400000Y-100800000D02*
X157400000Y-102350000D01*
D51*
X136800000Y-80200000D02*
X136450000Y-79850000D01*
X135600000Y-81750000D02*
X135959828Y-81750000D01*
D50*
X90645000Y-113700000D02*
X90000000Y-113700000D01*
D49*
X156200000Y-74400000D02*
X134600000Y-74400000D01*
D50*
X158030000Y-115007000D02*
X158030000Y-115930000D01*
D49*
X159600000Y-77800000D02*
X156200000Y-74400000D01*
D50*
X91150000Y-113195000D02*
X91150000Y-112100000D01*
X130800000Y-80200000D02*
X131350000Y-79650000D01*
X157400000Y-102350000D02*
X157450000Y-102400000D01*
D49*
X123200000Y-88700000D02*
X130800000Y-81100000D01*
D51*
X135959828Y-81750000D02*
X136109828Y-81600000D01*
D49*
X124641000Y-91365000D02*
X125000000Y-91724000D01*
D50*
X130050000Y-81850000D02*
X130800000Y-81100000D01*
X158500000Y-116400000D02*
X158900000Y-116800000D01*
D49*
X136500000Y-94200000D02*
X130050000Y-87750000D01*
X130000000Y-81900000D02*
X130050000Y-81850000D01*
X130800000Y-78200000D02*
X130800000Y-80200000D01*
X159450000Y-79550000D02*
X159450000Y-81400000D01*
X125000000Y-91724000D02*
X125000000Y-97025000D01*
D51*
X136450000Y-79850000D02*
X135600000Y-79850000D01*
D49*
X130800000Y-81100000D02*
X130800000Y-80200000D01*
X124641000Y-89460000D02*
X123270000Y-89460000D01*
X130050000Y-87750000D02*
X130050000Y-86750000D01*
X130000000Y-96700000D02*
X130000000Y-86800000D01*
D51*
X125504000Y-80674000D02*
X125504000Y-82754000D01*
X136109828Y-81600000D02*
X136600000Y-81600000D01*
D49*
X128700000Y-98000000D02*
X130000000Y-96700000D01*
D50*
X91550000Y-114605000D02*
X90645000Y-113700000D01*
D49*
X137500000Y-94200000D02*
X136500000Y-94200000D01*
X134600000Y-74400000D02*
X130800000Y-78200000D01*
D51*
X136600000Y-81600000D02*
X136800000Y-81400000D01*
D50*
X90645000Y-113700000D02*
X91150000Y-113195000D01*
D49*
X159600000Y-79400000D02*
X159600000Y-77800000D01*
D50*
X135400000Y-79650000D02*
X135600000Y-79850000D01*
D49*
X130000000Y-86700000D02*
X130000000Y-81900000D01*
D50*
X131350000Y-79650000D02*
X133200000Y-79650000D01*
D49*
X124641000Y-91365000D02*
X124641000Y-89460000D01*
D50*
X125568000Y-80568000D02*
X125504000Y-80504000D01*
D49*
X123200000Y-89300000D02*
X123200000Y-88700000D01*
X130000000Y-86800000D02*
X130050000Y-86750000D01*
%TO.N,+3V3*%
X143950000Y-77850000D02*
X142400000Y-79400000D01*
X155050000Y-77850000D02*
X156800000Y-79600000D01*
X157150000Y-81050000D02*
X157150000Y-83000000D01*
X156800000Y-80700000D02*
X157150000Y-81050000D01*
D50*
X141950000Y-79850000D02*
X142400000Y-79400000D01*
D49*
X149800000Y-77850000D02*
X155050000Y-77850000D01*
D50*
X138400000Y-79850000D02*
X141950000Y-79850000D01*
D49*
X149800000Y-77850000D02*
X143950000Y-77850000D01*
X156800000Y-79600000D02*
X156800000Y-80700000D01*
D50*
%TO.N,-5V*%
X103400000Y-91450000D02*
X105250000Y-91450000D01*
X152300000Y-100500000D02*
X152150000Y-100650000D01*
D49*
X108000000Y-91600000D02*
X107800000Y-91800000D01*
D50*
X152150000Y-100650000D02*
X150800000Y-100650000D01*
X163450000Y-102000000D02*
X164450000Y-102000000D01*
X92500000Y-118300000D02*
X93400000Y-119200000D01*
D49*
X108000000Y-91700000D02*
X111900000Y-91700000D01*
X107800000Y-91800000D02*
X105600000Y-91800000D01*
D50*
X92500000Y-118300000D02*
X92500000Y-118750000D01*
X164450000Y-102000000D02*
X164900000Y-102450000D01*
D49*
X102400000Y-97900000D02*
X101100000Y-99200000D01*
X108000000Y-91600000D02*
X108000000Y-95500000D01*
X101100000Y-99200000D02*
X101100000Y-104900000D01*
D50*
X165350000Y-102000000D02*
X164900000Y-102450000D01*
X154700000Y-109800000D02*
X154200000Y-109300000D01*
X153900000Y-110600000D02*
X153900000Y-110750000D01*
D49*
X105600000Y-97900000D02*
X102400000Y-97900000D01*
D50*
X153000000Y-99800000D02*
X152300000Y-100500000D01*
X92500000Y-118750000D02*
X91850000Y-119400000D01*
X92500000Y-117225000D02*
X92500000Y-118300000D01*
X153650000Y-99800000D02*
X153000000Y-99800000D01*
X105250000Y-91450000D02*
X105600000Y-91800000D01*
X166350000Y-102000000D02*
X165350000Y-102000000D01*
D49*
X108000000Y-95500000D02*
X105600000Y-97900000D01*
D50*
X155490000Y-109800000D02*
X154700000Y-109800000D01*
X154700000Y-109800000D02*
X153900000Y-110600000D01*
D53*
%TO.N,-5V8*%
X93050000Y-91900000D02*
X93050000Y-88399000D01*
X96200000Y-92800000D02*
X95850000Y-92450000D01*
D54*
X93250000Y-86800000D02*
X92465000Y-86800000D01*
D50*
X92465000Y-87814000D02*
X93050000Y-88399000D01*
D53*
X98600000Y-92550000D02*
X96450000Y-92550000D01*
X100600000Y-92400000D02*
X98750000Y-92400000D01*
D50*
X94250000Y-81250000D02*
X93750000Y-81750000D01*
D51*
X93250000Y-84750000D02*
X92465000Y-84750000D01*
D50*
X100600000Y-93350000D02*
X100600000Y-92400000D01*
D53*
X95850000Y-92450000D02*
X93600000Y-92450000D01*
D50*
X93750000Y-84450000D02*
X93750000Y-82500000D01*
D51*
X94000000Y-85500000D02*
X93250000Y-84750000D01*
D54*
X93450000Y-86600000D02*
X93250000Y-86800000D01*
D53*
X98750000Y-92400000D02*
X98600000Y-92550000D01*
X93600000Y-92450000D02*
X93050000Y-91900000D01*
D50*
X92465000Y-87814000D02*
X92465000Y-86950000D01*
X93750000Y-81750000D02*
X93750000Y-82500000D01*
X98800000Y-81250000D02*
X94250000Y-81250000D01*
D53*
X96450000Y-92550000D02*
X96200000Y-92800000D01*
D49*
%TO.N,/LX*%
X83200000Y-89350000D02*
X88800000Y-89350000D01*
D51*
X91900000Y-86250000D02*
X90600000Y-87550000D01*
X92465000Y-86250000D02*
X91900000Y-86250000D01*
D49*
X88800000Y-89350000D02*
X90600000Y-87550000D01*
D51*
%TO.N,/BST*%
X92465000Y-85750000D02*
X90900000Y-85750000D01*
X90900000Y-85750000D02*
X90600000Y-86050000D01*
%TO.N,/SS*%
X98800000Y-83850000D02*
X98800000Y-82750000D01*
X97400000Y-85250000D02*
X98800000Y-83850000D01*
X95425000Y-85250000D02*
X97400000Y-85250000D01*
%TO.N,/VCC*%
X96250000Y-84750000D02*
X97000000Y-84000000D01*
X97000000Y-84000000D02*
X97000000Y-82750000D01*
X95425000Y-84750000D02*
X96250000Y-84750000D01*
D49*
%TO.N,Net-(C17-Pad1)*%
X141800000Y-100400000D02*
X110400000Y-100400000D01*
D50*
X120570000Y-95470000D02*
X120570000Y-94700000D01*
D49*
X121200000Y-96100000D02*
X121200000Y-98600000D01*
D50*
X121200000Y-96100000D02*
X120570000Y-95470000D01*
D49*
X121200000Y-98600000D02*
X121200000Y-100200000D01*
D50*
X121840000Y-95460000D02*
X121840000Y-94700000D01*
X121200000Y-96100000D02*
X121840000Y-95460000D01*
D49*
%TO.N,/Output_Stage/FILTER-SW-IN*%
X147400000Y-100400000D02*
X147400000Y-104000000D01*
X149010000Y-105610000D02*
X149010000Y-107450000D01*
X148400000Y-105000000D02*
X149010000Y-105610000D01*
X147400000Y-104000000D02*
X148400000Y-105000000D01*
%TO.N,/Output_Stage/FILTER-SW-OUT*%
X104800000Y-100400000D02*
X104800000Y-107440000D01*
X104800000Y-107440000D02*
X104810000Y-107450000D01*
D50*
%TO.N,/Output_Stage/ELLIP-IN*%
X139590000Y-109250000D02*
X141390000Y-107450000D01*
X135750000Y-110100000D02*
X135750000Y-109250000D01*
X138000000Y-109250000D02*
X135750000Y-109250000D01*
X135750000Y-109250000D02*
X135750000Y-107800000D01*
X135350000Y-110500000D02*
X135750000Y-110100000D01*
X138000000Y-109250000D02*
X139590000Y-109250000D01*
%TO.N,Net-(C20-Pad2)*%
X128950000Y-109250000D02*
X128950000Y-110100000D01*
X133450000Y-109250000D02*
X133450000Y-107800000D01*
X133850000Y-110500000D02*
X133450000Y-110100000D01*
X131200000Y-109250000D02*
X133450000Y-109250000D01*
X133450000Y-110100000D02*
X133450000Y-109250000D01*
X128950000Y-110100000D02*
X128550000Y-110500000D01*
X128950000Y-107800000D02*
X128950000Y-109250000D01*
X131200000Y-109250000D02*
X128950000Y-109250000D01*
%TO.N,Net-(C21-Pad2)*%
X126650000Y-109250000D02*
X126650000Y-110100000D01*
X126650000Y-107800000D02*
X126650000Y-109250000D01*
X122150000Y-109250000D02*
X122150000Y-110100000D01*
X126650000Y-110100000D02*
X127050000Y-110500000D01*
X124400000Y-109250000D02*
X122150000Y-109250000D01*
X122150000Y-110100000D02*
X121750000Y-110500000D01*
X124400000Y-109250000D02*
X126650000Y-109250000D01*
X122150000Y-107800000D02*
X122150000Y-109250000D01*
%TO.N,Net-(C22-Pad2)*%
X119850000Y-107800000D02*
X119850000Y-109250000D01*
X119850000Y-109250000D02*
X119850000Y-110100000D01*
X117600000Y-109250000D02*
X119850000Y-109250000D01*
X119850000Y-110100000D02*
X120250000Y-110500000D01*
X115250000Y-107800000D02*
X115250000Y-109250000D01*
X117600000Y-109250000D02*
X115250000Y-109250000D01*
X115250000Y-110100000D02*
X114850000Y-110500000D01*
X115250000Y-109250000D02*
X115250000Y-110100000D01*
%TO.N,/Output_Stage/ELLIP-OUT*%
X110600000Y-109550000D02*
X108400000Y-109550000D01*
X108400000Y-109550000D02*
X107650000Y-110300000D01*
X112950000Y-107800000D02*
X112950000Y-109450000D01*
X100040000Y-110300000D02*
X97190000Y-107450000D01*
X110600000Y-109550000D02*
X112850000Y-109550000D01*
X112950000Y-110100000D02*
X113350000Y-110500000D01*
X112850000Y-109550000D02*
X112950000Y-109450000D01*
X107650000Y-110300000D02*
X100040000Y-110300000D01*
X112950000Y-109450000D02*
X112950000Y-110100000D01*
%TO.N,/Output_Stage/LIN-PHASE-IN*%
X141390000Y-112530000D02*
X141390000Y-114460000D01*
X134800000Y-118650000D02*
X134550000Y-118400000D01*
X137200000Y-118650000D02*
X134800000Y-118650000D01*
X141390000Y-114460000D02*
X137200000Y-118650000D01*
%TO.N,Net-(C31-Pad1)*%
X126200000Y-118650000D02*
X126150000Y-118700000D01*
X132250000Y-118400000D02*
X132000000Y-118650000D01*
X129000000Y-118650000D02*
X126200000Y-118650000D01*
X132000000Y-118650000D02*
X129000000Y-118650000D01*
%TO.N,Net-(C32-Pad1)*%
X124650000Y-118700000D02*
X121650000Y-118700000D01*
X121650000Y-118700000D02*
X121600000Y-118650000D01*
X118200000Y-118650000D02*
X118150000Y-118600000D01*
X121600000Y-118650000D02*
X118200000Y-118650000D01*
%TO.N,/Output_Stage/LIN-PHASE-OUT*%
X109000000Y-118650000D02*
X106950000Y-116600000D01*
X115850000Y-118600000D02*
X112550000Y-118600000D01*
X101260000Y-116600000D02*
X97190000Y-112530000D01*
X112550000Y-118600000D02*
X112500000Y-118650000D01*
X112500000Y-118650000D02*
X109000000Y-118650000D01*
X106950000Y-116600000D02*
X101260000Y-116600000D01*
%TO.N,Net-(C38-Pad1)*%
X162325000Y-111650000D02*
X162600000Y-111925000D01*
X158030000Y-109370000D02*
X158030000Y-109800000D01*
X161450000Y-105950000D02*
X158030000Y-109370000D01*
X161000000Y-111650000D02*
X162325000Y-111650000D01*
X158030000Y-110122651D02*
X159557349Y-111650000D01*
X159557349Y-111650000D02*
X161000000Y-111650000D01*
X161800000Y-105950000D02*
X161450000Y-105950000D01*
X158030000Y-109800000D02*
X158030000Y-110122651D01*
%TO.N,Net-(C38-Pad2)*%
X161000000Y-113150000D02*
X162325000Y-113150000D01*
X156760000Y-114684349D02*
X156760000Y-115007000D01*
X161000000Y-113150000D02*
X158294349Y-113150000D01*
X156760000Y-115007000D02*
X156760000Y-115990000D01*
X162325000Y-113150000D02*
X162600000Y-112875000D01*
X158294349Y-113150000D02*
X156760000Y-114684349D01*
X156760000Y-115990000D02*
X155350000Y-117400000D01*
D51*
%TO.N,/DDS/COMP*%
X159105000Y-86037500D02*
X159105000Y-85313604D01*
X161600000Y-81400000D02*
X160950000Y-81400000D01*
X161900000Y-84400000D02*
X162600000Y-83700000D01*
X162600000Y-83700000D02*
X162600000Y-82400000D01*
X159105000Y-85313604D02*
X160018604Y-84400000D01*
X160018604Y-84400000D02*
X161900000Y-84400000D01*
X162600000Y-82400000D02*
X161600000Y-81400000D01*
%TO.N,/DDS/CAP2V5*%
X157155000Y-86037500D02*
X157155000Y-87045000D01*
X154850000Y-89350000D02*
X152900000Y-89350000D01*
X157155000Y-87045000D02*
X154850000Y-89350000D01*
%TO.N,/DDS/REFOUT*%
X159755000Y-87355000D02*
X160600000Y-88200000D01*
X159755000Y-86037500D02*
X159755000Y-87355000D01*
X160600000Y-88200000D02*
X162050000Y-88200000D01*
D50*
%TO.N,/DDS/IOUT*%
X158550000Y-96200000D02*
X158550000Y-98700000D01*
X158550000Y-94500000D02*
X158550000Y-96300000D01*
X158550000Y-98700000D02*
X158050000Y-99200000D01*
%TO.N,/DDS/IOUTB*%
X161850000Y-94400000D02*
X161850000Y-98900000D01*
X161850000Y-98900000D02*
X162000000Y-99050000D01*
%TO.N,Net-(C46-Pad2)*%
X155200000Y-103350000D02*
X155350000Y-103500000D01*
X155350000Y-103500000D02*
X155350000Y-105200000D01*
X155475000Y-107575000D02*
X156100000Y-108200000D01*
X155475000Y-106800000D02*
X155475000Y-107575000D01*
X155350000Y-105200000D02*
X155475000Y-105325000D01*
X156760000Y-108860000D02*
X156760000Y-109800000D01*
X156100000Y-108200000D02*
X156760000Y-108860000D01*
X155475000Y-105325000D02*
X155475000Y-106800000D01*
D49*
%TO.N,VDD-MCLK*%
X150125000Y-80925000D02*
X150125000Y-82375000D01*
X149800000Y-80600000D02*
X150000000Y-80800000D01*
X149800000Y-79350000D02*
X149800000Y-80600000D01*
X150000000Y-80800000D02*
X150125000Y-80925000D01*
D55*
%TO.N,/DDS/SIGNBITOUT*%
X150305000Y-90805000D02*
X147066000Y-90805000D01*
X152700000Y-93200000D02*
X150305000Y-90805000D01*
X157300000Y-93200000D02*
X152700000Y-93200000D01*
X157730000Y-92770000D02*
X157300000Y-93200000D01*
X157805000Y-91762500D02*
X157730000Y-91837500D01*
X157730000Y-91837500D02*
X157730000Y-92770000D01*
%TO.N,/DDS/DDS-VIN*%
X169800000Y-90170000D02*
X159030000Y-90170000D01*
X159030000Y-90170000D02*
X158455000Y-90745000D01*
X158455000Y-90745000D02*
X158455000Y-91762500D01*
D51*
%TO.N,/DDS/SCLK*%
X156505000Y-89895000D02*
X157000000Y-89400000D01*
X156505000Y-91762500D02*
X156505000Y-89895000D01*
X156972000Y-69972000D02*
X156972000Y-68000000D01*
X158200000Y-71200000D02*
X156972000Y-69972000D01*
%TO.N,/DDS/RESET*%
X153600000Y-91600000D02*
X154392500Y-91600000D01*
X154432000Y-68000000D02*
X154432000Y-71168000D01*
X154432000Y-71168000D02*
X153000000Y-72600000D01*
X154392500Y-91600000D02*
X154555000Y-91762500D01*
%TO.N,/DDS/SDATA*%
X155600000Y-90100000D02*
X155855000Y-90355000D01*
X153000000Y-71200000D02*
X151892000Y-70092000D01*
X151892000Y-70092000D02*
X151892000Y-68000000D01*
X155855000Y-90355000D02*
X155855000Y-91762500D01*
%TO.N,/DDS/FSYNC*%
X157900000Y-89700000D02*
X157155000Y-90445000D01*
X158000000Y-89700000D02*
X157900000Y-89700000D01*
X149352000Y-68000000D02*
X149352000Y-68752000D01*
X149352000Y-68752000D02*
X150800000Y-70200000D01*
X157155000Y-90445000D02*
X157155000Y-91762500D01*
%TO.N,/DDS/SLEEP*%
X154600000Y-90400000D02*
X155205000Y-91005000D01*
X152800000Y-90800000D02*
X153200000Y-90400000D01*
X153200000Y-90400000D02*
X154600000Y-90400000D01*
X155205000Y-91005000D02*
X155205000Y-91762500D01*
X145400000Y-72900000D02*
X146812000Y-71488000D01*
X146812000Y-71488000D02*
X146812000Y-68000000D01*
%TO.N,/DDS/PSELECT*%
X154517500Y-86000000D02*
X154555000Y-86037500D01*
X144272000Y-69072000D02*
X145400000Y-70200000D01*
X153600000Y-85700000D02*
X153900000Y-86000000D01*
X153900000Y-86000000D02*
X154517500Y-86000000D01*
X144272000Y-68000000D02*
X144272000Y-69072000D01*
%TO.N,/DDS/FSELECT*%
X154700000Y-87600000D02*
X155205000Y-87095000D01*
X143000000Y-71300000D02*
X141732000Y-70032000D01*
X155205000Y-87095000D02*
X155205000Y-86037500D01*
X141732000Y-70032000D02*
X141732000Y-68000000D01*
%TO.N,/Output_Stage/FILT-EN*%
X136100000Y-68000000D02*
X136652000Y-68000000D01*
X134000000Y-70100000D02*
X136100000Y-68000000D01*
X121100000Y-87100000D02*
X120570000Y-87630000D01*
X120570000Y-87630000D02*
X120570000Y-89300000D01*
%TO.N,/Output_Stage/FILT-SWITCH*%
X121800000Y-87800000D02*
X121800000Y-89260000D01*
X121800000Y-89260000D02*
X121840000Y-89300000D01*
X139192000Y-69208000D02*
X138000000Y-70400000D01*
X139192000Y-68000000D02*
X139192000Y-69208000D01*
D55*
%TO.N,/Output_Stage/OUT*%
X83400000Y-111700000D02*
X85900000Y-114200000D01*
X83400000Y-107600000D02*
X83400000Y-111700000D01*
D50*
%TO.N,/DDS/FILT-IN*%
X153850000Y-117400000D02*
X144140000Y-117400000D01*
X144140000Y-117400000D02*
X141390000Y-120150000D01*
%TO.N,/Output_Stage/FILT-OUT*%
X97190000Y-120150000D02*
X94265000Y-117225000D01*
X94265000Y-117225000D02*
X93450000Y-117225000D01*
D51*
%TO.N,Net-(POT1-Pad1)*%
X165350000Y-84600000D02*
X165350000Y-85450000D01*
X165350000Y-85450000D02*
X164800000Y-86000000D01*
D50*
%TO.N,Net-(Q1-Pad2)*%
X161800000Y-102150000D02*
X161950000Y-102000000D01*
X161950000Y-100400000D02*
X162000000Y-100350000D01*
X161800000Y-104450000D02*
X161800000Y-102150000D01*
X161950000Y-102000000D02*
X161950000Y-100400000D01*
%TO.N,Net-(Q2-Pad2)*%
X155750000Y-99200000D02*
X155150000Y-99800000D01*
X156750000Y-99200000D02*
X155750000Y-99200000D01*
X155150000Y-99800000D02*
X155150000Y-101800000D01*
X155150000Y-101800000D02*
X155200000Y-101850000D01*
D51*
%TO.N,/PG*%
X122900000Y-82400000D02*
X123300000Y-82800000D01*
X120800000Y-80000000D02*
X120974000Y-80174000D01*
X123300000Y-82800000D02*
X124250000Y-82800000D01*
X120974000Y-80174000D02*
X122804000Y-80174000D01*
%TO.N,/5V-EN*%
X122804000Y-77354000D02*
X122804000Y-79174000D01*
X122600000Y-77150000D02*
X122804000Y-77354000D01*
X117000000Y-79650000D02*
X119500000Y-77150000D01*
X119500000Y-77150000D02*
X122600000Y-77150000D01*
%TO.N,/-5V8-EN*%
X102200000Y-84150000D02*
X103800000Y-84150000D01*
X103800000Y-84150000D02*
X103850000Y-84200000D01*
X102200000Y-84150000D02*
X102200000Y-85000000D01*
X103850000Y-84200000D02*
X103800000Y-84200000D01*
X102200000Y-85000000D02*
X100950000Y-86250000D01*
X100950000Y-86250000D02*
X95425000Y-86250000D01*
%TO.N,/FB*%
X92465000Y-83465000D02*
X92465000Y-84250000D01*
X91750000Y-92650000D02*
X91750000Y-94000000D01*
X91800000Y-93950000D02*
X91750000Y-94000000D01*
X92000000Y-83000000D02*
X92465000Y-83465000D01*
X91700000Y-92600000D02*
X91750000Y-92650000D01*
X93600000Y-93950000D02*
X91800000Y-93950000D01*
%TO.N,/RESET*%
X101400000Y-81000000D02*
X100600000Y-81800000D01*
X103850000Y-81000000D02*
X101400000Y-81000000D01*
X100600000Y-84100000D02*
X98950000Y-85750000D01*
X98950000Y-85750000D02*
X95425000Y-85750000D01*
X100600000Y-81800000D02*
X100600000Y-84100000D01*
%TO.N,/RT{slash}SYNC*%
X95425000Y-82675000D02*
X95425000Y-84250000D01*
X95250000Y-82500000D02*
X95425000Y-82675000D01*
%TO.N,Net-(R10-Pad2)*%
X94350000Y-113705000D02*
X93450000Y-114605000D01*
X94350000Y-110800000D02*
X94350000Y-113705000D01*
D55*
%TO.N,Net-(R11-Pad2)*%
X89225000Y-117225000D02*
X87850000Y-115850000D01*
X91550000Y-116250000D02*
X92500000Y-115300000D01*
X91550000Y-117225000D02*
X89225000Y-117225000D01*
X91550000Y-117225000D02*
X91550000Y-116250000D01*
X92500000Y-115300000D02*
X92500000Y-112950000D01*
X92500000Y-112950000D02*
X92850000Y-112600000D01*
D51*
%TO.N,/DDS/FS-ADJUST*%
X161042500Y-85400000D02*
X160405000Y-86037500D01*
X163050000Y-85400000D02*
X161042500Y-85400000D01*
X163850000Y-84600000D02*
X163050000Y-85400000D01*
%TO.N,/DDS/MCLK*%
X155855000Y-85313604D02*
X154741396Y-84200000D01*
X154741396Y-84200000D02*
X153350000Y-84200000D01*
X155855000Y-86037500D02*
X155855000Y-85313604D01*
%TO.N,Net-(R23-Pad2)*%
X150150000Y-84200000D02*
X150125000Y-84225000D01*
X151850000Y-84200000D02*
X150150000Y-84200000D01*
%TD*%
%TA.AperFunction,Conductor*%
%TO.N,+3V3*%
G36*
X157442121Y-83020002D02*
G01*
X157488614Y-83073658D01*
X157500000Y-83125999D01*
X157499999Y-84000002D01*
X157505168Y-84011890D01*
X157989551Y-85125967D01*
X158000000Y-85176207D01*
X157999999Y-85474001D01*
X157979997Y-85542122D01*
X157926341Y-85588615D01*
X157873999Y-85600001D01*
X157725999Y-85600001D01*
X157657879Y-85579999D01*
X157611386Y-85526343D01*
X157600000Y-85474001D01*
X157600000Y-85300000D01*
X157167883Y-84684869D01*
X157155176Y-84662078D01*
X156868943Y-83994199D01*
X156858996Y-83952355D01*
X156808288Y-83133790D01*
X156824040Y-83064563D01*
X156874718Y-83014842D01*
X156934047Y-83000000D01*
X157374000Y-83000000D01*
X157442121Y-83020002D01*
G37*
%TD.AperFunction*%
%TD*%
%TA.AperFunction,Conductor*%
%TO.N,+5V*%
G36*
X159342121Y-82720002D02*
G01*
X159388614Y-82773658D01*
X159400000Y-82826000D01*
X159400000Y-83559622D01*
X159376530Y-83632858D01*
X158900000Y-84300000D01*
X158750000Y-84850000D01*
X158749575Y-84852127D01*
X158620258Y-85498711D01*
X158587285Y-85561586D01*
X158525553Y-85596653D01*
X158496705Y-85600000D01*
X158376000Y-85600000D01*
X158307879Y-85579998D01*
X158261386Y-85526342D01*
X158250000Y-85474000D01*
X158250000Y-84333007D01*
X158266181Y-84271234D01*
X158692044Y-83514145D01*
X158692044Y-83514143D01*
X158700000Y-83500000D01*
X158700000Y-82826000D01*
X158720002Y-82757879D01*
X158773658Y-82711386D01*
X158826000Y-82700000D01*
X159274000Y-82700000D01*
X159342121Y-82720002D01*
G37*
%TD.AperFunction*%
%TD*%
%TA.AperFunction,Conductor*%
%TO.N,/DDS/IOUTB*%
G36*
X160585648Y-91914352D02*
G01*
X160600000Y-91949000D01*
X160600000Y-92350000D01*
X160606212Y-92356777D01*
X162237121Y-94135950D01*
X162250000Y-94169061D01*
X162250000Y-94601000D01*
X162235648Y-94635648D01*
X162201000Y-94650000D01*
X161499000Y-94650000D01*
X161464352Y-94635648D01*
X161450000Y-94601000D01*
X161450000Y-94150000D01*
X160258969Y-92462706D01*
X160250000Y-92434449D01*
X160250000Y-91949000D01*
X160264352Y-91914352D01*
X160299000Y-91900000D01*
X160551000Y-91900000D01*
X160585648Y-91914352D01*
G37*
%TD.AperFunction*%
%TD*%
%TA.AperFunction,Conductor*%
%TO.N,/Output_Stage/OUT*%
G36*
X86430610Y-113724488D02*
G01*
X86832667Y-114046134D01*
X86850757Y-114078986D01*
X86840320Y-114115007D01*
X86819263Y-114130276D01*
X86590219Y-114216168D01*
X86109127Y-114396577D01*
X86109126Y-114396578D01*
X86100000Y-114400000D01*
X86100731Y-114406581D01*
X86100731Y-114406583D01*
X86186936Y-115182427D01*
X86176499Y-115218448D01*
X86143647Y-115236538D01*
X86107626Y-115226101D01*
X86098060Y-115218448D01*
X85721856Y-114917485D01*
X85703766Y-114884633D01*
X85703958Y-114872292D01*
X85770851Y-114404044D01*
X85797690Y-114216167D01*
X85811550Y-114188450D01*
X85898077Y-114101923D01*
X85902115Y-114098308D01*
X86369390Y-113724488D01*
X86405411Y-113714051D01*
X86430610Y-113724488D01*
G37*
%TD.AperFunction*%
%TD*%
%TA.AperFunction,Conductor*%
%TO.N,Net-(R11-Pad2)*%
G36*
X87633581Y-114704919D02*
G01*
X87978723Y-114982866D01*
X87996708Y-115015775D01*
X87996612Y-115027107D01*
X87902085Y-115783319D01*
X87888111Y-115811889D01*
X87804265Y-115895735D01*
X87794828Y-115903103D01*
X87335840Y-116178496D01*
X87329355Y-116182387D01*
X87292261Y-116187907D01*
X87273365Y-116178496D01*
X87107837Y-116044859D01*
X86933440Y-115904062D01*
X86915497Y-115871131D01*
X86926095Y-115835157D01*
X86948573Y-115819502D01*
X87600000Y-115600000D01*
X87553919Y-114745722D01*
X87566384Y-114710351D01*
X87600209Y-114694154D01*
X87633581Y-114704919D01*
G37*
%TD.AperFunction*%
%TD*%
%TA.AperFunction,Conductor*%
%TO.N,/VIN*%
G36*
X95819380Y-86605814D02*
G01*
X96752577Y-86885773D01*
X96800000Y-86900000D01*
X97674000Y-86900000D01*
X97742121Y-86920002D01*
X97788614Y-86973658D01*
X97800000Y-87026000D01*
X97800000Y-87474000D01*
X97779998Y-87542121D01*
X97726342Y-87588614D01*
X97674000Y-87600000D01*
X96431767Y-87600000D01*
X96372030Y-87584939D01*
X95166263Y-86935680D01*
X95115768Y-86885773D01*
X95100000Y-86824741D01*
X95100000Y-86726500D01*
X95120002Y-86658379D01*
X95173658Y-86611886D01*
X95226000Y-86600500D01*
X95783174Y-86600500D01*
X95819380Y-86605814D01*
G37*
%TD.AperFunction*%
%TD*%
%TA.AperFunction,Conductor*%
%TO.N,/DDS/IOUT*%
G36*
X159935648Y-91864352D02*
G01*
X159950000Y-91899000D01*
X159950000Y-92389750D01*
X159945892Y-92409390D01*
X158912845Y-94770640D01*
X158885809Y-94796631D01*
X158867953Y-94800000D01*
X158279284Y-94800000D01*
X158244636Y-94785648D01*
X158230284Y-94751000D01*
X158235457Y-94729087D01*
X158548870Y-94102260D01*
X158551358Y-94097866D01*
X159596247Y-92455898D01*
X159596247Y-92455897D01*
X159600000Y-92450000D01*
X159600000Y-91899000D01*
X159614352Y-91864352D01*
X159649000Y-91850000D01*
X159901000Y-91850000D01*
X159935648Y-91864352D01*
G37*
%TD.AperFunction*%
%TD*%
%TA.AperFunction,Conductor*%
%TO.N,/VIN*%
G36*
X123085648Y-80544352D02*
G01*
X123100000Y-80579000D01*
X123100000Y-80781131D01*
X123085648Y-80815779D01*
X123074749Y-80823990D01*
X121842348Y-81506807D01*
X121631080Y-81623861D01*
X121607333Y-81630000D01*
X121049000Y-81630000D01*
X121014352Y-81615648D01*
X121000000Y-81581000D01*
X121000000Y-80919000D01*
X121014352Y-80884352D01*
X121049000Y-80870000D01*
X121330000Y-80870000D01*
X122422931Y-80532185D01*
X122437401Y-80530000D01*
X123051000Y-80530000D01*
X123085648Y-80544352D01*
G37*
%TD.AperFunction*%
%TD*%
M02*
