%FSLAX45Y45*%
G04 Gerber Fmt 4.5, Leading zero omitted, Abs format (unit mm)*
G04 Created by KiCad (PCBNEW (6.0.6)) date 2023-01-28 17:16:56*
%MOMM*%
%LPD*%
G01*
G04 APERTURE LIST*
%TA.AperFunction,Profile*%
%ADD10C,0.200000*%
%TD*%
%ADD11C,0.200000*%
%ADD12C,0.386080*%
G04 APERTURE END LIST*
D10*
X17550000Y-12000000D02*
X17550000Y-6950000D01*
X17550000Y-6950000D02*
G75*
G03*
X17150000Y-6550000I-400000J0D01*
G01*
X7350000Y-12000000D02*
G75*
G03*
X7750000Y-12400000I400000J0D01*
G01*
X7750000Y-6550000D02*
G75*
G03*
X7350000Y-6950000I0J-400000D01*
G01*
X7750000Y-12400000D02*
X17150000Y-12400000D01*
X7750000Y-6550000D02*
X17150000Y-6550000D01*
X7350000Y-12000000D02*
X7350000Y-6950000D01*
X17150000Y-12400000D02*
G75*
G03*
X17550000Y-12000000I0J400000D01*
G01*
D11*
D12*
X7556960Y-6756960D02*
X7943040Y-7143040D01*
X7943040Y-6756960D02*
X7556960Y-7143040D01*
X7556960Y-11806960D02*
X7943040Y-12193040D01*
X7943040Y-11806960D02*
X7556960Y-12193040D01*
X16956960Y-6756960D02*
X17343040Y-7143040D01*
X17343040Y-6756960D02*
X16956960Y-7143040D01*
X16956960Y-11806960D02*
X17343040Y-12193040D01*
X17343040Y-11806960D02*
X16956960Y-12193040D01*
D11*
X7597619Y-12720476D02*
X7597619Y-12520476D01*
X7645238Y-12520476D01*
X7673809Y-12530000D01*
X7692857Y-12549048D01*
X7702381Y-12568095D01*
X7711905Y-12606190D01*
X7711905Y-12634762D01*
X7702381Y-12672857D01*
X7692857Y-12691905D01*
X7673809Y-12710952D01*
X7645238Y-12720476D01*
X7597619Y-12720476D01*
X7797619Y-12720476D02*
X7797619Y-12587143D01*
X7797619Y-12625238D02*
X7807143Y-12606190D01*
X7816667Y-12596667D01*
X7835714Y-12587143D01*
X7854762Y-12587143D01*
X7921428Y-12720476D02*
X7921428Y-12587143D01*
X7921428Y-12520476D02*
X7911905Y-12530000D01*
X7921428Y-12539524D01*
X7930952Y-12530000D01*
X7921428Y-12520476D01*
X7921428Y-12539524D01*
X8045238Y-12720476D02*
X8026190Y-12710952D01*
X8016667Y-12691905D01*
X8016667Y-12520476D01*
X8150000Y-12720476D02*
X8130952Y-12710952D01*
X8121428Y-12691905D01*
X8121428Y-12520476D01*
X8378571Y-12720476D02*
X8378571Y-12520476D01*
X8445238Y-12663333D01*
X8511905Y-12520476D01*
X8511905Y-12720476D01*
X8692857Y-12720476D02*
X8692857Y-12615714D01*
X8683333Y-12596667D01*
X8664286Y-12587143D01*
X8626190Y-12587143D01*
X8607143Y-12596667D01*
X8692857Y-12710952D02*
X8673810Y-12720476D01*
X8626190Y-12720476D01*
X8607143Y-12710952D01*
X8597619Y-12691905D01*
X8597619Y-12672857D01*
X8607143Y-12653809D01*
X8626190Y-12644286D01*
X8673810Y-12644286D01*
X8692857Y-12634762D01*
X8788095Y-12587143D02*
X8788095Y-12787143D01*
X8788095Y-12596667D02*
X8807143Y-12587143D01*
X8845238Y-12587143D01*
X8864286Y-12596667D01*
X8873810Y-12606190D01*
X8883333Y-12625238D01*
X8883333Y-12682381D01*
X8873810Y-12701428D01*
X8864286Y-12710952D01*
X8845238Y-12720476D01*
X8807143Y-12720476D01*
X8788095Y-12710952D01*
X8969048Y-12701428D02*
X8978571Y-12710952D01*
X8969048Y-12720476D01*
X8959524Y-12710952D01*
X8969048Y-12701428D01*
X8969048Y-12720476D01*
X8969048Y-12596667D02*
X8978571Y-12606190D01*
X8969048Y-12615714D01*
X8959524Y-12606190D01*
X8969048Y-12596667D01*
X8969048Y-12615714D01*
X7140000Y-12950000D02*
X7340000Y-13150000D01*
X7340000Y-12950000D02*
X7140000Y-13150000D01*
X7578571Y-12940476D02*
X7702381Y-12940476D01*
X7635714Y-13016667D01*
X7664286Y-13016667D01*
X7683333Y-13026190D01*
X7692857Y-13035714D01*
X7702381Y-13054762D01*
X7702381Y-13102381D01*
X7692857Y-13121428D01*
X7683333Y-13130952D01*
X7664286Y-13140476D01*
X7607143Y-13140476D01*
X7588095Y-13130952D01*
X7578571Y-13121428D01*
X7788095Y-13121428D02*
X7797619Y-13130952D01*
X7788095Y-13140476D01*
X7778571Y-13130952D01*
X7788095Y-13121428D01*
X7788095Y-13140476D01*
X7911905Y-13026190D02*
X7892857Y-13016667D01*
X7883333Y-13007143D01*
X7873809Y-12988095D01*
X7873809Y-12978571D01*
X7883333Y-12959524D01*
X7892857Y-12950000D01*
X7911905Y-12940476D01*
X7950000Y-12940476D01*
X7969048Y-12950000D01*
X7978571Y-12959524D01*
X7988095Y-12978571D01*
X7988095Y-12988095D01*
X7978571Y-13007143D01*
X7969048Y-13016667D01*
X7950000Y-13026190D01*
X7911905Y-13026190D01*
X7892857Y-13035714D01*
X7883333Y-13045238D01*
X7873809Y-13064286D01*
X7873809Y-13102381D01*
X7883333Y-13121428D01*
X7892857Y-13130952D01*
X7911905Y-13140476D01*
X7950000Y-13140476D01*
X7969048Y-13130952D01*
X7978571Y-13121428D01*
X7988095Y-13102381D01*
X7988095Y-13064286D01*
X7978571Y-13045238D01*
X7969048Y-13035714D01*
X7950000Y-13026190D01*
X8159524Y-12940476D02*
X8121428Y-12940476D01*
X8102381Y-12950000D01*
X8092857Y-12959524D01*
X8073809Y-12988095D01*
X8064286Y-13026190D01*
X8064286Y-13102381D01*
X8073809Y-13121428D01*
X8083333Y-13130952D01*
X8102381Y-13140476D01*
X8140476Y-13140476D01*
X8159524Y-13130952D01*
X8169048Y-13121428D01*
X8178571Y-13102381D01*
X8178571Y-13054762D01*
X8169048Y-13035714D01*
X8159524Y-13026190D01*
X8140476Y-13016667D01*
X8102381Y-13016667D01*
X8083333Y-13026190D01*
X8073809Y-13035714D01*
X8064286Y-13054762D01*
X8369048Y-13140476D02*
X8254762Y-13140476D01*
X8311905Y-13140476D02*
X8311905Y-12940476D01*
X8292857Y-12969048D01*
X8273809Y-12988095D01*
X8254762Y-12997619D01*
X8454762Y-13140476D02*
X8454762Y-13007143D01*
X8454762Y-13026190D02*
X8464286Y-13016667D01*
X8483333Y-13007143D01*
X8511905Y-13007143D01*
X8530952Y-13016667D01*
X8540476Y-13035714D01*
X8540476Y-13140476D01*
X8540476Y-13035714D02*
X8550000Y-13016667D01*
X8569048Y-13007143D01*
X8597619Y-13007143D01*
X8616667Y-13016667D01*
X8626190Y-13035714D01*
X8626190Y-13140476D01*
X8721429Y-13140476D02*
X8721429Y-13007143D01*
X8721429Y-13026190D02*
X8730952Y-13016667D01*
X8750000Y-13007143D01*
X8778571Y-13007143D01*
X8797619Y-13016667D01*
X8807143Y-13035714D01*
X8807143Y-13140476D01*
X8807143Y-13035714D02*
X8816667Y-13016667D01*
X8835714Y-13007143D01*
X8864286Y-13007143D01*
X8883333Y-13016667D01*
X8892857Y-13035714D01*
X8892857Y-13140476D01*
X9283333Y-12930952D02*
X9111905Y-13188095D01*
X9540476Y-12940476D02*
X9559524Y-12940476D01*
X9578571Y-12950000D01*
X9588095Y-12959524D01*
X9597619Y-12978571D01*
X9607143Y-13016667D01*
X9607143Y-13064286D01*
X9597619Y-13102381D01*
X9588095Y-13121428D01*
X9578571Y-13130952D01*
X9559524Y-13140476D01*
X9540476Y-13140476D01*
X9521429Y-13130952D01*
X9511905Y-13121428D01*
X9502381Y-13102381D01*
X9492857Y-13064286D01*
X9492857Y-13016667D01*
X9502381Y-12978571D01*
X9511905Y-12959524D01*
X9521429Y-12950000D01*
X9540476Y-12940476D01*
X9692857Y-13121428D02*
X9702381Y-13130952D01*
X9692857Y-13140476D01*
X9683333Y-13130952D01*
X9692857Y-13121428D01*
X9692857Y-13140476D01*
X9892857Y-13140476D02*
X9778571Y-13140476D01*
X9835714Y-13140476D02*
X9835714Y-12940476D01*
X9816667Y-12969048D01*
X9797619Y-12988095D01*
X9778571Y-12997619D01*
X10073810Y-12940476D02*
X9978571Y-12940476D01*
X9969048Y-13035714D01*
X9978571Y-13026190D01*
X9997619Y-13016667D01*
X10045238Y-13016667D01*
X10064286Y-13026190D01*
X10073810Y-13035714D01*
X10083333Y-13054762D01*
X10083333Y-13102381D01*
X10073810Y-13121428D01*
X10064286Y-13130952D01*
X10045238Y-13140476D01*
X9997619Y-13140476D01*
X9978571Y-13130952D01*
X9969048Y-13121428D01*
X10159524Y-12959524D02*
X10169048Y-12950000D01*
X10188095Y-12940476D01*
X10235714Y-12940476D01*
X10254762Y-12950000D01*
X10264286Y-12959524D01*
X10273810Y-12978571D01*
X10273810Y-12997619D01*
X10264286Y-13026190D01*
X10150000Y-13140476D01*
X10273810Y-13140476D01*
X10397619Y-12940476D02*
X10416667Y-12940476D01*
X10435714Y-12950000D01*
X10445238Y-12959524D01*
X10454762Y-12978571D01*
X10464286Y-13016667D01*
X10464286Y-13064286D01*
X10454762Y-13102381D01*
X10445238Y-13121428D01*
X10435714Y-13130952D01*
X10416667Y-13140476D01*
X10397619Y-13140476D01*
X10378571Y-13130952D01*
X10369048Y-13121428D01*
X10359524Y-13102381D01*
X10350000Y-13064286D01*
X10350000Y-13016667D01*
X10359524Y-12978571D01*
X10369048Y-12959524D01*
X10378571Y-12950000D01*
X10397619Y-12940476D01*
X10540476Y-12940476D02*
X10540476Y-12978571D01*
X10616667Y-12940476D02*
X10616667Y-12978571D01*
X10911905Y-13216667D02*
X10902381Y-13207143D01*
X10883333Y-13178571D01*
X10873810Y-13159524D01*
X10864286Y-13130952D01*
X10854762Y-13083333D01*
X10854762Y-13045238D01*
X10864286Y-12997619D01*
X10873810Y-12969048D01*
X10883333Y-12950000D01*
X10902381Y-12921428D01*
X10911905Y-12911905D01*
X11073810Y-13007143D02*
X11073810Y-13140476D01*
X11026190Y-12930952D02*
X10978571Y-13073809D01*
X11102381Y-13073809D01*
X11330952Y-13140476D02*
X11330952Y-12940476D01*
X11416667Y-13140476D02*
X11416667Y-13035714D01*
X11407143Y-13016667D01*
X11388095Y-13007143D01*
X11359524Y-13007143D01*
X11340476Y-13016667D01*
X11330952Y-13026190D01*
X11540476Y-13140476D02*
X11521428Y-13130952D01*
X11511905Y-13121428D01*
X11502381Y-13102381D01*
X11502381Y-13045238D01*
X11511905Y-13026190D01*
X11521428Y-13016667D01*
X11540476Y-13007143D01*
X11569048Y-13007143D01*
X11588095Y-13016667D01*
X11597619Y-13026190D01*
X11607143Y-13045238D01*
X11607143Y-13102381D01*
X11597619Y-13121428D01*
X11588095Y-13130952D01*
X11569048Y-13140476D01*
X11540476Y-13140476D01*
X11721428Y-13140476D02*
X11702381Y-13130952D01*
X11692857Y-13111905D01*
X11692857Y-12940476D01*
X11873809Y-13130952D02*
X11854762Y-13140476D01*
X11816667Y-13140476D01*
X11797619Y-13130952D01*
X11788095Y-13111905D01*
X11788095Y-13035714D01*
X11797619Y-13016667D01*
X11816667Y-13007143D01*
X11854762Y-13007143D01*
X11873809Y-13016667D01*
X11883333Y-13035714D01*
X11883333Y-13054762D01*
X11788095Y-13073809D01*
X11959524Y-13130952D02*
X11978571Y-13140476D01*
X12016667Y-13140476D01*
X12035714Y-13130952D01*
X12045238Y-13111905D01*
X12045238Y-13102381D01*
X12035714Y-13083333D01*
X12016667Y-13073809D01*
X11988095Y-13073809D01*
X11969048Y-13064286D01*
X11959524Y-13045238D01*
X11959524Y-13035714D01*
X11969048Y-13016667D01*
X11988095Y-13007143D01*
X12016667Y-13007143D01*
X12035714Y-13016667D01*
X12111905Y-13216667D02*
X12121428Y-13207143D01*
X12140476Y-13178571D01*
X12150000Y-13159524D01*
X12159524Y-13130952D01*
X12169048Y-13083333D01*
X12169048Y-13045238D01*
X12159524Y-12997619D01*
X12150000Y-12969048D01*
X12140476Y-12950000D01*
X12121428Y-12921428D01*
X12111905Y-12911905D01*
X12473809Y-13216667D02*
X12464286Y-13207143D01*
X12445238Y-13178571D01*
X12435714Y-13159524D01*
X12426190Y-13130952D01*
X12416667Y-13083333D01*
X12416667Y-13045238D01*
X12426190Y-12997619D01*
X12435714Y-12969048D01*
X12445238Y-12950000D01*
X12464286Y-12921428D01*
X12473809Y-12911905D01*
X12550000Y-13007143D02*
X12550000Y-13140476D01*
X12550000Y-13026190D02*
X12559524Y-13016667D01*
X12578571Y-13007143D01*
X12607143Y-13007143D01*
X12626190Y-13016667D01*
X12635714Y-13035714D01*
X12635714Y-13140476D01*
X12759524Y-13140476D02*
X12740476Y-13130952D01*
X12730952Y-13121428D01*
X12721428Y-13102381D01*
X12721428Y-13045238D01*
X12730952Y-13026190D01*
X12740476Y-13016667D01*
X12759524Y-13007143D01*
X12788095Y-13007143D01*
X12807143Y-13016667D01*
X12816667Y-13026190D01*
X12826190Y-13045238D01*
X12826190Y-13102381D01*
X12816667Y-13121428D01*
X12807143Y-13130952D01*
X12788095Y-13140476D01*
X12759524Y-13140476D01*
X12883333Y-13007143D02*
X12959524Y-13007143D01*
X12911905Y-12940476D02*
X12911905Y-13111905D01*
X12921428Y-13130952D01*
X12940476Y-13140476D01*
X12959524Y-13140476D01*
X13178571Y-13007143D02*
X13178571Y-13207143D01*
X13178571Y-13016667D02*
X13197619Y-13007143D01*
X13235714Y-13007143D01*
X13254762Y-13016667D01*
X13264286Y-13026190D01*
X13273809Y-13045238D01*
X13273809Y-13102381D01*
X13264286Y-13121428D01*
X13254762Y-13130952D01*
X13235714Y-13140476D01*
X13197619Y-13140476D01*
X13178571Y-13130952D01*
X13388095Y-13140476D02*
X13369048Y-13130952D01*
X13359524Y-13111905D01*
X13359524Y-12940476D01*
X13550000Y-13140476D02*
X13550000Y-13035714D01*
X13540476Y-13016667D01*
X13521428Y-13007143D01*
X13483333Y-13007143D01*
X13464286Y-13016667D01*
X13550000Y-13130952D02*
X13530952Y-13140476D01*
X13483333Y-13140476D01*
X13464286Y-13130952D01*
X13454762Y-13111905D01*
X13454762Y-13092857D01*
X13464286Y-13073809D01*
X13483333Y-13064286D01*
X13530952Y-13064286D01*
X13550000Y-13054762D01*
X13616667Y-13007143D02*
X13692857Y-13007143D01*
X13645238Y-12940476D02*
X13645238Y-13111905D01*
X13654762Y-13130952D01*
X13673809Y-13140476D01*
X13692857Y-13140476D01*
X13835714Y-13130952D02*
X13816667Y-13140476D01*
X13778571Y-13140476D01*
X13759524Y-13130952D01*
X13750000Y-13111905D01*
X13750000Y-13035714D01*
X13759524Y-13016667D01*
X13778571Y-13007143D01*
X13816667Y-13007143D01*
X13835714Y-13016667D01*
X13845238Y-13035714D01*
X13845238Y-13054762D01*
X13750000Y-13073809D01*
X14016667Y-13140476D02*
X14016667Y-12940476D01*
X14016667Y-13130952D02*
X13997619Y-13140476D01*
X13959524Y-13140476D01*
X13940476Y-13130952D01*
X13930952Y-13121428D01*
X13921428Y-13102381D01*
X13921428Y-13045238D01*
X13930952Y-13026190D01*
X13940476Y-13016667D01*
X13959524Y-13007143D01*
X13997619Y-13007143D01*
X14016667Y-13016667D01*
X14092857Y-13216667D02*
X14102381Y-13207143D01*
X14121428Y-13178571D01*
X14130952Y-13159524D01*
X14140476Y-13130952D01*
X14150000Y-13083333D01*
X14150000Y-13045238D01*
X14140476Y-12997619D01*
X14130952Y-12969048D01*
X14121428Y-12950000D01*
X14102381Y-12921428D01*
X14092857Y-12911905D01*
M02*
